<?xml version="1.0" encoding="UTF-8"?>
<!DOCTYPE svg PUBLIC "-//W3C//DTD SVG 1.1//EN" "http://www.w3.org/Graphics/SVG/1.1/DTD/svg11.dtd">
<svg xmlns="http://www.w3.org/2000/svg" version="1.1" width="530px" height="530px" style="shape-rendering:geometricPrecision; text-rendering:geometricPrecision; image-rendering:optimizeQuality; fill-rule:evenodd; clip-rule:evenodd" xmlns:xlink="http://www.w3.org/1999/xlink">
<g><path style="opacity:0.016" fill="#020202" d="M 69.5,184.5 C 110.501,184.333 151.501,184.5 192.5,185C 202.843,186.844 208.51,193.01 209.5,203.5C 224.356,200.036 238.856,201.036 253,206.5C 262.64,200.689 272.64,200.022 283,204.5C 287.413,203.105 291.913,202.105 296.5,201.5C 302.833,202.833 309.167,202.833 315.5,201.5C 319.044,201.927 322.544,202.594 326,203.5C 333.967,200.725 341.801,201.059 349.5,204.5C 356.636,201.559 363.969,200.892 371.5,202.5C 387.34,201.858 403.173,201.191 419,200.5C 430.175,201.465 441.342,202.465 452.5,203.5C 461.69,200.173 469.857,201.839 477,208.5C 481.298,216.613 483.131,225.28 482.5,234.5C 482.49,267.107 466.656,279.107 435,270.5C 424.593,273.965 414.093,274.298 403.5,271.5C 392.575,273.23 381.575,273.397 370.5,272C 367.511,271.67 364.678,270.836 362,269.5C 357.71,271.525 353.21,272.858 348.5,273.5C 337.469,271.419 326.469,271.419 315.5,273.5C 304.792,272.845 294.126,272.845 283.5,273.5C 277.999,272.791 272.665,271.458 267.5,269.5C 260.252,272.659 252.752,273.326 245,271.5C 233.106,273.437 221.273,273.437 209.5,271.5C 208.868,275.561 207.535,279.394 205.5,283C 205.833,283.5 206.167,284 206.5,284.5C 209.396,284.707 212.396,284.873 215.5,285C 221.924,286.921 228.424,288.421 235,289.5C 240.352,289.506 244.185,287.006 246.5,282C 262.286,271.304 277.12,272.47 291,285.5C 298.213,276.071 307.379,273.571 318.5,278C 321.959,280.082 324.626,282.915 326.5,286.5C 331.785,288.877 337.118,288.711 342.5,286C 348.177,278.01 355.844,275.343 365.5,278C 370.356,280.26 374.689,283.26 378.5,287C 383.372,287.246 388.205,287.746 393,288.5C 395.732,286.567 397.899,284.067 399.5,281C 401.167,280 402.833,279 404.5,278C 414.437,276.36 424.437,275.693 434.5,276C 440.057,278.224 444.39,281.891 447.5,287C 448.833,287.667 450.167,288.333 451.5,289C 473.879,287.046 483.713,297.213 481,319.5C 475.447,336.781 463.78,343.114 446,338.5C 441.419,340.687 436.586,342.021 431.5,342.5C 427.036,341.592 422.536,340.926 418,340.5C 408.068,343.385 397.901,345.052 387.5,345.5C 381.967,344.266 376.467,342.933 371,341.5C 360.232,343.434 349.398,344.767 338.5,345.5C 318.844,344.808 299.177,344.142 279.5,343.5C 266.177,347.441 253.677,345.774 242,338.5C 231.733,340.206 221.566,342.206 211.5,344.5C 204.675,344.171 198.175,342.504 192,339.5C 187.355,341.604 182.522,343.104 177.5,344C 150.609,344.619 123.776,344.452 97,343.5C 90.4745,345.631 83.8078,347.298 77,348.5C 66.7429,347.569 60.0762,342.236 57,332.5C 53.7595,319.602 52.7595,306.602 54,293.5C 55.4445,290.945 56.6112,288.279 57.5,285.5C 54.565,280.195 52.7317,274.528 52,268.5C 51.3333,248.167 51.3333,227.833 52,207.5C 52.5217,195.511 58.3551,187.845 69.5,184.5 Z"/></g>
<g><path style="opacity:0.11" fill="#191919" d="M 216.5,206.5 C 212.562,209.098 208.895,212.098 205.5,215.5C 204.855,209.786 204.022,204.119 203,198.5C 201.01,194.51 197.843,192.01 193.5,191C 153.501,190.5 113.501,190.333 73.5,190.5C 112.706,189.828 152.039,189.161 191.5,188.5C 202.124,191.395 207.124,198.395 206.5,209.5C 209.833,208.5 213.167,207.5 216.5,206.5 Z"/></g>
<g><path style="opacity:0.18" fill="#2b2b2b" d="M 73.5,190.5 C 113.501,190.333 153.501,190.5 193.5,191C 197.843,192.01 201.01,194.51 203,198.5C 204.022,204.119 204.855,209.786 205.5,215.5C 208.895,212.098 212.562,209.098 216.5,206.5C 224.422,207.302 232.422,207.802 240.5,208C 242.101,208.273 243.601,208.773 245,209.5C 247.526,210.501 250.359,211.834 253.5,213.5C 260.47,207.378 268.136,206.044 276.5,209.5C 271.489,209.334 266.489,209.501 261.5,210C 258.397,211.281 255.731,213.114 253.5,215.5C 252.151,215.154 250.817,214.821 249.5,214.5C 246.686,212.857 243.686,211.357 240.5,210C 232.167,209.333 223.833,209.333 215.5,210C 214.619,210.708 213.953,211.542 213.5,212.5C 209.652,213.432 206.986,215.766 205.5,219.5C 203.985,213.836 202.985,208.169 202.5,202.5C 200.959,196.69 197.293,193.356 191.5,192.5C 149.961,191.175 108.294,191.175 66.5,192.5C 68.2857,189.683 70.6191,189.016 73.5,190.5 Z"/></g>
<g><path style="opacity:0.282" fill="#464646" d="M 191.5,192.5 C 151.165,192.333 110.832,192.5 70.5,193C 66.8426,193.837 63.8426,195.67 61.5,198.5C 62.4499,195.885 64.1165,193.885 66.5,192.5C 108.294,191.175 149.961,191.175 191.5,192.5 Z"/></g>
<g><path style="opacity:0.423" fill="#686868" d="M 191.5,192.5 C 197.293,193.356 200.959,196.69 202.5,202.5C 202.831,226.339 202.498,250.006 201.5,273.5C 201.831,249.328 201.498,225.328 200.5,201.5C 198.712,198.385 196.046,196.385 192.5,195.5C 192.389,194.883 192.056,194.383 191.5,194C 151.833,193.333 112.167,193.333 72.5,194C 71.2625,194.232 70.2625,194.732 69.5,195.5C 69.1667,195.5 68.8333,195.5 68.5,195.5C 64.3226,197.016 61.9892,200.016 61.5,204.5C 60.5026,226.327 60.1693,248.327 60.5,270.5C 59.5026,248.673 59.1693,226.673 59.5,204.5C 60.3627,202.579 61.0293,200.579 61.5,198.5C 63.8426,195.67 66.8426,193.837 70.5,193C 110.832,192.5 151.165,192.333 191.5,192.5 Z"/></g>
<g><path style="opacity:0.792" fill="#b9b9b9" d="M 192.5,195.5 C 151.5,195.5 110.5,195.5 69.5,195.5C 70.2625,194.732 71.2625,194.232 72.5,194C 112.167,193.333 151.833,193.333 191.5,194C 192.056,194.383 192.389,194.883 192.5,195.5 Z"/></g>
<g><path style="opacity:1" fill="#fbfafa" d="M 68.5,195.5 C 68.8333,195.5 69.1667,195.5 69.5,195.5C 110.5,195.5 151.5,195.5 192.5,195.5C 196.046,196.385 198.712,198.385 200.5,201.5C 200.667,224.836 200.5,248.169 200,271.5C 198.521,274.828 196.355,277.494 193.5,279.5C 152.499,279.667 111.499,279.5 70.5,279C 68.3716,278.345 66.3716,277.511 64.5,276.5C 63.8333,274.833 63.1667,273.167 62.5,271.5C 62.3334,248.831 62.5,226.164 63,203.5C 64.2433,200.424 66.0767,197.757 68.5,195.5 Z"/></g>
<g><path style="opacity:0.078" fill="#171717" d="M 367.5,206.5 C 364.359,207.321 361.025,207.821 357.5,208C 356.058,208.377 355.058,209.21 354.5,210.5C 350.763,212.227 347.43,211.727 344.5,209C 336.495,208.643 328.495,208.81 320.5,209.5C 317.797,207.89 314.797,206.89 311.5,206.5C 316.255,205.355 321.088,205.688 326,207.5C 333.969,204.725 341.802,205.059 349.5,208.5C 352.581,207.973 355.581,207.14 358.5,206C 361.696,205.195 364.696,205.362 367.5,206.5 Z"/></g>
<g><path style="opacity:0.548" fill="#8b8b8b" d="M 61.5,204.5 C 61.1692,227.006 61.5026,249.34 62.5,271.5C 63.1667,273.167 63.8333,274.833 64.5,276.5C 65.1667,277.5 65.8333,278.5 66.5,279.5C 62.791,277.777 60.791,274.777 60.5,270.5C 60.1693,248.327 60.5026,226.327 61.5,204.5 Z"/></g>
<g><path style="opacity:1" fill="#e6a2a4" d="M 191.5,272.5 C 151.003,273.499 110.337,273.832 69.5,273.5C 69.5,249.5 69.5,225.5 69.5,201.5C 110.5,201.5 151.5,201.5 192.5,201.5C 192.831,225.339 192.498,249.006 191.5,272.5 Z"/></g>
<g><path style="opacity:0.408" fill="#818181" d="M 249.5,214.5 C 250.641,216.243 252.308,217.243 254.5,217.5C 257.426,216.078 259.926,214.078 262,211.5C 266.458,210.421 270.958,210.254 275.5,211C 276.381,211.708 277.047,212.542 277.5,213.5C 273.424,211.558 269.091,211.058 264.5,212C 260.686,214.647 257.353,217.813 254.5,221.5C 251.066,218.719 247.399,216.386 243.5,214.5C 242.942,213.21 241.942,212.377 240.5,212C 231.473,211.284 222.473,211.451 213.5,212.5C 213.953,211.542 214.619,210.708 215.5,210C 223.833,209.333 232.167,209.333 240.5,210C 243.686,211.357 246.686,212.857 249.5,214.5 Z"/></g>
<g><path style="opacity:0.382" fill="#565656" d="M 276.5,209.5 C 277.5,210.833 278.5,212.167 279.5,213.5C 278.833,213.5 278.167,213.5 277.5,213.5C 277.047,212.542 276.381,211.708 275.5,211C 270.958,210.254 266.458,210.421 262,211.5C 259.926,214.078 257.426,216.078 254.5,217.5C 252.308,217.243 250.641,216.243 249.5,214.5C 250.817,214.821 252.151,215.154 253.5,215.5C 255.731,213.114 258.397,211.281 261.5,210C 266.489,209.501 271.489,209.334 276.5,209.5 Z"/></g>
<g><path style="opacity:0.149" fill="#303030" d="M 311.5,206.5 C 314.797,206.89 317.797,207.89 320.5,209.5C 310.652,209.173 300.986,209.506 291.5,210.5C 289.456,211.031 287.789,212.198 286.5,214C 284.115,214.556 281.782,214.39 279.5,213.5C 278.5,212.167 277.5,210.833 276.5,209.5C 278.816,210.16 281.149,210.827 283.5,211.5C 288.88,208.309 294.713,206.642 301,206.5C 304.496,209.101 307.996,209.101 311.5,206.5 Z"/></g>
<g><path style="opacity:0.552" fill="#7f7f7f" d="M 291.5,210.5 C 295.042,210.187 298.375,210.521 301.5,211.5C 294.258,209.819 288.591,211.985 284.5,218C 283.552,218.483 282.552,218.649 281.5,218.5C 280.167,216.833 278.833,215.167 277.5,213.5C 278.167,213.5 278.833,213.5 279.5,213.5C 281.782,214.39 284.115,214.556 286.5,214C 287.789,212.198 289.456,211.031 291.5,210.5 Z"/></g>
<g><path style="opacity:0.75" fill="#a1a1a1" d="M 341.5,211.5 C 336.173,210.979 331.173,211.979 326.5,214.5C 319.639,212.023 312.805,212.023 306,214.5C 297.184,210.319 290.018,212.153 284.5,220C 283.002,220.585 282.002,220.085 281.5,218.5C 282.552,218.649 283.552,218.483 284.5,218C 288.591,211.985 294.258,209.819 301.5,211.5C 315.002,211 328.335,211 341.5,211.5 Z"/></g>
<g><path style="opacity:0.349" fill="#545454" d="M 354.5,210.5 C 385.295,207.868 415.961,207.868 446.5,210.5C 416.79,210.492 387.123,210.658 357.5,211C 354.917,212.431 352.25,213.598 349.5,214.5C 347.307,214.281 345.307,213.615 343.5,212.5C 343.158,211.662 342.492,211.328 341.5,211.5C 328.335,211 315.002,211 301.5,211.5C 298.375,210.521 295.042,210.187 291.5,210.5C 300.986,209.506 310.652,209.173 320.5,209.5C 328.495,208.81 336.495,208.643 344.5,209C 347.43,211.727 350.763,212.227 354.5,210.5 Z"/></g>
<g><path style="opacity:0.945" fill="#d9d9d9" d="M 243.5,214.5 C 234.548,213.389 225.548,213.223 216.5,214C 214.113,214.564 212.113,215.73 210.5,217.5C 211.075,215.589 212.075,213.922 213.5,212.5C 222.473,211.451 231.473,211.284 240.5,212C 241.942,212.377 242.942,213.21 243.5,214.5 Z"/></g>
<g><path style="opacity:1" fill="#fbf8f8" d="M 277.5,213.5 C 278.833,215.167 280.167,216.833 281.5,218.5C 282.002,220.085 283.002,220.585 284.5,220C 290.018,212.153 297.184,210.319 306,214.5C 312.805,212.023 319.639,212.023 326.5,214.5C 331.173,211.979 336.173,210.979 341.5,211.5C 342.492,211.328 343.158,211.662 343.5,212.5C 345.507,214.839 347.507,217.172 349.5,219.5C 351.155,216.162 353.822,213.995 357.5,213C 363.582,213.051 369.582,212.885 375.5,212.5C 392.17,212.333 408.837,212.5 425.5,213C 430.417,214.521 435.417,214.688 440.5,213.5C 444.849,213.286 448.849,214.286 452.5,216.5C 454.556,215.952 456.223,214.786 457.5,213C 461.433,212.116 465.099,212.616 468.5,214.5C 470.25,215.659 471.25,217.326 471.5,219.5C 471.743,230.864 471.41,242.198 470.5,253.5C 464.136,261.404 455.802,264.404 445.5,262.5C 443.784,262.371 442.117,262.038 440.5,261.5C 438.165,258.673 435.165,257.507 431.5,258C 430.748,258.671 430.414,259.504 430.5,260.5C 423.882,263.15 416.882,264.15 409.5,263.5C 408.173,261.818 406.506,260.485 404.5,259.5C 404.38,258.414 403.713,257.747 402.5,257.5C 400.394,258.43 398.394,259.596 396.5,261C 386.453,261.783 376.453,261.617 366.5,260.5C 365.802,257.637 363.969,255.971 361,255.5C 358.448,257.709 355.615,259.542 352.5,261C 345.842,261.5 339.175,261.666 332.5,261.5C 330.901,261.768 329.568,261.434 328.5,260.5C 328.582,258.748 327.749,257.748 326,257.5C 324.177,258.651 322.344,259.818 320.5,261C 315.313,261.637 310.146,261.471 305,260.5C 300.723,262.145 296.223,262.811 291.5,262.5C 286.821,262.666 282.155,262.499 277.5,262C 273.822,261.005 271.155,258.838 269.5,255.5C 268.707,255.069 267.873,254.735 267,254.5C 264.179,255.987 262.013,258.154 260.5,261C 255.509,261.851 250.676,261.351 246,259.5C 244.124,259.525 242.624,260.191 241.5,261.5C 232.494,261.666 223.494,261.5 214.5,261C 213.627,259.955 212.627,259.122 211.5,258.5C 210.207,257.158 209.374,255.491 209,253.5C 208.5,242.172 208.333,230.838 208.5,219.5C 208.833,218.5 209.5,217.833 210.5,217.5C 212.113,215.73 214.113,214.564 216.5,214C 225.548,213.223 234.548,213.389 243.5,214.5C 247.399,216.386 251.066,218.719 254.5,221.5C 257.353,217.813 260.686,214.647 264.5,212C 269.091,211.058 273.424,211.558 277.5,213.5 Z"/></g>
<g><path style="opacity:0.925" fill="#cbcbcb" d="M 375.5,212.5 C 399.024,211.754 422.69,211.421 446.5,211.5C 449.735,214.985 453.068,215.151 456.5,212C 459.817,211.502 463.15,211.335 466.5,211.5C 467.167,212.5 467.833,213.5 468.5,214.5C 465.099,212.616 461.433,212.116 457.5,213C 456.223,214.786 454.556,215.952 452.5,216.5C 448.849,214.286 444.849,213.286 440.5,213.5C 435.417,214.688 430.417,214.521 425.5,213C 408.837,212.5 392.17,212.333 375.5,212.5 Z"/></g>
<g><path style="opacity:0.416" fill="#696969" d="M 466.5,211.5 C 463.15,211.335 459.817,211.502 456.5,212C 453.068,215.151 449.735,214.985 446.5,211.5C 446.5,211.167 446.5,210.833 446.5,210.5C 448.734,210.38 450.901,210.713 453,211.5C 455.863,210.212 458.863,209.546 462,209.5C 463.986,209.569 465.486,210.235 466.5,211.5 Z"/></g>
<g><path style="opacity:0.761" fill="#c0c0c0" d="M 68.5,195.5 C 66.0767,197.757 64.2433,200.424 63,203.5C 62.5,226.164 62.3334,248.831 62.5,271.5C 61.5026,249.34 61.1692,227.006 61.5,204.5C 61.9892,200.016 64.3226,197.016 68.5,195.5 Z"/></g>
<g><path style="opacity:0.569" fill="#9b9b9b" d="M 446.5,210.5 C 446.5,210.833 446.5,211.167 446.5,211.5C 422.69,211.421 399.024,211.754 375.5,212.5C 369.582,212.885 363.582,213.051 357.5,213C 353.822,213.995 351.155,216.162 349.5,219.5C 347.507,217.172 345.507,214.839 343.5,212.5C 345.307,213.615 347.307,214.281 349.5,214.5C 352.25,213.598 354.917,212.431 357.5,211C 387.123,210.658 416.79,210.492 446.5,210.5 Z"/></g>
<g><path style="opacity:1" fill="#d78a87" d="M 405.5,219.5 C 396.143,219.168 386.81,219.502 377.5,220.5C 380.977,221.167 384.311,221.834 387.5,222.5C 383.833,222.5 380.167,222.5 376.5,222.5C 376.5,221.167 376.5,219.833 376.5,218.5C 386.348,218.173 396.014,218.506 405.5,219.5 Z"/></g>
<g><path style="opacity:1" fill="#c92729" d="M 217.5,218.5 C 224.175,218.334 230.842,218.5 237.5,219C 248.082,225.025 251.249,233.858 247,245.5C 245.9,249.222 243.734,252.056 240.5,254C 232.946,255.432 225.279,255.932 217.5,255.5C 217.5,243.167 217.5,230.833 217.5,218.5 Z"/></g>
<g><path style="opacity:1" fill="#fdf8f8" d="M 225.5,221.5 C 236.631,220.967 241.631,226.3 240.5,237.5C 241.829,248.838 236.829,253.838 225.5,252.5C 225.5,242.167 225.5,231.833 225.5,221.5 Z"/></g>
<g><path style="opacity:1" fill="#cb2520" d="M 405.5,219.5 C 402.663,221.402 399.329,222.069 395.5,221.5C 395.5,232.833 395.5,244.167 395.5,255.5C 394.5,255.5 393.5,255.5 392.5,255.5C 392.48,211.58 391.813,211.58 390.5,255.5C 389.5,255.5 388.5,255.5 387.5,255.5C 387.5,244.5 387.5,233.5 387.5,222.5C 384.311,221.834 380.977,221.167 377.5,220.5C 386.81,219.502 396.143,219.168 405.5,219.5 Z"/></g>
<g><path style="opacity:1" fill="#cd2424" d="M 272.5,245.5 C 270.369,244.686 268.036,244.186 265.5,244C 268.365,243.817 271.031,243.317 273.5,242.5C 272.004,237.857 270.504,233.19 269,228.5C 268.292,227.619 267.458,226.953 266.5,226.5C 264.804,228.129 263.804,227.796 263.5,225.5C 263.574,218.737 266.741,216.737 273,219.5C 277.551,231.318 281.384,243.318 284.5,255.5C 282.143,255.663 279.81,255.497 277.5,255C 276.73,251.291 275.064,248.125 272.5,245.5 Z"/></g>
<g><path style="opacity:1" fill="#ce3436" d="M 299.5,219.5 C 300.495,231.322 300.828,243.322 300.5,255.5C 298.5,255.5 296.5,255.5 294.5,255.5C 294.5,244.167 294.5,232.833 294.5,221.5C 296.346,221.222 297.68,221.889 298.5,223.5C 298.479,233.893 298.479,244.226 298.5,254.5C 299.499,242.852 299.832,231.186 299.5,219.5 Z"/></g>
<g><path style="opacity:1" fill="#c62322" d="M 358.5,218.5 C 361.247,218.187 363.914,218.52 366.5,219.5C 370.816,231.447 374.816,243.447 378.5,255.5C 376.143,255.663 373.81,255.497 371.5,255C 370.361,251.917 369.028,248.917 367.5,246C 363.167,245.333 358.833,245.333 354.5,246C 352.947,248.655 351.78,251.488 351,254.5C 349.989,255.337 348.822,255.67 347.5,255.5C 351.326,243.195 354.992,230.861 358.5,218.5 Z"/></g>
<g><path style="opacity:1" fill="#b5110e" d="M 463.5,248.5 C 463.16,251.675 461.493,253.841 458.5,255C 453.833,255.667 449.167,255.667 444.5,255C 443.944,254.617 443.611,254.117 443.5,253.5C 445.179,253.715 446.179,253.048 446.5,251.5C 452.415,254.924 456.748,253.591 459.5,247.5C 460.494,238.348 460.827,229.015 460.5,219.5C 461.5,219.5 462.5,219.5 463.5,219.5C 463.5,229.167 463.5,238.833 463.5,248.5 Z"/></g>
<g><path style="opacity:0.155" fill="#252525" d="M 474.5,212.5 C 476.539,225.056 477.039,237.723 476,250.5C 475.459,253.615 473.959,255.948 471.5,257.5C 474.954,250.104 476.288,242.27 475.5,234C 475.333,229.167 475.167,224.333 475,219.5C 474.284,217.121 473.117,215.121 471.5,213.5C 469.833,212.833 468.167,212.167 466.5,211.5C 465.486,210.235 463.986,209.569 462,209.5C 458.863,209.546 455.863,210.212 453,211.5C 450.901,210.713 448.734,210.38 446.5,210.5C 415.961,207.868 385.295,207.868 354.5,210.5C 355.058,209.21 356.058,208.377 357.5,208C 361.025,207.821 364.359,207.321 367.5,206.5C 389.081,207.468 410.581,207.801 432,207.5C 438.725,205.046 445.558,205.046 452.5,207.5C 455.761,207.097 458.928,206.43 462,205.5C 467.16,206.161 471.326,208.494 474.5,212.5 Z"/></g>
<g><path style="opacity:0.249" fill="#404040" d="M 202.5,202.5 C 202.985,208.169 203.985,213.836 205.5,219.5C 206.986,215.766 209.652,213.432 213.5,212.5C 212.075,213.922 211.075,215.589 210.5,217.5C 209.5,217.833 208.833,218.5 208.5,219.5C 207.732,220.263 207.232,221.263 207,222.5C 206.333,233.167 206.333,243.833 207,254.5C 207.862,256.087 208.529,257.754 209,259.5C 209.671,260.252 210.504,260.586 211.5,260.5C 211.721,262.664 212.721,264.33 214.5,265.5C 213.417,265.461 212.417,265.127 211.5,264.5C 209.833,262.167 207.833,260.167 205.5,258.5C 204.855,264.918 203.855,271.251 202.5,277.5C 197.369,278.992 195.703,282.325 197.5,287.5C 196.035,286.594 195.035,285.261 194.5,283.5C 196.363,279.75 198.697,276.417 201.5,273.5C 202.498,250.006 202.831,226.339 202.5,202.5 Z"/></g>
<g><path style="opacity:1" fill="#cd5f63" d="M 340.5,219.5 C 338.167,219.5 335.833,219.5 333.5,219.5C 333.821,224.695 333.487,229.695 332.5,234.5C 332.5,229.167 332.5,223.833 332.5,218.5C 335.385,218.194 338.052,218.527 340.5,219.5 Z"/></g>
<g><path style="opacity:0.547" fill="#868686" d="M 466.5,211.5 C 468.167,212.167 469.833,212.833 471.5,213.5C 473.05,219.862 473.717,226.362 473.5,233C 473.499,238.012 473.166,242.845 472.5,247.5C 472.827,237.985 472.494,228.652 471.5,219.5C 471.25,217.326 470.25,215.659 468.5,214.5C 467.833,213.5 467.167,212.5 466.5,211.5 Z"/></g>
<g><path style="opacity:1" fill="#890303" d="M 71.5,202.5 C 71.1774,225.908 71.5108,249.242 72.5,272.5C 71.1677,261.186 70.501,249.52 70.5,237.5C 70.5001,225.662 70.8335,213.995 71.5,202.5 Z"/></g>
<g><path style="opacity:1" fill="#fcefef" d="M 359.5,225.5 C 360.75,225.577 361.583,226.244 362,227.5C 364.084,232.331 365.584,237.331 366.5,242.5C 362.833,242.5 359.167,242.5 355.5,242.5C 356.836,236.827 358.169,231.161 359.5,225.5 Z"/></g>
<g><path style="opacity:0.243" fill="#4c4c4c" d="M 471.5,213.5 C 473.117,215.121 474.284,217.121 475,219.5C 475.167,224.333 475.333,229.167 475.5,234C 476.288,242.27 474.954,250.104 471.5,257.5C 469.661,258.508 468.328,260.008 467.5,262C 466.255,262.791 464.922,263.291 463.5,263.5C 464.833,262.167 466.167,260.833 467.5,259.5C 469.025,257.784 470.025,255.784 470.5,253.5C 471.738,251.786 472.405,249.786 472.5,247.5C 473.166,242.845 473.499,238.012 473.5,233C 473.717,226.362 473.05,219.862 471.5,213.5 Z"/></g>
<g><path style="opacity:1" fill="#fbeeee" d="M 266.5,226.5 C 267.458,226.953 268.292,227.619 269,228.5C 270.504,233.19 272.004,237.857 273.5,242.5C 269.5,242.5 265.5,242.5 261.5,242.5C 262.857,237.074 264.523,231.741 266.5,226.5 Z"/></g>
<g><path style="opacity:0.401" fill="#717171" d="M 208.5,219.5 C 208.333,230.838 208.5,242.172 209,253.5C 209.374,255.491 210.207,257.158 211.5,258.5C 211.5,259.167 211.5,259.833 211.5,260.5C 210.504,260.586 209.671,260.252 209,259.5C 208.529,257.754 207.862,256.087 207,254.5C 206.333,243.833 206.333,233.167 207,222.5C 207.232,221.263 207.732,220.263 208.5,219.5 Z"/></g>
<g><path style="opacity:1" fill="#c42123" d="M 414.5,218.5 C 418.842,218.739 423.176,219.073 427.5,219.5C 427.657,220.873 427.49,222.207 427,223.5C 425.178,221.955 423.011,221.288 420.5,221.5C 414.933,220.766 413.1,223.099 415,228.5C 419.333,232.167 423.667,235.833 428,239.5C 432.236,250.375 428.569,255.708 417,255.5C 414.833,255.333 412.667,255.167 410.5,255C 408.441,253.815 408.274,252.648 410,251.5C 414.414,253.97 418.747,253.97 423,251.5C 423.667,249.5 423.667,247.5 423,245.5C 417.667,241.5 413,236.833 409,231.5C 407.104,225.434 408.938,221.101 414.5,218.5 Z"/></g>
<g><path style="opacity:1" fill="#c21819" d="M 299.5,219.5 C 299.832,231.186 299.499,242.852 298.5,254.5C 298.479,244.226 298.479,233.893 298.5,223.5C 297.68,221.889 296.346,221.222 294.5,221.5C 294.5,232.833 294.5,244.167 294.5,255.5C 292.52,243.545 291.854,231.212 292.5,218.5C 295.059,218.198 297.393,218.532 299.5,219.5 Z"/></g>
<g><path style="opacity:0.753" fill="#bababa" d="M 471.5,219.5 C 472.494,228.652 472.827,237.985 472.5,247.5C 472.405,249.786 471.738,251.786 470.5,253.5C 471.41,242.198 471.743,230.864 471.5,219.5 Z"/></g>
<g><path style="opacity:1" fill="#c80a0f" d="M 312.5,219.5 C 314.5,219.5 316.5,219.5 318.5,219.5C 318.666,224.511 318.499,229.511 318,234.5C 316.731,230.351 316.065,226.018 316,221.5C 315.5,232.828 315.333,244.162 315.5,255.5C 314.5,255.5 313.5,255.5 312.5,255.5C 312.5,243.5 312.5,231.5 312.5,219.5 Z"/></g>
<g><path style="opacity:1" fill="#c74043" d="M 340.5,221.5 C 340.5,232.833 340.5,244.167 340.5,255.5C 337.833,255.5 335.167,255.5 332.5,255.5C 332.5,249.5 332.5,243.5 332.5,237.5C 333.489,242.975 333.822,248.642 333.5,254.5C 335.5,254.5 337.5,254.5 339.5,254.5C 339.172,243.321 339.505,232.321 340.5,221.5 Z"/></g>
<g><path style="opacity:1" fill="#de9595" d="M 463.5,248.5 C 463.5,238.833 463.5,229.167 463.5,219.5C 462.5,219.5 461.5,219.5 460.5,219.5C 460.827,229.015 460.494,238.348 459.5,247.5C 459.5,237.833 459.5,228.167 459.5,218.5C 461.167,218.5 462.833,218.5 464.5,218.5C 464.827,228.681 464.494,238.681 463.5,248.5 Z"/></g>
<g><path style="opacity:1" fill="#b51d19" d="M 263.5,225.5 C 263.804,227.796 264.804,228.129 266.5,226.5C 264.523,231.741 262.857,237.074 261.5,242.5C 265.5,242.5 269.5,242.5 273.5,242.5C 271.031,243.317 268.365,243.817 265.5,244C 268.036,244.186 270.369,244.686 272.5,245.5C 268.486,245.334 264.486,245.501 260.5,246C 258.998,249.005 257.998,252.171 257.5,255.5C 256.167,255.5 254.833,255.5 253.5,255.5C 256.664,245.342 259.997,235.342 263.5,225.5 Z"/></g>
<g><path style="opacity:1" fill="#d93a40" d="M 392.5,255.5 C 391.833,255.5 391.167,255.5 390.5,255.5C 391.813,211.58 392.48,211.58 392.5,255.5 Z"/></g>
<g><path style="opacity:1" fill="#d72d2d" d="M 446.5,251.5 C 446.179,253.048 445.179,253.715 443.5,253.5C 440.909,252.746 439.076,251.079 438,248.5C 436.443,238.894 436.109,229.228 437,219.5C 439.381,218.565 441.881,218.232 444.5,218.5C 444.334,228.172 444.5,237.839 445,247.5C 445.791,248.745 446.291,250.078 446.5,251.5 Z"/></g>
<g><path style="opacity:1" fill="#ca2528" d="M 312.5,219.5 C 314.607,218.532 316.941,218.198 319.5,218.5C 319.5,223.833 319.5,229.167 319.5,234.5C 323.833,234.5 328.167,234.5 332.5,234.5C 333.487,229.695 333.821,224.695 333.5,219.5C 335.833,219.5 338.167,219.5 340.5,219.5C 340.5,220.167 340.5,220.833 340.5,221.5C 339.505,232.321 339.172,243.321 339.5,254.5C 337.5,254.5 335.5,254.5 333.5,254.5C 333.822,248.642 333.489,242.975 332.5,237.5C 328.167,237.5 323.833,237.5 319.5,237.5C 319.5,243.5 319.5,249.5 319.5,255.5C 318.167,255.5 316.833,255.5 315.5,255.5C 315.333,244.162 315.5,232.828 316,221.5C 316.065,226.018 316.731,230.351 318,234.5C 318.499,229.511 318.666,224.511 318.5,219.5C 316.5,219.5 314.5,219.5 312.5,219.5 Z"/></g>
<g><path style="opacity:0.612" fill="#b5b5b5" d="M 470.5,253.5 C 470.025,255.784 469.025,257.784 467.5,259.5C 464.731,260.437 462.064,261.604 459.5,263C 454.648,263.815 449.981,263.648 445.5,262.5C 455.802,264.404 464.136,261.404 470.5,253.5 Z"/></g>
<g><path style="opacity:0.512" fill="#9f9f9f" d="M 440.5,261.5 C 437.193,260.949 433.86,260.616 430.5,260.5C 430.414,259.504 430.748,258.671 431.5,258C 435.165,257.507 438.165,258.673 440.5,261.5 Z"/></g>
<g><path style="opacity:0.698" fill="#9c9c9c" d="M 291.5,262.5 C 294.287,263.477 297.287,263.81 300.5,263.5C 290.912,264.918 281.246,264.585 271.5,262.5C 270.612,260.727 269.279,259.394 267.5,258.5C 264.507,259.662 261.841,261.329 259.5,263.5C 253.311,263.616 247.311,262.949 241.5,261.5C 242.624,260.191 244.124,259.525 246,259.5C 250.676,261.351 255.509,261.851 260.5,261C 262.013,258.154 264.179,255.987 267,254.5C 267.873,254.735 268.707,255.069 269.5,255.5C 271.155,258.838 273.822,261.005 277.5,262C 282.155,262.499 286.821,262.666 291.5,262.5 Z"/></g>
<g><path style="opacity:0.812" fill="#c0c0c0" d="M 328.5,260.5 C 325.436,260.144 322.769,260.977 320.5,263C 313.788,262.946 307.122,263.113 300.5,263.5C 297.287,263.81 294.287,263.477 291.5,262.5C 296.223,262.811 300.723,262.145 305,260.5C 310.146,261.471 315.313,261.637 320.5,261C 322.344,259.818 324.177,258.651 326,257.5C 327.749,257.748 328.582,258.748 328.5,260.5 Z"/></g>
<g><path style="opacity:0.82" fill="#c6c6c6" d="M 404.5,259.5 C 401.148,259.53 398.482,260.863 396.5,263.5C 386.837,263.018 377.17,262.518 367.5,262C 366.944,261.617 366.611,261.117 366.5,260.5C 376.453,261.617 386.453,261.783 396.5,261C 398.394,259.596 400.394,258.43 402.5,257.5C 403.713,257.747 404.38,258.414 404.5,259.5 Z"/></g>
<g><path style="opacity:0.496" fill="#838383" d="M 404.5,259.5 C 406.506,260.485 408.173,261.818 409.5,263.5C 405.167,262.167 400.833,262.167 396.5,263.5C 398.482,260.863 401.148,259.53 404.5,259.5 Z"/></g>
<g><path style="opacity:0.824" fill="#cbcbcb" d="M 211.5,258.5 C 212.627,259.122 213.627,259.955 214.5,261C 223.494,261.5 232.494,261.666 241.5,261.5C 233.029,262.982 224.362,263.482 215.5,263C 214.016,262.338 212.683,261.504 211.5,260.5C 211.5,259.833 211.5,259.167 211.5,258.5 Z"/></g>
<g><path style="opacity:0.882" fill="#bababa" d="M 366.5,260.5 C 364.511,259.519 362.511,258.519 360.5,257.5C 358.334,259.493 356.001,261.327 353.5,263C 347.5,263.667 341.5,263.667 335.5,263C 334.263,262.768 333.263,262.268 332.5,261.5C 339.175,261.666 345.842,261.5 352.5,261C 355.615,259.542 358.448,257.709 361,255.5C 363.969,255.971 365.802,257.637 366.5,260.5 Z"/></g>
<g><path style="opacity:0.407" fill="#6a6a6a" d="M 211.5,260.5 C 212.683,261.504 214.016,262.338 215.5,263C 224.362,263.482 233.029,262.982 241.5,261.5C 247.311,262.949 253.311,263.616 259.5,263.5C 245.466,264.908 231.132,265.575 216.5,265.5C 215.833,265.5 215.167,265.5 214.5,265.5C 212.721,264.33 211.721,262.664 211.5,260.5 Z"/></g>
<g><path style="opacity:0.206" fill="#585858" d="M 366.5,260.5 C 366.611,261.117 366.944,261.617 367.5,262C 377.17,262.518 386.837,263.018 396.5,263.5C 395.306,264.777 393.64,265.444 391.5,265.5C 384.177,264.863 376.843,264.363 369.5,264C 367.372,263.345 365.372,262.511 363.5,261.5C 360.129,262.323 356.796,263.489 353.5,265C 344.419,265.882 335.419,265.382 326.5,263.5C 323.748,263.714 321.414,264.714 319.5,266.5C 305.177,265.843 290.844,265.343 276.5,265C 274.347,264.901 272.681,264.067 271.5,262.5C 281.246,264.585 290.912,264.918 300.5,263.5C 307.122,263.113 313.788,262.946 320.5,263C 322.769,260.977 325.436,260.144 328.5,260.5C 329.568,261.434 330.901,261.768 332.5,261.5C 333.263,262.268 334.263,262.768 335.5,263C 341.5,263.667 347.5,263.667 353.5,263C 356.001,261.327 358.334,259.493 360.5,257.5C 362.511,258.519 364.511,259.519 366.5,260.5 Z"/></g>
<g><path style="opacity:0.069" fill="#191919" d="M 474.5,212.5 C 476.328,215.135 477.495,218.135 478,221.5C 478.667,230.167 478.667,238.833 478,247.5C 475.414,262.246 466.581,269.579 451.5,269.5C 443.33,267.472 435.163,266.472 427,266.5C 424.347,268.941 421.18,269.941 417.5,269.5C 412.462,269.364 407.628,268.364 403,266.5C 399.296,267.885 395.463,268.885 391.5,269.5C 384.52,268.779 377.52,268.279 370.5,268C 367.49,267.159 364.49,266.326 361.5,265.5C 357.145,267.257 352.645,268.59 348,269.5C 337.137,267.394 326.303,267.394 315.5,269.5C 314.274,269.48 313.274,269.147 312.5,268.5C 314.833,267.833 317.167,267.167 319.5,266.5C 321.414,264.714 323.748,263.714 326.5,263.5C 335.419,265.382 344.419,265.882 353.5,265C 356.796,263.489 360.129,262.323 363.5,261.5C 365.12,263.984 367.453,265.484 370.5,266C 381.406,267.551 392.24,267.384 403,265.5C 409.741,267.275 416.575,267.775 423.5,267C 424.056,266.617 424.389,266.117 424.5,265.5C 427.693,264.603 430.859,263.603 434,262.5C 442.942,265.358 452.109,266.191 461.5,265C 462.416,264.722 463.082,264.222 463.5,263.5C 464.922,263.291 466.255,262.791 467.5,262C 468.328,260.008 469.661,258.508 471.5,257.5C 473.959,255.948 475.459,253.615 476,250.5C 477.039,237.723 476.539,225.056 474.5,212.5 Z"/></g>
<g><path style="opacity:0.398" fill="#666666" d="M 467.5,259.5 C 466.167,260.833 464.833,262.167 463.5,263.5C 463.082,264.222 462.416,264.722 461.5,265C 452.109,266.191 442.942,265.358 434,262.5C 430.859,263.603 427.693,264.603 424.5,265.5C 420.486,265.666 416.486,265.499 412.5,265C 411.263,264.768 410.263,264.268 409.5,263.5C 416.882,264.15 423.882,263.15 430.5,260.5C 433.86,260.616 437.193,260.949 440.5,261.5C 442.117,262.038 443.784,262.371 445.5,262.5C 449.981,263.648 454.648,263.815 459.5,263C 462.064,261.604 464.731,260.437 467.5,259.5 Z"/></g>
<g><path style="opacity:0.181" fill="#313131" d="M 271.5,262.5 C 272.681,264.067 274.347,264.901 276.5,265C 290.844,265.343 305.177,265.843 319.5,266.5C 317.167,267.167 314.833,267.833 312.5,268.5C 311.193,267.847 309.86,267.18 308.5,266.5C 306.833,267.833 305.167,267.833 303.5,266.5C 302.252,267.04 301.085,267.707 300,268.5C 295.531,267.189 291.031,267.189 286.5,268.5C 281.769,266.776 277.102,266.109 272.5,266.5C 271.488,264.124 269.655,263.124 267,263.5C 262.437,265.078 257.77,266.078 253,266.5C 240.693,266.501 228.526,266.168 216.5,265.5C 231.132,265.575 245.466,264.908 259.5,263.5C 261.841,261.329 264.507,259.662 267.5,258.5C 269.279,259.394 270.612,260.727 271.5,262.5 Z"/></g>
<g><path style="opacity:0.139" fill="#2e2e2e" d="M 363.5,261.5 C 365.372,262.511 367.372,263.345 369.5,264C 376.843,264.363 384.177,264.863 391.5,265.5C 393.64,265.444 395.306,264.777 396.5,263.5C 400.833,262.167 405.167,262.167 409.5,263.5C 410.263,264.268 411.263,264.768 412.5,265C 416.486,265.499 420.486,265.666 424.5,265.5C 424.389,266.117 424.056,266.617 423.5,267C 416.575,267.775 409.741,267.275 403,265.5C 392.24,267.384 381.406,267.551 370.5,266C 367.453,265.484 365.12,263.984 363.5,261.5 Z"/></g>
<g><path style="opacity:1" fill="#c81e23" d="M 71.5,202.5 C 71.8333,202.5 72.1667,202.5 72.5,202.5C 72.1693,224.673 72.5026,246.673 73.5,268.5C 73.5,269.5 73.5,270.5 73.5,271.5C 112.5,271.5 151.5,271.5 190.5,271.5C 190.5,249.5 190.5,227.5 190.5,205.5C 190.5,204.5 190.5,203.5 190.5,202.5C 191.498,225.661 191.831,248.994 191.5,272.5C 151.833,272.5 112.167,272.5 72.5,272.5C 71.5108,249.242 71.1774,225.908 71.5,202.5 Z"/></g>
<g><path style="opacity:1" fill="#e61f27" d="M 190.5,205.5 C 190.5,227.5 190.5,249.5 190.5,271.5C 151.5,271.5 112.5,271.5 73.5,271.5C 73.5,270.5 73.5,269.5 73.5,268.5C 73.7915,264.793 74.7915,261.293 76.5,258C 75.9805,255.974 75.6472,253.974 75.5,252C 78.1667,250.667 78.1667,249.333 75.5,248C 76.7404,244.251 78.0738,240.585 79.5,237C 79.1667,236.667 78.8333,236.333 78.5,236C 79.4162,235.626 80.2496,235.126 81,234.5C 82.7183,235.85 84.5516,237.017 86.5,238C 85.6919,238.308 85.0253,238.808 84.5,239.5C 86.6374,240.738 87.9707,242.571 88.5,245C 90.4188,246.934 91.9188,246.767 93,244.5C 94.7398,245.716 95.7398,247.382 96,249.5C 96.7504,250.126 97.5838,250.626 98.5,251C 97.2135,253.022 96.2135,255.189 95.5,257.5C 97.0233,257.793 98.3566,257.793 99.5,257.5C 100.918,259.308 102.918,259.975 105.5,259.5C 117.125,258.009 128.792,256.843 140.5,256C 146.682,252.553 153.349,250.553 160.5,250C 163.167,249.333 163.167,248.667 160.5,248C 164.584,247.769 168.584,247.102 172.5,246C 174.644,245.208 175.977,243.708 176.5,241.5C 179.386,240.121 181.886,238.121 184,235.5C 184.748,233.16 184.248,231.16 182.5,229.5C 179.454,226.643 175.787,224.81 171.5,224C 140.794,218.129 109.794,215.963 78.5,217.5C 76.6916,217.509 75.0249,217.009 73.5,216C 74.3831,212.55 75.2164,209.05 76,205.5C 76.414,205.043 76.914,204.709 77.5,204.5C 79.7094,205.106 81.876,205.773 84,206.5C 89.5893,205.616 95.256,204.949 101,204.5C 106.516,205.67 112.016,205.67 117.5,204.5C 120.083,204.981 122.583,205.648 125,206.5C 141.972,205.332 158.972,205.332 176,206.5C 178.504,204.353 180.838,204.353 183,206.5C 185.381,205.565 187.881,205.232 190.5,205.5 Z"/></g>
<g><path style="opacity:1" fill="#cc2025" d="M 176.5,241.5 C 175.977,243.708 174.644,245.208 172.5,246C 168.584,247.102 164.584,247.769 160.5,248C 163.167,248.667 163.167,249.333 160.5,250C 153.349,250.553 146.682,252.553 140.5,256C 128.792,256.843 117.125,258.009 105.5,259.5C 129.52,255.321 153.187,249.321 176.5,241.5 Z"/></g>
<g><path style="opacity:1" fill="#df2027" d="M 72.5,202.5 C 111.833,202.5 151.167,202.5 190.5,202.5C 190.5,203.5 190.5,204.5 190.5,205.5C 187.881,205.232 185.381,205.565 183,206.5C 180.838,204.353 178.504,204.353 176,206.5C 158.972,205.332 141.972,205.332 125,206.5C 122.583,205.648 120.083,204.981 117.5,204.5C 112.016,205.67 106.516,205.67 101,204.5C 95.256,204.949 89.5893,205.616 84,206.5C 81.876,205.773 79.7094,205.106 77.5,204.5C 76.914,204.709 76.414,205.043 76,205.5C 75.2164,209.05 74.3831,212.55 73.5,216C 75.0249,217.009 76.6916,217.509 78.5,217.5C 78.5,217.833 78.5,218.167 78.5,218.5C 87.0753,228.579 96.242,238.246 106,247.5C 104.627,251.22 102.46,254.553 99.5,257.5C 98.3566,257.793 97.0233,257.793 95.5,257.5C 96.2135,255.189 97.2135,253.022 98.5,251C 97.5838,250.626 96.7504,250.126 96,249.5C 95.7398,247.382 94.7398,245.716 93,244.5C 91.9188,246.767 90.4188,246.934 88.5,245C 87.9707,242.571 86.6374,240.738 84.5,239.5C 85.0253,238.808 85.6919,238.308 86.5,238C 84.5516,237.017 82.7183,235.85 81,234.5C 80.2496,235.126 79.4162,235.626 78.5,236C 78.8333,236.333 79.1667,236.667 79.5,237C 78.0738,240.585 76.7404,244.251 75.5,248C 78.1667,249.333 78.1667,250.667 75.5,252C 75.6472,253.974 75.9805,255.974 76.5,258C 74.7915,261.293 73.7915,264.793 73.5,268.5C 72.5026,246.673 72.1693,224.673 72.5,202.5 Z"/></g>
<g><path style="opacity:1" fill="#fbf2f2" d="M 78.5,218.5 C 81.8375,218.065 84.8375,218.732 87.5,220.5C 87.4346,220.938 87.6012,221.272 88,221.5C 98.2419,219.538 108.742,218.872 119.5,219.5C 141.116,219.25 162.116,222.583 182.5,229.5C 184.248,231.16 184.748,233.16 184,235.5C 181.886,238.121 179.386,240.121 176.5,241.5C 153.187,249.321 129.52,255.321 105.5,259.5C 102.918,259.975 100.918,259.308 99.5,257.5C 102.46,254.553 104.627,251.22 106,247.5C 96.242,238.246 87.0753,228.579 78.5,218.5 Z"/></g>
<g><path style="opacity:1" fill="#d09ba2" d="M 127.5,243.5 C 127.842,244.338 128.508,244.672 129.5,244.5C 123.89,246.362 118.223,246.696 112.5,245.5C 117.5,244.833 122.5,244.167 127.5,243.5 Z"/></g>
<g><path style="opacity:1" fill="#c08e91" d="M 112.5,245.5 C 109.352,244.526 107.519,242.526 107,239.5C 109.04,241.37 110.873,243.37 112.5,245.5 Z"/></g>
<g><path style="opacity:1" fill="#bc2321" d="M 127.5,224.5 C 122.786,224.173 118.12,224.507 113.5,225.5C 118.93,231.432 124.597,237.265 130.5,243C 139.981,241.44 149.648,240.274 159.5,239.5C 149.771,242.01 139.771,243.677 129.5,244.5C 128.508,244.672 127.842,244.338 127.5,243.5C 121.369,236.869 115.036,230.369 108.5,224C 115.014,223.18 121.347,223.347 127.5,224.5 Z"/></g>
<g><path style="opacity:1" fill="#e31f27" d="M 127.5,224.5 C 132.263,224.226 136.93,224.559 141.5,225.5C 149.843,228.047 158.509,229.547 167.5,230C 170.334,231.6 173.334,232.766 176.5,233.5C 173.75,234.875 171.084,236.208 168.5,237.5C 165.781,238.913 162.781,239.58 159.5,239.5C 149.648,240.274 139.981,241.44 130.5,243C 124.597,237.265 118.93,231.432 113.5,225.5C 118.12,224.507 122.786,224.173 127.5,224.5 Z"/></g>
<g><path style="opacity:1" fill="#b82221" d="M 141.5,225.5 C 154.08,226.03 166.414,228.197 178.5,232C 180.271,232.535 180.604,233.369 179.5,234.5C 176.103,236.522 172.436,237.522 168.5,237.5C 171.084,236.208 173.75,234.875 176.5,233.5C 173.334,232.766 170.334,231.6 167.5,230C 158.509,229.547 149.843,228.047 141.5,225.5 Z"/></g>
<g><path style="opacity:1" fill="#c69297" d="M 90.5,223.5 C 92.6825,224.3 94.3492,225.8 95.5,228C 92.8142,227.823 91.1476,226.323 90.5,223.5 Z"/></g>
<g><path style="opacity:1" fill="#b31c1a" d="M 78.5,218.5 C 78.5,218.167 78.5,217.833 78.5,217.5C 109.794,215.963 140.794,218.129 171.5,224C 175.787,224.81 179.454,226.643 182.5,229.5C 162.116,222.583 141.116,219.25 119.5,219.5C 114.344,218.834 109.011,218.501 103.5,218.5C 97.7891,218.505 92.4558,219.172 87.5,220.5C 84.8375,218.732 81.8375,218.065 78.5,218.5 Z"/></g>
<g><path style="opacity:1" fill="#deadaa" d="M 119.5,219.5 C 108.742,218.872 98.2419,219.538 88,221.5C 87.6012,221.272 87.4346,220.938 87.5,220.5C 92.4558,219.172 97.7891,218.505 103.5,218.5C 109.011,218.501 114.344,218.834 119.5,219.5 Z"/></g>
<g><path style="opacity:0.794" fill="#cacaca" d="M 64.5,276.5 C 66.3716,277.511 68.3716,278.345 70.5,279C 111.499,279.5 152.499,279.667 193.5,279.5C 151.294,280.825 108.961,280.825 66.5,279.5C 65.8333,278.5 65.1667,277.5 64.5,276.5 Z"/></g>
<g><path style="opacity:0.426" fill="#7f7f7f" d="M 200.5,201.5 C 201.498,225.328 201.831,249.328 201.5,273.5C 198.697,276.417 196.363,279.75 194.5,283.5C 195.035,285.261 196.035,286.594 197.5,287.5C 198.752,289.001 199.752,290.668 200.5,292.5C 199.833,292.5 199.167,292.5 198.5,292.5C 196.035,285.918 191.368,283.751 184.5,286C 180.927,287.734 179.26,290.568 179.5,294.5C 177.708,296.461 175.542,297.795 173,298.5C 165.512,297.47 158.012,297.47 150.5,298.5C 147.724,297.911 145.39,296.578 143.5,294.5C 143.5,293.167 143.5,291.833 143.5,290.5C 141.329,288.5 138.996,286.666 136.5,285C 133.779,284.398 131.113,284.565 128.5,285.5C 128.5,284.5 128.5,283.5 128.5,282.5C 108.831,282.667 89.1638,282.5 69.5,282C 68.0577,281.623 67.0577,280.79 66.5,279.5C 108.961,280.825 151.294,280.825 193.5,279.5C 196.355,277.494 198.521,274.828 200,271.5C 200.5,248.169 200.667,224.836 200.5,201.5 Z"/></g>
<g><path style="opacity:0.285" fill="#474747" d="M 59.5,204.5 C 59.1693,226.673 59.5026,248.673 60.5,270.5C 60.791,274.777 62.791,277.777 66.5,279.5C 67.0577,280.79 68.0577,281.623 69.5,282C 89.1638,282.5 108.831,282.667 128.5,282.5C 128.5,283.5 128.5,284.5 128.5,285.5C 123.909,288.085 119.576,291.085 115.5,294.5C 116.76,291.404 118.926,289.071 122,287.5C 122.684,286.216 122.517,285.049 121.5,284C 109.5,283.333 97.5,283.333 85.5,284C 83.3808,284.342 83.0474,285.175 84.5,286.5C 80.4862,286.334 76.4862,286.501 72.5,287C 71.2625,287.232 70.2625,287.732 69.5,288.5C 68.8333,288.5 68.1667,288.5 67.5,288.5C 68.4731,286.932 68.6397,285.265 68,283.5C 62.8817,281.611 59.8817,277.945 59,272.5C 58.1704,249.663 58.337,226.996 59.5,204.5 Z"/></g>
<g><path style="opacity:0.284" fill="#4b4b4b" d="M 180.5,287.5 C 180.67,286.178 180.337,285.011 179.5,284C 167.5,283.333 155.5,283.333 143.5,284C 142.587,285.414 142.587,286.914 143.5,288.5C 140.762,287.337 139.762,285.503 140.5,283C 154.167,282.333 167.833,282.333 181.5,283C 182.916,284.915 182.582,286.415 180.5,287.5 Z"/></g>
<g><path style="opacity:0.183" fill="#303030" d="M 115.5,294.5 C 109.681,295.653 103.681,295.819 97.5,295C 96.6195,294.292 95.9528,293.458 95.5,292.5C 93.2192,290.572 90.5525,289.572 87.5,289.5C 86.6935,288.272 85.6935,287.272 84.5,286.5C 83.0474,285.175 83.3808,284.342 85.5,284C 97.5,283.333 109.5,283.333 121.5,284C 122.517,285.049 122.684,286.216 122,287.5C 118.926,289.071 116.76,291.404 115.5,294.5 Z"/></g>
<g><path style="opacity:0.182" fill="#2f2f2f" d="M 180.5,287.5 C 178.837,289.493 177.67,291.826 177,294.5C 175.701,295.98 174.034,296.646 172,296.5C 164.184,295.784 156.351,295.284 148.5,295C 146.938,293.366 145.271,291.866 143.5,290.5C 143.5,289.833 143.5,289.167 143.5,288.5C 142.587,286.914 142.587,285.414 143.5,284C 155.5,283.333 167.5,283.333 179.5,284C 180.337,285.011 180.67,286.178 180.5,287.5 Z"/></g>
<g><path style="opacity:0.094" fill="#1d1d1d" d="M 472.5,301.5 C 471.395,300.4 470.062,299.733 468.5,299.5C 468.082,298.778 467.416,298.278 466.5,298C 460.167,297.667 453.833,297.333 447.5,297C 443.012,295.203 440.179,292.036 439,287.5C 437.698,286.915 436.531,286.249 435.5,285.5C 435.53,284.503 435.03,283.836 434,283.5C 432.208,282.963 430.375,282.63 428.5,282.5C 421.998,282.994 415.665,283.661 409.5,284.5C 408.508,284.328 407.842,284.662 407.5,285.5C 405.83,285.751 404.33,286.418 403,287.5C 401.153,294.891 396.486,297.558 389,295.5C 383.326,295.746 377.826,294.913 372.5,293C 369.683,290.018 366.683,287.185 363.5,284.5C 359.981,283.192 356.315,283.192 352.5,284.5C 349.323,287.178 346.323,290.012 343.5,293C 336.791,293.952 330.124,294.118 323.5,293.5C 322.167,292.833 320.833,292.167 319.5,291.5C 318.588,289.405 317.421,287.405 316,285.5C 311.343,283.219 306.509,282.885 301.5,284.5C 298.554,286.457 296.221,289.124 294.5,292.5C 289.97,294.651 287.303,293.318 286.5,288.5C 287.885,289.614 289.385,290.614 291,291.5C 294.264,288.516 297.43,285.349 300.5,282C 306.67,278.58 312.67,278.914 318.5,283C 321.061,286.473 324.061,289.473 327.5,292C 332.53,292.414 337.53,292.081 342.5,291C 344.816,288.752 347.15,286.419 349.5,284C 357.596,279.915 364.929,280.915 371.5,287C 370.167,287.667 370.167,288.333 371.5,289C 379.671,291.275 388.004,292.275 396.5,292C 398.817,288.018 401.817,284.685 405.5,282C 413.267,280.774 421.1,279.941 429,279.5C 432.129,279.329 434.963,280.162 437.5,282C 441.541,285.185 444.541,289.019 446.5,293.5C 453.286,295.171 460.286,296.004 467.5,296C 470.234,296.998 471.901,298.832 472.5,301.5 Z"/></g>
<g><path style="opacity:0.38" fill="#4f4f4f" d="M 435.5,285.5 C 426.857,285.348 418.19,285.015 409.5,284.5C 415.665,283.661 421.998,282.994 428.5,282.5C 430.375,282.63 432.208,282.963 434,283.5C 435.03,283.836 435.53,284.503 435.5,285.5 Z"/></g>
<g><path style="opacity:0.824" fill="#bfbfbf" d="M 143.5,290.5 C 143.5,291.833 143.5,293.167 143.5,294.5C 142.153,291.634 140.153,289.134 137.5,287C 134.112,286.341 130.779,286.508 127.5,287.5C 127.833,286.833 128.167,286.167 128.5,285.5C 131.113,284.565 133.779,284.398 136.5,285C 138.996,286.666 141.329,288.5 143.5,290.5 Z"/></g>
<g><path style="opacity:0.224" fill="#333333" d="M 363.5,284.5 C 360.482,284.335 357.482,284.502 354.5,285C 353.944,285.383 353.611,285.883 353.5,286.5C 349.7,288.466 346.7,291.3 344.5,295C 337.833,295.667 331.167,295.667 324.5,295C 323.944,294.617 323.611,294.117 323.5,293.5C 330.124,294.118 336.791,293.952 343.5,293C 346.323,290.012 349.323,287.178 352.5,284.5C 356.315,283.192 359.981,283.192 363.5,284.5 Z"/></g>
<g><path style="opacity:0.43" fill="#747474" d="M 84.5,286.5 C 85.6935,287.272 86.6935,288.272 87.5,289.5C 81.5362,288.693 75.5362,288.36 69.5,288.5C 70.2625,287.732 71.2625,287.232 72.5,287C 76.4862,286.501 80.4862,286.334 84.5,286.5 Z"/></g>
<g><path style="opacity:0.027" fill="#080808" d="M 145.5,284.5 C 154.839,284.334 164.173,284.5 173.5,285C 177.648,285.458 178.481,287.291 176,290.5C 174.323,291.516 172.657,292.516 171,293.5C 164.328,293.552 157.494,293.385 150.5,293C 146.286,291.383 144.619,288.549 145.5,284.5 Z"/></g>
<g><path style="opacity:0.475" fill="#797979" d="M 319.5,291.5 C 318.167,290.5 316.833,289.5 315.5,288.5C 312.027,284.25 307.693,283.416 302.5,286C 301.177,286.816 300.511,287.983 300.5,289.5C 300.449,295.969 297.283,298.636 291,297.5C 288.833,297.167 286.667,296.833 284.5,296.5C 282.95,292.617 280.616,289.283 277.5,286.5C 281.266,288.43 284.266,291.264 286.5,295C 290.317,296.023 293.817,295.523 297,293.5C 297.842,290.161 299.342,287.161 301.5,284.5C 306.509,282.885 311.343,283.219 316,285.5C 317.421,287.405 318.588,289.405 319.5,291.5 Z"/></g>
<g><path style="opacity:0.749" fill="#a5a5a5" d="M 315.5,288.5 C 310.322,285.714 305.322,286.047 300.5,289.5C 300.511,287.983 301.177,286.816 302.5,286C 307.693,283.416 312.027,284.25 315.5,288.5 Z"/></g>
<g><path style="opacity:1" fill="#f6f7f9" d="M 198.5,292.5 C 199.058,293.79 200.058,294.623 201.5,295C 208.334,295.007 215.001,295.84 221.5,297.5C 224.64,299.496 228.14,300.829 232,301.5C 237.495,300.351 242.995,300.351 248.5,301.5C 248.5,300.167 248.5,298.833 248.5,297.5C 250.055,294.596 252.055,291.93 254.5,289.5C 261.716,285.543 269.382,284.543 277.5,286.5C 280.616,289.283 282.95,292.617 284.5,296.5C 286.667,296.833 288.833,297.167 291,297.5C 297.283,298.636 300.449,295.969 300.5,289.5C 305.322,286.047 310.322,285.714 315.5,288.5C 317.358,295.687 322.025,299.687 329.5,300.5C 335.695,298.912 342.029,298.079 348.5,298C 350.295,288.517 355.628,285.517 364.5,289C 366.527,291.094 368.194,293.427 369.5,296C 376.997,298.199 384.663,299.032 392.5,298.5C 394.455,300.326 396.788,300.826 399.5,300C 401.995,295.352 404.995,291.019 408.5,287C 415.334,287.646 422.167,287.479 429,286.5C 430.5,286.667 432,286.833 433.5,287C 436.549,291.716 440.549,295.382 445.5,298C 452.449,299.122 459.449,299.789 466.5,300C 468.037,301.707 469.704,303.207 471.5,304.5C 471.5,304.833 471.5,305.167 471.5,305.5C 473.307,323.697 465.307,331.031 447.5,327.5C 442.676,326.971 438.343,328.138 434.5,331C 431.183,331.498 427.85,331.665 424.5,331.5C 422.429,330.191 419.929,329.525 417,329.5C 412.259,328.702 408.426,330.035 405.5,333.5C 396.782,334.079 388.115,334.079 379.5,333.5C 378.159,331.068 375.992,329.734 373,329.5C 367.686,330.712 362.519,332.046 357.5,333.5C 334.765,332.904 312.098,332.904 289.5,333.5C 286.125,333.042 282.792,332.375 279.5,331.5C 270.88,333.635 262.214,333.968 253.5,332.5C 251.833,331.167 250.167,329.833 248.5,328.5C 248.582,326.748 247.749,325.748 246,325.5C 243.391,325.838 241.224,326.838 239.5,328.5C 234.489,328.334 229.489,328.501 224.5,329C 222.474,330.594 220.474,332.094 218.5,333.5C 211.863,335.274 205.53,334.441 199.5,331C 195.646,330.646 191.812,330.146 188,329.5C 185.62,330.201 183.453,331.367 181.5,333C 167.623,333.52 153.956,334.02 140.5,334.5C 124.101,333.956 107.768,333.122 91.5,332C 90.7262,334.44 89.0595,335.773 86.5,336C 81.5,336.667 76.5,336.667 71.5,336C 69.4497,334.035 67.783,331.868 66.5,329.5C 65.6047,321.799 64.6047,314.132 63.5,306.5C 63.4085,292.117 70.4085,286.95 84.5,291C 86.1545,291.608 87.8211,292.108 89.5,292.5C 91.4044,292.738 92.7377,293.738 93.5,295.5C 93.5106,297.017 94.1772,298.184 95.5,299C 101.691,299.272 107.857,299.772 114,300.5C 115.107,300.415 116.107,300.081 117,299.5C 118.243,296.424 120.077,293.757 122.5,291.5C 123.585,289.413 125.251,288.08 127.5,287.5C 130.779,286.508 134.112,286.341 137.5,287C 140.153,289.134 142.153,291.634 143.5,294.5C 145.39,296.578 147.724,297.911 150.5,298.5C 158.99,299.657 167.657,299.824 176.5,299C 178.141,297.871 179.141,296.371 179.5,294.5C 179.26,290.568 180.927,287.734 184.5,286C 191.368,283.751 196.035,285.918 198.5,292.5 Z"/></g>
<g><path style="opacity:0.068" fill="#1b1b1b" d="M 214.5,265.5 C 215.167,265.5 215.833,265.5 216.5,265.5C 228.526,266.168 240.693,266.501 253,266.5C 257.77,266.078 262.437,265.078 267,263.5C 269.655,263.124 271.488,264.124 272.5,266.5C 270.742,266.123 269.075,265.456 267.5,264.5C 260.474,268.641 252.974,269.641 245,267.5C 237.333,268.167 229.667,268.833 222,269.5C 216.635,268.651 211.469,267.318 206.5,265.5C 206.198,272.238 204.198,278.404 200.5,284C 200.759,285.261 201.426,286.261 202.5,287C 213.422,288.651 224.256,290.818 235,293.5C 239.452,293.399 243.619,292.399 247.5,290.5C 246.971,292.583 245.971,294.417 244.5,296C 236.402,296.827 228.402,296.327 220.5,294.5C 219.192,293.768 217.858,292.934 216.5,292C 212.167,291.667 207.833,291.333 203.5,291C 202.108,288.772 200.108,287.606 197.5,287.5C 195.703,282.325 197.369,278.992 202.5,277.5C 203.855,271.251 204.855,264.918 205.5,258.5C 207.833,260.167 209.833,262.167 211.5,264.5C 212.417,265.127 213.417,265.461 214.5,265.5 Z"/></g>
<g><path style="opacity:0.06" fill="#101010" d="M 95.5,292.5 C 93.6956,289.902 91.3623,287.735 88.5,286C 88.8333,285.667 89.1667,285.333 89.5,285C 97.8333,284.333 106.167,284.333 114.5,285C 116.256,285.202 117.922,285.702 119.5,286.5C 117.684,288.817 115.684,290.984 113.5,293C 107.463,293.697 101.463,293.53 95.5,292.5 Z"/></g>
<g><path style="opacity:0.278" fill="#595959" d="M 363.5,284.5 C 366.683,287.185 369.683,290.018 372.5,293C 377.826,294.913 383.326,295.746 389,295.5C 396.486,297.558 401.153,294.891 403,287.5C 404.33,286.418 405.83,285.751 407.5,285.5C 406.685,286.837 405.518,287.837 404,288.5C 402.571,291.762 401.071,294.929 399.5,298C 397.19,298.497 394.857,298.663 392.5,298.5C 387.145,297.769 381.645,297.102 376,296.5C 371.25,293.754 367.083,290.254 363.5,286C 360.112,285.341 356.779,285.508 353.5,286.5C 353.611,285.883 353.944,285.383 354.5,285C 357.482,284.502 360.482,284.335 363.5,284.5 Z"/></g>
<g><path style="opacity:0.353" fill="#4d4d4d" d="M 197.5,287.5 C 200.108,287.606 202.108,288.772 203.5,291C 207.833,291.333 212.167,291.667 216.5,292C 217.858,292.934 219.192,293.768 220.5,294.5C 213.808,293.927 207.141,293.261 200.5,292.5C 199.752,290.668 198.752,289.001 197.5,287.5 Z"/></g>
<g><path style="opacity:0.549" fill="#8c8c8c" d="M 409.5,284.5 C 418.19,285.015 426.857,285.348 435.5,285.5C 436.531,286.249 437.698,286.915 439,287.5C 440.179,292.036 443.012,295.203 447.5,297C 453.833,297.333 460.167,297.667 466.5,298C 467.416,298.278 468.082,298.778 468.5,299.5C 469.925,300.922 470.925,302.589 471.5,304.5C 469.704,303.207 468.037,301.707 466.5,300C 459.449,299.789 452.449,299.122 445.5,298C 440.549,295.382 436.549,291.716 433.5,287C 432,286.833 430.5,286.667 429,286.5C 422.167,287.479 415.334,287.646 408.5,287C 404.995,291.019 401.995,295.352 399.5,300C 396.788,300.826 394.455,300.326 392.5,298.5C 394.857,298.663 397.19,298.497 399.5,298C 401.071,294.929 402.571,291.762 404,288.5C 405.518,287.837 406.685,286.837 407.5,285.5C 407.842,284.662 408.508,284.328 409.5,284.5 Z"/></g>
<g><path style="opacity:0.385" fill="#5c5c5c" d="M 353.5,286.5 C 352.207,288.296 350.707,289.963 349,291.5C 347.991,293.025 347.491,294.692 347.5,296.5C 339.822,296.848 332.155,297.015 324.5,297C 321.348,296.536 319.682,294.703 319.5,291.5C 320.833,292.167 322.167,292.833 323.5,293.5C 323.611,294.117 323.944,294.617 324.5,295C 331.167,295.667 337.833,295.667 344.5,295C 346.7,291.3 349.7,288.466 353.5,286.5 Z"/></g>
<g><path style="opacity:0.474" fill="#777777" d="M 128.5,285.5 C 128.167,286.167 127.833,286.833 127.5,287.5C 125.251,288.08 123.585,289.413 122.5,291.5C 119.775,292.713 117.441,294.546 115.5,297C 107.993,298.01 100.66,297.51 93.5,295.5C 92.7377,293.738 91.4044,292.738 89.5,292.5C 88.8333,291.5 88.1667,290.5 87.5,289.5C 90.5525,289.572 93.2192,290.572 95.5,292.5C 95.9528,293.458 96.6195,294.292 97.5,295C 103.681,295.819 109.681,295.653 115.5,294.5C 119.576,291.085 123.909,288.085 128.5,285.5 Z"/></g>
<g><path style="opacity:0.318" fill="#444444" d="M 286.5,288.5 C 287.303,293.318 289.97,294.651 294.5,292.5C 296.221,289.124 298.554,286.457 301.5,284.5C 299.342,287.161 297.842,290.161 297,293.5C 293.817,295.523 290.317,296.023 286.5,295C 284.266,291.264 281.266,288.43 277.5,286.5C 276.365,284.787 274.698,284.12 272.5,284.5C 260.669,281.413 252.003,285.413 246.5,296.5C 238.14,297.788 229.807,297.622 221.5,296C 220.944,295.617 220.611,295.117 220.5,294.5C 228.402,296.327 236.402,296.827 244.5,296C 245.971,294.417 246.971,292.583 247.5,290.5C 249.67,289.162 251.336,287.328 252.5,285C 254.974,284.887 256.974,283.887 258.5,282C 266.861,280.753 274.861,281.753 282.5,285C 283.103,287.071 284.436,288.238 286.5,288.5 Z"/></g>
<g><path style="opacity:0.831" fill="#b8b8b8" d="M 272.5,284.5 C 274.698,284.12 276.365,284.787 277.5,286.5C 269.382,284.543 261.716,285.543 254.5,289.5C 256.209,287.187 258.543,285.687 261.5,285C 265.152,284.501 268.818,284.335 272.5,284.5 Z"/></g>
<g><path style="opacity:0.696" fill="#acacac" d="M 392.5,298.5 C 384.663,299.032 376.997,298.199 369.5,296C 368.194,293.427 366.527,291.094 364.5,289C 355.628,285.517 350.295,288.517 348.5,298C 342.029,298.079 335.695,298.912 329.5,300.5C 322.025,299.687 317.358,295.687 315.5,288.5C 316.833,289.5 318.167,290.5 319.5,291.5C 319.682,294.703 321.348,296.536 324.5,297C 332.155,297.015 339.822,296.848 347.5,296.5C 347.491,294.692 347.991,293.025 349,291.5C 350.707,289.963 352.207,288.296 353.5,286.5C 356.779,285.508 360.112,285.341 363.5,286C 367.083,290.254 371.25,293.754 376,296.5C 381.645,297.102 387.145,297.769 392.5,298.5 Z"/></g>
<g><path style="opacity:0.922" fill="#d0d0d0" d="M 122.5,291.5 C 120.077,293.757 118.243,296.424 117,299.5C 116.107,300.081 115.107,300.415 114,300.5C 107.857,299.772 101.691,299.272 95.5,299C 94.1772,298.184 93.5106,297.017 93.5,295.5C 100.66,297.51 107.993,298.01 115.5,297C 117.441,294.546 119.775,292.713 122.5,291.5 Z"/></g>
<g><path style="opacity:0.92" fill="#c9c9c9" d="M 179.5,294.5 C 179.141,296.371 178.141,297.871 176.5,299C 167.657,299.824 158.99,299.657 150.5,298.5C 158.012,297.47 165.512,297.47 173,298.5C 175.542,297.795 177.708,296.461 179.5,294.5 Z"/></g>
<g><path style="opacity:0.745" fill="#c7c7c7" d="M 221.5,297.5 C 226.686,298.963 232.02,299.629 237.5,299.5C 241.427,299.42 245.093,298.753 248.5,297.5C 248.5,298.833 248.5,300.167 248.5,301.5C 242.995,300.351 237.495,300.351 232,301.5C 228.14,300.829 224.64,299.496 221.5,297.5 Z"/></g>
<g><path style="opacity:0.518" fill="#8d8d8d" d="M 272.5,284.5 C 268.818,284.335 265.152,284.501 261.5,285C 258.543,285.687 256.209,287.187 254.5,289.5C 252.055,291.93 250.055,294.596 248.5,297.5C 245.093,298.753 241.427,299.42 237.5,299.5C 232.02,299.629 226.686,298.963 221.5,297.5C 215.001,295.84 208.334,295.007 201.5,295C 200.058,294.623 199.058,293.79 198.5,292.5C 199.167,292.5 199.833,292.5 200.5,292.5C 207.141,293.261 213.808,293.927 220.5,294.5C 220.611,295.117 220.944,295.617 221.5,296C 229.807,297.622 238.14,297.788 246.5,296.5C 252.003,285.413 260.669,281.413 272.5,284.5 Z"/></g>
<g><path style="opacity:1" fill="#445a70" d="M 123.5,297.5 C 124.833,297.5 126.167,297.5 127.5,297.5C 127.5,298.5 127.5,299.5 127.5,300.5C 126.167,300.5 124.833,300.5 123.5,300.5C 123.5,299.5 123.5,298.5 123.5,297.5 Z"/></g>
<g><path style="opacity:1" fill="#406d9f" d="M 261.5,292.5 C 266.734,291.835 271.568,292.835 276,295.5C 276.483,296.448 276.649,297.448 276.5,298.5C 273.278,298.15 270.112,297.483 267,296.5C 261.366,297.055 259.866,299.555 262.5,304C 268.115,304.46 272.949,306.627 277,310.5C 280.07,321.951 275.57,327.951 263.5,328.5C 258.369,328.78 255.369,326.447 254.5,321.5C 258.157,322.162 261.824,322.829 265.5,323.5C 273.572,322.811 275.572,318.978 271.5,312C 267.289,310.29 262.956,308.957 258.5,308C 255.651,305.441 254.817,302.274 256,298.5C 257.36,295.977 259.193,293.977 261.5,292.5 Z"/></g>
<g><path style="opacity:0.796" fill="#c7c7c7" d="M 67.5,288.5 C 68.1667,288.5 68.8333,288.5 69.5,288.5C 75.5362,288.36 81.5362,288.693 87.5,289.5C 88.1667,290.5 88.8333,291.5 89.5,292.5C 87.8211,292.108 86.1545,291.608 84.5,291C 70.4085,286.95 63.4085,292.117 63.5,306.5C 62.5206,303.375 62.1872,300.042 62.5,296.5C 63.3439,293.322 65.0105,290.655 67.5,288.5 Z"/></g>
<g><path style="opacity:1" fill="#366aa0" d="M 187.5,292.5 C 188.496,292.414 189.329,292.748 190,293.5C 189.854,300.848 193.354,303.515 200.5,301.5C 200.5,302.833 200.5,304.167 200.5,305.5C 193.13,304.395 189.963,307.395 191,314.5C 193.037,316.436 195.203,318.102 197.5,319.5C 195.912,322.257 193.579,323.09 190.5,322C 189.107,320.829 188.273,319.329 188,317.5C 187.667,314.5 187.333,311.5 187,308.5C 185.4,307.134 183.567,306.134 181.5,305.5C 183.387,303.96 185.22,302.293 187,300.5C 187.497,297.854 187.664,295.187 187.5,292.5 Z"/></g>
<g><path style="opacity:1" fill="#3a6da4" d="M 411.5,292.5 C 414.341,294.64 415.674,297.64 415.5,301.5C 418.187,301.336 420.854,301.503 423.5,302C 424.337,303.011 424.67,304.178 424.5,305.5C 416.587,304.576 413.42,307.909 415,315.5C 416.667,317.628 418.834,318.961 421.5,319.5C 418.375,323.446 415.208,323.446 412,319.5C 411.608,315.472 411.108,311.472 410.5,307.5C 408.335,307.884 406.668,307.217 405.5,305.5C 406.865,304.059 408.365,302.726 410,301.5C 410.259,298.413 410.759,295.413 411.5,292.5 Z"/></g>
<g><path style="opacity:1" fill="#4170a4" d="M 131.5,292.5 C 132.822,292.33 133.989,292.663 135,293.5C 135.264,297.956 136.098,302.289 137.5,306.5C 141.767,303.935 145.934,303.935 150,306.5C 150.738,313.534 151.572,320.534 152.5,327.5C 149.708,327.548 147.875,326.215 147,323.5C 146.501,318.845 146.334,314.179 146.5,309.5C 143.215,309.269 140.715,310.603 139,313.5C 138.667,317.833 138.333,322.167 138,326.5C 136.644,327.38 135.144,327.714 133.5,327.5C 132.245,315.871 131.578,304.204 131.5,292.5 Z"/></g>
<g><path style="opacity:1" fill="#3a6da2" d="M 428.5,291.5 C 429.117,291.611 429.617,291.944 430,292.5C 430.333,295.167 430.667,297.833 431,300.5C 433.405,301.274 435.905,301.774 438.5,302C 438.957,302.414 439.291,302.914 439.5,303.5C 433.711,304.439 432.211,307.439 435,312.5C 437.87,315.146 441.036,317.146 444.5,318.5C 440.893,319.489 437.226,319.823 433.5,319.5C 433.5,321.5 433.5,323.5 433.5,325.5C 431.876,325.64 430.71,324.973 430,323.5C 427.501,312.867 427.001,302.2 428.5,291.5 Z"/></g>
<g><path style="opacity:1" fill="#36699d" d="M 102.5,304.5 C 111.524,304.692 116.024,309.358 116,318.5C 116.786,321.583 118.619,323.749 121.5,325C 118.681,326.626 115.681,326.793 112.5,325.5C 109.96,326.02 107.46,326.687 105,327.5C 102.594,327.297 100.594,326.297 99,324.5C 97.4453,319.618 97.112,314.618 98,309.5C 99.7073,307.963 101.207,306.296 102.5,304.5 Z"/></g>
<g><path style="opacity:1" fill="#eff4f8" d="M 104.5,308.5 C 105.822,308.33 106.989,308.663 108,309.5C 110.327,313.422 110.66,317.422 109,321.5C 104.066,324.626 101.233,323.126 100.5,317C 100.79,313.61 102.123,310.777 104.5,308.5 Z"/></g>
<g><path style="opacity:1" fill="#3669a0" d="M 286.5,304.5 C 295.954,304.795 300.454,309.795 300,319.5C 301.813,321.761 303.313,324.095 304.5,326.5C 301.781,326.603 299.115,326.269 296.5,325.5C 284.051,329.225 278.884,324.559 281,311.5C 282.666,309.004 284.5,306.671 286.5,304.5 Z"/></g>
<g><path style="opacity:1" fill="#f7f9fb" d="M 288.5,308.5 C 292.565,309.581 294.231,312.248 293.5,316.5C 294.393,320.461 292.893,322.794 289,323.5C 284.181,320.656 283.181,316.656 286,311.5C 287.045,310.627 287.878,309.627 288.5,308.5 Z"/></g>
<g><path style="opacity:1" fill="#376ba0" d="M 208.5,302.5 C 211.187,302.336 213.854,302.503 216.5,303C 218.037,304.11 218.703,305.61 218.5,307.5C 215.813,307.336 213.146,307.503 210.5,308C 209.167,309 209.167,310 210.5,311C 222.13,311.921 224.464,316.921 217.5,326C 212.637,328.329 208.137,327.829 204,324.5C 203.517,323.552 203.351,322.552 203.5,321.5C 206.443,321.647 209.276,322.313 212,323.5C 216.982,321.604 217.482,319.104 213.5,316C 210.574,315.782 207.74,315.282 205,314.5C 203.593,309.643 204.76,305.643 208.5,302.5 Z"/></g>
<g><path style="opacity:1" fill="#3c6da2" d="M 337.5,304.5 C 346.305,305.371 350.472,310.371 350,319.5C 351.813,321.761 353.313,324.095 354.5,326.5C 351.781,326.603 349.115,326.269 346.5,325.5C 340.332,329.058 335.166,328.058 331,322.5C 329.224,314.869 331.39,308.869 337.5,304.5 Z"/></g>
<g><path style="opacity:1" fill="#f2f6f9" d="M 337.5,308.5 C 339.39,308.297 340.89,308.963 342,310.5C 344.483,314.053 344.816,317.719 343,321.5C 337.775,324.492 334.942,322.825 334.5,316.5C 334.964,313.583 335.964,310.916 337.5,308.5 Z"/></g>
<g><path style="opacity:0.234" fill="#4a4a4a" d="M 67.5,288.5 C 65.0105,290.655 63.3439,293.322 62.5,296.5C 61.5093,302.979 61.176,309.646 61.5,316.5C 59.7104,310.066 59.2104,303.4 60,296.5C 61.3467,292.656 63.8467,289.989 67.5,288.5 Z"/></g>
<g><path style="opacity:1" fill="#3b6797" d="M 124.5,308.5 C 125.5,308.5 126.5,308.5 127.5,308.5C 128.929,314.968 128.762,321.301 127,327.5C 126.333,326.833 125.667,326.167 125,325.5C 124.501,319.843 124.334,314.176 124.5,308.5 Z"/></g>
<g><path style="opacity:1" fill="#3c6ea4" d="M 357.5,293.5 C 358.5,293.5 359.5,293.5 360.5,293.5C 360.351,296.607 360.851,299.607 362,302.5C 377.012,302.189 380.178,308.189 371.5,320.5C 364.099,328.309 359.599,326.976 358,316.5C 357.5,308.841 357.334,301.174 357.5,293.5 Z"/></g>
<g><path style="opacity:1" fill="#f3f7fa" d="M 367.5,307.5 C 368.833,307.5 370.167,307.5 371.5,307.5C 371.53,313.107 369.197,317.44 364.5,320.5C 362.541,315.367 363.541,311.033 367.5,307.5 Z"/></g>
<g><path style="opacity:0.329" fill="#616161" d="M 468.5,299.5 C 470.062,299.733 471.395,300.4 472.5,301.5C 476.834,312.191 474.834,321.357 466.5,329C 464.564,329.813 462.564,330.313 460.5,330.5C 465.721,328.449 469.554,324.783 472,319.5C 472.815,314.648 472.648,309.981 471.5,305.5C 471.5,305.167 471.5,304.833 471.5,304.5C 470.925,302.589 469.925,300.922 468.5,299.5 Z"/></g>
<g><path style="opacity:1" fill="#386ca1" d="M 223.5,305.5 C 224.822,305.33 225.989,305.663 227,306.5C 231.658,320.898 234.991,320.898 237,306.5C 238.183,305.269 239.349,305.269 240.5,306.5C 241.904,310.945 241.57,315.279 239.5,319.5C 232.888,324.483 228.055,323.15 225,315.5C 223.957,312.243 223.457,308.91 223.5,305.5 Z"/></g>
<g><path style="opacity:1" fill="#396ba1" d="M 307.5,292.5 C 309.124,292.36 310.29,293.027 311,294.5C 311.074,298.701 311.907,302.701 313.5,306.5C 317.468,304.069 321.301,304.069 325,306.5C 326.595,313.405 327.762,320.405 328.5,327.5C 325.52,327.759 323.687,326.426 323,323.5C 322.667,319.5 322.333,315.5 322,311.5C 321.612,310.572 320.945,309.905 320,309.5C 318.056,310.439 316.389,311.773 315,313.5C 313.691,318.066 313.191,322.733 313.5,327.5C 312.167,327.5 310.833,327.5 309.5,327.5C 308.064,315.883 307.397,304.216 307.5,292.5 Z"/></g>
<g><path style="opacity:1" fill="#3b6ca2" d="M 385.5,304.5 C 389.35,304.178 392.517,305.511 395,308.5C 396.861,312.654 398.194,316.987 399,321.5C 400.41,322.787 401.91,323.954 403.5,325C 402.833,325.667 402.167,326.333 401.5,327C 399.187,326.851 396.853,326.351 394.5,325.5C 382.613,329.457 377.446,325.123 379,312.5C 380.305,309.039 382.471,306.372 385.5,304.5 Z"/></g>
<g><path style="opacity:1" fill="#f7f9fb" d="M 386.5,308.5 C 390.565,309.581 392.231,312.248 391.5,316.5C 391.854,323.013 389.354,324.68 384,321.5C 382.126,316.659 382.96,312.326 386.5,308.5 Z"/></g>
<g><path style="opacity:0.671" fill="#b9b9b9" d="M 471.5,305.5 C 472.648,309.981 472.815,314.648 472,319.5C 469.554,324.783 465.721,328.449 460.5,330.5C 457.482,330.665 454.482,330.498 451.5,330C 449.68,329.8 448.347,328.966 447.5,327.5C 465.307,331.031 473.307,323.697 471.5,305.5 Z"/></g>
<g><path style="opacity:1" fill="#406fa4" d="M 447.5,305.5 C 448.496,305.414 449.329,305.748 450,306.5C 451.333,309.833 452.667,313.167 454,316.5C 455.938,317.86 457.604,317.527 459,315.5C 459.333,312.833 459.667,310.167 460,307.5C 461.333,304.833 462.667,304.833 464,307.5C 465.655,313.422 464.155,318.255 459.5,322C 453.156,323.351 448.989,320.851 447,314.5C 446.264,311.408 446.431,308.408 447.5,305.5 Z"/></g>
<g><path style="opacity:1" fill="#3b6b9e" d="M 160.5,304.5 C 169.524,304.692 174.024,309.358 174,318.5C 175.458,320.96 177.291,323.127 179.5,325C 176.67,326.767 173.67,326.933 170.5,325.5C 165.683,328.498 161.183,328.164 157,324.5C 154.115,316.99 155.282,310.323 160.5,304.5 Z"/></g>
<g><path style="opacity:1" fill="#f1f6f9" d="M 162.5,308.5 C 164.39,308.297 165.89,308.963 167,310.5C 168.368,313.738 168.701,317.072 168,320.5C 162.808,325.159 159.975,323.992 159.5,317C 159.251,313.677 160.251,310.843 162.5,308.5 Z"/></g>
<g><path style="opacity:0.072" fill="#1b1b1b" d="M 66.5,192.5 C 64.1165,193.885 62.4499,195.885 61.5,198.5C 61.0293,200.579 60.3627,202.579 59.5,204.5C 58.337,226.996 58.1704,249.663 59,272.5C 59.8817,277.945 62.8817,281.611 68,283.5C 68.6397,285.265 68.4731,286.932 67.5,288.5C 63.8467,289.989 61.3467,292.656 60,296.5C 59.2104,303.4 59.7104,310.066 61.5,316.5C 61.1112,323.669 62.7778,330.336 66.5,336.5C 67.3569,337.425 68.3569,338.092 69.5,338.5C 70.1667,339.5 70.8333,340.5 71.5,341.5C 70.1266,341.657 68.7932,341.49 67.5,341C 64.7307,338.679 62.564,335.846 61,332.5C 58.7558,322.791 57.2558,312.958 56.5,303C 56.6837,296.108 59.017,290.108 63.5,285C 62.392,282.888 60.892,281.054 59,279.5C 57.6011,276.637 56.6011,273.637 56,270.5C 55.3333,248.833 55.3333,227.167 56,205.5C 56.4825,201.533 57.8159,197.866 60,194.5C 62.0065,193.331 64.1732,192.665 66.5,192.5 Z"/></g>
<g><path style="opacity:1" fill="#38699d" d="M 71.5,296.5 C 82.695,295.19 90.195,299.857 94,310.5C 95.9182,321.273 91.4182,327.773 80.5,330C 78.2305,330.758 76.0639,330.591 74,329.5C 72.8333,320 71.6667,310.5 70.5,301C 70.6052,299.408 70.9386,297.908 71.5,296.5 Z"/></g>
<g><path style="opacity:1" fill="#f8fafc" d="M 75.5,299.5 C 82.9948,299.478 87.8281,303.145 90,310.5C 91.489,320.291 87.489,324.958 78,324.5C 76.0884,316.142 75.255,307.809 75.5,299.5 Z"/></g>
<g><path style="opacity:0.475" fill="#8e8e8e" d="M 62.5,296.5 C 62.1872,300.042 62.5206,303.375 63.5,306.5C 64.6047,314.132 65.6047,321.799 66.5,329.5C 65.5028,329.53 64.8361,329.03 64.5,328C 64.0011,323.91 63.0011,320.077 61.5,316.5C 61.176,309.646 61.5093,302.979 62.5,296.5 Z"/></g>
<g><path style="opacity:0.869" fill="#c7c7c7" d="M 239.5,328.5 C 234.788,330.155 229.788,330.988 224.5,331C 223.944,331.383 223.611,331.883 223.5,332.5C 223.167,332.5 222.833,332.5 222.5,332.5C 221.167,332.833 219.833,333.167 218.5,333.5C 220.474,332.094 222.474,330.594 224.5,329C 229.489,328.501 234.489,328.334 239.5,328.5 Z"/></g>
<g><path style="opacity:0.695" fill="#9a9a9a" d="M 424.5,331.5 C 417.938,331.022 411.604,331.689 405.5,333.5C 408.426,330.035 412.259,328.702 417,329.5C 419.929,329.525 422.429,330.191 424.5,331.5 Z"/></g>
<g><path style="opacity:0.505" fill="#888888" d="M 248.5,328.5 C 244.745,327.188 241.412,328.021 238.5,331C 233.451,331.272 228.451,331.772 223.5,332.5C 223.611,331.883 223.944,331.383 224.5,331C 229.788,330.988 234.788,330.155 239.5,328.5C 241.224,326.838 243.391,325.838 246,325.5C 247.749,325.748 248.582,326.748 248.5,328.5 Z"/></g>
<g><path style="opacity:0.62" fill="#b3b3b3" d="M 379.5,333.5 C 377.266,332.553 374.932,331.886 372.5,331.5C 367.501,332.25 362.501,332.916 357.5,333.5C 362.519,332.046 367.686,330.712 373,329.5C 375.992,329.734 378.159,331.068 379.5,333.5 Z"/></g>
<g><path style="opacity:0.54" fill="#8b8b8b" d="M 447.5,327.5 C 448.347,328.966 449.68,329.8 451.5,330C 454.482,330.498 457.482,330.665 460.5,330.5C 458.866,331.161 457.033,331.494 455,331.5C 451.204,331.429 447.538,330.763 444,329.5C 440.856,330.623 437.689,331.789 434.5,333C 431.112,333.659 427.779,333.492 424.5,332.5C 424.5,332.167 424.5,331.833 424.5,331.5C 427.85,331.665 431.183,331.498 434.5,331C 438.343,328.138 442.676,326.971 447.5,327.5 Z"/></g>
<g><path style="opacity:0.204" fill="#353535" d="M 472.5,301.5 C 474.395,302.973 476.061,304.64 477.5,306.5C 478.222,318.161 473.555,326.995 463.5,333C 456.973,333.734 450.473,333.567 444,332.5C 441.968,332.858 440.134,333.692 438.5,335C 431.991,335.5 425.491,335.333 419,334.5C 413.568,334.554 408.401,335.554 403.5,337.5C 409.557,332.866 416.557,331.199 424.5,332.5C 427.779,333.492 431.112,333.659 434.5,333C 437.689,331.789 440.856,330.623 444,329.5C 447.538,330.763 451.204,331.429 455,331.5C 457.033,331.494 458.866,331.161 460.5,330.5C 462.564,330.313 464.564,329.813 466.5,329C 474.834,321.357 476.834,312.191 472.5,301.5 Z"/></g>
<g><path style="opacity:0.695" fill="#b3b3b3" d="M 66.5,329.5 C 67.783,331.868 69.4497,334.035 71.5,336C 76.5,336.667 81.5,336.667 86.5,336C 89.0595,335.773 90.7262,334.44 91.5,332C 107.768,333.122 124.101,333.956 140.5,334.5C 127.017,334.727 113.351,334.727 99.5,334.5C 96.8127,334.336 94.146,334.503 91.5,335C 85.5597,338.149 79.2264,339.149 72.5,338C 68.3217,336.662 66.3217,333.828 66.5,329.5 Z"/></g>
<g><path style="opacity:0.804" fill="#c6c6c6" d="M 357.5,333.5 C 349.525,334.655 341.358,335.321 333,335.5C 316.51,334.68 300.01,334.346 283.5,334.5C 283.167,334.5 282.833,334.5 282.5,334.5C 281.207,333.842 279.707,333.508 278,333.5C 270.936,335.302 263.769,335.802 256.5,335C 255.058,334.623 254.058,333.79 253.5,332.5C 262.214,333.968 270.88,333.635 279.5,331.5C 282.792,332.375 286.125,333.042 289.5,333.5C 312.098,332.904 334.765,332.904 357.5,333.5 Z"/></g>
<g><path style="opacity:0.669" fill="#989898" d="M 218.5,333.5 C 219.833,333.167 221.167,332.833 222.5,332.5C 221.942,333.79 220.942,334.623 219.5,335C 217,335.167 214.5,335.333 212,335.5C 205.109,334.481 198.276,333.148 191.5,331.5C 189.5,331.667 187.5,331.833 185.5,332C 184.619,332.708 183.953,333.542 183.5,334.5C 169.174,335.793 154.84,335.793 140.5,334.5C 153.956,334.02 167.623,333.52 181.5,333C 183.453,331.367 185.62,330.201 188,329.5C 191.812,330.146 195.646,330.646 199.5,331C 205.53,334.441 211.863,335.274 218.5,333.5 Z"/></g>
<g><path style="opacity:0.335" fill="#686868" d="M 99.5,334.5 C 113.351,334.727 127.017,334.727 140.5,334.5C 154.84,335.793 169.174,335.793 183.5,334.5C 182.737,335.268 181.737,335.768 180.5,336C 153.33,336.83 126.33,336.664 99.5,335.5C 99.5,335.167 99.5,334.833 99.5,334.5 Z"/></g>
<g><path style="opacity:0.58" fill="#8e8e8e" d="M 248.5,328.5 C 250.167,329.833 251.833,331.167 253.5,332.5C 254.058,333.79 255.058,334.623 256.5,335C 263.769,335.802 270.936,335.302 278,333.5C 279.707,333.508 281.207,333.842 282.5,334.5C 273.258,336.23 263.924,336.73 254.5,336C 251.913,333.919 249.913,331.419 248.5,328.5 Z"/></g>
<g><path style="opacity:0.48" fill="#767676" d="M 379.5,333.5 C 379.833,334.167 380.167,334.833 380.5,335.5C 372.139,332.77 363.806,332.936 355.5,336C 343.5,336.167 331.5,336.333 319.5,336.5C 307.148,336.499 295.148,335.832 283.5,334.5C 300.01,334.346 316.51,334.68 333,335.5C 341.358,335.321 349.525,334.655 357.5,333.5C 362.501,332.916 367.501,332.25 372.5,331.5C 374.932,331.886 377.266,332.553 379.5,333.5 Z"/></g>
<g><path style="opacity:0.243" fill="#515151" d="M 424.5,331.5 C 424.5,331.833 424.5,332.167 424.5,332.5C 416.557,331.199 409.557,332.866 403.5,337.5C 396.159,337.666 388.826,337.5 381.5,337C 380.944,336.617 380.611,336.117 380.5,335.5C 387.841,335.666 395.174,335.5 402.5,335C 403.737,334.768 404.737,334.268 405.5,333.5C 411.604,331.689 417.938,331.022 424.5,331.5 Z"/></g>
<g><path style="opacity:0.345" fill="#585858" d="M 61.5,316.5 C 63.0011,320.077 64.0011,323.91 64.5,328C 64.8361,329.03 65.5028,329.53 66.5,329.5C 66.3217,333.828 68.3217,336.662 72.5,338C 79.2264,339.149 85.5597,338.149 91.5,335C 94.146,334.503 96.8127,334.336 99.5,334.5C 99.5,334.833 99.5,335.167 99.5,335.5C 95.7806,335.002 92.4473,335.836 89.5,338C 85.3683,339.045 81.2017,339.878 77,340.5C 74.2248,340.591 71.7248,339.924 69.5,338.5C 68.3569,338.092 67.3569,337.425 66.5,336.5C 62.7778,330.336 61.1112,323.669 61.5,316.5 Z"/></g>
<g><path style="opacity:0.075" fill="#181818" d="M 477.5,306.5 C 478.904,329.895 468.071,339.228 445,334.5C 440.769,336.519 436.269,337.853 431.5,338.5C 426.723,337.431 421.89,336.764 417,336.5C 407.603,339.429 397.936,341.095 388,341.5C 382.405,340.466 376.905,339.133 371.5,337.5C 368.607,338.392 365.774,338.392 363,337.5C 360.283,338.739 357.449,339.573 354.5,340C 348.976,340.287 343.476,340.787 338,341.5C 336.072,341.067 334.239,340.4 332.5,339.5C 314.844,340.805 297.177,340.805 279.5,339.5C 270.85,341.744 262.184,341.91 253.5,340C 250.06,337.613 246.393,335.78 242.5,334.5C 231.968,335.771 221.635,337.771 211.5,340.5C 204.402,339.864 197.568,338.198 191,335.5C 186.657,337.419 182.157,338.919 177.5,340C 153.941,340.394 130.441,340.56 107,340.5C 101.953,340.35 97.1202,339.684 92.5,338.5C 121.997,337.668 151.664,337.168 181.5,337C 184.79,335.501 188.124,334.334 191.5,333.5C 198.44,335.654 205.607,336.987 213,337.5C 222.587,334.93 232.42,333.264 242.5,332.5C 247.277,334.388 251.943,336.554 256.5,339C 264.113,339.944 271.613,339.444 279,337.5C 296.442,338.299 313.776,338.632 331,338.5C 343.882,338.092 356.715,337.092 369.5,335.5C 375.405,336.028 381.072,337.362 386.5,339.5C 392.331,338.971 397.998,338.305 403.5,337.5C 408.401,335.554 413.568,334.554 419,334.5C 425.491,335.333 431.991,335.5 438.5,335C 440.134,333.692 441.968,332.858 444,332.5C 450.473,333.567 456.973,333.734 463.5,333C 473.555,326.995 478.222,318.161 477.5,306.5 Z"/></g>
<g><path style="opacity:0.693" fill="#a2a2a2" d="M 379.5,333.5 C 388.115,334.079 396.782,334.079 405.5,333.5C 404.737,334.268 403.737,334.768 402.5,335C 395.174,335.5 387.841,335.666 380.5,335.5C 380.167,334.833 379.833,334.167 379.5,333.5 Z"/></g>
<g><path style="opacity:0.216" fill="#3a3a3a" d="M 248.5,328.5 C 249.913,331.419 251.913,333.919 254.5,336C 263.924,336.73 273.258,336.23 282.5,334.5C 282.833,334.5 283.167,334.5 283.5,334.5C 295.148,335.832 307.148,336.499 319.5,336.5C 331.5,336.333 343.5,336.167 355.5,336C 363.806,332.936 372.139,332.77 380.5,335.5C 380.611,336.117 380.944,336.617 381.5,337C 388.826,337.5 396.159,337.666 403.5,337.5C 397.998,338.305 392.331,338.971 386.5,339.5C 381.072,337.362 375.405,336.028 369.5,335.5C 356.715,337.092 343.882,338.092 331,338.5C 313.776,338.632 296.442,338.299 279,337.5C 271.613,339.444 264.113,339.944 256.5,339C 251.943,336.554 247.277,334.388 242.5,332.5C 232.42,333.264 222.587,334.93 213,337.5C 205.607,336.987 198.44,335.654 191.5,333.5C 188.124,334.334 184.79,335.501 181.5,337C 151.664,337.168 121.997,337.668 92.5,338.5C 85.7537,340.981 78.7537,341.981 71.5,341.5C 70.8333,340.5 70.1667,339.5 69.5,338.5C 71.7248,339.924 74.2248,340.591 77,340.5C 81.2017,339.878 85.3683,339.045 89.5,338C 92.4473,335.836 95.7806,335.002 99.5,335.5C 126.33,336.664 153.33,336.83 180.5,336C 181.737,335.768 182.737,335.268 183.5,334.5C 183.953,333.542 184.619,332.708 185.5,332C 187.5,331.833 189.5,331.667 191.5,331.5C 198.276,333.148 205.109,334.481 212,335.5C 214.5,335.333 217,335.167 219.5,335C 220.942,334.623 221.942,333.79 222.5,332.5C 222.833,332.5 223.167,332.5 223.5,332.5C 228.451,331.772 233.451,331.272 238.5,331C 241.412,328.021 244.745,327.188 248.5,328.5 Z"/></g>
</svg>
