<?xml version="1.0" encoding="UTF-8"?>
<!DOCTYPE svg PUBLIC "-//W3C//DTD SVG 1.1//EN" "http://www.w3.org/Graphics/SVG/1.1/DTD/svg11.dtd">
<svg xmlns="http://www.w3.org/2000/svg" version="1.1" width="500px" height="500px" style="shape-rendering:geometricPrecision; text-rendering:geometricPrecision; image-rendering:optimizeQuality; fill-rule:evenodd; clip-rule:evenodd" xmlns:xlink="http://www.w3.org/1999/xlink">
<g><path style="opacity:0.017" fill="#fdf3f3" d="M 54.5,188.5 C 54.5,200.167 54.5,211.833 54.5,223.5C 53.8826,223.611 53.3826,223.944 53,224.5C 52.6667,215.5 52.3333,206.5 52,197.5C 49.7379,193.528 50.0713,189.861 53,186.5C 53.2784,187.416 53.7784,188.082 54.5,188.5 Z"/></g>
<g><path style="opacity:0.19" fill="#f6cece" d="M 258.5,204.5 C 255.5,203.167 252.5,203.167 249.5,204.5C 250.514,203.235 252.014,202.569 254,202.5C 255.986,202.569 257.486,203.235 258.5,204.5 Z"/></g>
<g><path style="opacity:0.176" fill="#f7d2d1" d="M 304.5,203.5 C 301.941,203.198 299.607,203.532 297.5,204.5C 297.167,204.5 296.833,204.5 296.5,204.5C 297.334,203.252 298.667,202.585 300.5,202.5C 302.045,202.511 303.378,202.844 304.5,203.5 Z"/></g>
<g><path style="opacity:0.214" fill="#f7d0d4" d="M 421.5,203.5 C 422.793,202.842 424.293,202.508 426,202.5C 427.986,202.569 429.486,203.235 430.5,204.5C 430.167,204.5 429.833,204.5 429.5,204.5C 427.052,203.527 424.385,203.194 421.5,203.5 Z"/></g>
<g><path style="opacity:0.835" fill="#d47b75" d="M 390.5,203.5 C 390.5,203.833 390.5,204.167 390.5,204.5C 380.773,203.861 371.44,204.528 362.5,206.5C 361.662,206.158 361.328,205.492 361.5,204.5C 365.951,203.173 370.784,202.506 376,202.5C 381.012,202.501 385.845,202.834 390.5,203.5 Z"/></g>
<g><path style="opacity:1" fill="#c86760" d="M 413.5,204.5 C 413.5,205.833 413.5,207.167 413.5,208.5C 412.5,208.5 411.5,208.5 410.5,208.5C 410.5,208.167 410.5,207.833 410.5,207.5C 412.048,207.179 412.715,206.179 412.5,204.5C 407.833,204.5 403.167,204.5 398.5,204.5C 398.5,204.167 398.5,203.833 398.5,203.5C 400.304,202.838 402.304,202.505 404.5,202.5C 407.814,202.343 410.814,203.009 413.5,204.5 Z"/></g>
<g><path style="opacity:0.192" fill="#f5c9c9" d="M 223.5,204.5 C 223.5,204.167 223.5,203.833 223.5,203.5C 225.674,203.75 227.341,204.75 228.5,206.5C 227.391,206.443 226.391,206.11 225.5,205.5C 224.833,205.167 224.167,204.833 223.5,204.5 Z"/></g>
<g><path style="opacity:0.278" fill="#f6bebf" d="M 343.5,203.5 C 343.88,205.698 343.213,207.365 341.5,208.5C 341.796,206.597 342.463,204.93 343.5,203.5 Z"/></g>
<g><path style="opacity:0.69" fill="#e08d91" d="M 398.5,203.5 C 398.5,203.833 398.5,204.167 398.5,204.5C 396.833,205.833 395.167,207.167 393.5,208.5C 394.167,205.833 395.833,204.167 398.5,203.5 Z"/></g>
<g><path style="opacity:0.22" fill="#f0c2c5" d="M 351.5,203.5 C 352.906,203.973 353.573,204.973 353.5,206.5C 352.094,206.027 351.427,205.027 351.5,203.5 Z"/></g>
<g><path style="opacity:0.624" fill="#df7c74" d="M 361.5,204.5 C 361.328,205.492 361.662,206.158 362.5,206.5C 366.042,206.187 369.375,206.521 372.5,207.5C 369.167,207.5 365.833,207.5 362.5,207.5C 360.448,206.947 360.115,205.947 361.5,204.5 Z"/></g>
<g><path style="opacity:0.204" fill="#f1bebe" d="M 401.5,207.5 C 404.396,206.225 407.396,206.225 410.5,207.5C 410.5,207.833 410.5,208.167 410.5,208.5C 409.833,208.5 409.167,208.5 408.5,208.5C 406.393,207.532 404.059,207.198 401.5,207.5 Z"/></g>
<g><path style="opacity:0.059" fill="#fce8e7" d="M 413.5,204.5 C 414.451,205.919 414.784,207.585 414.5,209.5C 412.901,209.768 411.568,209.434 410.5,208.5C 411.5,208.5 412.5,208.5 413.5,208.5C 413.5,207.167 413.5,205.833 413.5,204.5 Z"/></g>
<g><path style="opacity:0.475" fill="#ebb0b1" d="M 228.5,206.5 C 230.262,207.262 231.262,208.596 231.5,210.5C 229.738,209.738 228.738,208.404 228.5,206.5 Z"/></g>
<g><path style="opacity:0.998" fill="#d32e2d" d="M 353.5,210.5 C 353.992,212.819 354.992,214.819 356.5,216.5C 356.528,219.916 357.528,222.916 359.5,225.5C 361.279,228.915 362.613,232.581 363.5,236.5C 363.5,237.833 363.5,239.167 363.5,240.5C 361.143,240.663 358.81,240.497 356.5,240C 355.622,237.151 354.289,234.651 352.5,232.5C 352.672,231.508 352.338,230.842 351.5,230.5C 351.5,229.5 351.5,228.5 351.5,227.5C 351.204,225.597 350.537,223.93 349.5,222.5C 348.977,219.11 348.143,215.777 347,212.5C 346.23,211.402 345.397,211.402 344.5,212.5C 344.511,210.983 345.177,209.816 346.5,209C 344.699,208.683 344.366,208.016 345.5,207C 349.264,205.968 351.931,207.134 353.5,210.5 Z"/></g>
<g><path style="opacity:0.004" fill="#fef8fa" d="M 408.5,208.5 C 408.103,209.525 407.437,209.692 406.5,209C 407.094,208.536 407.761,208.369 408.5,208.5 Z"/></g>
<g><path style="opacity:0.763" fill="#e58987" d="M 421.5,203.5 C 424.385,203.194 427.052,203.527 429.5,204.5C 427.167,204.5 424.833,204.5 422.5,204.5C 422.5,214.167 422.5,223.833 422.5,233.5C 421.732,232.737 421.232,231.737 421,230.5C 420.176,221.324 420.343,212.324 421.5,203.5 Z"/></g>
<g><path style="opacity:1" fill="#cf282f" d="M 210.5,207.5 C 210.5,217.5 210.5,227.5 210.5,237.5C 207.767,238.666 205.934,237.666 205,234.5C 204.584,225.522 204.418,216.689 204.5,208C 205.793,207.51 207.127,207.343 208.5,207.5C 208.334,214.508 208.5,221.508 209,228.5C 209.171,221.321 209.671,214.321 210.5,207.5 Z"/></g>
<g><path style="opacity:1" fill="#b71314" d="M 398.5,204.5 C 403.167,204.5 407.833,204.5 412.5,204.5C 412.715,206.179 412.048,207.179 410.5,207.5C 407.396,206.225 404.396,206.225 401.5,207.5C 400.153,206.972 398.819,206.805 397.5,207C 396.029,209.243 395.029,211.743 394.5,214.5C 393.534,212.604 393.201,210.604 393.5,208.5C 395.167,207.167 396.833,205.833 398.5,204.5 Z"/></g>
<g><path style="opacity:1" fill="#d82126" d="M 429.5,204.5 C 429.334,213.839 429.5,223.173 430,232.5C 430.278,233.416 430.778,234.082 431.5,234.5C 431.5,235.167 431.5,235.833 431.5,236.5C 431.179,238.048 430.179,238.715 428.5,238.5C 427.833,238.5 427.167,238.5 426.5,238.5C 425.833,237.167 424.833,236.167 423.5,235.5C 422.662,235.158 422.328,234.492 422.5,233.5C 422.5,223.833 422.5,214.167 422.5,204.5C 424.833,204.5 427.167,204.5 429.5,204.5 Z"/></g>
<g><path style="opacity:0.196" fill="#f7cacc" d="M 304.5,203.5 C 305.487,208.305 305.821,213.305 305.5,218.5C 309.167,218.5 312.833,218.5 316.5,218.5C 316.179,213.305 316.513,208.305 317.5,203.5C 317.5,208.833 317.5,214.167 317.5,219.5C 313.167,219.5 308.833,219.5 304.5,219.5C 304.5,214.167 304.5,208.833 304.5,203.5 Z"/></g>
<g><path style="opacity:0.878" fill="#e89697" d="M 353.5,207.5 C 355.072,210.215 356.072,213.215 356.5,216.5C 354.992,214.819 353.992,212.819 353.5,210.5C 353.5,209.5 353.5,208.5 353.5,207.5 Z"/></g>
<g><path style="opacity:1" fill="#890403" d="M 56.5,186.5 C 56.5,186.833 56.5,187.167 56.5,187.5C 56.1774,210.908 56.5108,234.242 57.5,257.5C 56.8333,257.5 56.1667,257.5 55.5,257.5C 55.1691,233.661 55.5024,209.994 56.5,186.5 Z"/></g>
<g><path style="opacity:0.616" fill="#edabb0" d="M 260.5,209.5 C 261.738,211.214 262.405,213.214 262.5,215.5C 260.926,213.898 260.259,211.898 260.5,209.5 Z"/></g>
<g><path style="opacity:0.639" fill="#eaadac" d="M 341.5,209.5 C 341.741,211.898 341.074,213.898 339.5,215.5C 339.595,213.214 340.262,211.214 341.5,209.5 Z"/></g>
<g><path style="opacity:1" fill="#c90c11" d="M 297.5,204.5 C 299.5,204.5 301.5,204.5 303.5,204.5C 303.666,209.511 303.499,214.511 303,219.5C 301.731,215.351 301.065,211.018 301,206.5C 300.5,217.828 300.333,229.162 300.5,240.5C 299.5,240.5 298.5,240.5 297.5,240.5C 297.5,228.5 297.5,216.5 297.5,204.5 Z"/></g>
<g><path style="opacity:0.696" fill="#ec9695" d="M 429.5,204.5 C 429.833,204.5 430.167,204.5 430.5,204.5C 431.494,214.319 431.827,224.319 431.5,234.5C 430.778,234.082 430.278,233.416 430,232.5C 429.5,223.173 429.334,213.839 429.5,204.5 Z"/></g>
<g><path style="opacity:0.031" fill="#f9d7d8" d="M 251.5,211.5 C 254.181,214.192 255.514,217.525 255.5,221.5C 253.386,220.68 251.386,220.347 249.5,220.5C 249.873,217.426 250.539,214.426 251.5,211.5 Z"/></g>
<g><path style="opacity:0.077" fill="#fbd8d9" d="M 444.5,203.5 C 444.5,213.167 444.5,222.833 444.5,232.5C 444.912,234.973 443.912,236.306 441.5,236.5C 441.783,235.711 442.283,235.044 443,234.5C 443.17,223.992 443.67,213.659 444.5,203.5 Z"/></g>
<g><path style="opacity:0.882" fill="#d78985" d="M 246.5,214.5 C 246.88,216.698 246.213,218.365 244.5,219.5C 244.402,217.447 245.069,215.78 246.5,214.5 Z"/></g>
<g><path style="opacity:0.804" fill="#eb9f9d" d="M 404.5,216.5 C 406.23,217.026 407.564,218.026 408.5,219.5C 406.368,219.446 405.035,218.446 404.5,216.5 Z"/></g>
<g><path style="opacity:0.994" fill="#cd504a" d="M 223.5,203.5 C 223.5,203.833 223.5,204.167 223.5,204.5C 216.833,204.5 210.167,204.5 203.5,204.5C 203.5,216.167 203.5,227.833 203.5,239.5C 210.833,239.5 218.167,239.5 225.5,239.5C 225.158,240.338 224.492,240.672 223.5,240.5C 216.5,240.5 209.5,240.5 202.5,240.5C 202.5,228.167 202.5,215.833 202.5,203.5C 209.401,202.19 216.401,202.19 223.5,203.5 Z"/></g>
<g><path style="opacity:0.647" fill="#e39393" d="M 296.5,204.5 C 296.833,204.5 297.167,204.5 297.5,204.5C 297.5,216.5 297.5,228.5 297.5,240.5C 297.167,240.5 296.833,240.5 296.5,240.5C 295.198,228.372 295.198,216.372 296.5,204.5 Z"/></g>
<g><path style="opacity:0.957" fill="#c94645" d="M 325.5,203.5 C 325.5,215.833 325.5,228.167 325.5,240.5C 322.833,240.5 320.167,240.5 317.5,240.5C 317.5,234.833 317.5,229.167 317.5,223.5C 317.5,223.167 317.5,222.833 317.5,222.5C 318.489,227.975 318.822,233.642 318.5,239.5C 320.5,239.5 322.5,239.5 324.5,239.5C 324.5,227.833 324.5,216.167 324.5,204.5C 322.5,204.5 320.5,204.5 318.5,204.5C 318.821,209.695 318.487,214.695 317.5,219.5C 317.5,214.167 317.5,208.833 317.5,203.5C 320.167,202.167 322.833,202.167 325.5,203.5 Z"/></g>
<g><path style="opacity:0.013" fill="#fbe1e2" d="M 349.5,222.5 C 347.72,223.755 345.887,223.755 344,222.5C 342.189,223.424 342.355,224.257 344.5,225C 343.944,225.383 343.611,225.883 343.5,226.5C 342.167,226.5 341.5,225.833 341.5,224.5C 342.188,220.416 343.188,216.416 344.5,212.5C 345.397,211.402 346.23,211.402 347,212.5C 348.143,215.777 348.977,219.11 349.5,222.5 Z"/></g>
<g><path style="opacity:0.753" fill="#ea9c9d" d="M 356.5,216.5 C 358.072,219.215 359.072,222.215 359.5,225.5C 357.528,222.916 356.528,219.916 356.5,216.5 Z"/></g>
<g><path style="opacity:1" fill="#bf463b" d="M 248.5,207.5 C 248.215,209.288 248.548,210.955 249.5,212.5C 250.183,212.137 250.85,211.804 251.5,211.5C 250.539,214.426 249.873,217.426 249.5,220.5C 249.737,221.791 249.404,222.791 248.5,223.5C 247.833,224.167 247.167,224.833 246.5,225.5C 246.843,223.517 246.176,222.183 244.5,221.5C 244.5,220.833 244.5,220.167 244.5,219.5C 246.213,218.365 246.88,216.698 246.5,214.5C 246.41,211.848 247.076,209.515 248.5,207.5 Z"/></g>
<g><path style="opacity:1" fill="#ca1f1d" d="M 390.5,204.5 C 390.5,205.5 390.5,206.5 390.5,207.5C 387.167,207.5 383.833,207.5 380.5,207.5C 380.5,218.5 380.5,229.5 380.5,240.5C 379.5,240.5 378.5,240.5 377.5,240.5C 377.179,229.252 377.513,218.085 378.5,207C 377.552,206.517 376.552,206.351 375.5,206.5C 375.5,217.833 375.5,229.167 375.5,240.5C 374.5,240.5 373.5,240.5 372.5,240.5C 372.5,229.5 372.5,218.5 372.5,207.5C 369.375,206.521 366.042,206.187 362.5,206.5C 371.44,204.528 380.773,203.861 390.5,204.5 Z"/></g>
<g><path style="opacity:0.686" fill="#eca6a1" d="M 395.5,220.5 C 397.749,221.08 399.415,222.413 400.5,224.5C 398.251,223.92 396.585,222.587 395.5,220.5 Z"/></g>
<g><path style="opacity:0.455" fill="#eaa7a9" d="M 202.5,203.5 C 202.5,215.833 202.5,228.167 202.5,240.5C 209.5,240.5 216.5,240.5 223.5,240.5C 216.352,241.492 209.019,241.825 201.5,241.5C 201.171,228.656 201.505,215.989 202.5,203.5 Z"/></g>
<g><path style="opacity:0.718" fill="#ea989d" d="M 263.5,218.5 C 264.738,220.214 265.405,222.214 265.5,224.5C 263.926,222.898 263.259,220.898 263.5,218.5 Z"/></g>
<g><path style="opacity:1" fill="#d33c37" d="M 401.5,207.5 C 399.632,211.516 400.632,214.516 404.5,216.5C 405.035,218.446 406.368,219.446 408.5,219.5C 410.167,220.5 411.5,221.833 412.5,223.5C 412.427,225.027 413.094,226.027 414.5,226.5C 415.665,227.496 416.332,228.829 416.5,230.5C 416.344,233.889 415.011,236.556 412.5,238.5C 410.708,238.634 409.042,238.301 407.5,237.5C 409.102,234.466 408.769,231.799 406.5,229.5C 405.5,229.167 404.833,228.5 404.5,227.5C 403.738,225.738 402.404,224.738 400.5,224.5C 399.415,222.413 397.749,221.08 395.5,220.5C 392.434,216.91 391.767,212.91 393.5,208.5C 393.201,210.604 393.534,212.604 394.5,214.5C 395.029,211.743 396.029,209.243 397.5,207C 398.819,206.805 400.153,206.972 401.5,207.5 Z"/></g>
<g><path style="opacity:0.335" fill="#f1b9bb" d="M 210.5,207.5 C 210.833,207.5 211.167,207.5 211.5,207.5C 211.5,217.167 211.5,226.833 211.5,236.5C 221.245,237.066 225.579,232.399 224.5,222.5C 224.164,219.159 223.831,215.825 223.5,212.5C 224.167,213.5 224.833,214.5 225.5,215.5C 226.081,222.061 225.248,228.395 223,234.5C 219.285,237.076 215.118,238.076 210.5,237.5C 210.5,227.5 210.5,217.5 210.5,207.5 Z"/></g>
<g><path style="opacity:1" fill="#c31519" d="M 231.5,212.5 C 232.4,217.772 232.733,223.105 232.5,228.5C 231.962,230.117 231.629,231.784 231.5,233.5C 230.094,233.973 229.427,234.973 229.5,236.5C 227.016,235.036 227.016,233.369 229.5,231.5C 230.664,225.528 230.83,219.528 230,213.5C 228.08,210.018 228.58,209.685 231.5,212.5 Z"/></g>
<g><path style="opacity:0.922" fill="#de7b7d" d="M 231.5,210.5 C 234.502,216.169 235.168,222.169 233.5,228.5C 233.167,228.5 232.833,228.5 232.5,228.5C 232.733,223.105 232.4,217.772 231.5,212.5C 231.5,211.833 231.5,211.167 231.5,210.5 Z"/></g>
<g><path style="opacity:0.643" fill="#eaaaab" d="M 244.5,219.5 C 244.5,220.167 244.5,220.833 244.5,221.5C 244.245,223.967 243.245,225.967 241.5,227.5C 242.129,224.603 243.129,221.936 244.5,219.5 Z"/></g>
<g><path style="opacity:0.98" fill="#db3f41" d="M 380.5,240.5 C 377.833,241.833 375.167,241.833 372.5,240.5C 373.5,240.5 374.5,240.5 375.5,240.5C 375.5,229.167 375.5,217.833 375.5,206.5C 376.552,206.351 377.552,206.517 378.5,207C 377.513,218.085 377.179,229.252 377.5,240.5C 378.5,240.5 379.5,240.5 380.5,240.5 Z"/></g>
<g><path style="opacity:0.855" fill="#e3898a" d="M 400.5,224.5 C 402.404,224.738 403.738,225.738 404.5,227.5C 402.596,227.262 401.262,226.262 400.5,224.5 Z"/></g>
<g><path style="opacity:0.673" fill="#d77676" d="M 448.5,236.5 C 448.5,234.5 448.5,232.5 448.5,230.5C 448.5,221.833 448.5,213.167 448.5,204.5C 447.5,204.5 446.5,204.5 445.5,204.5C 445.5,213.833 445.5,223.167 445.5,232.5C 445.167,232.5 444.833,232.5 444.5,232.5C 444.5,222.833 444.5,213.167 444.5,203.5C 445.919,202.549 447.585,202.216 449.5,202.5C 449.329,211.708 449.663,220.708 450.5,229.5C 449.933,231.982 449.266,234.316 448.5,236.5 Z"/></g>
<g><path style="opacity:0.467" fill="#e79da0" d="M 412.5,223.5 C 413.906,223.973 414.573,224.973 414.5,226.5C 413.094,226.027 412.427,225.027 412.5,223.5 Z"/></g>
<g><path style="opacity:0.281" fill="#f8c0bd" d="M 248.5,223.5 C 249.244,225.453 250.744,226.453 253,226.5C 254.681,226.392 255.848,225.725 256.5,224.5C 257.338,224.842 257.672,225.508 257.5,226.5C 255.866,227.161 254.033,227.494 252,227.5C 249.705,227.453 247.871,226.787 246.5,225.5C 247.167,224.833 247.833,224.167 248.5,223.5 Z"/></g>
<g><path style="opacity:0.313" fill="#f0bfc0" d="M 285.5,203.5 C 286.495,215.989 286.829,228.656 286.5,241.5C 283.167,241.5 279.833,241.5 276.5,241.5C 276.5,228.5 276.5,215.5 276.5,202.5C 279.713,202.19 282.713,202.523 285.5,203.5 Z"/></g>
<g><path style="opacity:0.873" fill="#bb3a3c" d="M 277.5,204.5 C 279.948,203.527 282.615,203.194 285.5,203.5C 285.829,216.011 285.495,228.345 284.5,240.5C 284.5,229.5 284.5,218.5 284.5,207.5C 284.5,206.5 284.5,205.5 284.5,204.5C 282.167,204.5 279.833,204.5 277.5,204.5 Z"/></g>
<g><path style="opacity:1" fill="#ba0e10" d="M 277.5,204.5 C 279.833,204.5 282.167,204.5 284.5,204.5C 284.5,205.5 284.5,206.5 284.5,207.5C 282.883,206.962 281.216,206.629 279.5,206.5C 279.5,217.833 279.5,229.167 279.5,240.5C 277.521,228.88 276.854,216.88 277.5,204.5 Z"/></g>
<g><path style="opacity:1" fill="#cf282c" d="M 284.5,207.5 C 284.5,218.5 284.5,229.5 284.5,240.5C 282.833,240.5 281.167,240.5 279.5,240.5C 279.5,229.167 279.5,217.833 279.5,206.5C 281.216,206.629 282.883,206.962 284.5,207.5 Z"/></g>
<g><path style="opacity:0.3" fill="#f8bdbb" d="M 349.5,222.5 C 350.537,223.93 351.204,225.597 351.5,227.5C 347.833,227.5 344.167,227.5 340.5,227.5C 340.263,226.209 340.596,225.209 341.5,224.5C 341.5,225.833 342.167,226.5 343.5,226.5C 345.5,226.5 347.5,226.5 349.5,226.5C 349.5,225.167 349.5,223.833 349.5,222.5 Z"/></g>
<g><path style="opacity:0.808" fill="#e99395" d="M 265.5,224.5 C 267.208,227.95 268.541,231.617 269.5,235.5C 267.01,232.374 265.677,228.708 265.5,224.5 Z"/></g>
<g><path style="opacity:0.196" fill="#f1bec0" d="M 325.5,203.5 C 326.495,215.989 326.829,228.656 326.5,241.5C 323.167,241.5 319.833,241.5 316.5,241.5C 316.5,235.5 316.5,229.5 316.5,223.5C 316.833,223.5 317.167,223.5 317.5,223.5C 317.5,229.167 317.5,234.833 317.5,240.5C 320.167,240.5 322.833,240.5 325.5,240.5C 325.5,228.167 325.5,215.833 325.5,203.5 Z"/></g>
<g><path style="opacity:0.998" fill="#d6403c" d="M 225.5,205.5 C 226.391,206.11 227.391,206.443 228.5,206.5C 228.738,208.404 229.738,209.738 231.5,210.5C 231.5,211.167 231.5,211.833 231.5,212.5C 228.58,209.685 228.08,210.018 230,213.5C 230.83,219.528 230.664,225.528 229.5,231.5C 227.016,233.369 227.016,235.036 229.5,236.5C 229.167,237.5 228.5,238.167 227.5,238.5C 226.993,237.141 225.993,236.141 224.5,235.5C 228.618,228.443 229.285,221.11 226.5,213.5C 225.702,213.957 225.369,214.624 225.5,215.5C 224.833,214.5 224.167,213.5 223.5,212.5C 222.636,211.312 221.636,210.145 220.5,209C 217.635,208.817 214.969,208.317 212.5,207.5C 217.122,207.844 221.455,207.177 225.5,205.5 Z"/></g>
<g><path style="opacity:1" fill="#d32f2c" d="M 258.5,204.5 C 259.931,205.78 260.598,207.447 260.5,209.5C 260.259,211.898 260.926,213.898 262.5,215.5C 263.404,216.209 263.737,217.209 263.5,218.5C 263.259,220.898 263.926,222.898 265.5,224.5C 265.677,228.708 267.01,232.374 269.5,235.5C 269.286,237.144 269.62,238.644 270.5,240C 267.518,240.498 264.518,240.665 261.5,240.5C 261.5,240.167 261.5,239.833 261.5,239.5C 261.741,237.102 261.074,235.102 259.5,233.5C 258.662,233.158 258.328,232.492 258.5,231.5C 258.5,230.833 258.167,230.5 257.5,230.5C 258.686,229.039 258.686,227.705 257.5,226.5C 257.672,225.508 257.338,224.842 256.5,224.5C 255.596,223.791 255.263,222.791 255.5,221.5C 255.514,217.525 254.181,214.192 251.5,211.5C 250.85,211.804 250.183,212.137 249.5,212.5C 248.548,210.955 248.215,209.288 248.5,207.5C 248.263,206.209 248.596,205.209 249.5,204.5C 252.5,203.167 255.5,203.167 258.5,204.5 Z"/></g>
<g><path style="opacity:0.987" fill="#c92225" d="M 297.5,204.5 C 299.607,203.532 301.941,203.198 304.5,203.5C 304.5,208.833 304.5,214.167 304.5,219.5C 308.833,219.5 313.167,219.5 317.5,219.5C 318.487,214.695 318.821,209.695 318.5,204.5C 320.5,204.5 322.5,204.5 324.5,204.5C 324.5,216.167 324.5,227.833 324.5,239.5C 322.5,239.5 320.5,239.5 318.5,239.5C 318.822,233.642 318.489,227.975 317.5,222.5C 313.167,222.5 308.833,222.5 304.5,222.5C 304.5,228.5 304.5,234.5 304.5,240.5C 303.167,240.5 301.833,240.5 300.5,240.5C 300.333,229.162 300.5,217.828 301,206.5C 301.065,211.018 301.731,215.351 303,219.5C 303.499,214.511 303.666,209.511 303.5,204.5C 301.5,204.5 299.5,204.5 297.5,204.5 Z"/></g>
<g><path style="opacity:0.006" fill="#fcf5f8" d="M 313.5,225.5 C 313.897,224.475 314.563,224.308 315.5,225C 314.906,225.464 314.239,225.631 313.5,225.5 Z"/></g>
<g><path style="opacity:0.004" fill="#fdf0f4" d="M 306.5,224.5 C 307.833,225.167 307.833,225.167 306.5,224.5 Z"/></g>
<g><path style="opacity:0.009" fill="#f9f2f1" d="M 314.5,215.5 C 315.043,215.56 315.376,215.893 315.5,216.5C 314.635,217.583 313.635,217.749 312.5,217C 313.416,216.722 314.082,216.222 314.5,215.5 Z"/></g>
<g><path style="opacity:0.004" fill="#faeff2" d="M 307.5,216.5 C 308.833,217.167 308.833,217.167 307.5,216.5 Z"/></g>
<g><path style="opacity:0.264" fill="#f0adb2" d="M 317.5,222.5 C 317.5,222.833 317.5,223.167 317.5,223.5C 317.167,223.5 316.833,223.5 316.5,223.5C 312.833,223.5 309.167,223.5 305.5,223.5C 305.5,229.5 305.5,235.5 305.5,241.5C 302.287,241.81 299.287,241.477 296.5,240.5C 296.833,240.5 297.167,240.5 297.5,240.5C 298.5,240.5 299.5,240.5 300.5,240.5C 301.833,240.5 303.167,240.5 304.5,240.5C 304.5,234.5 304.5,228.5 304.5,222.5C 308.833,222.5 313.167,222.5 317.5,222.5 Z"/></g>
<g><path style="opacity:0.048" fill="#fee8e8" d="M 390.5,203.5 C 391.622,205.288 391.789,207.288 391,209.5C 387.943,208.549 384.777,208.216 381.5,208.5C 381.828,219.346 381.494,230.013 380.5,240.5C 380.5,229.5 380.5,218.5 380.5,207.5C 383.833,207.5 387.167,207.5 390.5,207.5C 390.5,206.5 390.5,205.5 390.5,204.5C 390.5,204.167 390.5,203.833 390.5,203.5 Z"/></g>
<g><path style="opacity:0.51" fill="#e0a8a5" d="M 177.5,186.5 C 137.167,186.5 96.8333,186.5 56.5,186.5C 55.5024,209.994 55.1691,233.661 55.5,257.5C 55.5,257.833 55.5,258.167 55.5,258.5C 55.1667,258.5 54.8333,258.5 54.5,258.5C 54.3513,246.99 54.3513,235.323 54.5,223.5C 54.5,211.833 54.5,200.167 54.5,188.5C 54.5,187.5 54.5,186.5 54.5,185.5C 95.6701,185.168 136.67,185.501 177.5,186.5 Z"/></g>
<g><path style="opacity:0.261" fill="#eab3b3" d="M 257.5,230.5 C 258.167,230.5 258.5,230.833 258.5,231.5C 254.486,231.334 250.486,231.501 246.5,232C 244.998,235.005 243.998,238.171 243.5,241.5C 241.143,241.663 238.81,241.497 236.5,241C 237.085,239.698 237.751,238.531 238.5,237.5C 238.5,238.5 238.5,239.5 238.5,240.5C 239.833,240.5 241.167,240.5 242.5,240.5C 242.998,237.171 243.998,234.005 245.5,231C 249.486,230.501 253.486,230.334 257.5,230.5 Z"/></g>
<g><path style="opacity:0.737" fill="#e29695" d="M 335.5,227.5 C 335.741,229.898 335.074,231.898 333.5,233.5C 333.595,231.214 334.262,229.214 335.5,227.5 Z"/></g>
<g><path style="opacity:0.294" fill="#ebb0b1" d="M 351.5,230.5 C 352.338,230.842 352.672,231.508 352.5,232.5C 348.587,231.404 344.587,231.238 340.5,232C 339.052,234.876 337.719,237.709 336.5,240.5C 336.596,237.044 337.596,233.877 339.5,231C 343.486,230.501 347.486,230.334 351.5,230.5 Z"/></g>
<g><path style="opacity:0.184" fill="#f8d4d3" d="M 362.5,207.5 C 365.833,207.5 369.167,207.5 372.5,207.5C 372.5,218.5 372.5,229.5 372.5,240.5C 371.506,230.013 371.172,219.346 371.5,208.5C 368.287,208.81 365.287,208.477 362.5,207.5 Z"/></g>
<g><path style="opacity:0.275" fill="#f1bcc1" d="M 232.5,228.5 C 232.833,228.5 233.167,228.5 233.5,228.5C 233.598,230.553 232.931,232.22 231.5,233.5C 231.629,231.784 231.962,230.117 232.5,228.5 Z"/></g>
<g><path style="opacity:0.741" fill="#e49f9b" d="M 241.5,228.5 C 241.741,230.898 241.074,232.898 239.5,234.5C 239.595,232.214 240.262,230.214 241.5,228.5 Z"/></g>
<g><path style="opacity:1" fill="#c13429" d="M 351.5,203.5 C 351.427,205.027 352.094,206.027 353.5,206.5C 353.5,206.833 353.5,207.167 353.5,207.5C 353.5,208.5 353.5,209.5 353.5,210.5C 351.931,207.134 349.264,205.968 345.5,207C 344.366,208.016 344.699,208.683 346.5,209C 345.177,209.816 344.511,210.983 344.5,212.5C 343.188,216.416 342.188,220.416 341.5,224.5C 340.596,225.209 340.263,226.209 340.5,227.5C 344.167,227.5 347.833,227.5 351.5,227.5C 351.5,228.5 351.5,229.5 351.5,230.5C 347.486,230.334 343.486,230.501 339.5,231C 337.596,233.877 336.596,237.044 336.5,240.5C 335.167,240.5 333.833,240.5 332.5,240.5C 332.993,238.194 333.326,235.861 333.5,233.5C 335.074,231.898 335.741,229.898 335.5,227.5C 336.261,223.216 337.595,219.216 339.5,215.5C 341.074,213.898 341.741,211.898 341.5,209.5C 341.5,209.167 341.5,208.833 341.5,208.5C 343.213,207.365 343.88,205.698 343.5,203.5C 346.167,202.167 348.833,202.167 351.5,203.5 Z"/></g>
<g><path style="opacity:1" fill="#b80a09" d="M 448.5,230.5 C 447.835,232.369 447.169,234.369 446.5,236.5C 445.571,235.311 445.238,233.978 445.5,232.5C 445.5,223.167 445.5,213.833 445.5,204.5C 446.5,204.5 447.5,204.5 448.5,204.5C 448.5,213.167 448.5,221.833 448.5,230.5 Z"/></g>
<g><path style="opacity:0.582" fill="#d9747b" d="M 56.5,187.5 C 56.5,187.167 56.5,186.833 56.5,186.5C 96.8333,186.5 137.167,186.5 177.5,186.5C 178.783,208.445 178.783,230.445 177.5,252.5C 177.167,252.5 176.833,252.5 176.5,252.5C 176.831,230.66 176.497,208.994 175.5,187.5C 136.167,187.5 96.8333,187.5 57.5,187.5C 57.1667,187.5 56.8333,187.5 56.5,187.5 Z"/></g>
<g><path style="opacity:0.031" fill="#f4c5c7" d="M 231.5,233.5 C 231.573,235.027 230.906,236.027 229.5,236.5C 229.427,234.973 230.094,233.973 231.5,233.5 Z"/></g>
<g><path style="opacity:1" fill="#b61e17" d="M 244.5,221.5 C 246.176,222.183 246.843,223.517 246.5,225.5C 247.871,226.787 249.705,227.453 252,227.5C 254.033,227.494 255.866,227.161 257.5,226.5C 258.686,227.705 258.686,229.039 257.5,230.5C 253.486,230.334 249.486,230.501 245.5,231C 243.998,234.005 242.998,237.171 242.5,240.5C 241.167,240.5 239.833,240.5 238.5,240.5C 238.5,239.5 238.5,238.5 238.5,237.5C 238.263,236.209 238.596,235.209 239.5,234.5C 241.074,232.898 241.741,230.898 241.5,228.5C 241.5,228.167 241.5,227.833 241.5,227.5C 243.245,225.967 244.245,223.967 244.5,221.5 Z"/></g>
<g><path style="opacity:0.604" fill="#eca9ae" d="M 431.5,234.5 C 432.5,234.833 433.167,235.5 433.5,236.5C 432.833,236.5 432.167,236.5 431.5,236.5C 431.5,235.833 431.5,235.167 431.5,234.5 Z"/></g>
<g><path style="opacity:0.004" fill="#f9f4f4" d="M 436.5,235.5 C 437.833,236.167 437.833,236.167 436.5,235.5 Z"/></g>
<g><path style="opacity:0.565" fill="#e99d9e" d="M 259.5,233.5 C 261.074,235.102 261.741,237.102 261.5,239.5C 260.262,237.786 259.595,235.786 259.5,233.5 Z"/></g>
<g><path style="opacity:0.157" fill="#e2abab" d="M 406.5,229.5 C 408.769,231.799 409.102,234.466 407.5,237.5C 403.237,238.876 399.07,238.543 395,236.5C 394.5,236.833 394,237.167 393.5,237.5C 394.193,238.518 394.859,239.518 395.5,240.5C 394.504,240.586 393.671,240.252 393,239.5C 392.506,237.866 392.34,236.199 392.5,234.5C 395.551,235.603 398.718,236.269 402,236.5C 403.707,236.492 405.207,236.158 406.5,235.5C 407.573,233.653 407.573,231.653 406.5,229.5 Z"/></g>
<g><path style="opacity:0.004" fill="#fdf6f2" d="M 406.5,235.5 C 405.833,234.167 405.833,234.167 406.5,235.5 Z"/></g>
<g><path style="opacity:0.008" fill="#f4c8c9" d="M 423.5,235.5 C 424.833,236.167 425.833,237.167 426.5,238.5C 424.5,238.5 423.5,237.5 423.5,235.5 Z"/></g>
<g><path style="opacity:1" fill="#c31f1d" d="M 223.5,204.5 C 224.167,204.833 224.833,205.167 225.5,205.5C 221.455,207.177 217.122,207.844 212.5,207.5C 212.167,207.5 211.833,207.5 211.5,207.5C 211.167,207.5 210.833,207.5 210.5,207.5C 209.671,214.321 209.171,221.321 209,228.5C 208.5,221.508 208.334,214.508 208.5,207.5C 207.127,207.343 205.793,207.51 204.5,208C 204.418,216.689 204.584,225.522 205,234.5C 205.934,237.666 207.767,238.666 210.5,237.5C 215.118,238.076 219.285,237.076 223,234.5C 225.248,228.395 226.081,222.061 225.5,215.5C 225.369,214.624 225.702,213.957 226.5,213.5C 229.285,221.11 228.618,228.443 224.5,235.5C 225.993,236.141 226.993,237.141 227.5,238.5C 227.158,239.338 226.492,239.672 225.5,239.5C 218.167,239.5 210.833,239.5 203.5,239.5C 203.5,227.833 203.5,216.167 203.5,204.5C 210.167,204.5 216.833,204.5 223.5,204.5 Z"/></g>
<g><path style="opacity:1" fill="#b0221c" d="M 448.5,230.5 C 448.5,232.5 448.5,234.5 448.5,236.5C 448.5,237.167 448.167,237.5 447.5,237.5C 446.5,237.833 445.833,238.5 445.5,239.5C 445.158,240.338 444.492,240.672 443.5,240.5C 438.833,240.5 434.167,240.5 429.5,240.5C 429.167,239.833 428.833,239.167 428.5,238.5C 430.179,238.715 431.179,238.048 431.5,236.5C 432.167,236.5 432.833,236.5 433.5,236.5C 436.167,239.167 438.833,239.167 441.5,236.5C 443.912,236.306 444.912,234.973 444.5,232.5C 444.833,232.5 445.167,232.5 445.5,232.5C 445.238,233.978 445.571,235.311 446.5,236.5C 447.169,234.369 447.835,232.369 448.5,230.5 Z"/></g>
<g><path style="opacity:0.51" fill="#dba4a4" d="M 433.5,236.5 C 434.5,236.5 435.5,236.5 436.5,236.5C 437.935,237.096 439.602,237.096 441.5,236.5C 438.833,239.167 436.167,239.167 433.5,236.5 Z"/></g>
<g><path style="opacity:1" fill="#a6241a" d="M 407.5,237.5 C 409.042,238.301 410.708,238.634 412.5,238.5C 412.027,239.906 411.027,240.573 409.5,240.5C 404.833,240.5 400.167,240.5 395.5,240.5C 394.859,239.518 394.193,238.518 393.5,237.5C 394,237.167 394.5,236.833 395,236.5C 399.07,238.543 403.237,238.876 407.5,237.5 Z"/></g>
<g><path style="opacity:0.027" fill="#eec1c0" d="M 447.5,237.5 C 447.5,238.833 446.833,239.5 445.5,239.5C 445.833,238.5 446.5,237.833 447.5,237.5 Z"/></g>
<g><path style="opacity:0.278" fill="#eeb3b6" d="M 426.5,238.5 C 427.167,238.5 427.833,238.5 428.5,238.5C 428.833,239.167 429.167,239.833 429.5,240.5C 427.973,240.573 426.973,239.906 426.5,238.5 Z"/></g>
<g><path style="opacity:0.365" fill="#eab4b5" d="M 269.5,235.5 C 270.738,237.214 271.405,239.214 271.5,241.5C 267.958,241.813 264.625,241.479 261.5,240.5C 264.518,240.665 267.518,240.498 270.5,240C 269.62,238.644 269.286,237.144 269.5,235.5 Z"/></g>
<g><path style="opacity:0.463" fill="#e2a8a9" d="M 333.5,233.5 C 333.326,235.861 332.993,238.194 332.5,240.5C 333.833,240.5 335.167,240.5 336.5,240.5C 334.636,241.793 332.636,241.793 330.5,240.5C 331.33,237.984 332.33,235.65 333.5,233.5 Z"/></g>
<g><path style="opacity:0.34" fill="#ebaeae" d="M 352.5,232.5 C 354.289,234.651 355.622,237.151 356.5,240C 358.81,240.497 361.143,240.663 363.5,240.5C 363.5,239.167 363.5,237.833 363.5,236.5C 364.234,237.878 364.901,239.378 365.5,241C 362.167,241.667 358.833,241.667 355.5,241C 354.202,238.273 353.202,235.44 352.5,232.5 Z"/></g>
<g><path style="opacity:0.671" fill="#dda1a1" d="M 429.5,240.5 C 434.167,240.5 438.833,240.5 443.5,240.5C 438.833,243.167 434.167,243.167 429.5,240.5 Z"/></g>
<g><path style="opacity:0.078" fill="#ebbfbf" d="M 395.5,240.5 C 400.167,240.5 404.833,240.5 409.5,240.5C 404.851,243.076 400.184,243.076 395.5,240.5 Z"/></g>
<g><path style="opacity:0.004" fill="#fdf4f4" d="M 52.5,244.5 C 53.6291,246.628 53.7958,248.961 53,251.5C 52.5034,249.19 52.3367,246.857 52.5,244.5 Z"/></g>
<g><path style="opacity:1" fill="#c81e23" d="M 56.5,187.5 C 56.8333,187.5 57.1667,187.5 57.5,187.5C 57.1693,209.673 57.5026,231.673 58.5,253.5C 58.5,254.5 58.5,255.5 58.5,256.5C 97.8476,257.161 136.848,256.494 175.5,254.5C 175.5,238.5 175.5,222.5 175.5,206.5C 175.5,201.167 175.5,195.833 175.5,190.5C 175.5,189.5 175.5,188.5 175.5,187.5C 176.497,208.994 176.831,230.66 176.5,252.5C 176.5,254.167 176.5,255.833 176.5,257.5C 136.833,257.5 97.1667,257.5 57.5,257.5C 56.5108,234.242 56.1774,210.908 56.5,187.5 Z M 149.5,227.5 C 148.042,229.011 146.209,230.011 144,230.5C 139.632,230.48 135.466,231.814 131.5,234.5C 130.833,234.167 130.167,233.833 129.5,233.5C 126.798,234.522 124.131,235.522 121.5,236.5C 121.167,235.167 120.833,235.167 120.5,236.5C 113.071,237.893 105.738,239.227 98.5,240.5C 96.2532,240.915 94.0865,241.582 92,242.5C 90.3925,242.231 89.2259,241.397 88.5,240C 90.1935,238.75 91.5268,237.25 92.5,235.5C 93.9313,234.22 94.5979,232.553 94.5,230.5C 95.391,231.11 96.391,231.443 97.5,231.5C 100.833,232.833 104.167,232.833 107.5,231.5C 114.508,231.666 121.508,231.5 128.5,231C 135.676,230.281 142.676,229.114 149.5,227.5 Z M 89.5,225.5 C 90.8333,225.5 91.5,226.167 91.5,227.5C 90.5,227.167 89.8333,226.5 89.5,225.5 Z M 87.5,223.5 C 88.8333,223.5 89.5,224.167 89.5,225.5C 88.5,225.167 87.8333,224.5 87.5,223.5 Z M 85.5,220.5 C 86.9063,220.973 87.573,221.973 87.5,223.5C 86.0937,223.027 85.427,222.027 85.5,220.5 Z M 82.5,218.5 C 84.0269,218.427 85.0269,219.094 85.5,220.5C 83.9731,220.573 82.9731,219.906 82.5,218.5 Z M 80.5,216.5 C 81.8333,216.5 82.5,217.167 82.5,218.5C 81.5,218.167 80.8333,217.5 80.5,216.5 Z M 78.5,214.5 C 79.8333,214.5 80.5,215.167 80.5,216.5C 79.5,216.167 78.8333,215.5 78.5,214.5 Z M 76.5,212.5 C 77.8333,212.5 78.5,213.167 78.5,214.5C 77.5,214.167 76.8333,213.5 76.5,212.5 Z M 76.5,204.5 C 80.5,204.5 84.5,204.5 88.5,204.5C 95.3982,205.113 102.398,205.947 109.5,207C 104.439,206.901 99.4395,207.068 94.5,207.5C 93.2566,206.263 92.2566,206.596 91.5,208.5C 94.7098,213.384 98.7098,217.717 103.5,221.5C 104.598,223.632 105.598,225.798 106.5,228C 104.167,228.667 101.833,228.667 99.5,228C 95.6061,224.596 91.6061,221.429 87.5,218.5C 85.5695,215.727 83.4028,213.06 81,210.5C 80.3292,209.748 79.4959,209.414 78.5,209.5C 77.8288,208.153 77.8288,206.986 78.5,206C 77.5842,205.722 76.9175,205.222 76.5,204.5 Z"/></g>
<g><path style="opacity:1" fill="#d7161f" d="M 58.5,253.5 C 97.4274,254.494 136.427,254.827 175.5,254.5C 136.848,256.494 97.8476,257.161 58.5,256.5C 58.5,255.5 58.5,254.5 58.5,253.5 Z"/></g>
<g><path style="opacity:0.008" fill="#facfd2" d="M 91.5,232.5 C 92.404,233.209 92.7373,234.209 92.5,235.5C 91.5268,237.25 90.1935,238.75 88.5,240C 89.2259,241.397 90.3925,242.231 92,242.5C 94.0865,241.582 96.2532,240.915 98.5,240.5C 99.209,241.404 100.209,241.737 101.5,241.5C 97.2144,242.743 92.8811,243.743 88.5,244.5C 87.0222,244.762 85.6888,244.429 84.5,243.5C 87.2811,240.066 89.6144,236.399 91.5,232.5 Z"/></g>
<g><path style="opacity:1" fill="#e62028" d="M 175.5,206.5 C 175.5,222.5 175.5,238.5 175.5,254.5C 136.427,254.827 97.4274,254.494 58.5,253.5C 58.5,253.167 58.5,252.833 58.5,252.5C 73.8333,252.5 89.1667,252.5 104.5,252.5C 127.76,252.543 151.093,252.21 174.5,251.5C 174.759,248.203 174.426,244.87 173.5,241.5C 172.5,241.5 171.5,241.5 170.5,241.5C 170.5,242.833 170.5,244.167 170.5,245.5C 168.856,245.286 167.356,245.62 166,246.5C 165.257,244.355 164.424,244.189 163.5,246C 164.022,246.95 164.689,247.784 165.5,248.5C 161.114,249.795 156.781,249.628 152.5,248C 154.056,247.28 155.056,246.113 155.5,244.5C 157.199,244.66 158.866,244.494 160.5,244C 160.656,241.899 161.489,239.733 163,237.5C 163.805,239.901 164.638,239.734 165.5,237C 164.012,230.667 160.845,229.834 156,234.5C 152.937,233.181 150.27,233.847 148,236.5C 147.667,236.167 147.333,235.833 147,235.5C 145.686,236.313 144.519,237.313 143.5,238.5C 141.253,237.626 138.92,237.292 136.5,237.5C 130.157,239.17 123.824,240.67 117.5,242C 116.333,242.5 115.5,243.333 115,244.5C 114.692,243.692 114.192,243.025 113.5,242.5C 111.833,244.5 110.167,246.5 108.5,248.5C 107.692,248.192 107.025,247.692 106.5,247C 102.514,246.501 98.5138,246.334 94.5,246.5C 93.5084,246.672 92.8417,246.338 92.5,245.5C 96.1667,245.5 99.8333,245.5 103.5,245.5C 106.057,244.812 108.391,243.646 110.5,242C 120.235,240.429 129.569,237.929 138.5,234.5C 145.652,233.693 152.652,232.193 159.5,230C 157.381,229.658 157.047,228.825 158.5,227.5C 167.658,228.372 171.492,224.372 170,215.5C 167.978,214.198 166.478,212.532 165.5,210.5C 163.858,206.92 161.024,204.92 157,204.5C 156.598,203.128 156.098,201.795 155.5,200.5C 157.274,199.813 158.941,198.98 160.5,198C 159.263,197.768 158.263,197.268 157.5,196.5C 160.537,194.656 163.37,194.656 166,196.5C 168,195.833 170,195.167 172,194.5C 171.19,197.243 170.523,200.576 170,204.5C 169.346,203.304 168.846,203.304 168.5,204.5C 170.483,205.982 172.316,207.649 174,209.5C 174.232,208.263 174.732,207.263 175.5,206.5 Z"/></g>
<g><path style="opacity:1" fill="#e91e27" d="M 136.5,237.5 C 135.128,239.089 133.461,240.422 131.5,241.5C 133.713,243.719 135.88,243.386 138,240.5C 138.18,242.488 138.014,244.488 137.5,246.5C 139.451,246.227 140.951,246.893 142,248.5C 142.576,245.876 143.91,245.209 146,246.5C 148.351,245.467 150.684,244.467 153,243.5C 154.07,243.528 154.903,243.861 155.5,244.5C 155.056,246.113 154.056,247.28 152.5,248C 156.781,249.628 161.114,249.795 165.5,248.5C 164.689,247.784 164.022,246.95 163.5,246C 164.424,244.189 165.257,244.355 166,246.5C 167.356,245.62 168.856,245.286 170.5,245.5C 170.5,244.167 170.5,242.833 170.5,241.5C 171.5,241.5 172.5,241.5 173.5,241.5C 174.426,244.87 174.759,248.203 174.5,251.5C 151.093,252.21 127.76,252.543 104.5,252.5C 103.498,250.989 102.831,249.322 102.5,247.5C 100.396,247.201 98.396,247.534 96.5,248.5C 97.5,249.167 98.5,249.833 99.5,250.5C 97.0341,251.881 95.0341,251.381 93.5,249C 94.2524,248.329 94.5858,247.496 94.5,246.5C 98.5138,246.334 102.514,246.501 106.5,247C 107.025,247.692 107.692,248.192 108.5,248.5C 110.167,246.5 111.833,244.5 113.5,242.5C 114.192,243.025 114.692,243.692 115,244.5C 115.5,243.333 116.333,242.5 117.5,242C 123.824,240.67 130.157,239.17 136.5,237.5 Z"/></g>
<g><path style="opacity:1" fill="#e81e26" d="M 155.5,244.5 C 154.903,243.861 154.07,243.528 153,243.5C 150.684,244.467 148.351,245.467 146,246.5C 143.91,245.209 142.576,245.876 142,248.5C 140.951,246.893 139.451,246.227 137.5,246.5C 138.014,244.488 138.18,242.488 138,240.5C 135.88,243.386 133.713,243.719 131.5,241.5C 133.461,240.422 135.128,239.089 136.5,237.5C 138.92,237.292 141.253,237.626 143.5,238.5C 144.519,237.313 145.686,236.313 147,235.5C 147.333,235.833 147.667,236.167 148,236.5C 150.27,233.847 152.937,233.181 156,234.5C 160.845,229.834 164.012,230.667 165.5,237C 164.638,239.734 163.805,239.901 163,237.5C 161.489,239.733 160.656,241.899 160.5,244C 158.866,244.494 157.199,244.66 155.5,244.5 Z"/></g>
<g><path style="opacity:1" fill="#bd2423" d="M 138.5,234.5 C 129.569,237.929 120.235,240.429 110.5,242C 108.391,243.646 106.057,244.812 103.5,245.5C 98.6946,244.513 93.6946,244.179 88.5,244.5C 92.8811,243.743 97.2144,242.743 101.5,241.5C 108.412,240.784 115.079,239.451 121.5,237.5C 127.078,236.181 132.745,235.181 138.5,234.5 Z"/></g>
<g><path style="opacity:0.025" fill="#fad9dd" d="M 120.5,236.5 C 120.5,237.167 120.833,237.5 121.5,237.5C 115.079,239.451 108.412,240.784 101.5,241.5C 100.791,240.596 99.791,240.263 98.5,240.5C 105.738,239.227 113.071,237.893 120.5,236.5 Z"/></g>
<g><path style="opacity:1" fill="#d42028" d="M 63.5,204.5 C 63.5,205.167 63.8333,205.5 64.5,205.5C 72.5,214.167 80.8333,222.5 89.5,230.5C 89.8333,231.5 90.5,232.167 91.5,232.5C 89.6144,236.399 87.2811,240.066 84.5,243.5C 85.6888,244.429 87.0222,244.762 88.5,244.5C 93.6946,244.179 98.6946,244.513 103.5,245.5C 99.8333,245.5 96.1667,245.5 92.5,245.5C 87.9594,246.231 83.9594,245.231 80.5,242.5C 81.3124,240.055 82.3124,237.722 83.5,235.5C 83.3573,233.738 83.6906,232.071 84.5,230.5C 81.8631,228.273 79.3631,225.94 77,223.5C 76.5172,222.552 76.3505,221.552 76.5,220.5C 75.448,220.649 74.448,220.483 73.5,220C 70.4725,215.128 66.6392,210.961 62,207.5C 61.4153,206.002 61.9153,205.002 63.5,204.5 Z"/></g>
<g><path style="opacity:1" fill="#c92527" d="M 158.5,227.5 C 157.047,228.825 157.381,229.658 159.5,230C 152.652,232.193 145.652,233.693 138.5,234.5C 145.105,232.171 151.772,229.837 158.5,227.5 Z"/></g>
<g><path style="opacity:0.682" fill="#c68188" d="M 111.5,227.5 C 112.467,228.806 113.801,229.473 115.5,229.5C 112.833,230.167 110.167,230.833 107.5,231.5C 104.167,232.833 100.833,232.833 97.5,231.5C 99.1667,230.833 100.833,230.167 102.5,229.5C 105.877,229.932 108.877,229.265 111.5,227.5 Z"/></g>
<g><path style="opacity:0.041" fill="#fad1d4" d="M 88.5,204.5 C 93.8333,204.5 99.1667,204.5 104.5,204.5C 116.563,204.842 128.563,205.842 140.5,207.5C 147.846,208.79 155.18,210.623 162.5,213C 164.066,213.608 165.4,214.442 166.5,215.5C 168.926,216.353 169.76,218.019 169,220.5C 165.846,223.512 162.346,225.845 158.5,227.5C 151.772,229.837 145.105,232.171 138.5,234.5C 132.745,235.181 127.078,236.181 121.5,237.5C 121.5,237.167 121.5,236.833 121.5,236.5C 124.131,235.522 126.798,234.522 129.5,233.5C 130.167,233.833 130.833,234.167 131.5,234.5C 135.466,231.814 139.632,230.48 144,230.5C 146.209,230.011 148.042,229.011 149.5,227.5C 142.676,229.114 135.676,230.281 128.5,231C 121.508,231.5 114.508,231.666 107.5,231.5C 110.167,230.833 112.833,230.167 115.5,229.5C 118.518,229.665 121.518,229.498 124.5,229C 131.349,227.658 138.016,226.158 144.5,224.5C 145.167,224.5 145.833,224.5 146.5,224.5C 153.517,223.631 160.184,221.631 166.5,218.5C 163.227,216.966 159.894,215.632 156.5,214.5C 154.139,214.326 151.806,213.993 149.5,213.5C 143.791,211.495 137.791,210.495 131.5,210.5C 125.355,209.51 119.022,209.177 112.5,209.5C 106.355,208.51 100.022,208.177 93.5,208.5C 93.5,207.833 93.8333,207.5 94.5,207.5C 99.4395,207.068 104.439,206.901 109.5,207C 102.398,205.947 95.3982,205.113 88.5,204.5 Z"/></g>
<g><path style="opacity:0.024" fill="#fce2e2" d="M 94.5,207.5 C 93.8333,207.5 93.5,207.833 93.5,208.5C 99.5,214.833 105.5,221.167 111.5,227.5C 108.877,229.265 105.877,229.932 102.5,229.5C 96.2144,227.921 91.2144,224.255 87.5,218.5C 91.6061,221.429 95.6061,224.596 99.5,228C 101.833,228.667 104.167,228.667 106.5,228C 105.598,225.798 104.598,223.632 103.5,221.5C 98.7098,217.717 94.7098,213.384 91.5,208.5C 92.2566,206.596 93.2566,206.263 94.5,207.5 Z"/></g>
<g><path style="opacity:0.051" fill="#f9e7e8" d="M 72.5,206.5 C 72.5,206.833 72.5,207.167 72.5,207.5C 72.3284,208.492 72.6618,209.158 73.5,209.5C 73.5,210.167 73.8333,210.5 74.5,210.5C 74.5,211.167 74.8333,211.5 75.5,211.5C 75.5,212.167 75.8333,212.5 76.5,212.5C 76.8333,213.5 77.5,214.167 78.5,214.5C 78.8333,215.5 79.5,216.167 80.5,216.5C 80.8333,217.5 81.5,218.167 82.5,218.5C 82.9731,219.906 83.9731,220.573 85.5,220.5C 85.427,222.027 86.0937,223.027 87.5,223.5C 87.8333,224.5 88.5,225.167 89.5,225.5C 89.8333,226.5 90.5,227.167 91.5,227.5C 91.5,228.167 91.8333,228.5 92.5,228.5C 92.5,229.167 92.8333,229.5 93.5,229.5C 93.5,230.167 93.8333,230.5 94.5,230.5C 94.5979,232.553 93.9313,234.22 92.5,235.5C 92.7373,234.209 92.404,233.209 91.5,232.5C 90.5,232.167 89.8333,231.5 89.5,230.5C 89.5,230.167 89.5,229.833 89.5,229.5C 90.8333,229.167 90.8333,228.833 89.5,228.5C 89.5,227.833 89.1667,227.5 88.5,227.5C 88.5,226.833 88.1667,226.5 87.5,226.5C 87.5,225.833 87.1667,225.5 86.5,225.5C 86.5,224.833 86.1667,224.5 85.5,224.5C 85.5,223.833 85.1667,223.5 84.5,223.5C 84.5,222.833 84.1667,222.5 83.5,222.5C 83.5,221.833 83.1667,221.5 82.5,221.5C 82.5,220.833 82.1667,220.5 81.5,220.5C 81.5,219.833 81.1667,219.5 80.5,219.5C 80.5,218.833 80.1667,218.5 79.5,218.5C 79.5,217.833 79.1667,217.5 78.5,217.5C 78.5,216.833 78.1667,216.5 77.5,216.5C 77.5,215.833 77.1667,215.5 76.5,215.5C 76.5,214.833 76.1667,214.5 75.5,214.5C 75.5,213.833 75.1667,213.5 74.5,213.5C 74.5,212.833 74.1667,212.5 73.5,212.5C 73.5,211.833 73.1667,211.5 72.5,211.5C 72.5,210.833 72.1667,210.5 71.5,210.5C 71.5,209.833 71.1667,209.5 70.5,209.5C 70.5,208.833 70.1667,208.5 69.5,208.5C 69.9731,207.094 70.9731,206.427 72.5,206.5 Z"/></g>
<g><path style="opacity:1" fill="#b52021" d="M 156.5,214.5 C 159.894,215.632 163.227,216.966 166.5,218.5C 160.184,221.631 153.517,223.631 146.5,224.5C 146.611,223.883 146.944,223.383 147.5,223C 152.455,222.312 157.121,220.812 161.5,218.5C 159.955,217.548 158.288,217.215 156.5,217.5C 156.5,216.5 156.5,215.5 156.5,214.5 Z"/></g>
<g><path style="opacity:1" fill="#ea1e27" d="M 83.5,235.5 C 82.3124,237.722 81.3124,240.055 80.5,242.5C 83.9594,245.231 87.9594,246.231 92.5,245.5C 92.8417,246.338 93.5084,246.672 94.5,246.5C 94.5858,247.496 94.2524,248.329 93.5,249C 95.0341,251.381 97.0341,251.881 99.5,250.5C 98.5,249.833 97.5,249.167 96.5,248.5C 98.396,247.534 100.396,247.201 102.5,247.5C 102.831,249.322 103.498,250.989 104.5,252.5C 89.1667,252.5 73.8333,252.5 58.5,252.5C 58.5,251.833 58.5,251.167 58.5,250.5C 63.0498,251.276 65.7164,249.442 66.5,245C 65.1667,243.333 65.1667,241.667 66.5,240C 65.6433,239.311 64.9767,238.478 64.5,237.5C 65.1667,235.5 65.8333,233.5 66.5,231.5C 66.1427,227.434 65.976,223.434 66,219.5C 67.7183,220.85 69.5516,222.017 71.5,223C 70.6919,223.308 70.0253,223.808 69.5,224.5C 71.6374,225.738 72.9707,227.571 73.5,230C 76.9943,231.689 80.3277,233.522 83.5,235.5 Z"/></g>
<g><path style="opacity:1" fill="#e31f27" d="M 112.5,209.5 C 119.022,209.177 125.355,209.51 131.5,210.5C 125.792,210.492 125.459,210.992 130.5,212C 136.817,212.765 143.151,213.265 149.5,213.5C 151.806,213.993 154.139,214.326 156.5,214.5C 156.5,215.5 156.5,216.5 156.5,217.5C 158.288,217.215 159.955,217.548 161.5,218.5C 157.121,220.812 152.455,222.312 147.5,223C 146.944,223.383 146.611,223.883 146.5,224.5C 145.833,224.5 145.167,224.5 144.5,224.5C 134.732,225.263 125.065,226.43 115.5,228C 109.679,222.345 104.013,216.512 98.5,210.5C 103.12,209.507 107.786,209.173 112.5,209.5 Z"/></g>
<g><path style="opacity:1" fill="#b61e1d" d="M 93.5,208.5 C 100.022,208.177 106.355,208.51 112.5,209.5C 107.786,209.173 103.12,209.507 98.5,210.5C 104.013,216.512 109.679,222.345 115.5,228C 125.065,226.43 134.732,225.263 144.5,224.5C 138.016,226.158 131.349,227.658 124.5,229C 121.518,229.498 118.518,229.665 115.5,229.5C 113.801,229.473 112.467,228.806 111.5,227.5C 105.5,221.167 99.5,214.833 93.5,208.5 Z"/></g>
<g><path style="opacity:1" fill="#e61f27" d="M 58.5,201.5 C 60.1172,202.038 61.7839,202.371 63.5,202.5C 63.5,202.833 63.5,203.167 63.5,203.5C 63.5,203.833 63.5,204.167 63.5,204.5C 61.9153,205.002 61.4153,206.002 62,207.5C 66.6392,210.961 70.4725,215.128 73.5,220C 74.448,220.483 75.448,220.649 76.5,220.5C 76.3505,221.552 76.5172,222.552 77,223.5C 79.3631,225.94 81.8631,228.273 84.5,230.5C 83.6906,232.071 83.3573,233.738 83.5,235.5C 80.3277,233.522 76.9943,231.689 73.5,230C 72.9707,227.571 71.6374,225.738 69.5,224.5C 70.0253,223.808 70.6919,223.308 71.5,223C 69.5516,222.017 67.7183,220.85 66,219.5C 65.976,223.434 66.1427,227.434 66.5,231.5C 65.8333,233.5 65.1667,235.5 64.5,237.5C 64.9767,238.478 65.6433,239.311 66.5,240C 65.1667,241.667 65.1667,243.333 66.5,245C 65.7164,249.442 63.0498,251.276 58.5,250.5C 58.5,234.167 58.5,217.833 58.5,201.5 Z"/></g>
<g><path style="opacity:1" fill="#c72928" d="M 140.5,207.5 C 144.846,207.334 149.179,207.501 153.5,208C 157.313,209.772 161.313,210.605 165.5,210.5C 166.478,212.532 167.978,214.198 170,215.5C 171.492,224.372 167.658,228.372 158.5,227.5C 162.346,225.845 165.846,223.512 169,220.5C 169.76,218.019 168.926,216.353 166.5,215.5C 165.4,214.442 164.066,213.608 162.5,213C 155.18,210.623 147.846,208.79 140.5,207.5 Z"/></g>
<g><path style="opacity:1" fill="#af2422" d="M 131.5,210.5 C 137.791,210.495 143.791,211.495 149.5,213.5C 143.151,213.265 136.817,212.765 130.5,212C 125.459,210.992 125.792,210.492 131.5,210.5 Z"/></g>
<g><path style="opacity:0.031" fill="#feeded" d="M 76.5,204.5 C 76.9175,205.222 77.5842,205.722 78.5,206C 77.8288,206.986 77.8288,208.153 78.5,209.5C 76.7041,208.207 75.0375,206.707 73.5,205C 74.448,204.517 75.448,204.351 76.5,204.5 Z"/></g>
<g><path style="opacity:0.039" fill="#ecc2c6" d="M 68.5,204.5 C 68.8333,205.833 69.1667,205.833 69.5,204.5C 69.8333,204.5 70.1667,204.5 70.5,204.5C 71.1667,204.833 71.8333,205.167 72.5,205.5C 72.5,205.833 72.5,206.167 72.5,206.5C 70.9731,206.427 69.9731,207.094 69.5,208.5C 70.1667,208.5 70.5,208.833 70.5,209.5C 71.1667,209.5 71.5,209.833 71.5,210.5C 72.1667,210.5 72.5,210.833 72.5,211.5C 73.1667,211.5 73.5,211.833 73.5,212.5C 74.1667,212.5 74.5,212.833 74.5,213.5C 75.1667,213.5 75.5,213.833 75.5,214.5C 76.1667,214.5 76.5,214.833 76.5,215.5C 77.1667,215.5 77.5,215.833 77.5,216.5C 78.1667,216.5 78.5,216.833 78.5,217.5C 79.1667,217.5 79.5,217.833 79.5,218.5C 80.1667,218.5 80.5,218.833 80.5,219.5C 81.1667,219.5 81.5,219.833 81.5,220.5C 82.1667,220.5 82.5,220.833 82.5,221.5C 83.1667,221.5 83.5,221.833 83.5,222.5C 84.1667,222.5 84.5,222.833 84.5,223.5C 85.1667,223.5 85.5,223.833 85.5,224.5C 86.1667,224.5 86.5,224.833 86.5,225.5C 87.1667,225.5 87.5,225.833 87.5,226.5C 88.1667,226.5 88.5,226.833 88.5,227.5C 89.1667,227.5 89.5,227.833 89.5,228.5C 89.5,228.833 89.5,229.167 89.5,229.5C 89.5,229.833 89.5,230.167 89.5,230.5C 80.8333,222.5 72.5,214.167 64.5,205.5C 65.5676,204.566 66.901,204.232 68.5,204.5 Z"/></g>
<g><path style="opacity:0.463" fill="#cc8f91" d="M 104.5,204.5 C 99.1667,204.5 93.8333,204.5 88.5,204.5C 84.5,204.5 80.5,204.5 76.5,204.5C 75.448,204.351 74.448,204.517 73.5,205C 75.0375,206.707 76.7041,208.207 78.5,209.5C 79.4959,209.414 80.3292,209.748 81,210.5C 83.4028,213.06 85.5695,215.727 87.5,218.5C 91.2144,224.255 96.2144,227.921 102.5,229.5C 100.833,230.167 99.1667,230.833 97.5,231.5C 96.391,231.443 95.391,231.11 94.5,230.5C 93.8333,230.5 93.5,230.167 93.5,229.5C 92.8333,229.5 92.5,229.167 92.5,228.5C 91.8333,228.5 91.5,228.167 91.5,227.5C 91.5,226.167 90.8333,225.5 89.5,225.5C 89.5,224.167 88.8333,223.5 87.5,223.5C 87.573,221.973 86.9063,220.973 85.5,220.5C 85.0269,219.094 84.0269,218.427 82.5,218.5C 82.5,217.167 81.8333,216.5 80.5,216.5C 80.5,215.167 79.8333,214.5 78.5,214.5C 78.5,213.167 77.8333,212.5 76.5,212.5C 75.8333,212.5 75.5,212.167 75.5,211.5C 74.8333,211.5 74.5,211.167 74.5,210.5C 73.8333,210.5 73.5,210.167 73.5,209.5C 73.6716,208.508 73.3382,207.842 72.5,207.5C 72.5,207.167 72.5,206.833 72.5,206.5C 72.5,206.167 72.5,205.833 72.5,205.5C 77.4558,204.172 82.7891,203.505 88.5,203.5C 94.0108,203.501 99.3441,203.834 104.5,204.5 Z"/></g>
<g><path style="opacity:0.549" fill="#d9747c" d="M 63.5,203.5 C 66.0593,203.198 68.3926,203.532 70.5,204.5C 70.1667,204.5 69.8333,204.5 69.5,204.5C 69.1667,204.5 68.8333,204.5 68.5,204.5C 66.901,204.232 65.5676,204.566 64.5,205.5C 63.8333,205.5 63.5,205.167 63.5,204.5C 63.5,204.167 63.5,203.833 63.5,203.5 Z"/></g>
<g><path style="opacity:1" fill="#af1917" d="M 63.5,203.5 C 63.5,203.167 63.5,202.833 63.5,202.5C 77.5,202.5 91.5,202.5 105.5,202.5C 112.321,203.329 119.321,203.829 126.5,204C 131.313,205.115 135.98,206.281 140.5,207.5C 128.563,205.842 116.563,204.842 104.5,204.5C 99.3441,203.834 94.0108,203.501 88.5,203.5C 82.7891,203.505 77.4558,204.172 72.5,205.5C 71.8333,205.167 71.1667,204.833 70.5,204.5C 68.3926,203.532 66.0593,203.198 63.5,203.5 Z"/></g>
<g><path style="opacity:1" fill="#e42027" d="M 152.5,193.5 C 154.368,194.263 156.035,195.263 157.5,196.5C 158.263,197.268 159.263,197.768 160.5,198C 158.941,198.98 157.274,199.813 155.5,200.5C 156.098,201.795 156.598,203.128 157,204.5C 161.024,204.92 163.858,206.92 165.5,210.5C 161.313,210.605 157.313,209.772 153.5,208C 149.179,207.501 144.846,207.334 140.5,207.5C 135.98,206.281 131.313,205.115 126.5,204C 119.321,203.829 112.321,203.329 105.5,202.5C 114.869,202.376 124.202,201.709 133.5,200.5C 135.1,200.551 136.6,200.884 138,201.5C 140.861,200.079 143.861,199.079 147,198.5C 147.71,199.973 148.876,200.64 150.5,200.5C 151.053,196.544 151.886,196.544 153,200.5C 153.896,197.975 153.396,195.808 151.5,194C 151.728,193.601 152.062,193.435 152.5,193.5 Z"/></g>
<g><path style="opacity:1" fill="#e91e26" d="M 152.5,193.5 C 152.062,193.435 151.728,193.601 151.5,194C 153.396,195.808 153.896,197.975 153,200.5C 151.886,196.544 151.053,196.544 150.5,200.5C 148.876,200.64 147.71,199.973 147,198.5C 143.861,199.079 140.861,200.079 138,201.5C 136.6,200.884 135.1,200.551 133.5,200.5C 124.202,201.709 114.869,202.376 105.5,202.5C 91.5,202.5 77.5,202.5 63.5,202.5C 61.7839,202.371 60.1172,202.038 58.5,201.5C 59.2713,198.546 59.938,195.546 60.5,192.5C 64.475,192.636 68.3083,193.303 72,194.5C 72.9454,194.095 73.6121,193.428 74,192.5C 75.6667,193.5 77.3333,194.5 79,195.5C 81.3766,192.343 84.2099,191.51 87.5,193C 86.1787,194.545 86.5121,195.711 88.5,196.5C 93.3919,194.139 98.5585,192.472 104,191.5C 108.562,192.244 112.895,193.577 117,195.5C 118.226,195.355 119.393,195.022 120.5,194.5C 121.167,195.5 121.833,196.5 122.5,197.5C 122.689,195.205 124.023,193.205 126.5,191.5C 127.833,192.5 129.167,193.5 130.5,194.5C 131.696,194.154 131.696,193.654 130.5,193C 132.891,192.713 135.224,192.213 137.5,191.5C 142.798,191.43 147.798,192.097 152.5,193.5 Z"/></g>
<g><path style="opacity:1" fill="#e52028" d="M 175.5,190.5 C 175.5,195.833 175.5,201.167 175.5,206.5C 174.732,207.263 174.232,208.263 174,209.5C 172.316,207.649 170.483,205.982 168.5,204.5C 168.846,203.304 169.346,203.304 170,204.5C 170.523,200.576 171.19,197.243 172,194.5C 170,195.167 168,195.833 166,196.5C 163.37,194.656 160.537,194.656 157.5,196.5C 156.035,195.263 154.368,194.263 152.5,193.5C 147.798,192.097 142.798,191.43 137.5,191.5C 135.224,192.213 132.891,192.713 130.5,193C 131.696,193.654 131.696,194.154 130.5,194.5C 129.167,193.5 127.833,192.5 126.5,191.5C 124.023,193.205 122.689,195.205 122.5,197.5C 121.833,196.5 121.167,195.5 120.5,194.5C 119.393,195.022 118.226,195.355 117,195.5C 112.895,193.577 108.562,192.244 104,191.5C 98.5585,192.472 93.3919,194.139 88.5,196.5C 86.5121,195.711 86.1787,194.545 87.5,193C 84.2099,191.51 81.3766,192.343 79,195.5C 77.3333,194.5 75.6667,193.5 74,192.5C 73.6121,193.428 72.9454,194.095 72,194.5C 68.3083,193.303 64.475,192.636 60.5,192.5C 60.4148,191.005 61.0815,190.005 62.5,189.5C 64.7094,190.106 66.876,190.773 69,191.5C 74.5893,190.616 80.256,189.949 86,189.5C 91.5155,190.67 97.0155,190.67 102.5,189.5C 105.083,189.981 107.583,190.648 110,191.5C 126.972,190.332 143.972,190.332 161,191.5C 163.504,189.353 165.838,189.353 168,191.5C 170.381,190.565 172.881,190.232 175.5,190.5 Z"/></g>
<g><path style="opacity:1" fill="#dc1e26" d="M 57.5,187.5 C 96.8333,187.5 136.167,187.5 175.5,187.5C 175.5,188.5 175.5,189.5 175.5,190.5C 172.881,190.232 170.381,190.565 168,191.5C 165.838,189.353 163.504,189.353 161,191.5C 143.972,190.332 126.972,190.332 110,191.5C 107.583,190.648 105.083,189.981 102.5,189.5C 97.0155,190.67 91.5155,190.67 86,189.5C 80.256,189.949 74.5893,190.616 69,191.5C 66.876,190.773 64.7094,190.106 62.5,189.5C 61.0815,190.005 60.4148,191.005 60.5,192.5C 59.938,195.546 59.2713,198.546 58.5,201.5C 58.5,217.833 58.5,234.167 58.5,250.5C 58.5,251.167 58.5,251.833 58.5,252.5C 58.5,252.833 58.5,253.167 58.5,253.5C 57.5026,231.673 57.1693,209.673 57.5,187.5 Z"/></g>
<g><path style="opacity:0.689" fill="#e67a78" d="M 176.5,252.5 C 176.833,252.5 177.167,252.5 177.5,252.5C 178.833,254.5 178.833,256.5 177.5,258.5C 136.833,258.5 96.1667,258.5 55.5,258.5C 55.5,258.167 55.5,257.833 55.5,257.5C 56.1667,257.5 56.8333,257.5 57.5,257.5C 97.1667,257.5 136.833,257.5 176.5,257.5C 176.5,255.833 176.5,254.167 176.5,252.5 Z"/></g>
<g><path style="opacity:0.083" fill="#ffe2d8" d="M 54.5,258.5 C 54.8333,258.5 55.1667,258.5 55.5,258.5C 96.1667,258.5 136.833,258.5 177.5,258.5C 177.389,259.117 177.056,259.617 176.5,260C 136.167,260.667 95.8333,260.667 55.5,260C 54.944,259.617 54.6107,259.117 54.5,258.5 Z"/></g>
<g><path style="opacity:0.094" fill="#cedde8" d="M 415.5,277.5 C 414.5,276.167 413.5,276.167 412.5,277.5C 413.5,274.833 414.5,274.833 415.5,277.5 Z"/></g>
<g><path style="opacity:0.667" fill="#aac4d6" d="M 259.5,278.5 C 255.215,277.705 250.881,277.372 246.5,277.5C 250.968,275.022 255.301,275.355 259.5,278.5 Z"/></g>
<g><path style="opacity:0.997" fill="#396697" d="M 246.5,277.5 C 250.881,277.372 255.215,277.705 259.5,278.5C 260.167,280.167 260.833,281.833 261.5,283.5C 259.95,284.72 258.284,284.72 256.5,283.5C 254.562,281.837 252.228,281.171 249.5,281.5C 248.178,281.67 247.011,281.337 246,280.5C 244.9,284.412 243.4,288.078 241.5,291.5C 241.5,288.5 241.5,285.5 241.5,282.5C 243.5,281.167 245.167,279.5 246.5,277.5 Z"/></g>
<g><path style="opacity:0.871" fill="#9bb2c9" d="M 259.5,278.5 C 262.192,279.591 262.858,281.257 261.5,283.5C 260.833,281.833 260.167,280.167 259.5,278.5 Z"/></g>
<g><path style="opacity:0.749" fill="#9abcd5" d="M 67.5,281.5 C 63.4338,281.307 59.4338,281.64 55.5,282.5C 57.0313,280.32 59.1979,279.32 62,279.5C 64.2206,279.393 66.0539,280.06 67.5,281.5 Z"/></g>
<g><path style="opacity:0.565" fill="#a2bcd8" d="M 175.5,277.5 C 174.5,277.5 173.5,277.5 172.5,277.5C 172.664,280.187 172.497,282.854 172,285.5C 171.617,286.056 171.117,286.389 170.5,286.5C 171.207,283.214 171.54,279.881 171.5,276.5C 173.099,276.232 174.432,276.566 175.5,277.5 Z"/></g>
<g><path style="opacity:0.627" fill="#8faec6" d="M 246.5,277.5 C 245.167,279.5 243.5,281.167 241.5,282.5C 242.167,279.833 243.833,278.167 246.5,277.5 Z"/></g>
<g><path style="opacity:0.484" fill="#afcbde" d="M 249.5,281.5 C 252.228,281.171 254.562,281.837 256.5,283.5C 253.542,282.459 250.542,282.459 247.5,283.5C 248.167,282.833 248.833,282.167 249.5,281.5 Z"/></g>
<g><path style="opacity:0.263" fill="#cfd8df" d="M 112.5,282.5 C 111.167,282.5 109.833,282.5 108.5,282.5C 108.5,283.5 108.5,284.5 108.5,285.5C 107.566,284.432 107.232,283.099 107.5,281.5C 109.415,281.216 111.081,281.549 112.5,282.5 Z"/></g>
<g><path style="opacity:0.945" fill="#5f7487" d="M 112.5,282.5 C 113.791,283.542 113.791,284.708 112.5,286C 110.934,286.765 109.601,286.598 108.5,285.5C 108.5,284.5 108.5,283.5 108.5,282.5C 109.833,282.5 111.167,282.5 112.5,282.5 Z"/></g>
<g><path style="opacity:0.367" fill="#afc8db" d="M 177.5,284.5 C 180.43,285.299 183.43,285.632 186.5,285.5C 186.784,287.415 186.451,289.081 185.5,290.5C 185.5,289.167 185.5,287.833 185.5,286.5C 183.167,286.5 180.833,286.5 178.5,286.5C 178.167,285.833 177.833,285.167 177.5,284.5 Z"/></g>
<g><path style="opacity:0.635" fill="#a7c0d9" d="M 295.5,277.5 C 294.5,277.5 293.5,277.5 292.5,277.5C 292.28,289.225 292.947,300.892 294.5,312.5C 295.833,312.5 297.167,312.5 298.5,312.5C 297.081,313.451 295.415,313.784 293.5,313.5C 292.157,302.061 291.157,291.061 290.5,280.5C 291.017,277.083 292.683,276.083 295.5,277.5 Z"/></g>
<g><path style="opacity:0.341" fill="#bcd1e2" d="M 401.5,285.5 C 404.609,285.264 407.609,285.597 410.5,286.5C 410.768,288.099 410.434,289.432 409.5,290.5C 409.67,289.178 409.337,288.011 408.5,287C 405.964,286.814 403.631,286.314 401.5,285.5 Z"/></g>
<g><path style="opacity:0.341" fill="#b5d0e6" d="M 415.5,277.5 C 416.531,279.961 417.198,282.627 417.5,285.5C 419.735,285.205 421.735,285.539 423.5,286.5C 420.881,286.768 418.381,286.435 416,285.5C 415.503,282.854 415.336,280.187 415.5,277.5 Z"/></g>
<g><path style="opacity:1" fill="#6c8aae" d="M 69.5,282.5 C 72.8333,283.833 75.1667,286.167 76.5,289.5C 72.778,286.434 71.4447,287.101 72.5,291.5C 70.5,290.167 68.8333,288.5 67.5,286.5C 69.1765,285.817 69.8432,284.483 69.5,282.5 Z"/></g>
<g><path style="opacity:0.995" fill="#6b91ba" d="M 175.5,278.5 C 176.458,280.302 177.125,282.302 177.5,284.5C 177.833,285.167 178.167,285.833 178.5,286.5C 178.074,287.528 178.074,288.861 178.5,290.5C 180.833,290.5 183.167,290.5 185.5,290.5C 184.432,291.434 183.099,291.768 181.5,291.5C 180.167,291.5 178.833,291.5 177.5,291.5C 176.575,287.21 175.909,282.876 175.5,278.5 Z"/></g>
<g><path style="opacity:1" fill="#507aa8" d="M 249.5,281.5 C 248.833,282.167 248.167,282.833 247.5,283.5C 246.766,284.708 246.433,286.041 246.5,287.5C 247.635,289.213 249.302,289.88 251.5,289.5C 255.942,289.294 259.275,290.96 261.5,294.5C 259.948,293.378 258.282,292.878 256.5,293C 257.413,294.414 257.413,295.914 256.5,297.5C 255.209,297.737 254.209,297.404 253.5,296.5C 250.098,294.722 246.431,293.389 242.5,292.5C 241.833,292.5 241.5,292.167 241.5,291.5C 243.4,288.078 244.9,284.412 246,280.5C 247.011,281.337 248.178,281.67 249.5,281.5 Z"/></g>
<g><path style="opacity:0.404" fill="#acc5db" d="M 399.5,279.5 C 398.85,279.196 398.183,278.863 397.5,278.5C 397.367,283.441 395.2,287.108 391,289.5C 390.517,290.448 390.351,291.448 390.5,292.5C 389.402,291.399 389.235,290.066 390,288.5C 394.212,285.739 396.046,281.739 395.5,276.5C 397.973,276.088 399.306,277.088 399.5,279.5 Z"/></g>
<g><path style="opacity:0.998" fill="#4574a8" d="M 175.5,277.5 C 175.5,277.833 175.5,278.167 175.5,278.5C 175.909,282.876 176.575,287.21 177.5,291.5C 177.5,292.167 177.5,292.833 177.5,293.5C 177.337,295.857 177.503,298.19 178,300.5C 179.878,301.053 181.378,302.053 182.5,303.5C 182.267,305.062 181.6,306.395 180.5,307.5C 179.127,307.657 177.793,307.49 176.5,307C 175.616,305.28 174.283,304.114 172.5,303.5C 172.665,300.15 172.498,296.817 172,293.5C 170.4,292.134 168.567,291.134 166.5,290.5C 166.863,289.817 167.196,289.15 167.5,288.5C 167.973,287.094 168.973,286.427 170.5,286.5C 171.117,286.389 171.617,286.056 172,285.5C 172.497,282.854 172.664,280.187 172.5,277.5C 173.5,277.5 174.5,277.5 175.5,277.5 Z"/></g>
<g><path style="opacity:0.175" fill="#bfd8e9" d="M 346.5,284.5 C 347.267,285.172 347.934,286.005 348.5,287C 352.025,287.179 355.359,287.679 358.5,288.5C 354.818,288.665 351.152,288.499 347.5,288C 346.663,286.989 346.33,285.822 346.5,284.5 Z"/></g>
<g><path style="opacity:0.993" fill="#4c79ac" d="M 399.5,279.5 C 400.458,281.302 401.125,283.302 401.5,285.5C 403.631,286.314 405.964,286.814 408.5,287C 409.337,288.011 409.67,289.178 409.5,290.5C 406.473,291.68 403.473,293.013 400.5,294.5C 399.853,295.274 399.52,296.274 399.5,297.5C 399.34,299.355 400.007,300.688 401.5,301.5C 402.287,303.104 403.62,303.771 405.5,303.5C 405.567,304.959 405.234,306.292 404.5,307.5C 399.24,309.272 396.073,307.272 395,301.5C 394.503,298.854 394.336,296.187 394.5,293.5C 392.901,293.768 391.568,293.434 390.5,292.5C 390.351,291.448 390.517,290.448 391,289.5C 395.2,287.108 397.367,283.441 397.5,278.5C 398.183,278.863 398.85,279.196 399.5,279.5 Z"/></g>
<g><path style="opacity:0.153" fill="#cce3f1" d="M 121.5,285.5 C 122.434,286.568 122.768,287.901 122.5,289.5C 123.5,289.5 124.5,289.5 125.5,289.5C 124.739,290.391 123.739,291.058 122.5,291.5C 121.534,289.604 121.201,287.604 121.5,285.5 Z"/></g>
<g><path style="opacity:0.306" fill="#c7dae6" d="M 152.5,289.5 C 149.763,289.401 147.096,289.735 144.5,290.5C 145.492,288.974 146.992,288.307 149,288.5C 150.385,288.514 151.551,288.848 152.5,289.5 Z"/></g>
<g><path style="opacity:0.812" fill="#91b1cd" d="M 241.5,282.5 C 241.5,285.5 241.5,288.5 241.5,291.5C 240.007,290.688 239.34,289.355 239.5,287.5C 239.436,285.443 240.102,283.777 241.5,282.5 Z"/></g>
<g><path style="opacity:0.298" fill="#c6dbe8" d="M 246.5,287.5 C 248.403,287.796 250.07,288.463 251.5,289.5C 249.302,289.88 247.635,289.213 246.5,287.5 Z"/></g>
<g><path style="opacity:1" fill="#3f71a5" d="M 415.5,277.5 C 415.336,280.187 415.503,282.854 416,285.5C 418.381,286.435 420.881,286.768 423.5,286.5C 423.833,286.5 424.167,286.5 424.5,286.5C 424.567,287.959 424.234,289.292 423.5,290.5C 422.432,291.434 421.099,291.768 419.5,291.5C 418.292,292.234 416.959,292.567 415.5,292.5C 415.435,295.428 414.768,298.095 413.5,300.5C 412.602,292.876 412.269,285.209 412.5,277.5C 413.5,276.167 414.5,276.167 415.5,277.5 Z"/></g>
<g><path style="opacity:0.008" fill="#c5d7e4" d="M 152.5,289.5 C 154.833,289.833 156.167,291.167 156.5,293.5C 154.833,292.5 153.5,291.167 152.5,289.5 Z"/></g>
<g><path style="opacity:0.988" fill="#2e5d92" d="M 178.5,286.5 C 180.833,286.5 183.167,286.5 185.5,286.5C 185.5,287.833 185.5,289.167 185.5,290.5C 183.167,290.5 180.833,290.5 178.5,290.5C 178.074,288.861 178.074,287.528 178.5,286.5 Z"/></g>
<g><path style="opacity:0.565" fill="#a4c2d8" d="M 193.5,287.5 C 192.833,288.833 191.833,289.833 190.5,290.5C 190.5,288.5 191.5,287.5 193.5,287.5 Z"/></g>
<g><path style="opacity:1" fill="#4072a6" d="M 203.5,289.5 C 203.5,290.5 203.5,291.5 203.5,292.5C 200.813,292.336 198.146,292.503 195.5,293C 194.167,294 194.167,295 195.5,296C 197.81,296.497 200.143,296.663 202.5,296.5C 203.492,296.328 204.158,296.662 204.5,297.5C 206.322,300.387 205.822,302.721 203,304.5C 202.722,303.584 202.222,302.918 201.5,302.5C 197.789,300.777 193.789,299.777 189.5,299.5C 188.848,298.551 188.514,297.385 188.5,296C 188.393,293.779 189.06,291.946 190.5,290.5C 191.833,289.833 192.833,288.833 193.5,287.5C 195.966,286.366 198.633,286.199 201.5,287C 202.756,287.417 203.423,288.25 203.5,289.5 Z"/></g>
<g><path style="opacity:0.937" fill="#89a9c6" d="M 279.5,290.5 C 276.5,290.5 273.5,290.5 270.5,290.5C 273.5,287.833 276.5,287.833 279.5,290.5 Z"/></g>
<g><path style="opacity:0.686" fill="#b4cee1" d="M 308.5,289.5 C 305.482,289.704 302.482,290.037 299.5,290.5C 302.373,288.518 305.373,288.185 308.5,289.5 Z"/></g>
<g><path style="opacity:0.898" fill="#8faac9" d="M 329.5,290.5 C 326.098,290.342 322.764,290.676 319.5,291.5C 322.552,288.021 325.886,287.687 329.5,290.5 Z"/></g>
<g><path style="opacity:0.906" fill="#90adc8" d="M 377.5,290.5 C 374.098,290.342 370.764,290.676 367.5,291.5C 370.552,288.021 373.886,287.687 377.5,290.5 Z"/></g>
<g><path style="opacity:0.49" fill="#aac5dd" d="M 412.5,277.5 C 412.269,285.209 412.602,292.876 413.5,300.5C 413.5,302.833 413.5,305.167 413.5,307.5C 412.335,300.52 411.335,293.52 410.5,286.5C 410.068,283.123 410.735,280.123 412.5,277.5 Z"/></g>
<g><path style="opacity:0.082" fill="#cfdce5" d="M 424.5,286.5 C 425.124,286.917 425.457,287.584 425.5,288.5C 425.253,289.713 424.586,290.38 423.5,290.5C 424.234,289.292 424.567,287.959 424.5,286.5 Z"/></g>
<g><path style="opacity:0.776" fill="#9fbed9" d="M 296.5,279.5 C 297.321,282.641 297.821,285.975 298,289.5C 298.383,290.056 298.883,290.389 299.5,290.5C 298.791,291.404 297.791,291.737 296.5,291.5C 296.5,287.5 296.5,283.5 296.5,279.5 Z"/></g>
<g><path style="opacity:0.302" fill="#b6cfe0" d="M 76.5,289.5 C 77.9063,289.973 78.573,290.973 78.5,292.5C 77.0937,292.027 76.427,291.027 76.5,289.5 Z"/></g>
<g><path style="opacity:0.659" fill="#9bb6d0" d="M 167.5,288.5 C 167.196,289.15 166.863,289.817 166.5,290.5C 168.567,291.134 170.4,292.134 172,293.5C 172.498,296.817 172.665,300.15 172.5,303.5C 171.681,300.695 171.181,297.695 171,294.5C 169.416,293.139 167.582,292.472 165.5,292.5C 165.157,290.517 165.824,289.183 167.5,288.5 Z"/></g>
<g><path style="opacity:0.008" fill="#d9ecf5" d="M 177.5,291.5 C 178.833,291.5 180.167,291.5 181.5,291.5C 180.329,292.345 178.995,293.011 177.5,293.5C 177.5,292.833 177.5,292.167 177.5,291.5 Z"/></g>
<g><path style="opacity:0.22" fill="#cde1ed" d="M 308.5,289.5 C 310.5,289.5 311.5,290.5 311.5,292.5C 310.167,291.833 309.167,290.833 308.5,289.5 Z"/></g>
<g><path style="opacity:0.349" fill="#aecce0" d="M 203.5,289.5 C 205.466,290.255 205.8,291.421 204.5,293C 201.774,293.182 199.107,293.682 196.5,294.5C 198.631,295.169 200.631,295.835 202.5,296.5C 200.143,296.663 197.81,296.497 195.5,296C 194.167,295 194.167,294 195.5,293C 198.146,292.503 200.813,292.336 203.5,292.5C 203.5,291.5 203.5,290.5 203.5,289.5 Z"/></g>
<g><path style="opacity:0.176" fill="#cbe0ee" d="M 208.5,290.5 C 208.5,291.167 208.5,291.833 208.5,292.5C 208.674,294.861 209.007,297.194 209.5,299.5C 209.5,300.167 209.5,300.833 209.5,301.5C 207.431,297.956 207.098,294.29 208.5,290.5 Z"/></g>
<g><path style="opacity:0.541" fill="#afc5da" d="M 270.5,290.5 C 269.5,292.167 268.167,293.5 266.5,294.5C 266.833,292.167 268.167,290.833 270.5,290.5 Z"/></g>
<g><path style="opacity:0.447" fill="#abc5db" d="M 448.5,291.5 C 447.178,291.33 446.011,291.663 445,292.5C 444.667,295.5 444.333,298.5 444,301.5C 442.384,302.801 440.884,302.801 439.5,301.5C 440.822,301.67 441.989,301.337 443,300.5C 443.333,297.5 443.667,294.5 444,291.5C 445.848,289.312 447.348,289.312 448.5,291.5 Z"/></g>
<g><path style="opacity:0.29" fill="#bfd8e6" d="M 85.5,291.5 C 84.8333,292.5 84.1667,293.5 83.5,294.5C 83.1667,294.5 82.8333,294.5 82.5,294.5C 82.5,292.5 83.5,291.5 85.5,291.5 Z"/></g>
<g><path style="opacity:0.486" fill="#aec6d7" d="M 114.5,300.5 C 114.167,300.5 113.833,300.5 113.5,300.5C 113.326,298.139 112.993,295.806 112.5,293.5C 111.5,293.5 110.5,293.5 109.5,293.5C 109.5,298.167 109.5,302.833 109.5,307.5C 109.5,308.167 109.5,308.833 109.5,309.5C 108.511,304.025 108.178,298.358 108.5,292.5C 110.167,292.5 111.833,292.5 113.5,292.5C 114.092,295.127 114.425,297.794 114.5,300.5 Z"/></g>
<g><path style="opacity:0.216" fill="#b3ccde" d="M 242.5,292.5 C 246.431,293.389 250.098,294.722 253.5,296.5C 249.32,296.218 245.653,294.885 242.5,292.5 Z"/></g>
<g><path style="opacity:1" fill="#34679e" d="M 261.5,294.5 C 262.344,298.099 262.677,301.766 262.5,305.5C 261.167,303.5 259.833,301.5 258.5,299.5C 258.5,298.833 258.167,298.5 257.5,298.5C 256.833,298.5 256.5,298.167 256.5,297.5C 257.413,295.914 257.413,294.414 256.5,293C 258.282,292.878 259.948,293.378 261.5,294.5 Z"/></g>
<g><path style="opacity:1" fill="#90aecc" d="M 376.5,297.5 C 376.81,300.713 376.477,303.713 375.5,306.5C 375.665,303.482 375.498,300.482 375,297.5C 373.333,293.5 371.667,293.5 370,297.5C 369.023,299.74 368.523,302.073 368.5,304.5C 367.665,301.006 367.665,297.34 368.5,293.5C 370.833,293.5 373.167,293.5 375.5,293.5C 375.433,294.959 375.766,296.292 376.5,297.5 Z"/></g>
<g><path style="opacity:1" fill="#5d86b3" d="M 419.5,291.5 C 419.517,293.565 419.85,295.565 420.5,297.5C 417.52,297.241 415.687,298.574 415,301.5C 414.231,304.099 414.398,306.599 415.5,309C 415.833,309.167 416.167,309.333 416.5,309.5C 417.17,307.709 417.837,306.042 418.5,304.5C 418.5,306.5 418.5,308.5 418.5,310.5C 415.482,312.904 413.815,311.904 413.5,307.5C 413.5,305.167 413.5,302.833 413.5,300.5C 414.768,298.095 415.435,295.428 415.5,292.5C 416.959,292.567 418.292,292.234 419.5,291.5 Z"/></g>
<g><path style="opacity:0.263" fill="#b0c9dd" d="M 435.5,292.5 C 434.292,291.766 432.959,291.433 431.5,291.5C 431.616,294.86 431.949,298.193 432.5,301.5C 431.003,299.71 430.336,297.544 430.5,295C 430.444,292.462 431.444,290.628 433.5,289.5C 434.919,290.005 435.585,291.005 435.5,292.5 Z"/></g>
<g><path style="opacity:0.451" fill="#a5c2d8" d="M 281.5,292.5 C 282.906,292.973 283.573,293.973 283.5,295.5C 282.094,295.027 281.427,294.027 281.5,292.5 Z"/></g>
<g><path style="opacity:1" fill="#4876aa" d="M 346.5,284.5 C 346.33,285.822 346.663,286.989 347.5,288C 351.152,288.499 354.818,288.665 358.5,288.5C 359.787,291.698 360.453,295.031 360.5,298.5C 359.448,298.649 358.448,298.483 357.5,298C 356.901,296.378 356.234,294.878 355.5,293.5C 353.486,293.392 351.82,294.058 350.5,295.5C 349.883,295.611 349.383,295.944 349,296.5C 348.503,299.146 348.336,301.813 348.5,304.5C 349.959,304.567 351.292,304.234 352.5,303.5C 352.586,304.496 352.252,305.329 351.5,306C 353.935,306.075 354.602,306.908 353.5,308.5C 353.027,309.906 352.027,310.573 350.5,310.5C 348.278,310.822 346.444,310.155 345,308.5C 344.302,305.996 343.469,303.663 342.5,301.5C 341.533,293.586 341.199,285.586 341.5,277.5C 343.144,277.286 344.644,277.62 346,278.5C 346.495,280.473 346.662,282.473 346.5,284.5 Z"/></g>
<g><path style="opacity:0.51" fill="#97b7d6" d="M 400.5,294.5 C 400.674,296.861 401.007,299.194 401.5,301.5C 400.007,300.688 399.34,299.355 399.5,297.5C 399.52,296.274 399.853,295.274 400.5,294.5 Z"/></g>
<g><path style="opacity:1" fill="#2a639c" d="M 225.5,303.5 C 222.98,304.55 221.646,303.55 221.5,300.5C 221.336,297.813 221.503,295.146 222,292.5C 223.011,291.663 224.178,291.33 225.5,291.5C 225.5,295.5 225.5,299.5 225.5,303.5 Z"/></g>
<g><path style="opacity:0.975" fill="#2b6398" d="M 209.5,299.5 C 209.007,297.194 208.674,294.861 208.5,292.5C 209.688,291.316 210.855,291.316 212,292.5C 212.497,294.81 212.663,297.143 212.5,299.5C 211.5,299.5 210.5,299.5 209.5,299.5 Z"/></g>
<g><path style="opacity:0.878" fill="#97b7d2" d="M 225.5,303.5 C 225.5,299.5 225.5,295.5 225.5,291.5C 224.178,291.33 223.011,291.663 222,292.5C 221.503,295.146 221.336,297.813 221.5,300.5C 221.167,300.5 220.833,300.5 220.5,300.5C 220.335,297.482 220.502,294.482 221,291.5C 222.133,289.789 223.633,289.289 225.5,290C 228.039,294.625 228.039,299.125 225.5,303.5 Z"/></g>
<g><path style="opacity:1" fill="#4372a7" d="M 270.5,290.5 C 273.5,290.5 276.5,290.5 279.5,290.5C 280.5,290.833 281.167,291.5 281.5,292.5C 281.427,294.027 282.094,295.027 283.5,295.5C 284.987,298.945 286.154,302.612 287,306.5C 288.972,307.305 290.472,308.639 291.5,310.5C 291.043,311.298 290.376,311.631 289.5,311.5C 287.5,311.5 285.5,311.5 283.5,311.5C 281.139,311.674 278.806,312.007 276.5,312.5C 274.097,312.552 271.764,312.219 269.5,311.5C 268.5,309.833 267.167,308.5 265.5,307.5C 265.467,303.131 265.8,298.798 266.5,294.5C 268.167,293.5 269.5,292.167 270.5,290.5 Z M 273.5,294.5 C 275.71,294.894 277.043,296.227 277.5,298.5C 277.935,301.838 277.268,304.838 275.5,307.5C 272.15,307.349 270.484,305.515 270.5,302C 270.828,299.171 271.828,296.671 273.5,294.5 Z"/></g>
<g><path style="opacity:0.839" fill="#88a7c6" d="M 273.5,294.5 C 274.568,293.566 275.901,293.232 277.5,293.5C 277.629,295.216 277.962,296.883 278.5,298.5C 278.167,298.5 277.833,298.5 277.5,298.5C 277.043,296.227 275.71,294.894 273.5,294.5 Z"/></g>
<g><path style="opacity:0.999" fill="#3b6ba1" d="M 329.5,290.5 C 329.5,291.833 329.5,293.167 329.5,294.5C 328.167,294.5 326.833,294.5 325.5,294.5C 324.391,294.557 323.391,294.89 322.5,295.5C 321.21,296.058 320.377,297.058 320,298.5C 319.503,301.146 319.336,303.813 319.5,306.5C 318.5,306.5 317.5,306.5 316.5,306.5C 315.239,302.196 315.572,297.863 317.5,293.5C 317.5,292.167 318.167,291.5 319.5,291.5C 322.764,290.676 326.098,290.342 329.5,290.5 Z"/></g>
<g><path style="opacity:1" fill="#5881b0" d="M 329.5,290.5 C 333.854,294.026 336.021,298.692 336,304.5C 337.42,306.444 338.92,308.277 340.5,310C 339.956,311.947 338.623,312.78 336.5,312.5C 334.182,312.003 331.848,311.67 329.5,311.5C 331.292,310.691 333.292,310.191 335.5,310C 335.167,309.667 334.833,309.333 334.5,309C 328.721,308.726 323.054,308.559 317.5,308.5C 316.662,308.158 316.328,307.492 316.5,306.5C 317.5,306.5 318.5,306.5 319.5,306.5C 319.336,303.813 319.503,301.146 320,298.5C 320.377,297.058 321.21,296.058 322.5,295.5C 320.018,299.376 320.018,303.209 322.5,307C 323.448,307.483 324.448,307.649 325.5,307.5C 326.496,307.586 327.329,307.252 328,306.5C 328.805,303.304 328.638,300.304 327.5,297.5C 326.599,296.71 325.932,295.71 325.5,294.5C 326.833,294.5 328.167,294.5 329.5,294.5C 329.5,293.167 329.5,291.833 329.5,290.5 Z"/></g>
<g><path style="opacity:1" fill="#31649c" d="M 377.5,290.5 C 378.152,294.114 379.486,297.114 381.5,299.5C 380.797,301.769 379.63,303.769 378,305.5C 377.817,302.635 377.317,299.969 376.5,297.5C 375.766,296.292 375.433,294.959 375.5,293.5C 373.167,293.5 370.833,293.5 368.5,293.5C 367.665,297.34 367.665,301.006 368.5,304.5C 368.5,305.833 368.5,307.167 368.5,308.5C 370.604,308.201 372.604,308.534 374.5,309.5C 375.127,310.417 375.461,311.417 375.5,312.5C 372.763,312.599 370.096,312.265 367.5,311.5C 364.885,307.991 363.885,303.991 364.5,299.5C 364.5,298.167 364.5,296.833 364.5,295.5C 364.554,293.368 365.554,292.035 367.5,291.5C 370.764,290.676 374.098,290.342 377.5,290.5 Z"/></g>
<g><path style="opacity:1" fill="#3368a0" d="M 76.5,289.5 C 76.427,291.027 77.0937,292.027 78.5,292.5C 79.5909,297.531 79.5909,302.531 78.5,307.5C 77.4062,308.582 76.0729,309.248 74.5,309.5C 73.2867,309.253 72.62,308.586 72.5,307.5C 73.1098,306.609 73.4431,305.609 73.5,304.5C 73.3284,303.508 73.6618,302.842 74.5,302.5C 75.8149,299.373 75.4815,296.373 73.5,293.5C 72.6618,293.158 72.3284,292.492 72.5,291.5C 71.4447,287.101 72.778,286.434 76.5,289.5 Z"/></g>
<g><path style="opacity:0.996" fill="#648ab1" d="M 82.5,294.5 C 82.8333,294.5 83.1667,294.5 83.5,294.5C 83.8897,297.839 84.3897,301.173 85,304.5C 85.0036,301.208 86.1703,298.542 88.5,296.5C 85.4013,300.866 86.068,304.533 90.5,307.5C 91.8518,306.476 93.1851,305.476 94.5,304.5C 93.5661,306.239 93.5661,307.905 94.5,309.5C 96.3361,310.028 98.0028,310.694 99.5,311.5C 97.139,311.674 94.8056,312.007 92.5,312.5C 92.7986,311.24 92.7986,310.073 92.5,309C 90.0288,308.294 87.6954,308.627 85.5,310C 86.3805,310.708 87.0472,311.542 87.5,312.5C 85.2512,311.92 83.5846,310.587 82.5,308.5C 82.5,303.833 82.5,299.167 82.5,294.5 Z"/></g>
<g><path style="opacity:0.998" fill="#366495" d="M 113.5,300.5 C 113.905,304.048 113.405,307.381 112,310.5C 111.623,309.058 110.79,308.058 109.5,307.5C 109.5,302.833 109.5,298.167 109.5,293.5C 110.5,293.5 111.5,293.5 112.5,293.5C 112.993,295.806 113.326,298.139 113.5,300.5 Z"/></g>
<g><path style="opacity:0.069" fill="#d0e9f4" d="M 135.5,292.5 C 137.118,295.171 137.785,298.171 137.5,301.5C 136.343,298.727 135.676,295.727 135.5,292.5 Z"/></g>
<g><path style="opacity:1" fill="#5b85b1" d="M 220.5,300.5 C 220.833,300.5 221.167,300.5 221.5,300.5C 221.646,303.55 222.98,304.55 225.5,303.5C 225.167,305.833 223.833,307.167 221.5,307.5C 221.611,306.883 221.944,306.383 222.5,306C 220.833,305.667 219.167,305.333 217.5,305C 221.223,304.566 221.39,303.732 218,302.5C 217.05,303.022 216.216,303.689 215.5,304.5C 212.431,301.539 211.431,301.873 212.5,305.5C 210.738,304.738 209.738,303.404 209.5,301.5C 209.5,300.833 209.5,300.167 209.5,299.5C 210.5,299.5 211.5,299.5 212.5,299.5C 212.663,297.143 212.497,294.81 212,292.5C 210.855,291.316 209.688,291.316 208.5,292.5C 208.5,291.833 208.5,291.167 208.5,290.5C 209.251,289.427 210.251,289.26 211.5,290C 213.669,292.819 215.169,295.986 216,299.5C 217.226,301.548 218.726,301.881 220.5,300.5 Z"/></g>
<g><path style="opacity:1" fill="#678cb6" d="M 358.5,288.5 C 361.875,290.59 363.041,293.59 362,297.5C 361.058,302.758 358.224,306.424 353.5,308.5C 354.602,306.908 353.935,306.075 351.5,306C 352.252,305.329 352.586,304.496 352.5,303.5C 352.5,303.167 352.5,302.833 352.5,302.5C 354.336,299.817 355.336,296.817 355.5,293.5C 356.234,294.878 356.901,296.378 357.5,298C 358.448,298.483 359.448,298.649 360.5,298.5C 360.453,295.031 359.787,291.698 358.5,288.5 Z"/></g>
<g><path style="opacity:1" fill="#35669b" d="M 67.5,281.5 C 68.4916,281.328 69.1583,281.662 69.5,282.5C 69.8432,284.483 69.1765,285.817 67.5,286.5C 66.6879,285.007 65.3545,284.34 63.5,284.5C 61.0452,284.112 59.7119,285.112 59.5,287.5C 60.6981,295.151 61.6981,302.818 62.5,310.5C 64.2922,311.309 66.2922,311.809 68.5,312C 67.635,313.359 66.635,314.526 65.5,315.5C 63.0504,315.702 60.717,315.369 58.5,314.5C 57.3685,303.851 56.3685,293.184 55.5,282.5C 59.4338,281.64 63.4338,281.307 67.5,281.5 Z"/></g>
<g><path style="opacity:0.133" fill="#b7cee2" d="M 67.5,286.5 C 66.1825,286.179 64.8492,285.846 63.5,285.5C 61.9996,285.453 60.9996,286.119 60.5,287.5C 61.8941,294.771 62.8941,302.104 63.5,309.5C 65.5648,309.483 67.5648,309.15 69.5,308.5C 67.7211,310.344 65.3878,311.01 62.5,310.5C 61.6981,302.818 60.6981,295.151 59.5,287.5C 59.7119,285.112 61.0452,284.112 63.5,284.5C 65.3545,284.34 66.6879,285.007 67.5,286.5 Z"/></g>
<g><path style="opacity:0.427" fill="#a6c3dc" d="M 73.5,293.5 C 75.4815,296.373 75.8149,299.373 74.5,302.5C 74.2962,299.482 73.9629,296.482 73.5,293.5 Z"/></g>
<g><path style="opacity:0.176" fill="#c5dbea" d="M 100.5,296.5 C 101.475,299.311 102.142,302.311 102.5,305.5C 100.735,302.877 100.068,299.877 100.5,296.5 Z"/></g>
<g><path style="opacity:0.988" fill="#92b3d0" d="M 189.5,299.5 C 193.789,299.777 197.789,300.777 201.5,302.5C 201.771,304.38 201.104,305.713 199.5,306.5C 200.171,305.153 200.171,303.986 199.5,303C 196.576,302.012 193.576,301.346 190.5,301C 189.944,300.617 189.611,300.117 189.5,299.5 Z"/></g>
<g><path style="opacity:0.788" fill="#87a5c4" d="M 261.5,294.5 C 263.213,295.635 263.88,297.302 263.5,299.5C 263.5,300.833 263.5,302.167 263.5,303.5C 263.768,305.099 263.434,306.432 262.5,307.5C 262.5,306.833 262.5,306.167 262.5,305.5C 262.677,301.766 262.344,298.099 261.5,294.5 Z"/></g>
<g><path style="opacity:0.155" fill="#c6dfef" d="M 266.5,294.5 C 265.8,298.798 265.467,303.131 265.5,307.5C 264.833,306.167 264.167,304.833 263.5,303.5C 263.5,302.167 263.5,300.833 263.5,299.5C 264.687,297.928 265.687,296.261 266.5,294.5 Z"/></g>
<g><path style="opacity:0.204" fill="#bdd9e9" d="M 317.5,293.5 C 315.572,297.863 315.239,302.196 316.5,306.5C 316.328,307.492 316.662,308.158 317.5,308.5C 318.5,309.833 319.5,311.167 320.5,312.5C 317.885,311.55 315.885,309.883 314.5,307.5C 314.335,304.15 314.502,300.817 315,297.5C 315.2,295.68 316.034,294.347 317.5,293.5 Z"/></g>
<g><path style="opacity:0.569" fill="#99b4cb" d="M 420.5,297.5 C 423.232,298.866 425.899,300.199 428.5,301.5C 424.915,301.708 422.249,300.375 420.5,297.5 Z"/></g>
<g><path style="opacity:0.698" fill="#9bbad2" d="M 78.5,292.5 C 79.7763,294.562 80.6097,296.896 81,299.5C 81.1981,297.618 81.6981,295.952 82.5,294.5C 82.5,299.167 82.5,303.833 82.5,308.5C 81.6981,307.048 81.1981,305.382 81,303.5C 80.7996,305.32 79.9663,306.653 78.5,307.5C 79.5909,302.531 79.5909,297.531 78.5,292.5 Z"/></g>
<g><path style="opacity:0.998" fill="#3f70a4" d="M 100.5,296.5 C 100.068,299.877 100.735,302.877 102.5,305.5C 103.5,305.833 104.167,306.5 104.5,307.5C 105.234,308.708 105.567,310.041 105.5,311.5C 103.833,311.5 102.167,311.5 100.5,311.5C 100.167,311.5 99.8333,311.5 99.5,311.5C 98.0028,310.694 96.3361,310.028 94.5,309.5C 93.5661,307.905 93.5661,306.239 94.5,304.5C 95.3576,301.18 94.8576,297.847 93,294.5C 91.0849,293.084 89.5849,293.418 88.5,295.5C 88.5,295.833 88.5,296.167 88.5,296.5C 86.1703,298.542 85.0036,301.208 85,304.5C 84.3897,301.173 83.8897,297.839 83.5,294.5C 84.1667,293.5 84.8333,292.5 85.5,291.5C 85.9528,290.542 86.6195,289.708 87.5,289C 93.9496,287.89 98.2829,290.39 100.5,296.5 Z"/></g>
<g><path style="opacity:0.306" fill="#b7d4e7" d="M 94.5,304.5 C 94.1353,301.375 93.302,298.375 92,295.5C 91.0138,294.829 89.8471,294.829 88.5,295.5C 89.5849,293.418 91.0849,293.084 93,294.5C 94.8576,297.847 95.3576,301.18 94.5,304.5 Z"/></g>
<g><path style="opacity:1" fill="#4775a7" d="M 121.5,285.5 C 121.201,287.604 121.534,289.604 122.5,291.5C 123.739,291.058 124.739,290.391 125.5,289.5C 127.966,288.366 130.633,288.199 133.5,289C 134.823,289.816 135.489,290.983 135.5,292.5C 135.676,295.727 136.343,298.727 137.5,301.5C 137.5,302.5 137.5,303.5 137.5,304.5C 137.5,307.167 137.5,309.833 137.5,312.5C 135.486,312.608 133.82,311.942 132.5,310.5C 131.732,309.737 131.232,308.737 131,307.5C 130.501,303.514 130.334,299.514 130.5,295.5C 128.872,294.147 127.538,294.481 126.5,296.5C 126.5,297.167 126.167,297.5 125.5,297.5C 124.883,297.611 124.383,297.944 124,298.5C 123.649,303.198 123.149,307.864 122.5,312.5C 121.167,312.5 119.833,312.5 118.5,312.5C 117.003,300.887 116.336,289.221 116.5,277.5C 117.822,277.33 118.989,277.663 120,278.5C 120.186,281.036 120.686,283.369 121.5,285.5 Z"/></g>
<g><path style="opacity:0.027" fill="#bfdaea" d="M 130.5,295.5 C 129.167,295.833 127.833,296.167 126.5,296.5C 127.538,294.481 128.872,294.147 130.5,295.5 Z"/></g>
<g><path style="opacity:0.039" fill="#d6e8f4" d="M 277.5,298.5 C 277.833,298.5 278.167,298.5 278.5,298.5C 278.664,301.187 278.497,303.854 278,306.5C 277.329,307.252 276.496,307.586 275.5,307.5C 277.268,304.838 277.935,301.838 277.5,298.5 Z"/></g>
<g><path style="opacity:1" fill="#3e6ea3" d="M 295.5,277.5 C 296.338,277.842 296.672,278.508 296.5,279.5C 296.5,283.5 296.5,287.5 296.5,291.5C 297.791,291.737 298.791,291.404 299.5,290.5C 302.482,290.037 305.482,289.704 308.5,289.5C 309.167,290.833 310.167,291.833 311.5,292.5C 312.403,295.391 312.736,298.391 312.5,301.5C 312.249,304.909 312.583,308.242 313.5,311.5C 311.905,312.434 310.239,312.434 308.5,311.5C 307.662,311.158 307.328,310.492 307.5,309.5C 307.666,305.154 307.499,300.821 307,296.5C 306.617,295.944 306.117,295.611 305.5,295.5C 303.668,296.248 302.001,297.248 300.5,298.5C 299.732,299.263 299.232,300.263 299,301.5C 298.501,305.152 298.335,308.818 298.5,312.5C 297.167,312.5 295.833,312.5 294.5,312.5C 292.947,300.892 292.28,289.225 292.5,277.5C 293.5,277.5 294.5,277.5 295.5,277.5 Z"/></g>
<g><path style="opacity:0.392" fill="#b0ccdf" d="M 305.5,295.5 C 306.117,295.611 306.617,295.944 307,296.5C 307.499,300.821 307.666,305.154 307.5,309.5C 306.727,304.971 306.06,300.305 305.5,295.5 Z"/></g>
<g><path style="opacity:0.027" fill="#cde6f2" d="M 350.5,295.5 C 349.565,298.113 349.398,300.779 350,303.5C 350.671,302.748 351.504,302.414 352.5,302.5C 352.5,302.833 352.5,303.167 352.5,303.5C 351.292,304.234 349.959,304.567 348.5,304.5C 348.336,301.813 348.503,299.146 349,296.5C 349.383,295.944 349.883,295.611 350.5,295.5 Z"/></g>
<g><path style="opacity:0.235" fill="#bbd5e8" d="M 364.5,295.5 C 364.5,296.833 364.5,298.167 364.5,299.5C 363.527,301.948 363.194,304.615 363.5,307.5C 362.842,306.207 362.508,304.707 362.5,303C 362.408,300.179 363.074,297.679 364.5,295.5 Z"/></g>
<g><path style="opacity:1" fill="#3a6a9f" d="M 420.5,297.5 C 422.249,300.375 424.915,301.708 428.5,301.5C 430.382,302.221 430.715,303.221 429.5,304.5C 425.833,304.5 422.167,304.5 418.5,304.5C 417.837,306.042 417.17,307.709 416.5,309.5C 416.167,309.333 415.833,309.167 415.5,309C 414.398,306.599 414.231,304.099 415,301.5C 415.687,298.574 417.52,297.241 420.5,297.5 Z"/></g>
<g><path style="opacity:1" fill="#799abd" d="M 432.5,301.5 C 433.5,301.5 434.5,301.5 435.5,301.5C 435.253,303.858 435.919,305.858 437.5,307.5C 434.914,306.362 433.247,304.362 432.5,301.5 Z"/></g>
<g><path style="opacity:0.016" fill="#d4e6f2" d="M 327.5,297.5 C 328.638,300.304 328.805,303.304 328,306.5C 327.329,307.252 326.496,307.586 325.5,307.5C 327.299,304.495 327.966,301.162 327.5,297.5 Z"/></g>
<g><path style="opacity:0.196" fill="#c0d4e6" d="M 55.5,282.5 C 56.3685,293.184 57.3685,303.851 58.5,314.5C 55.8798,303.927 54.8798,293.261 55.5,282.5 Z"/></g>
<g><path style="opacity:0.212" fill="#b9cfe3" d="M 125.5,297.5 C 124.781,302.118 124.281,306.785 124,311.5C 122.38,313.632 120.546,313.965 118.5,312.5C 119.833,312.5 121.167,312.5 122.5,312.5C 123.149,307.864 123.649,303.198 124,298.5C 124.383,297.944 124.883,297.611 125.5,297.5 Z"/></g>
<g><path style="opacity:1" fill="#5780ad" d="M 204.5,297.5 C 206.533,298.898 207.533,300.898 207.5,303.5C 207.564,305.557 206.898,307.223 205.5,308.5C 204.094,308.973 203.427,309.973 203.5,311.5C 203.158,312.338 202.492,312.672 201.5,312.5C 201.719,311.325 201.386,310.325 200.5,309.5C 198.298,308.22 196.132,308.22 194,309.5C 193.487,308.473 192.987,307.473 192.5,306.5C 194.882,307.546 197.215,307.546 199.5,306.5C 201.104,305.713 201.771,304.38 201.5,302.5C 202.222,302.918 202.722,303.584 203,304.5C 205.822,302.721 206.322,300.387 204.5,297.5 Z"/></g>
<g><path style="opacity:1" fill="#4b76a8" d="M 435.5,292.5 C 435.166,295.491 436.166,297.824 438.5,299.5C 439.338,299.842 439.672,300.508 439.5,301.5C 440.884,302.801 442.384,302.801 444,301.5C 444.333,298.5 444.667,295.5 445,292.5C 446.011,291.663 447.178,291.33 448.5,291.5C 452.031,298.132 450.698,303.632 444.5,308C 441.961,308.796 439.628,308.629 437.5,307.5C 435.919,305.858 435.253,303.858 435.5,301.5C 434.5,301.5 433.5,301.5 432.5,301.5C 431.949,298.193 431.616,294.86 431.5,291.5C 432.959,291.433 434.292,291.766 435.5,292.5 Z"/></g>
<g><path style="opacity:0.796" fill="#8ba9c7" d="M 435.5,292.5 C 437.065,294.509 438.065,296.843 438.5,299.5C 436.166,297.824 435.166,295.491 435.5,292.5 Z"/></g>
<g><path style="opacity:0.133" fill="#c4dcea" d="M 121.5,285.5 C 120.686,283.369 120.186,281.036 120,278.5C 118.989,277.663 117.822,277.33 116.5,277.5C 116.336,289.221 117.003,300.887 118.5,312.5C 117.168,308.736 116.335,304.736 116,300.5C 115.168,292.479 115.335,284.479 116.5,276.5C 118.306,275.141 119.806,275.475 121,277.5C 121.497,280.146 121.664,282.813 121.5,285.5 Z"/></g>
<g><path style="opacity:1" fill="#2e669d" d="M 221.5,307.5 C 218.215,307.79 215.215,307.123 212.5,305.5C 211.431,301.873 212.431,301.539 215.5,304.5C 216.216,303.689 217.05,303.022 218,302.5C 221.39,303.732 221.223,304.566 217.5,305C 219.167,305.333 220.833,305.667 222.5,306C 221.944,306.383 221.611,306.883 221.5,307.5 Z"/></g>
<g><path style="opacity:0.588" fill="#a2bbd6" d="M 300.5,298.5 C 300.31,303.37 299.644,308.036 298.5,312.5C 298.335,308.818 298.501,305.152 299,301.5C 299.232,300.263 299.732,299.263 300.5,298.5 Z"/></g>
<g><path style="opacity:0.957" fill="#6a8db3" d="M 364.5,299.5 C 363.885,303.991 364.885,307.991 367.5,311.5C 365.29,311.106 363.957,309.773 363.5,307.5C 363.194,304.615 363.527,301.948 364.5,299.5 Z"/></g>
<g><path style="opacity:1" fill="#4a79ac" d="M 377.5,290.5 C 382.06,293.959 384.227,298.625 384,304.5C 384.377,305.942 385.21,306.942 386.5,307.5C 387.234,308.708 387.567,310.041 387.5,311.5C 385.5,311.5 383.5,311.5 381.5,311.5C 380.01,309.72 378.01,309.054 375.5,309.5C 375.5,308.5 375.5,307.5 375.5,306.5C 376.477,303.713 376.81,300.713 376.5,297.5C 377.317,299.969 377.817,302.635 378,305.5C 379.63,303.769 380.797,301.769 381.5,299.5C 379.486,297.114 378.152,294.114 377.5,290.5 Z"/></g>
<g><path style="opacity:0.804" fill="#9db6cf" d="M 401.5,301.5 C 403.582,301.472 405.416,302.139 407,303.5C 407.442,305.614 406.609,306.948 404.5,307.5C 405.234,306.292 405.567,304.959 405.5,303.5C 403.62,303.771 402.287,303.104 401.5,301.5 Z"/></g>
<g><path style="opacity:0.933" fill="#8fb2cf" d="M 159.5,301.5 C 160.201,303.588 161.201,305.588 162.5,307.5C 161.504,307.586 160.671,307.252 160,306.5C 159.506,304.866 159.34,303.199 159.5,301.5 Z"/></g>
<g><path style="opacity:0.875" fill="#87a5c2" d="M 172.5,303.5 C 174.283,304.114 175.616,305.28 176.5,307C 177.793,307.49 179.127,307.657 180.5,307.5C 176.387,309.432 173.72,308.098 172.5,303.5 Z"/></g>
<g><path style="opacity:0.396" fill="#c9dfed" d="M 257.5,298.5 C 258.167,298.5 258.5,298.833 258.5,299.5C 259.661,304.175 257.994,306.841 253.5,307.5C 257.009,305.621 258.342,302.621 257.5,298.5 Z"/></g>
<g><path style="opacity:0.078" fill="#d4e7f3" d="M 418.5,304.5 C 422.167,304.5 425.833,304.5 429.5,304.5C 426.375,305.479 423.042,305.813 419.5,305.5C 419.784,307.415 419.451,309.081 418.5,310.5C 418.5,308.5 418.5,306.5 418.5,304.5 Z"/></g>
<g><path style="opacity:0.541" fill="#a8c3d9" d="M 73.5,304.5 C 73.4431,305.609 73.1098,306.609 72.5,307.5C 71.609,308.11 70.609,308.443 69.5,308.5C 70.5,306.833 71.8333,305.5 73.5,304.5 Z"/></g>
<g><path style="opacity:0.004" fill="#c7d9e7" d="M 182.5,303.5 C 183.976,305.709 183.309,307.042 180.5,307.5C 181.6,306.395 182.267,305.062 182.5,303.5 Z"/></g>
<g><path style="opacity:0.478" fill="#aac5d8" d="M 192.5,306.5 C 191.167,306.5 189.833,306.5 188.5,306.5C 188.5,307.5 188.5,308.5 188.5,309.5C 187.566,308.432 187.232,307.099 187.5,305.5C 189.415,305.216 191.081,305.549 192.5,306.5 Z"/></g>
<g><path style="opacity:0.706" fill="#95b4cd" d="M 212.5,305.5 C 215.215,307.123 218.215,307.79 221.5,307.5C 219.372,308.629 217.039,308.796 214.5,308C 213.619,307.292 212.953,306.458 212.5,305.5 Z"/></g>
<g><path style="opacity:0.651" fill="#aac5da" d="M 342.5,301.5 C 343.469,303.663 344.302,305.996 345,308.5C 346.444,310.155 348.278,310.822 350.5,310.5C 348.183,311.942 346.016,311.608 344,309.5C 342.748,306.986 342.248,304.32 342.5,301.5 Z"/></g>
<g><path style="opacity:0.867" fill="#a7bed4" d="M 247.5,307.5 C 245.167,307.5 242.833,307.5 240.5,307.5C 240.5,308.833 240.5,310.167 240.5,311.5C 238.595,309.951 238.261,308.118 239.5,306C 242.419,305.567 245.086,306.067 247.5,307.5 Z"/></g>
<g><path style="opacity:0.998" fill="#5379a7" d="M 258.5,299.5 C 259.833,301.5 261.167,303.5 262.5,305.5C 262.5,306.167 262.5,306.833 262.5,307.5C 257.686,313.717 251.353,315.884 243.5,314C 242.058,313.623 241.058,312.79 240.5,311.5C 240.5,310.167 240.5,308.833 240.5,307.5C 242.833,307.5 245.167,307.5 247.5,307.5C 249.5,307.5 251.5,307.5 253.5,307.5C 257.994,306.841 259.661,304.175 258.5,299.5 Z"/></g>
<g><path style="opacity:1" fill="#4771a2" d="M 92.5,312.5 C 90.8333,313.833 89.1667,313.833 87.5,312.5C 87.0472,311.542 86.3805,310.708 85.5,310C 87.6954,308.627 90.0288,308.294 92.5,309C 92.7986,310.073 92.7986,311.24 92.5,312.5 Z"/></g>
<g><path style="opacity:1" fill="#4773a4" d="M 152.5,289.5 C 153.5,291.167 154.833,292.5 156.5,293.5C 158.982,295.503 159.982,298.169 159.5,301.5C 159.34,303.199 159.506,304.866 160,306.5C 160.671,307.252 161.504,307.586 162.5,307.5C 163.167,307.5 163.5,307.833 163.5,308.5C 164.833,309.5 164.833,310.5 163.5,311.5C 163.217,312.289 162.717,312.956 162,313.5C 160.53,312.733 159.03,312.067 157.5,311.5C 155.32,310.206 153.32,310.539 151.5,312.5C 146.831,314.346 143.164,313.013 140.5,308.5C 140.5,304.167 140.5,299.833 140.5,295.5C 141.08,293.251 142.413,291.585 144.5,290.5C 147.096,289.735 149.763,289.401 152.5,289.5 Z M 147.5,294.5 C 148.5,294.5 149.5,294.5 150.5,294.5C 152.417,298.402 152.751,302.402 151.5,306.5C 149.321,308.164 147.488,307.83 146,305.5C 145.503,302.854 145.336,300.187 145.5,297.5C 146.906,297.027 147.573,296.027 147.5,294.5 Z"/></g>
<g><path style="opacity:0.416" fill="#90b2cf" d="M 150.5,294.5 C 152.652,296.607 153.652,299.274 153.5,302.5C 153.415,304.333 152.748,305.666 151.5,306.5C 152.751,302.402 152.417,298.402 150.5,294.5 Z"/></g>
<g><path style="opacity:0.129" fill="#c3dbe9" d="M 147.5,294.5 C 147.573,296.027 146.906,297.027 145.5,297.5C 145.427,295.973 146.094,294.973 147.5,294.5 Z"/></g>
<g><path style="opacity:0.004" fill="#b9d3e2" d="M 265.5,307.5 C 267.167,308.5 268.5,309.833 269.5,311.5C 267.167,311.167 265.833,309.833 265.5,307.5 Z"/></g>
<g><path style="opacity:1" fill="#4973a5" d="M 317.5,308.5 C 323.054,308.559 328.721,308.726 334.5,309C 334.833,309.333 335.167,309.667 335.5,310C 333.292,310.191 331.292,310.691 329.5,311.5C 328.054,312.94 326.221,313.607 324,313.5C 322.615,313.486 321.449,313.152 320.5,312.5C 319.5,311.167 318.5,309.833 317.5,308.5 Z"/></g>
<g><path style="opacity:1" fill="#6d90b9" d="M 368.5,304.5 C 370.052,307.571 372.385,308.237 375.5,306.5C 375.5,307.5 375.5,308.5 375.5,309.5C 378.01,309.054 380.01,309.72 381.5,311.5C 379.435,311.517 377.435,311.85 375.5,312.5C 375.461,311.417 375.127,310.417 374.5,309.5C 372.604,308.534 370.604,308.201 368.5,308.5C 368.5,307.167 368.5,305.833 368.5,304.5 Z"/></g>
<g><path style="opacity:0.997" fill="#5c82ac" d="M 72.5,307.5 C 72.62,308.586 73.2867,309.253 74.5,309.5C 76.0729,309.248 77.4062,308.582 78.5,307.5C 75.4063,311.894 71.073,314.561 65.5,315.5C 66.635,314.526 67.635,313.359 68.5,312C 66.2922,311.809 64.2922,311.309 62.5,310.5C 65.3878,311.01 67.7211,310.344 69.5,308.5C 70.609,308.443 71.609,308.11 72.5,307.5 Z"/></g>
<g><path style="opacity:0.925" fill="#9ab3c8" d="M 104.5,307.5 C 107.317,307.801 107.984,309.134 106.5,311.5C 104.364,312.793 102.364,312.793 100.5,311.5C 102.167,311.5 103.833,311.5 105.5,311.5C 105.567,310.041 105.234,308.708 104.5,307.5 Z"/></g>
<g><path style="opacity:0.976" fill="#7c9bba" d="M 113.5,300.5 C 113.833,300.5 114.167,300.5 114.5,300.5C 115.283,304.146 115.45,307.812 115,311.5C 112.045,314.323 110.212,313.656 109.5,309.5C 109.5,308.833 109.5,308.167 109.5,307.5C 110.79,308.058 111.623,309.058 112,310.5C 113.405,307.381 113.905,304.048 113.5,300.5 Z"/></g>
<g><path style="opacity:0.016" fill="#cadceb" d="M 205.5,308.5 C 205.573,310.027 204.906,311.027 203.5,311.5C 203.427,309.973 204.094,308.973 205.5,308.5 Z"/></g>
<g><path style="opacity:0.702" fill="#b0cbdd" d="M 140.5,295.5 C 140.5,299.833 140.5,304.167 140.5,308.5C 139.732,307.737 139.232,306.737 139,305.5C 138.746,308.195 138.579,310.695 138.5,313C 136.833,313.667 135.167,313.667 133.5,313C 132.748,312.329 132.414,311.496 132.5,310.5C 133.82,311.942 135.486,312.608 137.5,312.5C 137.5,309.833 137.5,307.167 137.5,304.5C 138.626,301.535 139.626,298.535 140.5,295.5 Z"/></g>
<g><path style="opacity:0.384" fill="#b8d3e5" d="M 157.5,311.5 C 155.5,311.833 153.5,312.167 151.5,312.5C 153.32,310.539 155.32,310.206 157.5,311.5 Z"/></g>
<g><path style="opacity:0.012" fill="#ccd9e4" d="M 163.5,308.5 C 166.167,309.5 166.167,310.5 163.5,311.5C 164.833,310.5 164.833,309.5 163.5,308.5 Z"/></g>
<g><path style="opacity:1" fill="#4a709f" d="M 192.5,306.5 C 192.987,307.473 193.487,308.473 194,309.5C 196.132,308.22 198.298,308.22 200.5,309.5C 201.386,310.325 201.719,311.325 201.5,312.5C 198.696,313.638 195.696,313.805 192.5,313C 190.676,312.34 189.343,311.173 188.5,309.5C 188.5,308.5 188.5,307.5 188.5,306.5C 189.833,306.5 191.167,306.5 192.5,306.5 Z"/></g>
<g><path style="opacity:0.78" fill="#9cb2c9" d="M 283.5,311.5 C 285.5,311.5 287.5,311.5 289.5,311.5C 287.642,313.731 285.642,313.731 283.5,311.5 Z"/></g>
<g><path style="opacity:0.8" fill="#9cb6cd" d="M 312.5,301.5 C 313.167,303.5 313.833,305.5 314.5,307.5C 315.029,310.604 314.029,312.937 311.5,314.5C 310.145,313.812 309.145,312.812 308.5,311.5C 310.239,312.434 311.905,312.434 313.5,311.5C 312.583,308.242 312.249,304.909 312.5,301.5 Z"/></g>
<g><path style="opacity:0.769" fill="#a1b6cb" d="M 386.5,307.5 C 389.892,308.738 390.225,310.571 387.5,313C 385.225,313.405 383.225,312.905 381.5,311.5C 383.5,311.5 385.5,311.5 387.5,311.5C 387.567,310.041 387.234,308.708 386.5,307.5 Z"/></g>
<g><path style="opacity:0.478" fill="#adc2d7" d="M 269.5,311.5 C 271.764,312.219 274.097,312.552 276.5,312.5C 275.726,313.147 274.726,313.48 273.5,313.5C 271.645,313.66 270.312,312.993 269.5,311.5 Z"/></g>
<g><path style="opacity:0.635" fill="#a9bdd0" d="M 367.5,311.5 C 370.096,312.265 372.763,312.599 375.5,312.5C 372.701,314.818 370.034,314.485 367.5,311.5 Z"/></g>
<g><path style="opacity:0.6" fill="#a9c3d9" d="M 58.5,314.5 C 60.717,315.369 63.0504,315.702 65.5,315.5C 64.5514,316.152 63.3847,316.486 62,316.5C 60.3189,316.392 59.1522,315.725 58.5,314.5 Z"/></g>
</svg>
