<?xml version="1.0" encoding="UTF-8"?>
<!DOCTYPE svg PUBLIC "-//W3C//DTD SVG 1.1//EN" "http://www.w3.org/Graphics/SVG/1.1/DTD/svg11.dtd">
<svg xmlns="http://www.w3.org/2000/svg" version="1.1" width="3000px" height="2000px" style="shape-rendering:geometricPrecision; text-rendering:geometricPrecision; image-rendering:optimizeQuality; fill-rule:evenodd; clip-rule:evenodd" xmlns:xlink="http://www.w3.org/1999/xlink">
<g><path style="opacity:0.995" fill="#4185f4" d="M 622.5,619.5 C 710.037,613.667 785.037,641.001 847.5,701.5C 828.167,720.167 809.167,739.167 790.5,758.5C 726.419,701.741 653.086,686.907 570.5,714C 505.034,740.772 462.2,787.606 442,854.5C 420.939,940.117 441.773,1013.62 504.5,1075C 565.583,1125.51 634.583,1140.18 711.5,1119C 750.771,1106.47 782.937,1083.97 808,1051.5C 823.741,1026.78 833.241,999.781 836.5,970.5C 772.5,970.5 708.5,970.5 644.5,970.5C 644.5,943.5 644.5,916.5 644.5,889.5C 735.167,889.5 825.833,889.5 916.5,889.5C 925.467,947.634 918.967,1003.97 897,1058.5C 864.309,1125.94 812.475,1171.77 741.5,1196C 659.082,1220.05 579.416,1212.71 502.5,1174C 413.577,1123.5 361.744,1048 347,947.5C 338.609,836.816 377.776,747.316 464.5,679C 511.681,644.661 564.348,624.828 622.5,619.5 Z"/></g>
<g><path style="opacity:0.99" fill="#34a753" d="M 2186.5,640.5 C 2213.83,640.5 2241.17,640.5 2268.5,640.5C 2268.5,826.5 2268.5,1012.5 2268.5,1198.5C 2241.17,1198.5 2213.83,1198.5 2186.5,1198.5C 2186.5,1012.5 2186.5,826.5 2186.5,640.5 Z"/></g>
<g><path style="opacity:0.989" fill="#ea4334" d="M 1123.5,829.5 C 1189.87,824.777 1245.37,846.777 1290,895.5C 1330.57,947.995 1342.9,1006.66 1327,1071.5C 1307.01,1137.49 1264.18,1180.99 1198.5,1202C 1126.39,1220.59 1062.73,1205.25 1007.5,1156C 965.287,1111.7 947.12,1058.87 953,997.5C 964.427,916.413 1008.93,862.913 1086.5,837C 1098.83,833.768 1111.16,831.268 1123.5,829.5 Z M 1138.5,904.5 C 1185.18,905.385 1218.68,926.719 1239,968.5C 1256.34,1012.74 1251.68,1054.4 1225,1093.5C 1195.7,1128.05 1158.87,1140.21 1114.5,1130C 1069.18,1113.66 1043.34,1081.49 1037,1033.5C 1032.74,984.001 1050.57,945.835 1090.5,919C 1105.63,910.786 1121.63,905.952 1138.5,904.5 Z"/></g>
<g><path style="opacity:0.992" fill="#fbbb05" d="M 1534.5,829.5 C 1607.04,824.707 1665.54,850.707 1710,907.5C 1743.79,959.394 1752.79,1015.06 1737,1074.5C 1713.7,1146.39 1664.36,1190.73 1589,1207.5C 1513.36,1218.09 1450.53,1194.59 1400.5,1137C 1400.83,1136.67 1401.17,1136.33 1401.5,1136C 1381.49,1110.85 1369.49,1083.02 1365.5,1052.5C 1356.07,992.632 1370.57,939.298 1409,892.5C 1442.98,855.927 1484.81,834.927 1534.5,829.5 Z M 1549.5,904.5 C 1612.29,908.601 1648.95,941.935 1659.5,1004.5C 1663.38,1042.02 1652.72,1074.85 1627.5,1103C 1590.3,1136.75 1548.97,1142.75 1503.5,1121C 1471.58,1101.35 1453.08,1072.85 1448,1035.5C 1443.99,1001.86 1451.99,971.532 1472,944.5C 1492.72,920.231 1518.55,906.898 1549.5,904.5 Z"/></g>
<g><path style="opacity:0.993" fill="#4185f4" d="M 1938.5,829.5 C 1976.92,825.935 2011.59,835.435 2042.5,858C 2046.83,862.333 2051.17,866.667 2055.5,871C 2056.45,871.483 2057.45,871.649 2058.5,871.5C 2058.5,861.167 2058.5,850.833 2058.5,840.5C 2085.17,840.5 2111.83,840.5 2138.5,840.5C 2138.97,963.512 2138.47,1086.51 2137,1209.5C 2134.71,1242.12 2126.05,1272.45 2111,1300.5C 2079.75,1348.94 2035.25,1375.11 1977.5,1379C 1894.41,1383.98 1832.75,1350.64 1792.5,1279C 1792.83,1278.67 1793.17,1278.33 1793.5,1278C 1791.43,1274.7 1789.77,1271.2 1788.5,1267.5C 1812.71,1256.9 1837.04,1246.56 1861.5,1236.5C 1889.52,1293.84 1934.52,1314.34 1996.5,1298C 2031.1,1283.7 2050.93,1257.86 2056,1220.5C 2057.92,1202.55 2058.76,1184.55 2058.5,1166.5C 2057.45,1166.35 2056.45,1166.52 2055.5,1167C 2032.5,1192.17 2003.83,1206.17 1969.5,1209C 1894.73,1210.71 1837.9,1179.87 1799,1116.5C 1768.01,1058.46 1765.34,999.122 1791,938.5C 1821.4,876.722 1870.57,840.389 1938.5,829.5 Z M 1958.5,904.5 C 2009.8,906.8 2043.14,932.467 2058.5,981.5C 2069.83,1022.19 2063.66,1060.19 2040,1095.5C 2012.51,1128.78 1977.67,1140.28 1935.5,1130C 1894.01,1115.56 1868.84,1086.73 1860,1043.5C 1852.8,999.741 1864.63,962.241 1895.5,931C 1913.75,915.539 1934.75,906.705 1958.5,904.5 Z"/></g>
<g><path style="opacity:0.988" fill="#ea4334" d="M 2463.5,829.5 C 2533.26,824.631 2587.09,851.297 2625,909.5C 2636.79,928.919 2646.29,949.419 2653.5,971C 2653.36,971.772 2653.02,972.439 2652.5,973C 2568.28,1007.44 2484.28,1042.44 2400.5,1078C 2427.51,1125.36 2467.85,1142.7 2521.5,1130C 2542.89,1123.55 2560.73,1111.72 2575,1094.5C 2578.03,1089.76 2581.53,1085.43 2585.5,1081.5C 2607.17,1096 2628.83,1110.5 2650.5,1125C 2603.34,1190.56 2539.34,1217.89 2458.5,1207C 2392.73,1194.56 2345.9,1158.06 2318,1097.5C 2294.51,1035.67 2298.18,975.335 2329,916.5C 2359.83,865.995 2404.66,836.995 2463.5,829.5 Z M 2476.5,903.5 C 2491.3,902.733 2505.63,904.9 2519.5,910C 2535.52,916.184 2547.18,927.017 2554.5,942.5C 2498.98,966.092 2443.31,989.425 2387.5,1012.5C 2386.51,963.993 2408.17,929.826 2452.5,910C 2460.4,907.193 2468.4,905.026 2476.5,903.5 Z"/></g>
</svg>
