<?xml version="1.0" encoding="UTF-8"?>
<!DOCTYPE svg PUBLIC "-//W3C//DTD SVG 1.1//EN" "http://www.w3.org/Graphics/SVG/1.1/DTD/svg11.dtd">
<svg xmlns="http://www.w3.org/2000/svg" version="1.1" width="530px" height="530px" style="shape-rendering:geometricPrecision; text-rendering:geometricPrecision; image-rendering:optimizeQuality; fill-rule:evenodd; clip-rule:evenodd" xmlns:xlink="http://www.w3.org/1999/xlink">
<g><path style="opacity:0.016" fill="#010101" d="M 131.5,203.5 C 150.169,204.775 168.836,204.775 187.5,203.5C 194.48,204.221 201.48,204.721 208.5,205C 218.755,208.003 224.422,214.836 225.5,225.5C 229.059,225.408 232.392,226.241 235.5,228C 239.281,231.206 242.615,234.872 245.5,239C 250.914,240.41 255.247,243.41 258.5,248C 262.871,248.828 267.205,248.661 271.5,247.5C 274.93,237.239 281.597,230.072 291.5,226C 304.575,223.583 312.908,228.749 316.5,241.5C 320.641,242.331 324.808,242.997 329,243.5C 334.315,241.201 338.815,237.701 342.5,233C 352.719,225.239 363.219,224.739 374,231.5C 378.055,237.163 380.221,243.496 380.5,250.5C 389.837,241.26 400.17,239.76 411.5,246C 416.096,251.123 421.929,253.623 429,253.5C 436.296,250.836 443.796,250.003 451.5,251C 458.626,254.397 465.626,258.063 472.5,262C 481.286,271.282 481.786,281.115 474,291.5C 468.847,300.329 461.347,306.163 451.5,309C 435.986,309.762 420.486,309.595 405,308.5C 400.942,308.843 396.942,309.51 393,310.5C 384.694,308.05 376.361,308.05 368,310.5C 361.184,309.805 354.35,309.305 347.5,309C 344.121,307.893 340.954,306.393 338,304.5C 327.918,313.229 316.751,320.395 304.5,326C 277.785,337.076 249.952,342.243 221,341.5C 191.106,341.045 161.939,336.212 133.5,327C 119.592,322.139 107.425,314.639 97,304.5C 82.3999,310.494 68.2333,309.66 54.5,302C 44.3802,292.03 42.8802,280.863 50,268.5C 52.3494,265.983 54.8494,263.65 57.5,261.5C 62.0925,247.276 71.9258,240.276 87,240.5C 91.5019,240.882 96.0019,241.215 100.5,241.5C 100.469,235.415 99.8021,229.415 98.5,223.5C 98.5006,215.327 102.167,209.493 109.5,206C 116.951,204.983 124.285,204.15 131.5,203.5 Z"/></g>
<g><path style="opacity:0.142" fill="#2c2c2c" d="M 131.5,208.5 C 140.63,210.593 149.963,210.927 159.5,209.5C 175.325,210.105 190.991,210.772 206.5,211.5C 180.831,211.333 155.165,211.5 129.5,212C 123.984,212.173 118.651,212.673 113.5,213.5C 112.833,213.5 112.167,213.5 111.5,213.5C 110.833,213.5 110.167,213.5 109.5,213.5C 109.953,212.542 110.619,211.708 111.5,211C 118.322,210.937 124.988,210.104 131.5,208.5 Z"/></g>
<g><path style="opacity:0.87" fill="#d7d7d7" d="M 206.5,214.5 C 208.674,214.75 210.341,215.75 211.5,217.5C 187.39,215.536 163.39,214.869 139.5,215.5C 161.824,214.709 184.157,214.376 206.5,214.5 Z"/></g>
<g><path style="opacity:1" fill="#f8f8f9" d="M 139.5,215.5 C 163.39,214.869 187.39,215.536 211.5,217.5C 214.149,219.412 215.482,222.079 215.5,225.5C 216.919,232.038 214.919,237.038 209.5,240.5C 193.476,240.835 177.476,240.835 161.5,240.5C 156.27,239.674 152.937,241.674 151.5,246.5C 151.167,246.5 150.833,246.5 150.5,246.5C 139.856,245.121 134.856,249.787 135.5,260.5C 147.171,260.333 158.838,260.5 170.5,261C 173.018,262.199 175.518,263.365 178,264.5C 179.376,264.316 180.209,263.649 180.5,262.5C 183.72,260.98 187.053,259.647 190.5,258.5C 195.858,258.738 201.191,258.904 206.5,259C 208.745,254.081 211.079,249.248 213.5,244.5C 216.5,242.167 219.167,239.5 221.5,236.5C 225.104,234.97 228.437,235.303 231.5,237.5C 233.709,241.139 234.709,245.139 234.5,249.5C 240.15,248.827 245.15,250.161 249.5,253.5C 249.5,256.167 249.5,258.833 249.5,261.5C 256.032,259.955 262.699,259.288 269.5,259.5C 273.199,262.682 275.866,262.016 277.5,257.5C 280.607,253.621 282.941,249.288 284.5,244.5C 287.271,242.233 289.938,239.733 292.5,237C 295.868,236.457 299.201,236.624 302.5,237.5C 303.167,237.833 303.833,238.167 304.5,238.5C 306.007,243.175 307.007,248.008 307.5,253C 315.938,253.048 324.271,253.881 332.5,255.5C 334.942,255.714 336.608,254.714 337.5,252.5C 341.997,247.17 346.997,242.337 352.5,238C 356.791,236.254 361.125,236.087 365.5,237.5C 368.168,242.412 369.168,247.745 368.5,253.5C 365.294,255.584 363.961,258.584 364.5,262.5C 371.834,261.387 379.167,261.22 386.5,262C 388.539,260.074 390.206,257.907 391.5,255.5C 392.058,254.21 393.058,253.377 394.5,253C 397.167,252.333 399.833,252.333 402.5,253C 405.167,255.667 407.833,258.333 410.5,261C 417.08,261.869 423.58,263.035 430,264.5C 432.992,263.755 435.826,262.588 438.5,261C 444.593,259.839 450.26,260.839 455.5,264C 457.607,265.264 458.607,267.097 458.5,269.5C 469.121,268.769 472.121,273.103 467.5,282.5C 463.167,288.833 457.833,294.167 451.5,298.5C 436.77,298.274 422.103,297.941 407.5,297.5C 407.209,296.351 406.376,295.684 405,295.5C 402.601,295.613 400.768,296.613 399.5,298.5C 399.167,298.5 398.833,298.5 398.5,298.5C 393.043,298.755 387.71,298.088 382.5,296.5C 370.599,298.53 358.599,299.03 346.5,298C 345.295,296.624 343.962,295.458 342.5,294.5C 341.451,290.791 339.118,288.957 335.5,289C 331.534,293.967 327.201,298.634 322.5,303C 316.996,306.251 311.662,309.751 306.5,313.5C 296.024,318.074 285.357,322.074 274.5,325.5C 264.871,327.192 255.204,328.692 245.5,330C 225.473,330.583 205.473,330.083 185.5,328.5C 183.167,328.5 180.833,328.5 178.5,328.5C 171.651,326.275 164.651,324.109 157.5,322C 154.854,321.503 152.187,321.336 149.5,321.5C 147.102,321.741 145.102,321.074 143.5,319.5C 137.764,316.638 131.764,314.304 125.5,312.5C 123.605,310.759 121.272,309.759 118.5,309.5C 114.961,307.477 111.795,304.811 109,301.5C 106.7,298.123 104.867,294.456 103.5,290.5C 102.833,290.167 102.167,289.833 101.5,289.5C 97.3773,291.395 93.3773,293.562 89.5,296C 76.915,299.605 65.5816,297.438 55.5,289.5C 54.1349,279.558 57.9683,272.558 67,268.5C 67.4842,264.55 68.6509,260.883 70.5,257.5C 70.4142,256.504 70.7476,255.671 71.5,255C 74.3936,253.207 77.3936,251.707 80.5,250.5C 86.1136,250.073 91.4469,250.74 96.5,252.5C 99.1834,254.281 102.183,254.781 105.5,254C 107.333,252.167 109.167,250.333 111,248.5C 111.209,239.717 110.376,231.05 108.5,222.5C 108.326,220.307 108.993,218.473 110.5,217C 118.436,215.797 126.436,214.963 134.5,214.5C 136.258,214.592 137.924,214.925 139.5,215.5 Z"/></g>
<g><path style="opacity:0.694" fill="#aaaaaa" d="M 111.5,213.5 C 112.167,213.5 112.833,213.5 113.5,213.5C 144.671,213.169 175.671,213.502 206.5,214.5C 184.157,214.376 161.824,214.709 139.5,215.5C 137.924,214.925 136.258,214.592 134.5,214.5C 126.436,214.963 118.436,215.797 110.5,217C 108.993,218.473 108.326,220.307 108.5,222.5C 110.376,231.05 111.209,239.717 111,248.5C 109.167,250.333 107.333,252.167 105.5,254C 102.183,254.781 99.1834,254.281 96.5,252.5C 106.917,253.745 111.25,249.079 109.5,238.5C 109.706,234.531 109.039,230.865 107.5,227.5C 106.491,222.001 107.825,217.335 111.5,213.5 Z"/></g>
<g><path style="opacity:1" fill="#75709b" d="M 185.5,221.5 C 188.044,221.104 190.211,221.771 192,223.5C 192.498,226.817 192.665,230.15 192.5,233.5C 191.5,233.5 190.5,233.5 189.5,233.5C 189.665,230.482 189.498,227.482 189,224.5C 187.667,223.167 186.333,223.167 185,224.5C 184.53,223.423 184.697,222.423 185.5,221.5 Z"/></g>
<g><path style="opacity:1" fill="#777497" d="M 132.5,221.5 C 135.044,221.104 137.211,221.771 139,223.5C 139.499,227.152 139.665,230.818 139.5,234.5C 138.5,234.5 137.5,234.5 136.5,234.5C 136.665,231.15 136.498,227.817 136,224.5C 134.601,223.773 133.101,223.273 131.5,223C 132.056,222.617 132.389,222.117 132.5,221.5 Z"/></g>
<g><path style="opacity:1" fill="#706d97" d="M 178.5,232.5 C 178.167,232.5 177.833,232.5 177.5,232.5C 177.586,231.504 177.252,230.671 176.5,230C 174.413,229.208 172.579,228.041 171,226.5C 170.301,224.926 170.635,223.593 172,222.5C 173.86,225.272 176.194,227.605 179,229.5C 179.47,230.577 179.303,231.577 178.5,232.5 Z"/></g>
<g><path style="opacity:1" fill="#5e5685" d="M 197.5,222.5 C 198.675,222.281 199.675,222.614 200.5,223.5C 199.899,227.159 199.233,230.826 198.5,234.5C 197.509,230.555 197.176,226.555 197.5,222.5 Z"/></g>
<g><path style="opacity:1" fill="#837ea1" d="M 115.5,221.5 C 116.496,221.414 117.329,221.748 118,222.5C 120.409,231.612 122.409,231.612 124,222.5C 125.342,221.098 126.176,221.431 126.5,223.5C 124.691,227.439 123.191,231.439 122,235.5C 120.667,237.5 119.333,239.5 118,241.5C 117.308,240.975 116.808,240.308 116.5,239.5C 118.166,238.008 119.166,236.175 119.5,234C 118.06,229.848 116.727,225.681 115.5,221.5 Z"/></g>
<g><path style="opacity:1" fill="#7a769b" d="M 142.5,221.5 C 143.496,221.414 144.329,221.748 145,222.5C 146.34,225.202 147.673,227.869 149,230.5C 149.759,227.215 151.092,224.215 153,221.5C 153.167,222 153.333,222.5 153.5,223C 150.798,228.607 148.798,234.441 147.5,240.5C 146.5,240.5 145.5,240.5 144.5,240.5C 144.546,237.908 145.546,235.741 147.5,234C 144.863,230.226 143.197,226.059 142.5,221.5 Z"/></g>
<g><path style="opacity:1" fill="#837fa3" d="M 202.5,221.5 C 204.39,221.297 205.89,221.963 207,223.5C 207.499,227.152 207.665,230.818 207.5,234.5C 206.5,234.5 205.5,234.5 204.5,234.5C 204.945,229.899 204.278,225.565 202.5,221.5 Z"/></g>
<g><path style="opacity:1" fill="#6d698f" d="M 128.5,228.5 C 129.5,228.5 130.5,228.5 131.5,228.5C 131.5,229.5 131.5,230.5 131.5,231.5C 132.5,231.5 133.5,231.5 134.5,231.5C 134.5,232.5 134.5,233.5 134.5,234.5C 130.167,234.833 128.167,232.833 128.5,228.5 Z"/></g>
<g><path style="opacity:1" fill="#7b77a0" d="M 159.5,221.5 C 162.044,221.104 164.211,221.771 166,223.5C 166.499,227.152 166.665,230.818 166.5,234.5C 163.644,234.072 160.644,233.905 157.5,234C 154.895,232.069 154.895,230.236 157.5,228.5C 158.722,230.978 160.722,231.978 163.5,231.5C 164.621,226.896 162.955,224.063 158.5,223C 159.056,222.617 159.389,222.117 159.5,221.5 Z"/></g>
<g><path style="opacity:0.176" fill="#313131" d="M 212.5,215.5 C 218.828,218.319 221.495,223.319 220.5,230.5C 225.046,230.268 229.379,231.101 233.5,233C 236.468,236.062 238.802,239.562 240.5,243.5C 243.161,244.332 245.828,245.166 248.5,246C 249.789,247.802 251.456,248.969 253.5,249.5C 253.5,250.5 253.5,251.5 253.5,252.5C 249.918,248.206 245.252,245.706 239.5,245C 237.575,240.749 234.908,237.083 231.5,234C 227.167,233.667 222.833,233.333 218.5,233C 218.18,226.539 216.18,220.705 212.5,215.5 Z"/></g>
<g><path style="opacity:1" fill="#5a567f" d="M 182.5,228.5 C 184.43,229.763 186.097,231.43 187.5,233.5C 183.543,234.626 181.877,232.96 182.5,228.5 Z"/></g>
<g><path style="opacity:0.21" fill="#484848" d="M 109.5,213.5 C 110.167,213.5 110.833,213.5 111.5,213.5C 107.825,217.335 106.491,222.001 107.5,227.5C 108.958,234.554 108.791,241.554 107,248.5C 105.178,250.045 103.011,250.712 100.5,250.5C 98.6307,250.493 96.964,250.16 95.5,249.5C 99.2568,249.929 102.757,249.263 106,247.5C 106.675,239.651 106.508,231.817 105.5,224C 105.374,219.87 106.707,216.37 109.5,213.5 Z"/></g>
<g><path style="opacity:0.055" fill="#161616" d="M 253.5,249.5 C 251.456,248.969 249.789,247.802 248.5,246C 245.828,245.166 243.161,244.332 240.5,243.5C 238.802,239.562 236.468,236.062 233.5,233C 229.379,231.101 225.046,230.268 220.5,230.5C 221.495,223.319 218.828,218.319 212.5,215.5C 211.05,213.39 209.05,212.057 206.5,211.5C 190.991,210.772 175.325,210.105 159.5,209.5C 149.963,210.927 140.63,210.593 131.5,208.5C 141.555,208.63 151.722,208.297 162,207.5C 166.8,210.128 171.633,210.128 176.5,207.5C 178.059,208.447 179.726,209.113 181.5,209.5C 183.318,208.364 185.318,207.697 187.5,207.5C 194.48,208.221 201.48,208.721 208.5,209C 212.813,210.306 216.313,212.806 219,216.5C 220.502,220.699 222.002,224.866 223.5,229C 227.377,229.257 231.043,230.257 234.5,232C 237.407,235.151 240.074,238.484 242.5,242C 247.241,243.029 250.908,245.529 253.5,249.5 Z"/></g>
<g><path style="opacity:0.447" fill="#7d7d7d" d="M 307.5,238.5 C 308.612,240.599 309.279,242.933 309.5,245.5C 309.286,247.144 309.62,248.644 310.5,250C 317.747,250.196 324.913,251.029 332,252.5C 333.627,252.375 335.127,251.875 336.5,251C 341.199,245.966 346.199,241.3 351.5,237C 355.73,235.71 360.064,235.21 364.5,235.5C 364.833,236.167 365.167,236.833 365.5,237.5C 361.125,236.087 356.791,236.254 352.5,238C 346.997,242.337 341.997,247.17 337.5,252.5C 335.712,252.971 333.878,253.304 332,253.5C 324.184,252.784 316.351,252.284 308.5,252C 307.703,248.255 307.203,244.421 307,240.5C 306.292,239.619 305.458,238.953 304.5,238.5C 303.833,238.167 303.167,237.833 302.5,237.5C 301.129,236.213 299.295,235.547 297,235.5C 295.167,235.667 293.333,235.833 291.5,236C 288.507,238.444 286.174,241.277 284.5,244.5C 282.941,249.288 280.607,253.621 277.5,257.5C 278.993,248.375 283.327,240.875 290.5,235C 297.035,232.334 302.702,233.501 307.5,238.5 Z"/></g>
<g><path style="opacity:1" fill="#a8aac0" d="M 177.5,232.5 C 177.833,232.5 178.167,232.5 178.5,232.5C 176.678,235.5 174.178,236.167 171,234.5C 170.251,233.365 170.417,232.365 171.5,231.5C 173.43,233.174 175.43,233.507 177.5,232.5 Z"/></g>
<g><path style="opacity:0.821" fill="#c8c8c8" d="M 302.5,237.5 C 299.201,236.624 295.868,236.457 292.5,237C 289.938,239.733 287.271,242.233 284.5,244.5C 286.174,241.277 288.507,238.444 291.5,236C 293.333,235.833 295.167,235.667 297,235.5C 299.295,235.547 301.129,236.213 302.5,237.5 Z"/></g>
<g><path style="opacity:0.584" fill="#a9a9a9" d="M 215.5,225.5 C 216.482,228.962 216.815,232.629 216.5,236.5C 218.167,236.5 219.833,236.5 221.5,236.5C 219.167,239.5 216.5,242.167 213.5,244.5C 214.824,241.205 213.491,239.872 209.5,240.5C 214.919,237.038 216.919,232.038 215.5,225.5 Z"/></g>
<g><path style="opacity:0.724" fill="#b6b6b6" d="M 209.5,240.5 C 191.667,241.491 173.667,242.325 155.5,243C 154.295,244.376 152.962,245.542 151.5,246.5C 152.937,241.674 156.27,239.674 161.5,240.5C 177.476,240.835 193.476,240.835 209.5,240.5 Z"/></g>
<g><path style="opacity:0.529" fill="#838383" d="M 209.5,240.5 C 213.491,239.872 214.824,241.205 213.5,244.5C 211.079,249.248 208.745,254.081 206.5,259C 201.191,258.904 195.858,258.738 190.5,258.5C 194.982,257.674 199.649,257.174 204.5,257C 208.272,252.846 210.605,248.013 211.5,242.5C 193.153,242.48 174.82,242.98 156.5,244C 154.937,245.736 153.27,247.236 151.5,248.5C 150.833,248.5 150.167,248.5 149.5,248.5C 149.833,247.833 150.167,247.167 150.5,246.5C 150.833,246.5 151.167,246.5 151.5,246.5C 152.962,245.542 154.295,244.376 155.5,243C 173.667,242.325 191.667,241.491 209.5,240.5 Z"/></g>
<g><path style="opacity:0.737" fill="#aaaaaa" d="M 365.5,237.5 C 367.752,237.916 369.252,239.249 370,241.5C 370.498,244.817 370.665,248.15 370.5,251.5C 369.833,252.167 369.167,252.833 368.5,253.5C 369.168,247.745 368.168,242.412 365.5,237.5 Z"/></g>
<g><path style="opacity:0.273" fill="#4c4c4c" d="M 190.5,258.5 C 187.053,259.647 183.72,260.98 180.5,262.5C 178.801,262.66 177.134,262.494 175.5,262C 174.529,260.519 173.196,259.685 171.5,259.5C 160.702,258.001 149.702,257.334 138.5,257.5C 138.5,255.833 138.5,254.167 138.5,252.5C 139.627,251.878 140.627,251.045 141.5,250C 144.365,249.817 147.031,249.317 149.5,248.5C 150.167,248.5 150.833,248.5 151.5,248.5C 153.27,247.236 154.937,245.736 156.5,244C 174.82,242.98 193.153,242.48 211.5,242.5C 210.605,248.013 208.272,252.846 204.5,257C 199.649,257.174 194.982,257.674 190.5,258.5 Z"/></g>
<g><path style="opacity:0.361" fill="#4e4e4e" d="M 364.5,235.5 C 360.064,235.21 355.73,235.71 351.5,237C 346.199,241.3 341.199,245.966 336.5,251C 335.127,251.875 333.627,252.375 332,252.5C 324.913,251.029 317.747,250.196 310.5,250C 309.62,248.644 309.286,247.144 309.5,245.5C 311.104,246.287 311.771,247.62 311.5,249.5C 319.182,249.764 326.849,249.931 334.5,250C 339.833,245.333 345.167,240.667 350.5,236C 355.26,234.332 359.926,234.165 364.5,235.5 Z"/></g>
<g><path style="opacity:1" fill="#382e70" d="M 227.5,252.5 C 225.744,251.448 225.077,249.781 225.5,247.5C 224.5,247.5 223.5,247.5 222.5,247.5C 222.834,244.832 224.167,242.832 226.5,241.5C 227.489,245.107 227.823,248.774 227.5,252.5 Z"/></g>
<g><path style="opacity:0.062" fill="#161616" d="M 189.5,255.5 C 186.295,257.166 182.795,258.166 179,258.5C 171.302,256.762 163.468,256.095 155.5,256.5C 152.359,255.679 149.025,255.179 145.5,255C 145.043,254.586 144.709,254.086 144.5,253.5C 149.888,252.307 154.555,249.807 158.5,246C 174.497,245.5 190.497,245.333 206.5,245.5C 206.336,248.674 205.336,251.507 203.5,254C 198.852,253.984 194.185,254.484 189.5,255.5 Z"/></g>
<g><path style="opacity:0.022" fill="#000000" d="M 160.5,247.5 C 174.804,247.938 189.138,247.938 203.5,247.5C 203.714,249.144 203.38,250.644 202.5,252C 194.331,251.835 186.497,253.335 179,256.5C 174.892,255.265 170.725,254.265 166.5,253.5C 164.389,253.486 162.555,254.152 161,255.5C 158.869,254.186 156.703,253.019 154.5,252C 156.141,249.837 158.141,248.337 160.5,247.5 Z"/></g>
<g><path style="opacity:0.068" fill="#1b1b1b" d="M 449.5,256.5 C 442.487,256.34 435.653,257.34 429,259.5C 423.546,258.095 418.046,256.928 412.5,256C 409.444,251.023 404.944,248.523 399,248.5C 392.745,248.402 388.245,251.235 385.5,257C 381.167,257.667 376.833,257.667 372.5,257C 372.313,251.594 372.147,246.094 372,240.5C 370.67,236.993 368.17,235.327 364.5,235.5C 359.926,234.165 355.26,234.332 350.5,236C 345.167,240.667 339.833,245.333 334.5,250C 326.849,249.931 319.182,249.764 311.5,249.5C 311.771,247.62 311.104,246.287 309.5,245.5C 309.279,242.933 308.612,240.599 307.5,238.5C 305.446,233.901 301.779,231.901 296.5,232.5C 294.833,232.667 293.167,232.833 291.5,233C 288.953,235.054 286.286,236.887 283.5,238.5C 285.62,236.2 287.62,233.7 289.5,231C 296.77,228.248 303.27,229.415 309,234.5C 310.849,238.198 312.682,241.864 314.5,245.5C 319.626,246.315 324.793,246.982 330,247.5C 332.544,247.616 334.711,246.783 336.5,245C 339.833,241.667 343.167,238.333 346.5,235C 366.105,226.136 376.105,232.47 376.5,254C 378.833,254.667 381.167,254.667 383.5,254C 390.594,246.143 398.927,244.476 408.5,249C 410.539,251.374 412.872,253.374 415.5,255C 423.496,258.085 431.329,257.918 439,254.5C 442.603,255.135 446.103,255.802 449.5,256.5 Z"/></g>
<g><path style="opacity:0.839" fill="#bebebe" d="M 231.5,237.5 C 233.793,240.257 236.126,243.09 238.5,246C 241.726,246.885 244.726,248.219 247.5,250C 248.823,250.816 249.489,251.983 249.5,253.5C 245.15,250.161 240.15,248.827 234.5,249.5C 234.709,245.139 233.709,241.139 231.5,237.5 Z"/></g>
<g><path style="opacity:1" fill="#f3f2f6" d="M 295.5,253.5 C 294.237,257.608 292.571,261.608 290.5,265.5C 289.307,265.03 288.64,264.03 288.5,262.5C 289.348,256.939 291.348,251.939 294.5,247.5C 295.466,249.396 295.799,251.396 295.5,253.5 Z"/></g>
<g><path style="opacity:0.58" fill="#888888" d="M 107.5,227.5 C 109.039,230.865 109.706,234.531 109.5,238.5C 111.25,249.079 106.917,253.745 96.5,252.5C 91.4469,250.74 86.1136,250.073 80.5,250.5C 85.3054,249.513 90.3054,249.179 95.5,249.5C 96.964,250.16 98.6307,250.493 100.5,250.5C 103.011,250.712 105.178,250.045 107,248.5C 108.791,241.554 108.958,234.554 107.5,227.5 Z"/></g>
<g><path style="opacity:1" fill="#f4f4f8" d="M 349.5,268.5 C 348.859,270.042 347.859,271.376 346.5,272.5C 344.054,271.476 342.388,269.809 341.5,267.5C 342.167,266.167 342.833,264.833 343.5,263.5C 346.875,257.951 350.875,252.784 355.5,248C 356.167,247.333 356.833,247.333 357.5,248C 353.946,254.497 351.279,261.331 349.5,268.5 Z"/></g>
<g><path style="opacity:0.143" fill="#2b2b2b" d="M 189.5,255.5 C 194.185,254.484 198.852,253.984 203.5,254C 205.336,251.507 206.336,248.674 206.5,245.5C 190.497,245.333 174.497,245.5 158.5,246C 154.555,249.807 149.888,252.307 144.5,253.5C 144.709,254.086 145.043,254.586 145.5,255C 149.025,255.179 152.359,255.679 155.5,256.5C 150.5,256.5 145.5,256.5 140.5,256.5C 140.178,254.278 140.845,252.444 142.5,251C 145.167,250.667 147.833,250.333 150.5,250C 151.056,249.617 151.389,249.117 151.5,248.5C 154.084,248.431 156.084,247.265 157.5,245C 174.163,244.5 190.83,244.333 207.5,244.5C 207.655,248.388 206.655,251.888 204.5,255C 199.511,255.499 194.511,255.666 189.5,255.5 Z"/></g>
<g><path style="opacity:1" fill="#f1f1f5" d="M 224.5,255.5 C 223.556,261.647 221.223,267.314 217.5,272.5C 216.645,263.866 218.812,255.866 224,248.5C 224.497,250.81 224.663,253.143 224.5,255.5 Z"/></g>
<g><path style="opacity:0.361" fill="#636363" d="M 206.5,211.5 C 209.05,212.057 211.05,213.39 212.5,215.5C 216.18,220.705 218.18,226.539 218.5,233C 222.833,233.333 227.167,233.667 231.5,234C 234.908,237.083 237.575,240.749 239.5,245C 245.252,245.706 249.918,248.206 253.5,252.5C 253.33,253.822 253.663,254.989 254.5,256C 259.167,256.333 263.833,256.667 268.5,257C 269.056,257.383 269.389,257.883 269.5,258.5C 264.456,258.273 259.456,258.606 254.5,259.5C 252.485,257.761 250.818,255.761 249.5,253.5C 249.489,251.983 248.823,250.816 247.5,250C 244.726,248.219 241.726,246.885 238.5,246C 236.126,243.09 233.793,240.257 231.5,237.5C 228.437,235.303 225.104,234.97 221.5,236.5C 219.833,236.5 218.167,236.5 216.5,236.5C 216.815,232.629 216.482,228.962 215.5,225.5C 215.482,222.079 214.149,219.412 211.5,217.5C 210.341,215.75 208.674,214.75 206.5,214.5C 175.671,213.502 144.671,213.169 113.5,213.5C 118.651,212.673 123.984,212.173 129.5,212C 155.165,211.5 180.831,211.333 206.5,211.5 Z"/></g>
<g><path style="opacity:0.792" fill="#b9b9b9" d="M 304.5,238.5 C 305.458,238.953 306.292,239.619 307,240.5C 307.203,244.421 307.703,248.255 308.5,252C 316.351,252.284 324.184,252.784 332,253.5C 333.878,253.304 335.712,252.971 337.5,252.5C 336.608,254.714 334.942,255.714 332.5,255.5C 324.271,253.881 315.938,253.048 307.5,253C 307.007,248.008 306.007,243.175 304.5,238.5 Z"/></g>
<g><path style="opacity:0.325" fill="#4d4d4d" d="M 307.5,238.5 C 302.702,233.501 297.035,232.334 290.5,235C 283.327,240.875 278.993,248.375 277.5,257.5C 275.18,259.226 272.513,259.893 269.5,259.5C 269.5,259.167 269.5,258.833 269.5,258.5C 269.389,257.883 269.056,257.383 268.5,257C 263.833,256.667 259.167,256.333 254.5,256C 253.663,254.989 253.33,253.822 253.5,252.5C 254.309,253.469 255.309,254.302 256.5,255C 262.167,255.667 267.833,255.667 273.5,255C 277.735,250.026 281.069,244.526 283.5,238.5C 286.286,236.887 288.953,235.054 291.5,233C 293.167,232.833 294.833,232.667 296.5,232.5C 301.779,231.901 305.446,233.901 307.5,238.5 Z"/></g>
<g><path style="opacity:1" fill="#453b78" d="M 122.5,277.5 C 122.167,277.5 121.833,277.5 121.5,277.5C 120.508,277.328 119.842,277.662 119.5,278.5C 118.778,279.551 117.778,280.218 116.5,280.5C 117.961,274.655 115.961,270.655 110.5,268.5C 105.461,275.872 99.1277,281.872 91.5,286.5C 90.5084,286.672 89.8417,286.338 89.5,285.5C 99.8356,275.192 109.002,263.858 117,251.5C 121.121,247.376 125.787,244.043 131,241.5C 131.5,241.833 132,242.167 132.5,242.5C 128.223,252.722 124.223,263.056 120.5,273.5C 121.18,274.86 121.847,276.193 122.5,277.5 Z"/></g>
<g><path style="opacity:1" fill="#f4f4f8" d="M 126.5,245.5 C 127.043,245.56 127.376,245.893 127.5,246.5C 123.894,254.827 120.394,263.16 117,271.5C 115.22,269.707 113.387,268.04 111.5,266.5C 115.426,258.599 120.426,251.599 126.5,245.5 Z"/></g>
<g><path style="opacity:1" fill="#443967" d="M 238.5,255.5 C 242.5,254.833 244.167,256.5 243.5,260.5C 239.5,261.167 237.833,259.5 238.5,255.5 Z"/></g>
<g><path style="opacity:1" fill="#4c427f" d="M 350.5,272.5 C 349.566,271.432 349.232,270.099 349.5,268.5C 351.279,261.331 353.946,254.497 357.5,248C 356.833,247.333 356.167,247.333 355.5,248C 350.875,252.784 346.875,257.951 343.5,263.5C 343.573,261.973 342.906,260.973 341.5,260.5C 344.921,255.574 348.921,251.074 353.5,247C 356.072,244.713 359.072,243.547 362.5,243.5C 358.874,253.393 354.874,263.059 350.5,272.5 Z"/></g>
<g><path style="opacity:0.38" fill="#707070" d="M 138.5,252.5 C 138.5,254.167 138.5,255.833 138.5,257.5C 149.702,257.334 160.702,258.001 171.5,259.5C 160.172,259.027 148.838,258.693 137.5,258.5C 137.205,256.265 137.539,254.265 138.5,252.5 Z"/></g>
<g><path style="opacity:0.748" fill="#b8b8b8" d="M 249.5,253.5 C 250.818,255.761 252.485,257.761 254.5,259.5C 259.456,258.606 264.456,258.273 269.5,258.5C 269.5,258.833 269.5,259.167 269.5,259.5C 262.699,259.288 256.032,259.955 249.5,261.5C 249.5,258.833 249.5,256.167 249.5,253.5 Z"/></g>
<g><path style="opacity:0.725" fill="#ababab" d="M 150.5,246.5 C 150.167,247.167 149.833,247.833 149.5,248.5C 147.031,249.317 144.365,249.817 141.5,250C 140.627,251.045 139.627,251.878 138.5,252.5C 137.539,254.265 137.205,256.265 137.5,258.5C 148.838,258.693 160.172,259.027 171.5,259.5C 173.196,259.685 174.529,260.519 175.5,262C 177.134,262.494 178.801,262.66 180.5,262.5C 180.209,263.649 179.376,264.316 178,264.5C 175.518,263.365 173.018,262.199 170.5,261C 158.838,260.5 147.171,260.333 135.5,260.5C 134.856,249.787 139.856,245.121 150.5,246.5 Z"/></g>
<g><path style="opacity:1" fill="#5e578b" d="M 296.5,257.5 C 295.566,256.432 295.232,255.099 295.5,253.5C 295.799,251.396 295.466,249.396 294.5,247.5C 291.348,251.939 289.348,256.939 288.5,262.5C 288.64,264.03 289.307,265.03 290.5,265.5C 290.167,266.5 289.5,267.167 288.5,267.5C 286.926,266.072 285.259,265.739 283.5,266.5C 285.783,257.767 289.783,249.934 295.5,243C 296.416,242.626 297.25,242.126 298,241.5C 299.995,247.041 299.495,252.374 296.5,257.5 Z"/></g>
<g><path style="opacity:0.2" fill="#3a3a3a" d="M 364.5,235.5 C 368.17,235.327 370.67,236.993 372,240.5C 372.147,246.094 372.313,251.594 372.5,257C 376.833,257.667 381.167,257.667 385.5,257C 388.245,251.235 392.745,248.402 399,248.5C 404.944,248.523 409.444,251.023 412.5,256C 418.046,256.928 423.546,258.095 429,259.5C 435.653,257.34 442.487,256.34 449.5,256.5C 450.167,256.5 450.833,256.5 451.5,256.5C 452.842,257.793 454.509,258.626 456.5,259C 457.252,259.671 457.586,260.504 457.5,261.5C 454.978,261.872 452.978,261.039 451.5,259C 449.333,258.833 447.167,258.667 445,258.5C 439.998,258.755 435.164,259.755 430.5,261.5C 424.384,261.081 418.384,260.081 412.5,258.5C 409.349,255.85 406.349,253.016 403.5,250C 395.641,248.097 389.974,250.764 386.5,258C 381.177,258.499 375.844,258.666 370.5,258.5C 370.5,256.167 370.5,253.833 370.5,251.5C 370.665,248.15 370.498,244.817 370,241.5C 369.252,239.249 367.752,237.916 365.5,237.5C 365.167,236.833 364.833,236.167 364.5,235.5 Z"/></g>
<g><path style="opacity:1" fill="#8c86ac" d="M 295.5,253.5 C 295.232,255.099 295.566,256.432 296.5,257.5C 294.975,260.563 292.975,263.23 290.5,265.5C 292.571,261.608 294.237,257.608 295.5,253.5 Z"/></g>
<g><path style="opacity:0.766" fill="#bababa" d="M 368.5,253.5 C 367.781,255.764 367.448,258.097 367.5,260.5C 373.842,260.666 380.175,260.5 386.5,260C 387.651,257.8 389.318,256.3 391.5,255.5C 390.206,257.907 388.539,260.074 386.5,262C 379.167,261.22 371.834,261.387 364.5,262.5C 363.961,258.584 365.294,255.584 368.5,253.5 Z"/></g>
<g><path style="opacity:0.357" fill="#7d7d7d" d="M 457.5,261.5 C 459.564,264.706 462.564,266.539 466.5,267C 467.333,269.167 468.833,270.667 471,271.5C 471.738,275.261 471.405,278.928 470,282.5C 466.029,289.968 460.529,295.968 453.5,300.5C 442.185,301.69 430.852,301.69 419.5,300.5C 430.167,299.833 440.833,299.167 451.5,298.5C 459.167,295.5 464.5,290.167 467.5,282.5C 472.121,273.103 469.121,268.769 458.5,269.5C 458.607,267.097 457.607,265.264 455.5,264C 450.26,260.839 444.593,259.839 438.5,261C 435.826,262.588 432.992,263.755 430,264.5C 423.58,263.035 417.08,261.869 410.5,261C 407.833,258.333 405.167,255.667 402.5,253C 399.833,252.333 397.167,252.333 394.5,253C 393.058,253.377 392.058,254.21 391.5,255.5C 389.318,256.3 387.651,257.8 386.5,260C 380.175,260.5 373.842,260.666 367.5,260.5C 367.448,258.097 367.781,255.764 368.5,253.5C 369.167,252.833 369.833,252.167 370.5,251.5C 370.5,253.833 370.5,256.167 370.5,258.5C 375.844,258.666 381.177,258.499 386.5,258C 389.974,250.764 395.641,248.097 403.5,250C 406.349,253.016 409.349,255.85 412.5,258.5C 418.384,260.081 424.384,261.081 430.5,261.5C 435.164,259.755 439.998,258.755 445,258.5C 447.167,258.667 449.333,258.833 451.5,259C 452.978,261.039 454.978,261.872 457.5,261.5 Z"/></g>
<g><path style="opacity:0.251" fill="#5a5a5a" d="M 95.5,249.5 C 90.3054,249.179 85.3054,249.513 80.5,250.5C 77.3936,251.707 74.3936,253.207 71.5,255C 70.7476,255.671 70.4142,256.504 70.5,257.5C 67.2594,260.344 65.426,264.01 65,268.5C 63.6439,269.38 62.1439,269.714 60.5,269.5C 63.921,264.507 66.7544,259.174 69,253.5C 77.331,248.572 86.1643,247.239 95.5,249.5 Z"/></g>
<g><path style="opacity:1" fill="#9792b5" d="M 224.5,255.5 C 225.167,255.833 225.833,256.167 226.5,256.5C 225.401,262.699 222.734,268.032 218.5,272.5C 218.167,272.5 217.833,272.5 217.5,272.5C 221.223,267.314 223.556,261.647 224.5,255.5 Z"/></g>
<g><path style="opacity:1" fill="#555186" d="M 222.5,247.5 C 223.5,247.5 224.5,247.5 225.5,247.5C 225.077,249.781 225.744,251.448 227.5,252.5C 227.167,253.833 226.833,255.167 226.5,256.5C 225.833,256.167 225.167,255.833 224.5,255.5C 224.663,253.143 224.497,250.81 224,248.5C 218.812,255.866 216.645,263.866 217.5,272.5C 217.833,272.5 218.167,272.5 218.5,272.5C 215.609,277.043 214.776,282.043 216,287.5C 216.383,288.056 216.883,288.389 217.5,288.5C 218.167,289.167 218.833,289.833 219.5,290.5C 216.59,291.814 214.09,291.147 212,288.5C 210.826,284.954 210.16,281.287 210,277.5C 208.961,278.71 207.794,279.71 206.5,280.5C 208.087,277.732 209.92,275.065 212,272.5C 213.398,265.972 215.398,259.639 218,253.5C 218.792,250.894 220.292,248.894 222.5,247.5 Z"/></g>
<g><path style="opacity:0.069" fill="#191919" d="M 109.5,213.5 C 106.707,216.37 105.374,219.87 105.5,224C 106.508,231.817 106.675,239.651 106,247.5C 102.757,249.263 99.2568,249.929 95.5,249.5C 86.1643,247.239 77.331,248.572 69,253.5C 66.7544,259.174 63.921,264.507 60.5,269.5C 56.8296,269.327 54.3296,270.993 53,274.5C 52.3333,280.167 52.3333,285.833 53,291.5C 54.4578,293.96 56.2911,296.127 58.5,298C 72.1444,303.99 85.6444,303.824 99,297.5C 100.067,298.191 101.234,298.691 102.5,299C 106.903,303.066 110.903,307.399 114.5,312C 120.252,315.192 126.252,317.692 132.5,319.5C 140.387,322.24 148.387,324.574 156.5,326.5C 159.135,328.328 162.135,329.495 165.5,330C 197.671,336.072 230.004,337.072 262.5,333C 267.112,331.941 271.446,330.441 275.5,328.5C 277.987,327.677 280.321,326.677 282.5,325.5C 288.791,324.515 294.791,322.682 300.5,320C 305.82,317.34 311.153,314.673 316.5,312C 317.381,311.292 318.047,310.458 318.5,309.5C 321.09,308.872 323.423,307.705 325.5,306C 329.083,301.91 333.083,298.41 337.5,295.5C 341.06,298.443 345.06,300.943 349.5,303C 363.531,303.199 377.531,303.365 391.5,303.5C 395.944,303.54 400.277,302.873 404.5,301.5C 420.141,302.636 435.808,302.803 451.5,302C 452.416,301.722 453.082,301.222 453.5,300.5C 460.529,295.968 466.029,289.968 470,282.5C 471.405,278.928 471.738,275.261 471,271.5C 468.833,270.667 467.333,269.167 466.5,267C 462.564,266.539 459.564,264.706 457.5,261.5C 457.586,260.504 457.252,259.671 456.5,259C 454.509,258.626 452.842,257.793 451.5,256.5C 479.566,265.013 482.899,279.513 461.5,300C 459.083,301.626 456.583,303.126 454,304.5C 440.457,302.942 426.957,303.276 413.5,305.5C 408.832,303.649 404.166,303.483 399.5,305C 393.651,305.602 387.818,305.435 382,304.5C 370.564,306.388 359.064,306.555 347.5,305C 344.27,302.927 340.937,301.094 337.5,299.5C 331.427,303.397 325.761,307.897 320.5,313C 289.62,330.178 256.453,338.345 221,337.5C 190.301,337.226 160.468,332.06 131.5,322C 124.342,318.588 117.342,314.922 110.5,311C 106.652,306.984 102.652,303.151 98.5,299.5C 85.2178,305.915 71.8845,306.081 58.5,300C 49.7683,293.461 47.2683,284.961 51,274.5C 53.964,270.534 57.2974,266.867 61,263.5C 62.5139,258.971 64.6806,254.805 67.5,251C 76.7815,244.664 86.9481,242.831 98,245.5C 105.177,244.639 107.01,240.973 103.5,234.5C 103.93,229.553 104.097,224.553 104,219.5C 104.715,216.359 106.548,214.359 109.5,213.5 Z"/></g>
<g><path style="opacity:1" fill="#47417d" d="M 394.5,290.5 C 394.5,291.167 394.5,291.833 394.5,292.5C 392.533,292.739 390.699,292.406 389,291.5C 388.699,288.493 388.865,285.493 389.5,282.5C 390.686,281.295 390.686,279.961 389.5,278.5C 390.441,276.534 391.441,274.534 392.5,272.5C 388.556,270.596 388.89,269.596 393.5,269.5C 394.36,266.089 395.526,262.756 397,259.5C 398.011,258.663 399.178,258.33 400.5,258.5C 399.942,261.344 399.275,264.178 398.5,267C 398.755,268.326 399.422,269.326 400.5,270C 399.552,270.483 398.552,270.649 397.5,270.5C 395.298,276.137 393.631,281.97 392.5,288C 392.684,289.376 393.351,290.209 394.5,290.5 Z"/></g>
<g><path style="opacity:1" fill="#45407c" d="M 235.5,288.5 C 236.167,289.167 236.833,289.833 237.5,290.5C 234.956,290.896 232.789,290.229 231,288.5C 230.687,285.405 231.187,282.405 232.5,279.5C 232.376,278.893 232.043,278.56 231.5,278.5C 231.167,278.5 230.833,278.5 230.5,278.5C 233.159,275.191 235.326,271.524 237,267.5C 238.011,266.663 239.178,266.33 240.5,266.5C 238.709,273.208 236.709,279.875 234.5,286.5C 234.543,287.416 234.876,288.083 235.5,288.5 Z"/></g>
<g><path style="opacity:1" fill="#5a5288" d="M 341.5,267.5 C 342.388,269.809 344.054,271.476 346.5,272.5C 347.859,271.376 348.859,270.042 349.5,268.5C 349.232,270.099 349.566,271.432 350.5,272.5C 351.673,276.533 353.173,280.533 355,284.5C 356.823,294.379 354.49,295.713 348,288.5C 347.002,283.544 346.169,278.544 345.5,273.5C 343.473,272.487 341.473,271.487 339.5,270.5C 339.932,269.29 340.599,268.29 341.5,267.5 Z"/></g>
<g><path style="opacity:1" fill="#4b457b" d="M 197.5,266.5 C 199.722,266.559 200.722,267.725 200.5,270C 198.929,276.211 197.262,282.378 195.5,288.5C 197.292,288.634 198.958,288.301 200.5,287.5C 201.167,287.5 201.5,287.833 201.5,288.5C 194.496,292.598 191.329,290.598 192,282.5C 191.617,283.056 191.117,283.389 190.5,283.5C 193.372,278.421 195.705,273.087 197.5,267.5C 197.5,267.167 197.5,266.833 197.5,266.5 Z"/></g>
<g><path style="opacity:0.549" fill="#959595" d="M 70.5,257.5 C 68.6509,260.883 67.4842,264.55 67,268.5C 57.9683,272.558 54.1349,279.558 55.5,289.5C 54.8826,289.389 54.3826,289.056 54,288.5C 52.7992,280.924 54.9659,274.59 60.5,269.5C 62.1439,269.714 63.6439,269.38 65,268.5C 65.426,264.01 67.2594,260.344 70.5,257.5 Z"/></g>
<g><path style="opacity:1" fill="#5a5782" d="M 370.5,270.5 C 370.5,270.167 370.5,269.833 370.5,269.5C 373.137,267.573 376.137,267.073 379.5,268C 382.259,270.574 381.926,272.74 378.5,274.5C 378.119,268.378 375.452,267.045 370.5,270.5 Z"/></g>
<g><path style="opacity:1" fill="#7b759e" d="M 308.5,266.5 C 308.317,268.936 308.984,271.103 310.5,273C 314.769,275.937 319.436,277.937 324.5,279C 320.339,279.667 316.339,279.167 312.5,277.5C 311.833,276.833 311.167,276.167 310.5,275.5C 307.833,274.833 306.167,273.167 305.5,270.5C 306.978,269.552 307.978,268.219 308.5,266.5 Z"/></g>
<g><path style="opacity:1" fill="#453d7a" d="M 300.5,288.5 C 301.167,288.5 301.5,288.833 301.5,289.5C 295.031,292.25 292.531,290.25 294,283.5C 295.781,279.605 297.281,275.605 298.5,271.5C 298.457,270.584 298.124,269.917 297.5,269.5C 296.833,268.833 296.167,268.167 295.5,267.5C 299.08,265.643 301.414,266.643 302.5,270.5C 301.26,275.383 299.927,280.216 298.5,285C 298.608,286.681 299.275,287.848 300.5,288.5 Z"/></g>
<g><path style="opacity:1" fill="#f7f7f9" d="M 193.5,267.5 C 194.833,267.5 196.167,267.5 197.5,267.5C 195.705,273.087 193.372,278.421 190.5,283.5C 189.067,284.833 187.733,286.333 186.5,288C 184.866,288.494 183.199,288.66 181.5,288.5C 181.635,279.224 185.635,272.224 193.5,267.5 Z"/></g>
<g><path style="opacity:1" fill="#8c8aa8" d="M 191.5,266.5 C 193.5,265.167 195.5,265.167 197.5,266.5C 197.5,266.833 197.5,267.167 197.5,267.5C 196.167,267.5 194.833,267.5 193.5,267.5C 193.158,266.662 192.492,266.328 191.5,266.5 Z"/></g>
<g><path style="opacity:1" fill="#4d4176" d="M 87.5,258.5 C 87.1667,259.167 86.8333,259.833 86.5,260.5C 80.0749,260.573 77.4082,263.573 78.5,269.5C 78.6716,270.492 78.3382,271.158 77.5,271.5C 73.8037,262.168 77.137,257.835 87.5,258.5 Z"/></g>
<g><path style="opacity:1" fill="#584e81" d="M 312.5,260.5 C 313.873,260.343 315.207,260.51 316.5,261C 315.263,261.232 314.263,261.732 313.5,262.5C 311.251,263.08 309.585,264.413 308.5,266.5C 307.978,268.219 306.978,269.552 305.5,270.5C 303.836,264.517 306.169,261.184 312.5,260.5 Z"/></g>
<g><path style="opacity:1" fill="#9c97b3" d="M 312.5,260.5 C 320.381,258.714 327.881,260.047 335,264.5C 335.591,265.483 335.257,266.15 334,266.5C 327.575,263.112 320.742,261.779 313.5,262.5C 314.263,261.732 315.263,261.232 316.5,261C 315.207,260.51 313.873,260.343 312.5,260.5 Z"/></g>
<g><path style="opacity:0.62" fill="#aeaeae" d="M 277.5,257.5 C 275.866,262.016 273.199,262.682 269.5,259.5C 272.513,259.893 275.18,259.226 277.5,257.5 Z"/></g>
<g><path style="opacity:1" fill="#a8a4be" d="M 87.5,258.5 C 94.0501,258.303 100.05,259.97 105.5,263.5C 105,263.833 104.5,264.167 104,264.5C 98.4683,261.825 92.635,260.492 86.5,260.5C 86.8333,259.833 87.1667,259.167 87.5,258.5 Z"/></g>
<g><path style="opacity:1" fill="#9390af" d="M 78.5,269.5 C 82.8935,273.032 87.8935,275.532 93.5,277C 87.2326,277.691 81.8992,275.858 77.5,271.5C 78.3382,271.158 78.6716,270.492 78.5,269.5 Z"/></g>
<g><path style="opacity:1" fill="#7e769f" d="M 164.5,267.5 C 164.5,267.833 164.5,268.167 164.5,268.5C 161.848,272.482 158.848,276.149 155.5,279.5C 153.448,278.947 153.115,277.947 154.5,276.5C 154.369,277.239 154.536,277.906 155,278.5C 158.032,274.641 161.198,270.974 164.5,267.5 Z"/></g>
<g><path style="opacity:1" fill="#9c98b8" d="M 295.5,267.5 C 296.167,268.167 296.833,268.833 297.5,269.5C 296.448,269.351 295.448,269.517 294.5,270C 292.172,273.516 289.505,276.682 286.5,279.5C 285.508,279.672 284.842,279.338 284.5,278.5C 285.239,278.631 285.906,278.464 286.5,278C 289.365,274.308 292.365,270.808 295.5,267.5 Z"/></g>
<g><path style="opacity:1" fill="#9f99ba" d="M 148.5,267.5 C 148.5,268.167 148.833,268.5 149.5,268.5C 146.543,272.792 143.21,276.792 139.5,280.5C 139.5,279.833 139.5,279.167 139.5,278.5C 142.261,274.65 145.261,270.983 148.5,267.5 Z"/></g>
<g><path style="opacity:1" fill="#423c76" d="M 269.5,287.5 C 270.167,287.5 270.5,287.833 270.5,288.5C 267.966,290.592 265.299,290.926 262.5,289.5C 262.721,286.721 262.388,284.054 261.5,281.5C 263.741,277.022 265.408,272.355 266.5,267.5C 261.936,267.55 258.436,269.55 256,273.5C 254.08,276.339 252.413,279.339 251,282.5C 250.782,289.254 253.282,290.254 258.5,285.5C 258.5,285.833 258.5,286.167 258.5,286.5C 256.562,290.169 253.562,291.336 249.5,290C 248.24,287.699 246.907,285.532 245.5,283.5C 245.167,283.5 244.833,283.5 244.5,283.5C 247.887,277.912 251.887,272.745 256.5,268C 259.622,266.096 262.955,265.429 266.5,266C 268.223,266.523 269.556,267.523 270.5,269C 267.9,275.292 266.234,281.792 265.5,288.5C 266.959,288.567 268.292,288.234 269.5,287.5 Z"/></g>
<g><path style="opacity:1" fill="#f8f8fa" d="M 261.5,281.5 C 260.026,282.436 259.026,283.77 258.5,285.5C 253.282,290.254 250.782,289.254 251,282.5C 252.413,279.339 254.08,276.339 256,273.5C 258.436,269.55 261.936,267.55 266.5,267.5C 265.408,272.355 263.741,277.022 261.5,281.5 Z"/></g>
<g><path style="opacity:1" fill="#483e7a" d="M 449.5,290.5 C 449.5,290.833 449.5,291.167 449.5,291.5C 443.715,293.894 441.215,291.894 442,285.5C 440.38,287.241 438.88,289.075 437.5,291C 431.582,293.945 427.915,292.112 426.5,285.5C 424.494,288.006 422.16,290.173 419.5,292C 413.507,293.668 411.007,291.502 412,285.5C 413.597,281.731 415.43,278.064 417.5,274.5C 417.167,274.167 416.833,273.833 416.5,273.5C 414.081,273.914 412.081,274.914 410.5,276.5C 409.662,276.158 409.328,275.492 409.5,274.5C 409.151,271.537 410.151,269.204 412.5,267.5C 413.003,269.744 414.337,271.078 416.5,271.5C 418.59,269.894 420.924,269.394 423.5,270C 420.567,275.867 417.901,281.867 415.5,288C 415.667,289.5 416.5,290.333 418,290.5C 424.842,283.973 431.342,277.14 437.5,270C 450.567,264.399 454.067,267.899 448,280.5C 446.957,283.757 446.457,287.09 446.5,290.5C 447.5,290.5 448.5,290.5 449.5,290.5 Z"/></g>
<g><path style="opacity:1" fill="#f5f5f8" d="M 443.5,268.5 C 444.833,268.5 446.167,268.5 447.5,268.5C 447.66,270.199 447.494,271.866 447,273.5C 444.746,277.007 442.746,280.673 441,284.5C 439.469,287.272 437.302,289.272 434.5,290.5C 433.558,290.392 432.725,290.059 432,289.5C 432.669,280.832 436.503,273.832 443.5,268.5 Z"/></g>
<g><path style="opacity:1" fill="#b1aec1" d="M 67.5,277.5 C 71.849,276.235 76.1824,276.735 80.5,279C 81.7112,279.893 81.7112,280.726 80.5,281.5C 77.05,279.776 73.3834,279.109 69.5,279.5C 70.2625,278.732 71.2625,278.232 72.5,278C 70.8659,277.506 69.1992,277.34 67.5,277.5 Z"/></g>
<g><path style="opacity:1" fill="#433875" d="M 191.5,266.5 C 192.492,266.328 193.158,266.662 193.5,267.5C 185.635,272.224 181.635,279.224 181.5,288.5C 183.199,288.66 184.866,288.494 186.5,288C 187.733,286.333 189.067,284.833 190.5,283.5C 188.858,290.236 185.025,292.236 179,289.5C 178.261,287.779 177.427,286.113 176.5,284.5C 174.31,286.524 171.977,288.357 169.5,290C 163.333,291.833 161.167,289.667 163,283.5C 164.401,279.129 165.901,274.796 167.5,270.5C 166.995,269.081 165.995,268.415 164.5,268.5C 164.5,268.167 164.5,267.833 164.5,267.5C 168.784,265.405 170.784,266.738 170.5,271.5C 168.747,277.087 167.414,282.754 166.5,288.5C 167.552,288.649 168.552,288.483 169.5,288C 174.049,284.747 177.549,280.58 180,275.5C 183.155,271.497 186.988,268.497 191.5,266.5 Z"/></g>
<g><path style="opacity:1" fill="#f5f4f8" d="M 121.5,277.5 C 123.246,279.534 123.58,281.701 122.5,284C 121.552,284.483 120.552,284.649 119.5,284.5C 119.5,282.5 119.5,280.5 119.5,278.5C 119.842,277.662 120.508,277.328 121.5,277.5 Z"/></g>
<g><path style="opacity:1" fill="#3e356a" d="M 67.5,277.5 C 69.1992,277.34 70.8659,277.506 72.5,278C 71.2625,278.232 70.2625,278.732 69.5,279.5C 68.5041,279.414 67.6708,279.748 67,280.5C 65.7522,284.745 67.2522,287.412 71.5,288.5C 70.791,289.404 69.791,289.737 68.5,289.5C 63.913,288.097 62.0797,285.097 63,280.5C 64.129,278.859 65.629,277.859 67.5,277.5 Z"/></g>
<g><path style="opacity:1" fill="#473d7a" d="M 154.5,276.5 C 153.115,277.947 153.448,278.947 155.5,279.5C 153.86,282.78 152.193,286.114 150.5,289.5C 149.311,290.429 147.978,290.762 146.5,290.5C 147.85,283.768 149.516,277.101 151.5,270.5C 151.253,269.287 150.586,268.62 149.5,268.5C 148.833,268.5 148.5,268.167 148.5,267.5C 150.67,266.232 152.837,266.232 155,267.5C 155.495,270.531 155.329,273.531 154.5,276.5 Z"/></g>
<g><path style="opacity:1" fill="#4c417e" d="M 139.5,278.5 C 139.5,279.167 139.5,279.833 139.5,280.5C 138.453,283.596 137.12,286.596 135.5,289.5C 130.011,291.508 128.844,290.508 132,286.5C 134.015,280.101 136.182,273.767 138.5,267.5C 139.723,266.386 141.056,266.219 142.5,267C 140.68,270.591 139.68,274.424 139.5,278.5 Z"/></g>
<g><path style="opacity:1" fill="#f4f4f8" d="M 349.5,278.5 C 353.009,281.239 354.343,284.906 353.5,289.5C 352.178,289.67 351.011,289.337 350,288.5C 349.502,285.183 349.335,281.85 349.5,278.5 Z"/></g>
<g><path style="opacity:1" fill="#a09ab4" d="M 449.5,291.5 C 449.5,291.167 449.5,290.833 449.5,290.5C 453.07,284.756 457.237,279.422 462,274.5C 459.841,281.422 455.674,287.088 449.5,291.5 Z"/></g>
<g><path style="opacity:1" fill="#837fa4" d="M 261.5,281.5 C 262.388,284.054 262.721,286.721 262.5,289.5C 261.698,288.048 261.198,286.382 261,284.5C 260.292,285.381 259.458,286.047 258.5,286.5C 258.5,286.167 258.5,285.833 258.5,285.5C 259.026,283.77 260.026,282.436 261.5,281.5 Z"/></g>
<g><path style="opacity:1" fill="#3d357a" d="M 288.5,267.5 C 286.337,270.834 285.004,274.5 284.5,278.5C 284.842,279.338 285.508,279.672 286.5,279.5C 285.113,284.67 282.113,288.337 277.5,290.5C 277.959,287.123 278.626,283.789 279.5,280.5C 280.885,279.053 280.552,278.053 278.5,277.5C 280.733,274.155 282.399,270.488 283.5,266.5C 285.259,265.739 286.926,266.072 288.5,267.5 Z"/></g>
<g><path style="opacity:1" fill="#a6a3be" d="M 310.5,275.5 C 311.167,276.167 311.833,276.833 312.5,277.5C 309.542,282.126 305.876,286.126 301.5,289.5C 301.5,288.833 301.167,288.5 300.5,288.5C 304.073,284.356 307.406,280.022 310.5,275.5 Z"/></g>
<g><path style="opacity:1" fill="#837ea0" d="M 244.5,283.5 C 244.833,283.5 245.167,283.5 245.5,283.5C 243.451,286.55 240.784,288.883 237.5,290.5C 236.833,289.833 236.167,289.167 235.5,288.5C 239.221,288.109 242.221,286.442 244.5,283.5 Z"/></g>
<g><path style="opacity:1" fill="#767097" d="M 278.5,277.5 C 280.552,278.053 280.885,279.053 279.5,280.5C 279.631,279.761 279.464,279.094 279,278.5C 276.302,282.025 273.469,285.358 270.5,288.5C 270.5,287.833 270.167,287.5 269.5,287.5C 272.51,284.126 275.51,280.792 278.5,277.5 Z"/></g>
<g><path style="opacity:1" fill="#7c78a3" d="M 121.5,277.5 C 121.833,277.5 122.167,277.5 122.5,277.5C 124.649,280.185 125.983,283.352 126.5,287C 126.112,288.951 125.112,290.451 123.5,291.5C 121.401,290.035 119.234,288.701 117,287.5C 113.06,288.878 112.56,291.045 115.5,294C 119.233,296.523 122.899,299.023 126.5,301.5C 125.662,301.842 125.328,302.508 125.5,303.5C 118.583,300.917 113.583,296.25 110.5,289.5C 111.859,287.308 113.692,285.641 116,284.5C 116.49,283.207 116.657,281.873 116.5,280.5C 117.778,280.218 118.778,279.551 119.5,278.5C 119.5,280.5 119.5,282.5 119.5,284.5C 120.552,284.649 121.552,284.483 122.5,284C 123.58,281.701 123.246,279.534 121.5,277.5 Z"/></g>
<g><path style="opacity:1" fill="#9690ac" d="M 206.5,280.5 C 205.617,283.704 203.95,286.371 201.5,288.5C 201.5,287.833 201.167,287.5 200.5,287.5C 201.8,284.568 203.8,282.234 206.5,280.5 Z"/></g>
<g><path style="opacity:1" fill="#3c316f" d="M 370.5,269.5 C 370.5,269.833 370.5,270.167 370.5,270.5C 369.588,271.738 369.421,273.072 370,274.5C 373.736,276.734 376.57,279.734 378.5,283.5C 378.5,285.833 378.5,288.167 378.5,290.5C 373.628,292.208 368.628,292.708 363.5,292C 361.845,290.556 361.178,288.722 361.5,286.5C 362.833,286.5 364.167,286.5 365.5,286.5C 365.083,291.068 367.083,292.568 371.5,291C 374.892,290.05 376.059,287.883 375,284.5C 372.521,281.931 369.854,279.598 367,277.5C 365.784,273.623 366.951,270.957 370.5,269.5 Z"/></g>
<g><path style="opacity:1" fill="#7b759b" d="M 389.5,278.5 C 390.686,279.961 390.686,281.295 389.5,282.5C 389.631,281.761 389.464,281.094 389,280.5C 386.289,284.712 382.789,288.046 378.5,290.5C 378.5,288.167 378.5,285.833 378.5,283.5C 379.302,284.952 379.802,286.618 380,288.5C 383.399,285.271 386.565,281.938 389.5,278.5 Z"/></g>
<g><path style="opacity:1" fill="#7c769e" d="M 230.5,278.5 C 230.833,278.5 231.167,278.5 231.5,278.5C 229.43,280.964 227.596,283.631 226,286.5C 224.362,288.734 222.195,290.067 219.5,290.5C 218.833,289.833 218.167,289.167 217.5,288.5C 219.308,288.509 220.975,288.009 222.5,287C 225.067,283.997 227.734,281.164 230.5,278.5 Z"/></g>
<g><path style="opacity:1" fill="#8783a2" d="M 89.5,285.5 C 89.8417,286.338 90.5084,286.672 91.5,286.5C 89.5073,288.163 87.1739,289.33 84.5,290C 78.9836,290.817 73.6503,290.651 68.5,289.5C 69.791,289.737 70.791,289.404 71.5,288.5C 77.8349,289.144 83.8349,288.144 89.5,285.5 Z"/></g>
<g><path style="opacity:1" fill="#938daf" d="M 409.5,274.5 C 409.328,275.492 409.662,276.158 410.5,276.5C 406.866,281.579 402.866,286.412 398.5,291C 397.255,291.791 395.922,292.291 394.5,292.5C 394.5,291.833 394.5,291.167 394.5,290.5C 397.394,289.118 399.894,287.118 402,284.5C 403.979,280.7 406.479,277.366 409.5,274.5 Z"/></g>
<g><path style="opacity:0.698" fill="#bebebe" d="M 467.5,282.5 C 464.5,290.167 459.167,295.5 451.5,298.5C 457.833,294.167 463.167,288.833 467.5,282.5 Z"/></g>
<g><path style="opacity:1" fill="#403474" d="M 341.5,260.5 C 342.906,260.973 343.573,261.973 343.5,263.5C 342.833,264.833 342.167,266.167 341.5,267.5C 340.599,268.29 339.932,269.29 339.5,270.5C 333.064,279.77 326.064,288.604 318.5,297C 311.775,301.693 304.775,305.86 297.5,309.5C 296.041,309.567 294.708,309.234 293.5,308.5C 298.935,305.611 304.268,302.445 309.5,299C 314.333,294.167 319.167,289.333 324,284.5C 330.051,276.622 335.885,268.622 341.5,260.5 Z"/></g>
<g><path style="opacity:0.647" fill="#b4b4b4" d="M 407.5,297.5 C 404.833,297.833 402.167,298.167 399.5,298.5C 400.768,296.613 402.601,295.613 405,295.5C 406.376,295.684 407.209,296.351 407.5,297.5 Z"/></g>
<g><path style="opacity:0.593" fill="#9c9c9c" d="M 55.5,289.5 C 65.5816,297.438 76.915,299.605 89.5,296C 93.3773,293.562 97.3773,291.395 101.5,289.5C 102.167,289.833 102.833,290.167 103.5,290.5C 104.867,294.456 106.7,298.123 109,301.5C 111.795,304.811 114.961,307.477 118.5,309.5C 117.127,309.657 115.793,309.49 114.5,309C 109.393,304.568 105.06,299.568 101.5,294C 99.8333,293.333 98.1667,293.333 96.5,294C 93.6399,296.554 90.3065,298.221 86.5,299C 80.5,299.667 74.5,299.667 68.5,299C 65.624,298.562 62.9573,297.562 60.5,296C 58.7122,293.816 57.0456,291.649 55.5,289.5 Z"/></g>
<g><path style="opacity:0.872" fill="#bfbfbf" d="M 342.5,294.5 C 343.962,295.458 345.295,296.624 346.5,298C 358.599,299.03 370.599,298.53 382.5,296.5C 387.71,298.088 393.043,298.755 398.5,298.5C 398.167,299.167 397.833,299.833 397.5,300.5C 392.372,300.568 387.372,299.901 382.5,298.5C 371.583,300.247 360.583,300.914 349.5,300.5C 346.724,299.911 344.39,298.578 342.5,296.5C 342.5,295.833 342.5,295.167 342.5,294.5 Z"/></g>
<g><path style="opacity:0.373" fill="#747474" d="M 407.5,297.5 C 410.968,300.114 414.968,301.114 419.5,300.5C 412.302,300.368 404.969,300.368 397.5,300.5C 397.833,299.833 398.167,299.167 398.5,298.5C 398.833,298.5 399.167,298.5 399.5,298.5C 402.167,298.167 404.833,297.833 407.5,297.5 Z"/></g>
<g><path style="opacity:0.659" fill="#bfbfbf" d="M 407.5,297.5 C 422.103,297.941 436.77,298.274 451.5,298.5C 440.833,299.167 430.167,299.833 419.5,300.5C 414.968,301.114 410.968,300.114 407.5,297.5 Z"/></g>
<g><path style="opacity:0.561" fill="#a0a0a0" d="M 199.5,297.5 C 193.369,298.83 186.869,299.497 180,299.5C 170.381,299.679 160.881,299.012 151.5,297.5C 151.33,298.822 151.663,299.989 152.5,301C 168.127,306.093 184.127,308.926 200.5,309.5C 216.863,310.82 233.196,310.82 249.5,309.5C 256.562,309.255 263.562,308.422 270.5,307C 274.468,305.962 278.135,304.462 281.5,302.5C 284.004,301.361 286.67,300.694 289.5,300.5C 289.915,298.052 288.915,296.719 286.5,296.5C 281.209,297.402 275.876,297.735 270.5,297.5C 274.833,296.833 279.167,296.167 283.5,295.5C 286.214,294.137 288.881,294.304 291.5,296C 292.554,297.388 292.72,298.888 292,300.5C 285.381,303.375 278.548,305.875 271.5,308C 237.833,313.667 204.167,313.667 170.5,308C 162.878,305.792 155.211,303.792 147.5,302C 146.62,300.644 146.286,299.144 146.5,297.5C 150.034,297.076 153.534,296.409 157,295.5C 160.007,296.852 163.173,297.519 166.5,297.5C 177.469,297.116 188.469,297.116 199.5,297.5 Z"/></g>
<g><path style="opacity:0.247" fill="#575757" d="M 231.5,298.5 C 248.634,298.893 265.968,299.56 283.5,300.5C 282.757,301.182 282.091,301.849 281.5,302.5C 278.135,304.462 274.468,305.962 270.5,307C 263.562,308.422 256.562,309.255 249.5,309.5C 251.5,308.833 253.5,308.167 255.5,307.5C 260.107,307.532 264.607,306.866 269,305.5C 271.844,304.825 274.344,303.492 276.5,301.5C 254.337,300.833 232.337,300.167 210.5,299.5C 217.515,299.422 224.515,299.089 231.5,298.5 Z"/></g>
<g><path style="opacity:0.502" fill="#7a7a7a" d="M 281.5,302.5 C 282.091,301.849 282.757,301.182 283.5,300.5C 265.968,299.56 248.634,298.893 231.5,298.5C 244.519,298.335 257.519,298.002 270.5,297.5C 275.876,297.735 281.209,297.402 286.5,296.5C 288.915,296.719 289.915,298.052 289.5,300.5C 286.67,300.694 284.004,301.361 281.5,302.5 Z"/></g>
<g><path style="opacity:0.312" fill="#5c5c5c" d="M 199.5,297.5 C 200.167,297.5 200.833,297.5 201.5,297.5C 203.857,297.337 206.19,297.503 208.5,298C 209.056,298.383 209.389,298.883 209.5,299.5C 196.845,300.155 184.179,300.655 171.5,301C 168.972,301.998 168.972,302.831 171.5,303.5C 176.818,304.963 182.151,306.296 187.5,307.5C 191.833,308.167 196.167,308.833 200.5,309.5C 184.127,308.926 168.127,306.093 152.5,301C 151.663,299.989 151.33,298.822 151.5,297.5C 160.881,299.012 170.381,299.679 180,299.5C 186.869,299.497 193.369,298.83 199.5,297.5 Z"/></g>
<g><path style="opacity:0.867" fill="#cdcdcd" d="M 208.5,295.5 C 233.447,296.694 258.447,296.694 283.5,295.5C 279.167,296.167 274.833,296.833 270.5,297.5C 257.519,298.002 244.519,298.335 231.5,298.5C 224.679,297.671 217.679,297.171 210.5,297C 209.584,296.722 208.918,296.222 208.5,295.5 Z"/></g>
<g><path style="opacity:0.505" fill="#949494" d="M 208.5,295.5 C 208.918,296.222 209.584,296.722 210.5,297C 217.679,297.171 224.679,297.671 231.5,298.5C 224.515,299.089 217.515,299.422 210.5,299.5C 210.167,299.5 209.833,299.5 209.5,299.5C 209.389,298.883 209.056,298.383 208.5,298C 206.19,297.503 203.857,297.337 201.5,297.5C 201.611,296.883 201.944,296.383 202.5,296C 204.473,295.505 206.473,295.338 208.5,295.5 Z"/></g>
<g><path style="opacity:0.329" fill="#6a6a6a" d="M 397.5,300.5 C 385.632,300.179 373.632,300.845 361.5,302.5C 358.167,302.333 354.833,302.167 351.5,302C 350.584,301.722 349.918,301.222 349.5,300.5C 360.583,300.914 371.583,300.247 382.5,298.5C 387.372,299.901 392.372,300.568 397.5,300.5 Z"/></g>
<g><path style="opacity:0.064" fill="#161616" d="M 249.5,307.5 C 232.839,308.612 216.172,308.612 199.5,307.5C 192.719,307.094 186.053,305.594 179.5,303C 188.017,302.727 196.517,302.227 205,301.5C 222.891,301.165 241.058,301.665 259.5,303C 260.833,303.667 260.833,304.333 259.5,305C 255.821,305.026 252.488,305.86 249.5,307.5 Z"/></g>
<g><path style="opacity:0.206" fill="#3b3b3b" d="M 342.5,296.5 C 344.39,298.578 346.724,299.911 349.5,300.5C 349.918,301.222 350.584,301.722 351.5,302C 354.833,302.167 358.167,302.333 361.5,302.5C 373.632,300.845 385.632,300.179 397.5,300.5C 404.969,300.368 412.302,300.368 419.5,300.5C 430.852,301.69 442.185,301.69 453.5,300.5C 453.082,301.222 452.416,301.722 451.5,302C 435.808,302.803 420.141,302.636 404.5,301.5C 400.277,302.873 395.944,303.54 391.5,303.5C 377.531,303.365 363.531,303.199 349.5,303C 345.06,300.943 341.06,298.443 337.5,295.5C 333.083,298.41 329.083,301.91 325.5,306C 323.423,307.705 321.09,308.872 318.5,309.5C 324.57,304.937 330.236,299.771 335.5,294C 336.833,293.333 338.167,293.333 339.5,294C 340.373,295.045 341.373,295.878 342.5,296.5 Z"/></g>
<g><path style="opacity:0.152" fill="#2f2f2f" d="M 209.5,299.5 C 209.833,299.5 210.167,299.5 210.5,299.5C 232.337,300.167 254.337,300.833 276.5,301.5C 274.344,303.492 271.844,304.825 269,305.5C 264.607,306.866 260.107,307.532 255.5,307.5C 253.5,307.5 251.5,307.5 249.5,307.5C 252.488,305.86 255.821,305.026 259.5,305C 260.833,304.333 260.833,303.667 259.5,303C 241.058,301.665 222.891,301.165 205,301.5C 196.517,302.227 188.017,302.727 179.5,303C 186.053,305.594 192.719,307.094 199.5,307.5C 195.5,307.5 191.5,307.5 187.5,307.5C 182.151,306.296 176.818,304.963 171.5,303.5C 168.972,302.831 168.972,301.998 171.5,301C 184.179,300.655 196.845,300.155 209.5,299.5 Z"/></g>
<g><path style="opacity:0.186" fill="#414141" d="M 187.5,307.5 C 191.5,307.5 195.5,307.5 199.5,307.5C 216.172,308.612 232.839,308.612 249.5,307.5C 251.5,307.5 253.5,307.5 255.5,307.5C 253.5,308.167 251.5,308.833 249.5,309.5C 233.196,310.82 216.863,310.82 200.5,309.5C 196.167,308.833 191.833,308.167 187.5,307.5 Z"/></g>
<g><path style="opacity:0.149" fill="#3c3c3c" d="M 60.5,269.5 C 54.9659,274.59 52.7992,280.924 54,288.5C 54.3826,289.056 54.8826,289.389 55.5,289.5C 57.0456,291.649 58.7122,293.816 60.5,296C 62.9573,297.562 65.624,298.562 68.5,299C 74.5,299.667 80.5,299.667 86.5,299C 90.3065,298.221 93.6399,296.554 96.5,294C 98.1667,293.333 99.8333,293.333 101.5,294C 105.06,299.568 109.393,304.568 114.5,309C 115.793,309.49 117.127,309.657 118.5,309.5C 122.138,313.662 126.805,316.328 132.5,317.5C 132.5,318.167 132.5,318.833 132.5,319.5C 126.252,317.692 120.252,315.192 114.5,312C 110.903,307.399 106.903,303.066 102.5,299C 101.234,298.691 100.067,298.191 99,297.5C 85.6444,303.824 72.1444,303.99 58.5,298C 56.2911,296.127 54.4578,293.96 53,291.5C 52.3333,285.833 52.3333,280.167 53,274.5C 54.3296,270.993 56.8296,269.327 60.5,269.5 Z"/></g>
<g><path style="opacity:0.396" fill="#797979" d="M 118.5,309.5 C 121.272,309.759 123.605,310.759 125.5,312.5C 128.009,313.921 130.343,315.588 132.5,317.5C 126.805,316.328 122.138,313.662 118.5,309.5 Z"/></g>
<g><path style="opacity:1" fill="#6a6490" d="M 293.5,308.5 C 294.708,309.234 296.041,309.567 297.5,309.5C 289.316,313.385 280.649,316.052 271.5,317.5C 270.662,317.158 270.328,316.492 270.5,315.5C 278.237,313.365 285.904,311.032 293.5,308.5 Z"/></g>
<g><path style="opacity:1" fill="#464176" d="M 126.5,301.5 C 146.94,310.256 168.274,315.59 190.5,317.5C 194.881,319.211 199.547,319.877 204.5,319.5C 205.5,319.5 206.5,319.5 207.5,319.5C 208.263,320.268 209.263,320.768 210.5,321C 204.843,321.499 199.176,321.666 193.5,321.5C 186.868,320.284 180.201,319.284 173.5,318.5C 156.471,316.58 140.471,311.58 125.5,303.5C 125.328,302.508 125.662,301.842 126.5,301.5 Z"/></g>
<g><path style="opacity:0.545" fill="#a2a2a2" d="M 342.5,294.5 C 341.373,293.878 340.373,293.045 339.5,292C 337.741,291.202 336.074,291.369 334.5,292.5C 326.987,301.248 318.32,308.581 308.5,314.5C 299.644,317.871 290.977,321.538 282.5,325.5C 279.833,325.5 277.167,325.5 274.5,325.5C 285.357,322.074 296.024,318.074 306.5,313.5C 311.662,309.751 316.996,306.251 322.5,303C 327.201,298.634 331.534,293.967 335.5,289C 339.118,288.957 341.451,290.791 342.5,294.5 Z"/></g>
<g><path style="opacity:0.263" fill="#5b5b5b" d="M 342.5,294.5 C 342.5,295.167 342.5,295.833 342.5,296.5C 341.373,295.878 340.373,295.045 339.5,294C 338.167,293.333 336.833,293.333 335.5,294C 330.236,299.771 324.57,304.937 318.5,309.5C 318.047,310.458 317.381,311.292 316.5,312C 311.153,314.673 305.82,317.34 300.5,320C 294.791,322.682 288.791,324.515 282.5,325.5C 290.977,321.538 299.644,317.871 308.5,314.5C 318.32,308.581 326.987,301.248 334.5,292.5C 336.074,291.369 337.741,291.202 339.5,292C 340.373,293.045 341.373,293.878 342.5,294.5 Z"/></g>
<g><path style="opacity:0.714" fill="#b8b8b8" d="M 125.5,312.5 C 131.764,314.304 137.764,316.638 143.5,319.5C 139.833,318.833 136.167,318.167 132.5,317.5C 130.343,315.588 128.009,313.921 125.5,312.5 Z"/></g>
<g><path style="opacity:1" fill="#a7a8c3" d="M 190.5,317.5 C 195.453,317.123 200.119,317.789 204.5,319.5C 199.547,319.877 194.881,319.211 190.5,317.5 Z"/></g>
<g><path style="opacity:1" fill="#cac9dc" d="M 173.5,318.5 C 180.201,319.284 186.868,320.284 193.5,321.5C 193.5,321.833 193.5,322.167 193.5,322.5C 186.456,322.441 179.789,321.108 173.5,318.5 Z"/></g>
<g><path style="opacity:1" fill="#7a789a" d="M 270.5,315.5 C 270.328,316.492 270.662,317.158 271.5,317.5C 261.799,320.046 251.799,321.546 241.5,322C 225.503,322.5 209.503,322.667 193.5,322.5C 193.5,322.167 193.5,321.833 193.5,321.5C 199.176,321.666 204.843,321.499 210.5,321C 209.263,320.768 208.263,320.268 207.5,319.5C 228.671,320.42 249.671,319.086 270.5,315.5 Z"/></g>
<g><path style="opacity:0.396" fill="#595959" d="M 132.5,317.5 C 136.167,318.167 139.833,318.833 143.5,319.5C 145.102,321.074 147.102,321.741 149.5,321.5C 150.842,322.793 152.509,323.626 154.5,324C 159.122,325.207 163.789,326.207 168.5,327C 169.056,327.383 169.389,327.883 169.5,328.5C 165.167,327.833 160.833,327.167 156.5,326.5C 148.387,324.574 140.387,322.24 132.5,319.5C 132.5,318.833 132.5,318.167 132.5,317.5 Z"/></g>
<g><path style="opacity:0.729" fill="#a6a6a6" d="M 149.5,321.5 C 152.187,321.336 154.854,321.503 157.5,322C 164.651,324.109 171.651,326.275 178.5,328.5C 176.833,328.5 175.167,328.5 173.5,328.5C 172.167,328.5 170.833,328.5 169.5,328.5C 169.389,327.883 169.056,327.383 168.5,327C 163.789,326.207 159.122,325.207 154.5,324C 152.509,323.626 150.842,322.793 149.5,321.5 Z"/></g>
<g><path style="opacity:0.603" fill="#acacac" d="M 274.5,325.5 C 268.963,327.061 263.296,328.561 257.5,330C 242.529,331.283 227.529,331.783 212.5,331.5C 203.468,330.831 194.468,329.831 185.5,328.5C 205.473,330.083 225.473,330.583 245.5,330C 255.204,328.692 264.871,327.192 274.5,325.5 Z"/></g>
<g><path style="opacity:0.379" fill="#616161" d="M 274.5,325.5 C 277.167,325.5 279.833,325.5 282.5,325.5C 280.321,326.677 277.987,327.677 275.5,328.5C 248.883,333.93 222.216,334.93 195.5,331.5C 201.167,331.5 206.833,331.5 212.5,331.5C 227.529,331.783 242.529,331.283 257.5,330C 263.296,328.561 268.963,327.061 274.5,325.5 Z"/></g>
<g><path style="opacity:0.181" fill="#2c2c2c" d="M 156.5,326.5 C 160.833,327.167 165.167,327.833 169.5,328.5C 170.833,328.5 172.167,328.5 173.5,328.5C 175.562,329.776 177.896,330.61 180.5,331C 185.489,331.499 190.489,331.666 195.5,331.5C 222.216,334.93 248.883,333.93 275.5,328.5C 271.446,330.441 267.112,331.941 262.5,333C 230.004,337.072 197.671,336.072 165.5,330C 162.135,329.495 159.135,328.328 156.5,326.5 Z"/></g>
<g><path style="opacity:0.576" fill="#838383" d="M 173.5,328.5 C 175.167,328.5 176.833,328.5 178.5,328.5C 180.833,328.5 183.167,328.5 185.5,328.5C 194.468,329.831 203.468,330.831 212.5,331.5C 206.833,331.5 201.167,331.5 195.5,331.5C 190.489,331.666 185.489,331.499 180.5,331C 177.896,330.61 175.562,329.776 173.5,328.5 Z"/></g>
</svg>
