<?xml version="1.0" encoding="UTF-8"?>
<!DOCTYPE svg PUBLIC "-//W3C//DTD SVG 1.1//EN" "http://www.w3.org/Graphics/SVG/1.1/DTD/svg11.dtd">
<svg xmlns="http://www.w3.org/2000/svg" version="1.1" width="500px" height="500px" style="shape-rendering:geometricPrecision; text-rendering:geometricPrecision; image-rendering:optimizeQuality; fill-rule:evenodd; clip-rule:evenodd" xmlns:xlink="http://www.w3.org/1999/xlink">
<g><path style="opacity:0.133" fill="#d8d6e3" d="M 138.5,209.5 C 138.649,208.448 138.483,207.448 138,206.5C 137.148,207.571 136.315,208.571 135.5,209.5C 135.167,206.5 136.5,205.167 139.5,205.5C 139.768,207.099 139.434,208.432 138.5,209.5 Z"/></g>
<g><path style="opacity:0.675" fill="#aaa7bf" d="M 163.5,207.5 C 163.631,208.239 163.464,208.906 163,209.5C 161.196,207.019 159.696,207.019 158.5,209.5C 157.833,208.833 157.167,208.167 156.5,207.5C 158.279,206.426 159.946,205.093 161.5,203.5C 162.705,204.577 163.372,205.91 163.5,207.5 Z"/></g>
<g><path style="opacity:0.985" fill="#9b93b2" d="M 104.5,210.5 C 103.352,209.105 102.352,209.272 101.5,211C 102.337,212.011 102.67,213.178 102.5,214.5C 100.132,212.044 99.1324,209.044 99.5,205.5C 102.833,205.5 104.5,207.167 104.5,210.5 Z"/></g>
<g><path style="opacity:0.153" fill="#e0dfe8" d="M 109.5,206.5 C 110.209,205.596 111.209,205.263 112.5,205.5C 112.784,207.415 112.451,209.081 111.5,210.5C 111.843,208.517 111.176,207.183 109.5,206.5 Z"/></g>
<g><path style="opacity:0.026" fill="#e2e2e7" d="M 122.5,206.5 C 119.654,206.03 117.321,206.863 115.5,209C 117.473,209.495 119.473,209.662 121.5,209.5C 121.5,211.833 121.5,214.167 121.5,216.5C 120.833,216.5 120.167,216.5 119.5,216.5C 118.5,216.5 117.5,216.5 116.5,216.5C 116.5,215.5 116.5,214.5 116.5,213.5C 115.5,213.5 114.5,213.5 113.5,213.5C 113.918,212.778 114.584,212.278 115.5,212C 113.083,210.327 113.083,208.494 115.5,206.5C 117.972,205.234 120.306,205.234 122.5,206.5 Z"/></g>
<g><path style="opacity:0.365" fill="#cbcadb" d="M 156.5,207.5 C 155.135,209.751 155.469,211.751 157.5,213.5C 155.278,213.441 154.278,212.275 154.5,210C 154.684,208.624 155.351,207.791 156.5,207.5 Z"/></g>
<g><path style="opacity:0.005" fill="#f0f0f6" d="M 127.5,206.5 C 127.517,208.565 127.85,210.565 128.5,212.5C 127.603,211.402 126.77,211.402 126,212.5C 125.814,215.036 125.314,217.369 124.5,219.5C 124.5,219.167 124.5,218.833 124.5,218.5C 124.5,215.5 124.5,212.5 124.5,209.5C 125.728,208.694 126.728,207.694 127.5,206.5 Z"/></g>
<g><path style="opacity:0.02" fill="#e5e4ea" d="M 163.5,207.5 C 163.815,209.265 163.815,210.931 163.5,212.5C 161.326,212.25 159.659,211.25 158.5,209.5C 159.696,207.019 161.196,207.019 163,209.5C 163.464,208.906 163.631,208.239 163.5,207.5 Z"/></g>
<g><path style="opacity:1" fill="#7d7a9c" d="M 132.5,211.5 C 133.371,214.112 134.037,216.779 134.5,219.5C 133.778,219.918 133.278,220.584 133,221.5C 132.79,219.942 132.29,218.609 131.5,217.5C 129.75,216.341 128.75,214.674 128.5,212.5C 127.85,210.565 127.517,208.565 127.5,206.5C 127.897,205.475 128.563,205.308 129.5,206C 131.607,207.264 132.607,209.097 132.5,211.5 Z"/></g>
<g><path style="opacity:0.043" fill="#e4e3ec" d="M 143.5,207.5 C 144.474,209.085 145.974,210.085 148,210.5C 148.495,212.473 148.662,214.473 148.5,216.5C 147.5,216.5 146.5,216.5 145.5,216.5C 144.33,214.721 142.664,213.721 140.5,213.5C 141.13,211.25 142.13,209.25 143.5,207.5 Z"/></g>
<g><path style="opacity:0.964" fill="#8682a7" d="M 173.5,219.5 C 174.376,216.201 174.543,212.868 174,209.5C 172.667,208.167 171.333,208.167 170,209.5C 169.536,208.906 169.369,208.239 169.5,207.5C 172.424,204.782 175.257,205.115 178,208.5C 178.499,212.152 178.665,215.818 178.5,219.5C 176.833,219.5 175.167,219.5 173.5,219.5 Z"/></g>
<g><path style="opacity:0.91" fill="#a39fba" d="M 109.5,206.5 C 111.176,207.183 111.843,208.517 111.5,210.5C 110.674,213.485 109.341,216.151 107.5,218.5C 107.296,216.315 106.63,214.315 105.5,212.5C 106.833,210.5 108.167,208.5 109.5,206.5 Z"/></g>
<g><path style="opacity:0.914" fill="#7e7ca2" d="M 156.5,207.5 C 157.167,208.167 157.833,208.833 158.5,209.5C 159.659,211.25 161.326,212.25 163.5,212.5C 165.479,218.857 163.145,221.524 156.5,220.5C 155.374,219.142 155.374,217.808 156.5,216.5C 158.198,217.681 159.865,217.681 161.5,216.5C 160.717,214.712 159.384,213.712 157.5,213.5C 155.469,211.751 155.135,209.751 156.5,207.5 Z"/></g>
<g><path style="opacity:0.224" fill="#d1cedd" d="M 186.5,206.5 C 187.167,207.833 187.833,209.167 188.5,210.5C 187.5,210.5 186.5,210.5 185.5,210.5C 185.81,213.713 185.477,216.713 184.5,219.5C 184.241,215.76 184.574,212.094 185.5,208.5C 184.675,207.614 183.675,207.281 182.5,207.5C 182.5,211.5 182.5,215.5 182.5,219.5C 181.515,215.366 181.182,211.032 181.5,206.5C 183.167,206.5 184.833,206.5 186.5,206.5 Z"/></g>
<g><path style="opacity:0.587" fill="#b8b6c9" d="M 190.5,206.5 C 191.496,206.414 192.329,206.748 193,207.5C 193.499,211.821 193.666,216.154 193.5,220.5C 191.901,220.768 190.568,220.434 189.5,219.5C 190.5,219.5 191.5,219.5 192.5,219.5C 193.025,214.86 192.358,210.527 190.5,206.5 Z"/></g>
<g><path style="opacity:0.847" fill="#a39dbc" d="M 138.5,209.5 C 137.342,212.989 136.009,216.322 134.5,219.5C 134.037,216.779 133.371,214.112 132.5,211.5C 133.117,211.611 133.617,211.944 134,212.5C 134.232,211.263 134.732,210.263 135.5,209.5C 136.315,208.571 137.148,207.571 138,206.5C 138.483,207.448 138.649,208.448 138.5,209.5 Z"/></g>
<g><path style="opacity:0.948" fill="#7d79a3" d="M 151.5,209.5 C 151.5,212.5 151.5,215.5 151.5,218.5C 149.821,218.715 148.821,218.048 148.5,216.5C 148.662,214.473 148.495,212.473 148,210.5C 145.974,210.085 144.474,209.085 143.5,207.5C 146.87,203.808 149.536,204.474 151.5,209.5 Z"/></g>
<g><path style="opacity:0.945" fill="#5f5785" d="M 184.5,219.5 C 183.833,220.833 183.167,220.833 182.5,219.5C 182.5,215.5 182.5,211.5 182.5,207.5C 183.675,207.281 184.675,207.614 185.5,208.5C 184.574,212.094 184.241,215.76 184.5,219.5 Z"/></g>
<g><path style="opacity:0.993" fill="#736e93" d="M 113.5,213.5 C 114.5,213.5 115.5,213.5 116.5,213.5C 116.5,214.5 116.5,215.5 116.5,216.5C 117.5,216.5 118.5,216.5 119.5,216.5C 118.448,218.256 116.781,218.923 114.5,218.5C 112.403,217.121 112.07,215.455 113.5,213.5 Z"/></g>
<g><path style="opacity:0.02" fill="#dedce5" d="M 169.5,207.5 C 169.369,208.239 169.536,208.906 170,209.5C 171.333,208.167 172.667,208.167 174,209.5C 174.543,212.868 174.376,216.201 173.5,219.5C 173.167,219.5 172.833,219.5 172.5,219.5C 172.719,218.325 172.386,217.325 171.5,216.5C 170.358,215.174 169.024,214.174 167.5,213.5C 168.048,211.374 168.715,209.374 169.5,207.5 Z M 171.5,209.5 C 172.289,209.783 172.956,210.283 173.5,211C 172.184,211.528 171.517,211.028 171.5,209.5 Z"/></g>
<g><path style="opacity:0.963" fill="#8d89ab" d="M 190.5,206.5 C 192.358,210.527 193.025,214.86 192.5,219.5C 191.5,219.5 190.5,219.5 189.5,219.5C 188.523,216.713 188.19,213.713 188.5,210.5C 187.833,209.167 187.167,207.833 186.5,206.5C 187.833,205.167 189.167,205.167 190.5,206.5 Z"/></g>
<g><path style="opacity:1" fill="#79749d" d="M 140.5,213.5 C 142.664,213.721 144.33,214.721 145.5,216.5C 146.11,217.391 146.443,218.391 146.5,219.5C 144.497,220.532 142.497,220.198 140.5,218.5C 139.185,216.801 139.185,215.135 140.5,213.5 Z"/></g>
<g><path style="opacity:0.018" fill="#e6e7ed" d="M 157.5,213.5 C 159.384,213.712 160.717,214.712 161.5,216.5C 159.865,217.681 158.198,217.681 156.5,216.5C 155.374,217.808 155.374,219.142 156.5,220.5C 154.699,219.281 153.699,217.448 153.5,215C 153.667,214.5 153.833,214 154,213.5C 155.292,214.791 156.458,214.791 157.5,213.5 Z"/></g>
<g><path style="opacity:1" fill="#6a648f" d="M 104.5,210.5 C 105.338,210.842 105.672,211.508 105.5,212.5C 106.63,214.315 107.296,216.315 107.5,218.5C 106.041,218.567 104.708,218.234 103.5,217.5C 102.89,216.609 102.557,215.609 102.5,214.5C 102.67,213.178 102.337,212.011 101.5,211C 102.352,209.272 103.352,209.105 104.5,210.5 Z"/></g>
<g><path style="opacity:0.996" fill="#716d93" d="M 122.5,206.5 C 123.906,206.973 124.573,207.973 124.5,209.5C 124.5,212.5 124.5,215.5 124.5,218.5C 122.821,218.715 121.821,218.048 121.5,216.5C 121.5,214.167 121.5,211.833 121.5,209.5C 119.473,209.662 117.473,209.495 115.5,209C 117.321,206.863 119.654,206.03 122.5,206.5 Z"/></g>
<g><path style="opacity:1" fill="#6d698e" d="M 167.5,213.5 C 169.024,214.174 170.358,215.174 171.5,216.5C 172.386,217.325 172.719,218.325 172.5,219.5C 172.44,220.043 172.107,220.376 171.5,220.5C 166.803,219.856 165.469,217.523 167.5,213.5 Z"/></g>
<g><path style="opacity:0.745" fill="#9f9eb5" d="M 119.5,216.5 C 120.167,216.5 120.833,216.5 121.5,216.5C 121.821,218.048 122.821,218.715 124.5,218.5C 124.5,218.833 124.5,219.167 124.5,219.5C 122.333,219.458 120,219.791 117.5,220.5C 116.261,220.058 115.261,219.391 114.5,218.5C 116.781,218.923 118.448,218.256 119.5,216.5 Z"/></g>
<g><path style="opacity:0.573" fill="#b2b0c7" d="M 151.5,209.5 C 152.479,212.625 152.813,215.958 152.5,219.5C 150.5,219.5 148.5,219.5 146.5,219.5C 146.443,218.391 146.11,217.391 145.5,216.5C 146.5,216.5 147.5,216.5 148.5,216.5C 148.821,218.048 149.821,218.715 151.5,218.5C 151.5,215.5 151.5,212.5 151.5,209.5 Z"/></g>
<g><path style="opacity:1" fill="#aba6c0" d="M 131.5,217.5 C 132.29,218.609 132.79,219.942 133,221.5C 133.278,220.584 133.778,219.918 134.5,219.5C 134.997,224.992 132.664,227.158 127.5,226C 128.716,223.069 130.05,220.236 131.5,217.5 Z"/></g>
<g><path style="opacity:0.834" fill="#aba6bd" d="M 103.5,217.5 C 104.708,218.234 106.041,218.567 107.5,218.5C 107.607,222.286 106.107,225.286 103,227.5C 102.056,226.737 101.556,225.737 101.5,224.5C 102.937,222.423 103.604,220.09 103.5,217.5 Z"/></g>
<g><path style="opacity:0.243" fill="#dad8e5" d="M 343.5,228.5 C 344.919,227.549 346.585,227.216 348.5,227.5C 348.768,229.099 348.434,230.432 347.5,231.5C 347.5,230.5 347.5,229.5 347.5,228.5C 346.167,228.5 344.833,228.5 343.5,228.5 Z"/></g>
<g><path style="opacity:1" fill="#62588e" d="M 112.5,241.5 C 111.722,238.273 111.722,235.273 112.5,232.5C 112.631,231.761 112.464,231.094 112,230.5C 108.601,233.729 105.435,237.062 102.5,240.5C 101.438,238.901 101.438,237.234 102.5,235.5C 105.427,234.243 107.761,232.243 109.5,229.5C 111.199,227.559 113.366,226.226 116,225.5C 117.28,225.613 118.113,226.28 118.5,227.5C 117.005,232.479 115.005,237.145 112.5,241.5 Z"/></g>
<g><path style="opacity:0.596" fill="#a9a4c1" d="M 209.5,227.5 C 208.66,229.853 207.326,231.853 205.5,233.5C 205.845,230.802 207.178,228.802 209.5,227.5 Z"/></g>
<g><path style="opacity:0.549" fill="#a7a2be" d="M 109.5,229.5 C 107.761,232.243 105.427,234.243 102.5,235.5C 104.239,232.757 106.573,230.757 109.5,229.5 Z"/></g>
<g><path style="opacity:0.194" fill="#c7c4d8" d="M 211.5,244.5 C 212.22,238.862 212.553,233.196 212.5,227.5C 211.5,227.5 210.5,227.5 209.5,227.5C 210.255,225.534 211.421,225.2 213,226.5C 213.667,231.167 213.667,235.833 213,240.5C 212.79,242.058 212.29,243.391 211.5,244.5 Z"/></g>
<g><path style="opacity:0.037" fill="#e2e4f0" d="M 112.5,232.5 C 109.898,236.706 107.564,241.039 105.5,245.5C 105.19,243.856 104.19,242.856 102.5,242.5C 102.5,241.833 102.5,241.167 102.5,240.5C 105.435,237.062 108.601,233.729 112,230.5C 112.464,231.094 112.631,231.761 112.5,232.5 Z"/></g>
<g><path style="opacity:0.953" fill="#423a79" d="M 209.5,227.5 C 210.5,227.5 211.5,227.5 212.5,227.5C 212.553,233.196 212.22,238.862 211.5,244.5C 210.778,244.918 210.278,245.584 210,246.5C 209.667,242.167 209.333,237.833 209,233.5C 208.283,234.044 207.783,234.711 207.5,235.5C 207.068,236.71 206.401,237.71 205.5,238.5C 204.506,237.001 204.506,235.334 205.5,233.5C 207.326,231.853 208.66,229.853 209.5,227.5 Z"/></g>
<g><path style="opacity:0.973" fill="#625b8c" d="M 283.5,239.5 C 282.175,240.953 281.342,240.619 281,238.5C 280.505,236.527 280.338,234.527 280.5,232.5C 279.448,232.649 278.448,232.483 277.5,232C 278.252,231.329 278.586,230.496 278.5,229.5C 282.632,223.883 284.966,224.716 285.5,232C 285.354,234.76 284.687,237.26 283.5,239.5 Z"/></g>
<g><path style="opacity:0.004" fill="#fdfdfa" d="M 227.5,237.5 C 228.833,238.167 228.833,238.167 227.5,237.5 Z"/></g>
<g><path style="opacity:0.957" fill="#827ba4" d="M 278.5,229.5 C 278.586,230.496 278.252,231.329 277.5,232C 278.448,232.483 279.448,232.649 280.5,232.5C 280.338,234.527 280.505,236.527 281,238.5C 281.342,240.619 282.175,240.953 283.5,239.5C 282.365,243.636 280.365,247.303 277.5,250.5C 277.167,250.5 276.833,250.5 276.5,250.5C 276.5,249.833 276.167,249.5 275.5,249.5C 277.623,246.133 278.956,242.466 279.5,238.5C 279.66,236.801 279.494,235.134 279,233.5C 278.768,234.737 278.268,235.737 277.5,236.5C 276.687,238.261 275.687,239.928 274.5,241.5C 274.44,240.957 274.107,240.624 273.5,240.5C 270.688,243.419 269.855,246.753 271,250.5C 270.658,248.381 269.825,248.047 268.5,249.5C 270.266,241.968 273.599,235.301 278.5,229.5 Z M 279.5,238.5 C 278.167,238.5 277.5,237.833 277.5,236.5C 278.268,235.737 278.768,234.737 279,233.5C 279.494,235.134 279.66,236.801 279.5,238.5 Z"/></g>
<g><path style="opacity:0.997" fill="#766b9d" d="M 102.5,235.5 C 101.438,237.234 101.438,238.901 102.5,240.5C 102.5,241.167 102.5,241.833 102.5,242.5C 101.331,245.511 99.664,248.178 97.5,250.5C 98.9814,246.995 97.9814,245.662 94.5,246.5C 96.4002,242.268 99.0669,238.601 102.5,235.5 Z"/></g>
<g><path style="opacity:0.996" fill="#4a3f7a" d="M 112.5,232.5 C 111.722,235.273 111.722,238.273 112.5,241.5C 112.737,242.791 112.404,243.791 111.5,244.5C 110.069,245.78 109.402,247.447 109.5,249.5C 107.227,249.043 105.894,247.71 105.5,245.5C 107.564,241.039 109.898,236.706 112.5,232.5 Z"/></g>
<g><path style="opacity:0.999" fill="#60578f" d="M 343.5,228.5 C 344.833,228.5 346.167,228.5 347.5,228.5C 347.5,229.5 347.5,230.5 347.5,231.5C 345.589,238.258 342.922,244.591 339.5,250.5C 339.829,247.772 339.163,245.438 337.5,243.5C 338.547,240.404 339.88,237.404 341.5,234.5C 341.167,234.167 340.833,233.833 340.5,233.5C 339.482,234.193 338.482,234.859 337.5,235.5C 338.415,233.246 339.748,231.246 341.5,229.5C 341.842,228.662 342.508,228.328 343.5,228.5 Z"/></g>
<g><path style="opacity:1" fill="#5d5385" d="M 341.5,229.5 C 339.748,231.246 338.415,233.246 337.5,235.5C 335.646,239.221 333.313,242.554 330.5,245.5C 330.013,244.527 329.513,243.527 329,242.5C 328.34,244.324 327.173,245.657 325.5,246.5C 329.452,239.547 334.786,233.88 341.5,229.5 Z"/></g>
<g><path style="opacity:0.947" fill="#6d6492" d="M 205.5,233.5 C 204.506,235.334 204.506,237.001 205.5,238.5C 204.696,241.579 203.696,244.579 202.5,247.5C 201.504,247.414 200.671,247.748 200,248.5C 199.901,250.653 199.067,252.319 197.5,253.5C 197.721,250.933 198.388,248.599 199.5,246.5C 200.931,245.22 201.598,243.553 201.5,241.5C 201.794,238.246 203.127,235.579 205.5,233.5 Z"/></g>
<g><path style="opacity:0.071" fill="#e3e4ed" d="M 277.5,236.5 C 277.5,237.833 278.167,238.5 279.5,238.5C 278.956,242.466 277.623,246.133 275.5,249.5C 273.899,250.643 273.233,249.976 273.5,247.5C 273.84,245.488 274.173,243.488 274.5,241.5C 275.687,239.928 276.687,238.261 277.5,236.5 Z"/></g>
<g><path style="opacity:0.009" fill="#e7e8f2" d="M 337.5,243.5 C 336.406,246.682 335.072,249.682 333.5,252.5C 332.794,251.443 332.461,251.776 332.5,253.5C 330.973,253.427 329.973,254.094 329.5,255.5C 327.81,255.144 326.81,254.144 326.5,252.5C 327.833,250.167 329.167,247.833 330.5,245.5C 333.313,242.554 335.646,239.221 337.5,235.5C 338.482,234.859 339.482,234.193 340.5,233.5C 340.833,233.833 341.167,234.167 341.5,234.5C 339.88,237.404 338.547,240.404 337.5,243.5 Z"/></g>
<g><path style="opacity:0.921" fill="#7b7398" d="M 63.5,244.5 C 63.8417,243.662 64.5084,243.328 65.5,243.5C 70.1785,243.334 74.8452,243.501 79.5,244C 75.7595,245.014 72.0928,245.847 68.5,246.5C 68.1583,247.338 67.4916,247.672 66.5,247.5C 66.5,246.5 66.5,245.5 66.5,244.5C 65.5,244.5 64.5,244.5 63.5,244.5 Z"/></g>
<g><path style="opacity:0.677" fill="#b9b5ca" d="M 65.5,243.5 C 67.8097,242.836 70.3097,242.503 73,242.5C 76.8048,242.304 80.3048,242.97 83.5,244.5C 81.597,244.796 79.9303,245.463 78.5,246.5C 75.1667,246.5 71.8333,246.5 68.5,246.5C 72.0928,245.847 75.7595,245.014 79.5,244C 74.8452,243.501 70.1785,243.334 65.5,243.5 Z"/></g>
<g><path style="opacity:0.839" fill="#5f557c" d="M 228.5,241.5 C 228.5,242.833 228.5,244.167 228.5,245.5C 227.167,245.5 225.833,245.5 224.5,245.5C 223.351,245.209 222.684,244.376 222.5,243C 222.261,240.741 223.261,239.574 225.5,239.5C 227.038,239.453 228.038,240.12 228.5,241.5 Z"/></g>
<g><path style="opacity:0.365" fill="#c4c1d2" d="M 385.5,243.5 C 387.557,243.957 387.557,244.957 385.5,246.5C 385.5,245.5 385.5,244.5 385.5,243.5 Z"/></g>
<g><path style="opacity:0.718" fill="#a09bba" d="M 83.5,244.5 C 86.8732,245.066 89.8732,246.399 92.5,248.5C 92.0679,249.71 91.4013,250.71 90.5,251.5C 86.6509,249.44 82.6509,247.773 78.5,246.5C 79.9303,245.463 81.597,244.796 83.5,244.5 Z"/></g>
<g><path style="opacity:0.365" fill="#bbb5cb" d="M 201.5,241.5 C 201.598,243.553 200.931,245.22 199.5,246.5C 199.402,244.447 200.069,242.78 201.5,241.5 Z"/></g>
<g><path style="opacity:0.055" fill="#efeef3" d="M 228.5,241.5 C 229.451,242.919 229.784,244.585 229.5,246.5C 227.585,246.784 225.919,246.451 224.5,245.5C 225.833,245.5 227.167,245.5 228.5,245.5C 228.5,244.167 228.5,242.833 228.5,241.5 Z"/></g>
<g><path style="opacity:1" fill="#524579" d="M 63.5,244.5 C 64.5,244.5 65.5,244.5 66.5,244.5C 66.5,245.5 66.5,246.5 66.5,247.5C 65.5084,247.328 64.8417,247.662 64.5,248.5C 63.6618,248.842 63.3284,249.508 63.5,250.5C 63.5,251.5 63.5,252.5 63.5,253.5C 63.6495,254.552 63.4828,255.552 63,256.5C 62.2917,255.619 61.4584,254.953 60.5,254.5C 60.5,252.167 60.5,249.833 60.5,247.5C 60.5,245.5 61.5,244.5 63.5,244.5 Z"/></g>
<g><path style="opacity:0.004" fill="#d8d8e5" d="M 111.5,244.5 C 111.598,246.553 110.931,248.22 109.5,249.5C 109.402,247.447 110.069,245.78 111.5,244.5 Z"/></g>
<g><path style="opacity:0.076" fill="#e3e2ec" d="M 207.5,235.5 C 208.338,235.842 208.672,236.508 208.5,237.5C 207.167,237.833 207.167,238.167 208.5,238.5C 208.485,245.087 206.652,251.087 203,256.5C 202.505,254.527 202.338,252.527 202.5,250.5C 202.5,249.5 202.5,248.5 202.5,247.5C 203.696,244.579 204.696,241.579 205.5,238.5C 206.401,237.71 207.068,236.71 207.5,235.5 Z"/></g>
<g><path style="opacity:0.965" fill="#6a608e" d="M 294.5,245.5 C 297.572,245.183 300.572,245.516 303.5,246.5C 301.369,247.169 299.369,247.835 297.5,248.5C 296.833,249.167 296.167,249.833 295.5,250.5C 295.167,250.5 294.833,250.5 294.5,250.5C 291.949,253.23 290.616,252.563 290.5,248.5C 291.436,247.026 292.77,246.026 294.5,245.5 Z"/></g>
<g><path style="opacity:0.004" fill="#fbfaf9" d="M 223.5,248.5 C 225.185,247.156 226.852,247.323 228.5,249C 226.893,248.981 225.226,248.815 223.5,248.5 Z"/></g>
<g><path style="opacity:0.906" fill="#a49fba" d="M 325.5,246.5 C 324.214,249.117 322.547,251.45 320.5,253.5C 313.57,249.053 305.903,247.386 297.5,248.5C 299.369,247.835 301.369,247.169 303.5,246.5C 300.572,245.516 297.572,245.183 294.5,245.5C 304.116,242.447 313.283,243.781 322,249.5C 323.039,248.29 324.206,247.29 325.5,246.5 Z"/></g>
<g><path style="opacity:0.007" fill="#f5f4f4" d="M 66.5,247.5 C 67.5192,249.54 67.5192,251.54 66.5,253.5C 65.265,252.66 64.265,251.66 63.5,250.5C 63.3284,249.508 63.6618,248.842 64.5,248.5C 64.8417,247.662 65.5084,247.328 66.5,247.5 Z"/></g>
<g><path style="opacity:0.967" fill="#4f4983" d="M 274.5,241.5 C 274.173,243.488 273.84,245.488 273.5,247.5C 273.233,249.976 273.899,250.643 275.5,249.5C 276.167,249.5 276.5,249.833 276.5,250.5C 275.5,251.167 274.5,251.833 273.5,252.5C 272.081,251.549 270.415,251.216 268.5,251.5C 268.5,251.167 268.5,250.833 268.5,250.5C 268.5,250.167 268.5,249.833 268.5,249.5C 269.825,248.047 270.658,248.381 271,250.5C 269.855,246.753 270.688,243.419 273.5,240.5C 274.107,240.624 274.44,240.957 274.5,241.5 Z"/></g>
<g><path style="opacity:0.745" fill="#aba2bd" d="M 60.5,247.5 C 60.5,249.833 60.5,252.167 60.5,254.5C 58.1093,252.098 58.1093,249.764 60.5,247.5 Z"/></g>
<g><path style="opacity:1" fill="#423777" d="M 97.5,250.5 C 96.0256,251.436 95.0256,252.77 94.5,254.5C 94.1667,255.167 93.8333,255.833 93.5,256.5C 93.5,256.833 93.5,257.167 93.5,257.5C 93.1667,257.5 92.8333,257.5 92.5,257.5C 91.0937,257.973 90.427,258.973 90.5,260.5C 89.8333,260.833 89.1667,261.167 88.5,261.5C 87.3139,259.208 87.3139,256.874 88.5,254.5C 88.427,252.973 89.0937,251.973 90.5,251.5C 91.4013,250.71 92.0679,249.71 92.5,248.5C 92.8333,247.5 93.5,246.833 94.5,246.5C 97.9814,245.662 98.9814,246.995 97.5,250.5 Z"/></g>
<g><path style="opacity:0.782" fill="#a09cb8" d="M 184.5,251.5 C 179.969,251.15 175.636,251.817 171.5,253.5C 175.403,249.434 179.736,248.767 184.5,251.5 Z"/></g>
<g><path style="opacity:0.082" fill="#edecf3" d="M 222.5,251.5 C 223.568,250.566 224.901,250.232 226.5,250.5C 226.768,252.099 226.434,253.432 225.5,254.5C 225.5,253.5 225.5,252.5 225.5,251.5C 224.5,251.5 223.5,251.5 222.5,251.5 Z"/></g>
<g><path style="opacity:0.706" fill="#a3a1b9" d="M 253.5,251.5 C 250.5,251.5 247.5,251.5 244.5,251.5C 247.5,248.833 250.5,248.833 253.5,251.5 Z"/></g>
<g><path style="opacity:0.005" fill="#fafafb" d="M 295.5,250.5 C 297.646,250.696 297.812,251.696 296,253.5C 295.517,252.552 295.351,251.552 295.5,250.5 Z"/></g>
<g><path style="opacity:0.875" fill="#9c93b3" d="M 127.5,253.5 C 127.167,253.5 126.833,253.5 126.5,253.5C 125.295,252.314 123.961,252.314 122.5,253.5C 123.656,250.21 125.656,249.71 128.5,252C 127.944,252.383 127.611,252.883 127.5,253.5 Z"/></g>
<g><path style="opacity:0.963" fill="#524f85" d="M 202.5,247.5 C 202.5,248.5 202.5,249.5 202.5,250.5C 201.596,251.209 201.263,252.209 201.5,253.5C 200.198,255.672 199.032,258.006 198,260.5C 197.658,258.381 196.825,258.047 195.5,259.5C 195.875,257.302 196.542,255.302 197.5,253.5C 199.067,252.319 199.901,250.653 200,248.5C 200.671,247.748 201.504,247.414 202.5,247.5 Z"/></g>
<g><path style="opacity:0.979" fill="#7f78a1" d="M 290.5,248.5 C 290.616,252.563 291.949,253.23 294.5,250.5C 293.763,255.366 295.763,258.366 300.5,259.5C 300.414,260.496 300.748,261.329 301.5,262C 300.667,262.167 299.833,262.333 299,262.5C 297.393,261.926 295.893,261.26 294.5,260.5C 292.983,260.489 291.816,259.823 291,258.5C 290.243,256.685 289.41,255.019 288.5,253.5C 288.402,251.447 289.069,249.78 290.5,248.5 Z"/></g>
<g><path style="opacity:0.983" fill="#60578b" d="M 385.5,243.5 C 385.5,244.5 385.5,245.5 385.5,246.5C 384.232,248.905 383.565,251.572 383.5,254.5C 384.5,254.5 385.5,254.5 386.5,254.5C 386.5,255.167 386.5,255.833 386.5,256.5C 385.833,256.5 385.167,256.5 384.5,256.5C 383.167,256.5 382.5,257.167 382.5,258.5C 382.598,260.553 381.931,262.22 380.5,263.5C 380.167,263.5 379.833,263.5 379.5,263.5C 379.215,259.189 377.549,258.522 374.5,261.5C 374.511,259.983 375.177,258.816 376.5,258C 375.584,257.722 374.918,257.222 374.5,256.5C 375.335,255.057 376.668,254.057 378.5,253.5C 379.246,252.264 379.579,250.93 379.5,249.5C 379.508,244.813 381.508,242.813 385.5,243.5 Z"/></g>
<g><path style="opacity:0.008" fill="#ebebee" d="M 385.5,246.5 C 386.775,247.048 387.442,248.381 387.5,250.5C 387.377,251.925 387.043,253.258 386.5,254.5C 385.5,254.5 384.5,254.5 383.5,254.5C 383.565,251.572 384.232,248.905 385.5,246.5 Z"/></g>
<g><path style="opacity:0.282" fill="#cdcbdc" d="M 399.5,255.5 C 398.842,254.602 398.176,253.602 397.5,252.5C 396.817,252.863 396.15,253.196 395.5,253.5C 396.183,251.824 397.517,251.157 399.5,251.5C 399.5,252.833 399.5,254.167 399.5,255.5 Z"/></g>
<g><path style="opacity:0.827" fill="#8985aa" d="M 97.5,250.5 C 98.2112,252.03 99.2112,253.363 100.5,254.5C 99.5084,254.328 98.8417,254.662 98.5,255.5C 97.2921,254.766 95.9587,254.433 94.5,254.5C 95.0256,252.77 96.0256,251.436 97.5,250.5 Z"/></g>
<g><path style="opacity:0.678" fill="#938db2" d="M 211.5,244.5 C 209.96,251.251 206.626,256.918 201.5,261.5C 200.746,258.922 200.746,256.256 201.5,253.5C 201.263,252.209 201.596,251.209 202.5,250.5C 202.338,252.527 202.505,254.527 203,256.5C 206.652,251.087 208.485,245.087 208.5,238.5C 208.5,238.167 208.5,237.833 208.5,237.5C 208.672,236.508 208.338,235.842 207.5,235.5C 207.783,234.711 208.283,234.044 209,233.5C 209.333,237.833 209.667,242.167 210,246.5C 210.278,245.584 210.778,244.918 211.5,244.5 Z"/></g>
<g><path style="opacity:0.802" fill="#a5a3be" d="M 254.5,251.5 C 255.695,251.866 256.361,252.699 256.5,254C 256.101,255.728 255.434,257.228 254.5,258.5C 254.5,256.167 254.5,253.833 254.5,251.5 Z"/></g>
<g><path style="opacity:0.992" fill="#584c86" d="M 105.5,245.5 C 105.894,247.71 107.227,249.043 109.5,249.5C 109.598,251.553 108.931,253.22 107.5,254.5C 106.527,256.948 106.194,259.615 106.5,262.5C 105.508,262.328 104.842,262.662 104.5,263.5C 103.778,264.551 102.778,265.218 101.5,265.5C 101.806,262.615 101.473,259.948 100.5,257.5C 100.167,256.5 99.5,255.833 98.5,255.5C 98.8417,254.662 99.5084,254.328 100.5,254.5C 101.497,254.53 102.164,254.03 102.5,253C 103.233,250.28 104.233,247.78 105.5,245.5 Z"/></g>
<g><path style="opacity:0.998" fill="#4a3e7c" d="M 155.5,252.5 C 155.577,256.963 154.91,261.296 153.5,265.5C 153.167,265.5 152.833,265.5 152.5,265.5C 151.317,265.844 150.484,265.178 150,263.5C 149.722,264.416 149.222,265.082 148.5,265.5C 148.433,264.041 148.766,262.708 149.5,261.5C 150.537,260.07 151.204,258.403 151.5,256.5C 152.65,254.733 151.983,253.567 149.5,253C 150.056,252.617 150.389,252.117 150.5,251.5C 152.455,250.07 154.121,250.403 155.5,252.5 Z"/></g>
<g><path style="opacity:1" fill="#34286f" d="M 330.5,245.5 C 329.167,247.833 327.833,250.167 326.5,252.5C 325.326,253.514 324.66,254.847 324.5,256.5C 324.167,256.5 323.833,256.5 323.5,256.5C 321.5,256.5 320.5,255.5 320.5,253.5C 322.547,251.45 324.214,249.117 325.5,246.5C 327.173,245.657 328.34,244.324 329,242.5C 329.513,243.527 330.013,244.527 330.5,245.5 Z"/></g>
<g><path style="opacity:0.975" fill="#6b6790" d="M 366.5,257.5 C 365.5,257.833 364.833,258.5 364.5,259.5C 362.744,258.448 362.077,256.781 362.5,254.5C 360.05,254.298 357.717,254.631 355.5,255.5C 355.5,255.167 355.5,254.833 355.5,254.5C 356.167,253.833 356.833,253.167 357.5,252.5C 361.073,250.8 364.239,251.467 367,254.5C 367.74,255.749 367.573,256.749 366.5,257.5 Z"/></g>
<g><path style="opacity:0.435" fill="#bcbad1" d="M 379.5,249.5 C 379.579,250.93 379.246,252.264 378.5,253.5C 376.668,254.057 375.335,255.057 374.5,256.5C 373.711,256.217 373.044,255.717 372.5,255C 374.059,254.02 375.726,253.187 377.5,252.5C 377.942,251.261 378.609,250.261 379.5,249.5 Z"/></g>
<g><path style="opacity:0.125" fill="#cbc6da" d="M 408.5,255.5 C 406.362,254.192 404.362,254.525 402.5,256.5C 401.209,256.737 400.209,256.404 399.5,255.5C 401.826,254.849 404.159,254.182 406.5,253.5C 407.5,253.833 408.5,254.167 409.5,254.5C 409.376,255.107 409.043,255.44 408.5,255.5 Z"/></g>
<g><path style="opacity:0.993" fill="#5c5288" d="M 141.5,257.5 C 140.662,257.842 140.328,258.508 140.5,259.5C 139.596,260.209 139.263,261.209 139.5,262.5C 139.167,262.5 138.833,262.5 138.5,262.5C 137.835,264.369 137.169,266.369 136.5,268.5C 135.579,266.223 134.913,263.89 134.5,261.5C 134.433,260.041 134.766,258.708 135.5,257.5C 136.434,256.432 136.768,255.099 136.5,253.5C 134.007,253.869 133.34,253.203 134.5,251.5C 139.688,249.668 142.022,251.668 141.5,257.5 Z"/></g>
<g><path style="opacity:0.888" fill="#8980a7" d="M 150.5,251.5 C 150.389,252.117 150.056,252.617 149.5,253C 151.983,253.567 152.65,254.733 151.5,256.5C 151.217,255.711 150.717,255.044 150,254.5C 146.96,259.269 143.46,263.603 139.5,267.5C 138.962,265.883 138.629,264.216 138.5,262.5C 138.833,262.5 139.167,262.5 139.5,262.5C 139.81,263.738 140.31,263.738 141,262.5C 142.75,260.266 144.25,257.932 145.5,255.5C 146.585,253.413 148.251,252.08 150.5,251.5 Z"/></g>
<g><path style="opacity:0.6" fill="#a9a4c2" d="M 171.5,253.5 C 170.833,254.833 169.833,255.833 168.5,256.5C 168.5,254.5 169.5,253.5 171.5,253.5 Z"/></g>
<g><path style="opacity:0.006" fill="#f3f4f7" d="M 245.5,254.5 C 245.842,253.662 246.508,253.328 247.5,253.5C 247.918,254.222 248.584,254.722 249.5,255C 248.151,255.772 247.318,256.939 247,258.5C 246.139,257.252 245.639,255.919 245.5,254.5 Z"/></g>
<g><path style="opacity:0.439" fill="#b1aeca" d="M 268.5,250.5 C 268.5,250.833 268.5,251.167 268.5,251.5C 268.34,253.153 267.674,254.486 266.5,255.5C 266.402,253.447 267.069,251.78 268.5,250.5 Z"/></g>
<g><path style="opacity:1" fill="#60568e" d="M 286.5,252.5 C 287.167,252.833 287.833,253.167 288.5,253.5C 288.258,257.479 287.258,261.146 285.5,264.5C 284.681,262.228 284.015,259.894 283.5,257.5C 283.5,256.5 283.5,255.5 283.5,254.5C 283.389,253.883 283.056,253.383 282.5,253C 283.793,252.51 285.127,252.343 286.5,252.5 Z"/></g>
<g><path style="opacity:0.998" fill="#7c749c" d="M 435.5,253.5 C 434.209,253.263 433.209,253.596 432.5,254.5C 430.473,254.338 428.473,254.505 426.5,255C 425.748,255.671 425.414,256.504 425.5,257.5C 425.167,258.5 424.5,259.167 423.5,259.5C 423.5,257.5 422.5,256.5 420.5,256.5C 424.006,251.951 428.672,250.451 434.5,252C 435.056,252.383 435.389,252.883 435.5,253.5 Z"/></g>
<g><path style="opacity:0.016" fill="#eaeaf1" d="M 432.5,254.5 C 432.672,255.492 432.338,256.158 431.5,256.5C 429.5,256.833 427.5,257.167 425.5,257.5C 425.414,256.504 425.748,255.671 426.5,255C 428.473,254.505 430.473,254.338 432.5,254.5 Z"/></g>
<g><path style="opacity:0.947" fill="#8a85a9" d="M 63.5,253.5 C 66.0745,256.233 69.0745,258.233 72.5,259.5C 74.1484,260.927 76.1484,261.76 78.5,262C 76.1902,262.497 73.8568,262.663 71.5,262.5C 66.5109,261.519 62.8443,258.852 60.5,254.5C 61.4584,254.953 62.2917,255.619 63,256.5C 63.4828,255.552 63.6495,254.552 63.5,253.5 Z"/></g>
<g><path style="opacity:0.017" fill="#ecebf1" d="M 94.5,254.5 C 95.9587,254.433 97.2921,254.766 98.5,255.5C 99.5,255.833 100.167,256.5 100.5,257.5C 100.5,257.833 100.5,258.167 100.5,258.5C 99.5178,257.859 98.5178,257.193 97.5,256.5C 96.9328,259.212 96.5995,261.879 96.5,264.5C 93.6969,265.776 91.0303,265.776 88.5,264.5C 90.5,264.5 92.5,264.5 94.5,264.5C 94.5,263.5 94.5,262.5 94.5,261.5C 92.901,261.768 91.5676,261.434 90.5,260.5C 90.427,258.973 91.0937,257.973 92.5,257.5C 92.8333,258.833 93.1667,258.833 93.5,257.5C 94.8333,257.167 94.8333,256.833 93.5,256.5C 93.8333,255.833 94.1667,255.167 94.5,254.5 Z"/></g>
<g><path style="opacity:0.065" fill="#dedce4" d="M 126.5,253.5 C 126.833,253.5 127.167,253.5 127.5,253.5C 128.528,253.926 129.861,253.926 131.5,253.5C 129.578,256.084 127.745,258.751 126,261.5C 125.517,260.552 125.351,259.552 125.5,258.5C 125.366,256.708 125.699,255.042 126.5,253.5 Z"/></g>
<g><path style="opacity:0.974" fill="#4b417c" d="M 184.5,251.5 C 185.588,254.444 185.588,257.444 184.5,260.5C 183.262,258.786 182.595,256.786 182.5,254.5C 182.209,253.351 181.376,252.684 180,252.5C 178.93,252.528 178.097,252.861 177.5,253.5C 175.227,253.957 173.894,255.29 173.5,257.5C 172.488,258.872 171.488,260.205 170.5,261.5C 168.75,262.659 167.75,264.326 167.5,266.5C 166.833,266.5 166.5,266.833 166.5,267.5C 165.778,267.082 165.278,266.416 165,265.5C 163.989,266.337 162.822,266.67 161.5,266.5C 161.5,266.167 161.5,265.833 161.5,265.5C 162.781,261.567 165.114,258.567 168.5,256.5C 169.833,255.833 170.833,254.833 171.5,253.5C 175.636,251.817 179.969,251.15 184.5,251.5 Z"/></g>
<g><path style="opacity:0.243" fill="#bebdd0" d="M 177.5,253.5 C 178.097,252.861 178.93,252.528 180,252.5C 181.376,252.684 182.209,253.351 182.5,254.5C 182.167,254.5 181.833,254.5 181.5,254.5C 180.432,253.566 179.099,253.232 177.5,253.5 Z"/></g>
<g><path style="opacity:0.987" fill="#544c82" d="M 222.5,251.5 C 223.5,251.5 224.5,251.5 225.5,251.5C 225.5,252.5 225.5,253.5 225.5,254.5C 224.262,256.214 223.595,258.214 223.5,260.5C 223.737,261.791 223.404,262.791 222.5,263.5C 222.662,261.473 222.495,259.473 222,257.5C 221.333,258.833 220.667,258.833 220,257.5C 218.495,259.298 218.328,261.132 219.5,263C 218.956,263.717 218.289,264.217 217.5,264.5C 217.082,263.778 216.416,263.278 215.5,263C 216.823,262.184 217.489,261.017 217.5,259.5C 218.68,256.46 220.347,253.794 222.5,251.5 Z"/></g>
<g><path style="opacity:0.997" fill="#4d427f" d="M 337.5,243.5 C 339.163,245.438 339.829,247.772 339.5,250.5C 339.598,252.553 338.931,254.22 337.5,255.5C 335.486,257.902 335.153,260.568 336.5,263.5C 335.508,263.328 334.842,263.662 334.5,264.5C 334.335,267.518 334.502,270.518 335,273.5C 336.011,274.337 337.178,274.67 338.5,274.5C 338.5,272.167 338.5,269.833 338.5,267.5C 339.479,270.625 339.813,273.958 339.5,277.5C 338.5,277.5 337.5,277.5 336.5,277.5C 335.5,275.833 334.167,274.5 332.5,273.5C 331.686,268.881 331.353,264.214 331.5,259.5C 331.082,258.778 330.416,258.278 329.5,258C 332.447,257.888 333.78,256.388 333.5,253.5C 333.5,253.167 333.5,252.833 333.5,252.5C 335.072,249.682 336.406,246.682 337.5,243.5 Z"/></g>
<g><path style="opacity:0.82" fill="#938cac" d="M 357.5,252.5 C 356.833,253.167 356.167,253.833 355.5,254.5C 352.107,256.073 350.774,258.74 351.5,262.5C 349.577,257.047 351.577,253.713 357.5,252.5 Z"/></g>
<g><path style="opacity:0.831" fill="#9e98b7" d="M 435.5,253.5 C 436.478,253.811 437.145,254.478 437.5,255.5C 436.972,257.336 436.306,259.003 435.5,260.5C 435.5,258.167 435.5,255.833 435.5,253.5 Z"/></g>
<g><path style="opacity:0.004" fill="#eff0f4" d="M 177.5,253.5 C 178.739,254.212 179.239,255.212 179,256.5C 177.081,257.074 175.247,257.407 173.5,257.5C 173.894,255.29 175.227,253.957 177.5,253.5 Z"/></g>
<g><path style="opacity:0.067" fill="#d6d4e2" d="M 225.5,254.5 C 225.741,256.898 225.074,258.898 223.5,260.5C 223.595,258.214 224.262,256.214 225.5,254.5 Z"/></g>
<g><path style="opacity:0.992" fill="#665e91" d="M 244.5,251.5 C 244.082,252.222 243.416,252.722 242.5,253C 243.756,253.417 244.423,254.25 244.5,255.5C 242.823,257.54 241.156,259.54 239.5,261.5C 239.43,258.175 238.096,257.175 235.5,258.5C 237.195,254.486 240.195,252.153 244.5,251.5 Z"/></g>
<g><path style="opacity:0.998" fill="#3b3278" d="M 268.5,251.5 C 270.415,251.216 272.081,251.549 273.5,252.5C 271.317,255.864 269.984,259.53 269.5,263.5C 269.5,263.833 269.5,264.167 269.5,264.5C 266.786,264.687 266.119,265.854 267.5,268C 267.01,269.982 266.01,271.649 264.5,273C 265.252,273.671 265.586,274.504 265.5,275.5C 264.5,275.5 263.5,275.5 262.5,275.5C 262.788,272.061 263.454,268.728 264.5,265.5C 264.465,263.491 264.465,261.491 264.5,259.5C 266.104,258.713 266.771,257.38 266.5,255.5C 267.674,254.486 268.34,253.153 268.5,251.5 Z"/></g>
<g><path style="opacity:0.82" fill="#857fab" d="M 326.5,252.5 C 326.81,254.144 327.81,255.144 329.5,255.5C 331.368,256.674 332.368,256.007 332.5,253.5C 332.833,253.5 333.167,253.5 333.5,253.5C 333.78,256.388 332.447,257.888 329.5,258C 330.416,258.278 331.082,258.778 331.5,259.5C 331.167,259.5 330.833,259.5 330.5,259.5C 328.517,258.529 326.517,257.529 324.5,256.5C 324.66,254.847 325.326,253.514 326.5,252.5 Z M 332.5,253.5 C 332.368,256.007 331.368,256.674 329.5,255.5C 329.973,254.094 330.973,253.427 332.5,253.5 Z"/></g>
<g><path style="opacity:0.023" fill="#f0eff3" d="M 364.5,259.5 C 365.6,260.605 366.267,261.938 366.5,263.5C 364.343,264.127 362.343,263.46 360.5,261.5C 359.893,261.624 359.56,261.957 359.5,262.5C 356.013,261.517 354.68,259.183 355.5,255.5C 357.717,254.631 360.05,254.298 362.5,254.5C 362.077,256.781 362.744,258.448 364.5,259.5 Z"/></g>
<g><path style="opacity:0.004" fill="#fbfbf8" d="M 390.5,256.5 C 391.833,257.167 391.833,257.167 390.5,256.5 Z"/></g>
<g><path style="opacity:0.95" fill="#4a417c" d="M 399.5,255.5 C 400.209,256.404 401.209,256.737 402.5,256.5C 402.918,257.222 403.584,257.722 404.5,258C 402.942,258.21 401.609,258.71 400.5,259.5C 398.302,259.12 396.635,259.787 395.5,261.5C 394.549,260.081 394.216,258.415 394.5,256.5C 394.263,255.209 394.596,254.209 395.5,253.5C 396.15,253.196 396.817,252.863 397.5,252.5C 398.176,253.602 398.842,254.602 399.5,255.5 Z"/></g>
<g><path style="opacity:0.298" fill="#bebad1" d="M 122.5,253.5 C 122.598,255.553 121.931,257.22 120.5,258.5C 120.402,256.447 121.069,254.78 122.5,253.5 Z"/></g>
<g><path style="opacity:0.733" fill="#a2a0bc" d="M 181.5,255.5 C 181.771,257.38 181.104,258.713 179.5,259.5C 179.66,257.847 180.326,256.514 181.5,255.5 Z"/></g>
<g><path style="opacity:0.992" fill="#514c7f" d="M 244.5,251.5 C 247.5,251.5 250.5,251.5 253.5,251.5C 253.833,251.5 254.167,251.5 254.5,251.5C 254.5,253.833 254.5,256.167 254.5,258.5C 254.405,260.786 253.738,262.786 252.5,264.5C 252.635,262.446 251.968,260.779 250.5,259.5C 250.5,258.5 250.5,257.5 250.5,256.5C 250.5,256.167 250.5,255.833 250.5,255.5C 251.404,254.791 251.737,253.791 251.5,252.5C 249.901,252.232 248.568,252.566 247.5,253.5C 246.508,253.328 245.842,253.662 245.5,254.5C 245.5,255.167 245.167,255.5 244.5,255.5C 244.423,254.25 243.756,253.417 242.5,253C 243.416,252.722 244.082,252.222 244.5,251.5 Z"/></g>
<g><path style="opacity:0.173" fill="#c9c9da" d="M 247.5,253.5 C 248.568,252.566 249.901,252.232 251.5,252.5C 251.737,253.791 251.404,254.791 250.5,255.5C 250.179,253.952 249.179,253.285 247.5,253.5 Z"/></g>
<g><path style="opacity:0.71" fill="#a6a1c3" d="M 266.5,255.5 C 266.771,257.38 266.104,258.713 264.5,259.5C 264.66,257.847 265.326,256.514 266.5,255.5 Z"/></g>
<g><path style="opacity:0.012" fill="#ededf4" d="M 283.5,254.5 C 283.5,255.5 283.5,256.5 283.5,257.5C 283.167,257.5 282.833,257.5 282.5,257.5C 281.833,257.5 281.5,257.833 281.5,258.5C 280.18,259.942 278.514,260.608 276.5,260.5C 277.585,256.955 279.918,254.955 283.5,254.5 Z"/></g>
<g><path style="opacity:0.993" fill="#483e78" d="M 355.5,254.5 C 355.5,254.833 355.5,255.167 355.5,255.5C 354.68,259.183 356.013,261.517 359.5,262.5C 360.5,262.833 361.167,263.5 361.5,264.5C 359.795,265.535 358.128,265.535 356.5,264.5C 355.537,264.97 355.537,265.637 356.5,266.5C 354.251,265.92 352.585,264.587 351.5,262.5C 350.774,258.74 352.107,256.073 355.5,254.5 Z"/></g>
<g><path style="opacity:0.047" fill="#e7e7ee" d="M 384.5,256.5 C 384.167,257.5 383.5,258.167 382.5,258.5C 382.5,257.167 383.167,256.5 384.5,256.5 Z"/></g>
<g><path style="opacity:0.024" fill="#d9dae4" d="M 145.5,255.5 C 144.25,257.932 142.75,260.266 141,262.5C 140.31,263.738 139.81,263.738 139.5,262.5C 139.263,261.209 139.596,260.209 140.5,259.5C 141.338,259.158 141.672,258.492 141.5,257.5C 143.062,257.267 144.395,256.6 145.5,255.5 Z"/></g>
<g><path style="opacity:0.01" fill="#efecf5" d="M 151.5,256.5 C 151.204,258.403 150.537,260.07 149.5,261.5C 149.12,259.302 149.787,257.635 151.5,256.5 Z"/></g>
<g><path style="opacity:0.976" fill="#423f79" d="M 201.5,253.5 C 200.746,256.256 200.746,258.922 201.5,261.5C 198.935,265.199 198.935,268.865 201.5,272.5C 203.292,273.309 205.292,273.809 207.5,274C 206.944,274.383 206.611,274.883 206.5,275.5C 204.5,275.833 202.5,276.167 200.5,276.5C 198.596,276.262 197.262,275.262 196.5,273.5C 196.717,268.77 196.383,264.103 195.5,259.5C 196.825,258.047 197.658,258.381 198,260.5C 199.032,258.006 200.198,255.672 201.5,253.5 Z"/></g>
<g><path style="opacity:0.999" fill="#4c4480" d="M 239.5,261.5 C 239.34,263.153 238.674,264.486 237.5,265.5C 234.86,268.423 234.86,271.423 237.5,274.5C 236.635,275.583 235.635,275.749 234.5,275C 233.837,273.482 232.837,272.315 231.5,271.5C 231.5,271.167 231.5,270.833 231.5,270.5C 231.631,269.761 231.464,269.094 231,268.5C 230.282,269.451 229.449,269.617 228.5,269C 230.141,267.871 231.141,266.371 231.5,264.5C 232.34,262.147 233.674,260.147 235.5,258.5C 238.096,257.175 239.43,258.175 239.5,261.5 Z"/></g>
<g><path style="opacity:0.757" fill="#9e9cba" d="M 250.5,256.5 C 250.5,257.5 250.5,258.5 250.5,259.5C 249.833,259.833 249.167,260.167 248.5,260.5C 248.66,258.847 249.326,257.514 250.5,256.5 Z"/></g>
<g><path style="opacity:0.008" fill="#d1d1dc" d="M 366.5,257.5 C 366.5,258.833 365.833,259.5 364.5,259.5C 364.833,258.5 365.5,257.833 366.5,257.5 Z"/></g>
<g><path style="opacity:0.004" fill="#fbf9fa" d="M 59.5,258.5 C 60.2891,258.783 60.9558,259.283 61.5,260C 60.184,260.528 59.5173,260.028 59.5,258.5 Z"/></g>
<g><path style="opacity:1" fill="#594f86" d="M 88.5,254.5 C 87.3139,256.874 87.3139,259.208 88.5,261.5C 87.8333,262.5 87.1667,263.5 86.5,264.5C 84.0374,268.3 80.704,270.967 76.5,272.5C 75.325,272.719 74.325,272.386 73.5,271.5C 74.1925,270.482 74.8592,269.482 75.5,268.5C 75.8333,267.5 76.5,266.833 77.5,266.5C 79.8333,264.833 81.8333,262.833 83.5,260.5C 85.177,258.46 86.8437,256.46 88.5,254.5 Z"/></g>
<g><path style="opacity:0.176" fill="#c0bfd1" d="M 184.5,251.5 C 185.995,251.415 186.995,252.081 187.5,253.5C 186.791,256.384 185.791,259.051 184.5,261.5C 184.5,261.167 184.5,260.833 184.5,260.5C 185.588,257.444 185.588,254.444 184.5,251.5 Z"/></g>
<g><path style="opacity:0.137" fill="#d6d9e4" d="M 276.5,250.5 C 276.833,250.5 277.167,250.5 277.5,250.5C 277.833,251.5 278.5,252.167 279.5,252.5C 276.447,255.39 273.947,258.724 272,262.5C 271.329,263.252 270.496,263.586 269.5,263.5C 269.984,259.53 271.317,255.864 273.5,252.5C 274.5,251.833 275.5,251.167 276.5,250.5 Z"/></g>
<g><path style="opacity:0.01" fill="#e9e9f0" d="M 323.5,256.5 C 323.833,256.5 324.167,256.5 324.5,256.5C 324.724,258.787 325.391,260.953 326.5,263C 326.192,264.459 325.525,265.626 324.5,266.5C 324.5,265.5 324.5,264.5 324.5,263.5C 322.901,263.768 321.568,263.434 320.5,262.5C 321.471,260.517 322.471,258.517 323.5,256.5 Z"/></g>
<g><path style="opacity:0.006" fill="#f9f8f6" d="M 386.5,254.5 C 387.562,256.482 388.895,258.315 390.5,260C 389.953,260.925 389.287,261.758 388.5,262.5C 387.232,260.696 386.565,258.696 386.5,256.5C 386.5,255.833 386.5,255.167 386.5,254.5 Z"/></g>
<g><path style="opacity:0.997" fill="#443878" d="M 435.5,253.5 C 435.5,255.833 435.5,258.167 435.5,260.5C 433.926,262.102 433.259,264.102 433.5,266.5C 432.662,266.842 432.328,267.508 432.5,268.5C 431.34,267.389 430.007,266.389 428.5,265.5C 429.246,264.264 429.579,262.93 429.5,261.5C 430.167,259.833 430.833,258.167 431.5,256.5C 432.338,256.158 432.672,255.492 432.5,254.5C 433.209,253.596 434.209,253.263 435.5,253.5 Z"/></g>
<g><path style="opacity:0.353" fill="#cccbdb" d="M 72.5,259.5 C 76.1185,260.244 79.7852,260.577 83.5,260.5C 81.8333,262.833 79.8333,264.833 77.5,266.5C 77.5858,265.504 77.2524,264.671 76.5,264C 74.6183,263.802 72.9516,263.302 71.5,262.5C 73.8568,262.663 76.1902,262.497 78.5,262C 76.1484,261.76 74.1484,260.927 72.5,259.5 Z"/></g>
<g><path style="opacity:0.006" fill="#fbfbf8" d="M 256.5,262.5 C 255.475,262.103 255.308,261.437 256,260.5C 256.464,261.094 256.631,261.761 256.5,262.5 Z"/></g>
<g><path style="opacity:0.694" fill="#bbb8ce" d="M 337.5,255.5 C 337.351,256.552 337.517,257.552 338,258.5C 338.889,257.112 339.389,257.278 339.5,259C 339.333,259.5 339.167,260 339,260.5C 338.282,259.549 337.449,259.383 336.5,260C 337.582,261.33 338.249,262.83 338.5,264.5C 337.833,264.167 337.167,263.833 336.5,263.5C 335.153,260.568 335.486,257.902 337.5,255.5 Z"/></g>
<g><path style="opacity:0.995" fill="#494680" d="M 379.5,263.5 C 379.007,265.806 378.674,268.139 378.5,270.5C 377.549,271.919 377.216,273.585 377.5,275.5C 379.483,275.157 380.817,275.824 381.5,277.5C 380.551,278.152 379.385,278.486 378,278.5C 375.992,278.693 374.492,278.026 373.5,276.5C 373.652,272.738 374.319,269.072 375.5,265.5C 374.975,264.808 374.308,264.308 373.5,264C 374.252,263.329 374.586,262.496 374.5,261.5C 377.549,258.522 379.215,259.189 379.5,263.5 Z"/></g>
<g><path style="opacity:0.007" fill="#e8e7f0" d="M 400.5,259.5 C 402.557,259.957 402.557,260.957 400.5,262.5C 400.5,262.833 400.5,263.167 400.5,263.5C 399.833,264.167 399.167,264.833 398.5,265.5C 398.19,263.856 397.19,262.856 395.5,262.5C 395.5,262.167 395.5,261.833 395.5,261.5C 396.635,259.787 398.302,259.12 400.5,259.5 Z"/></g>
<g><path style="opacity:0.998" fill="#6e6395" d="M 420.5,256.5 C 422.5,256.5 423.5,257.5 423.5,259.5C 421.308,262.55 419.642,265.883 418.5,269.5C 417.549,270.919 417.216,272.585 417.5,274.5C 416.834,271.972 416.168,269.306 415.5,266.5C 413.805,267.174 412.138,267.841 410.5,268.5C 411.343,265.484 412.843,262.817 415,260.5C 416.451,258.536 418.284,257.203 420.5,256.5 Z"/></g>
<g><path style="opacity:0.769" fill="#9e97ba" d="M 134.5,251.5 C 133.34,253.203 134.007,253.869 136.5,253.5C 136.768,255.099 136.434,256.432 135.5,257.5C 135.058,256.769 134.891,255.769 135,254.5C 131.968,258.359 128.802,262.026 125.5,265.5C 124.244,263.059 124.244,260.726 125.5,258.5C 125.351,259.552 125.517,260.552 126,261.5C 127.745,258.751 129.578,256.084 131.5,253.5C 131.973,252.094 132.973,251.427 134.5,251.5 Z"/></g>
<g><path style="opacity:0.09" fill="#c2c1d7" d="M 155.5,252.5 C 156.391,253.261 157.058,254.261 157.5,255.5C 156.518,258.096 155.851,260.762 155.5,263.5C 154.833,264.167 154.167,264.833 153.5,265.5C 154.91,261.296 155.577,256.963 155.5,252.5 Z"/></g>
<g><path style="opacity:0.988" fill="#4f477d" d="M 181.5,254.5 C 181.833,254.5 182.167,254.5 182.5,254.5C 182.595,256.786 183.262,258.786 184.5,260.5C 184.5,260.833 184.5,261.167 184.5,261.5C 184.737,262.791 184.404,263.791 183.5,264.5C 181.882,267.171 181.215,270.171 181.5,273.5C 182.5,273.5 183.5,273.5 184.5,273.5C 184.5,274.167 184.5,274.833 184.5,275.5C 178.5,276.833 176.167,274.5 177.5,268.5C 177.5,266.833 177.5,265.167 177.5,263.5C 177.66,261.847 178.326,260.514 179.5,259.5C 181.104,258.713 181.771,257.38 181.5,255.5C 181.5,255.167 181.5,254.833 181.5,254.5 Z"/></g>
<g><path style="opacity:0.996" fill="#413475" d="M 320.5,253.5 C 320.5,255.5 321.5,256.5 323.5,256.5C 322.471,258.517 321.471,260.517 320.5,262.5C 318.833,263.5 317.5,264.833 316.5,266.5C 316.672,267.492 316.338,268.158 315.5,268.5C 313.989,267.498 312.322,266.831 310.5,266.5C 312.909,264.098 314.909,261.431 316.5,258.5C 317.604,256.611 318.937,254.945 320.5,253.5 Z"/></g>
<g><path style="opacity:0.959" fill="#6a5e94" d="M 408.5,255.5 C 407.947,259.495 406.614,263.161 404.5,266.5C 404.167,266.5 403.833,266.5 403.5,266.5C 403.19,264.856 402.19,263.856 400.5,263.5C 400.5,263.167 400.5,262.833 400.5,262.5C 402.557,260.957 402.557,259.957 400.5,259.5C 401.609,258.71 402.942,258.21 404.5,258C 403.584,257.722 402.918,257.222 402.5,256.5C 404.362,254.525 406.362,254.192 408.5,255.5 Z"/></g>
<g><path style="opacity:0.543" fill="#a6a4c1" d="M 90.5,260.5 C 91.5676,261.434 92.901,261.768 94.5,261.5C 94.5,262.5 94.5,263.5 94.5,264.5C 92.5,264.5 90.5,264.5 88.5,264.5C 87.8333,264.5 87.1667,264.5 86.5,264.5C 87.1667,263.5 87.8333,262.5 88.5,261.5C 89.1667,261.167 89.8333,260.833 90.5,260.5 Z"/></g>
<g><path style="opacity:0.796" fill="#928dac" d="M 195.5,259.5 C 196.383,264.103 196.717,268.77 196.5,273.5C 194.778,270.542 194.111,267.542 194.5,264.5C 192.42,266.993 190.586,269.659 189,272.5C 187.729,273.883 186.229,274.883 184.5,275.5C 184.5,274.833 184.5,274.167 184.5,273.5C 185.167,272.5 185.833,271.5 186.5,270.5C 188.372,265.957 191.372,262.29 195.5,259.5 Z"/></g>
<g><path style="opacity:0.004" fill="#fafaf7" d="M 256.5,262.5 C 257.833,263.167 257.833,263.167 256.5,262.5 Z"/></g>
<g><path style="opacity:0.8" fill="#9793b2" d="M 300.5,259.5 C 303.185,261.259 306.185,262.259 309.5,262.5C 309.611,263.117 309.944,263.617 310.5,264C 308.19,264.497 305.857,264.663 303.5,264.5C 301.488,263.986 299.488,263.82 297.5,264C 294.359,268.308 290.692,272.142 286.5,275.5C 286.672,274.508 286.338,273.842 285.5,273.5C 286.5,272.167 287.5,270.833 288.5,269.5C 290.526,266.482 292.526,263.482 294.5,260.5C 295.893,261.26 297.393,261.926 299,262.5C 299.833,262.333 300.667,262.167 301.5,262C 300.748,261.329 300.414,260.496 300.5,259.5 Z"/></g>
<g><path style="opacity:0.678" fill="#9b95b1" d="M 50.5,262.5 C 49.8333,263.833 48.8333,264.833 47.5,265.5C 47.5,263.5 48.5,262.5 50.5,262.5 Z"/></g>
<g><path style="opacity:0.663" fill="#8983a1" d="M 63.5,262.5 C 63.9528,263.458 64.6195,264.292 65.5,265C 61.9206,264.663 58.254,264.496 54.5,264.5C 54.6107,263.883 54.944,263.383 55.5,263C 53.8659,262.506 52.1992,262.34 50.5,262.5C 54.602,260.384 58.9353,260.384 63.5,262.5 Z"/></g>
<g><path style="opacity:0.58" fill="#b8b4cc" d="M 100.5,257.5 C 101.473,259.948 101.806,262.615 101.5,265.5C 102.084,268.285 101.084,269.952 98.5,270.5C 99.355,269.469 100.022,268.303 100.5,267C 99.9943,264.265 99.9943,261.431 100.5,258.5C 100.5,258.167 100.5,257.833 100.5,257.5 Z"/></g>
<g><path style="opacity:0.994" fill="#473876" d="M 152.5,265.5 C 151.908,268.127 151.575,270.794 151.5,273.5C 152.5,273.5 153.5,273.5 154.5,273.5C 154.5,274.167 154.5,274.833 154.5,275.5C 152.5,275.5 150.5,275.5 148.5,275.5C 147.053,274.866 146.387,273.699 146.5,272C 146.802,269.6 147.468,267.434 148.5,265.5C 149.222,265.082 149.722,264.416 150,263.5C 150.484,265.178 151.317,265.844 152.5,265.5 Z"/></g>
<g><path style="opacity:0.005" fill="#f8fafb" d="M 155.5,263.5 C 156.376,263.369 157.043,263.702 157.5,264.5C 157.058,265.739 156.391,266.739 155.5,267.5C 155.5,266.167 155.5,264.833 155.5,263.5 Z"/></g>
<g><path style="opacity:0.161" fill="#cecedf" d="M 170.5,261.5 C 170.167,262.833 169.833,264.167 169.5,265.5C 168.833,265.833 168.167,266.167 167.5,266.5C 167.75,264.326 168.75,262.659 170.5,261.5 Z"/></g>
<g><path style="opacity:0.004" fill="#f9fcf8" d="M 185.5,263.5 C 186.833,264.167 186.833,264.167 185.5,263.5 Z"/></g>
<g><path style="opacity:0.004" fill="#fafbfa" d="M 224.5,263.5 C 225.833,264.167 225.833,264.167 224.5,263.5 Z"/></g>
<g><path style="opacity:0.82" fill="#8c86ae" d="M 286.5,252.5 C 285.127,252.343 283.793,252.51 282.5,253C 283.056,253.383 283.389,253.883 283.5,254.5C 279.918,254.955 277.585,256.955 276.5,260.5C 274.804,262.525 273.137,264.525 271.5,266.5C 271.5,265.167 270.833,264.5 269.5,264.5C 269.5,264.167 269.5,263.833 269.5,263.5C 270.496,263.586 271.329,263.252 272,262.5C 273.947,258.724 276.447,255.39 279.5,252.5C 281.916,249.966 284.25,249.966 286.5,252.5 Z"/></g>
<g><path style="opacity:0.325" fill="#b3b2ca" d="M 320.5,262.5 C 321.568,263.434 322.901,263.768 324.5,263.5C 324.5,264.5 324.5,265.5 324.5,266.5C 321.833,266.5 319.167,266.5 316.5,266.5C 317.5,264.833 318.833,263.5 320.5,262.5 Z"/></g>
<g><path style="opacity:0.004" fill="#fbfcf9" d="M 366.5,263.5 C 367.833,264.167 367.833,264.167 366.5,263.5 Z"/></g>
<g><path style="opacity:0.802" fill="#a59fb8" d="M 433.5,277.5 C 433.611,276.883 433.944,276.383 434.5,276C 433.263,275.768 432.263,275.268 431.5,274.5C 433.989,274.759 435.656,273.759 436.5,271.5C 438.984,266.725 442.317,262.559 446.5,259C 447.635,258.251 448.635,258.417 449.5,259.5C 445.833,267.157 440.5,273.157 433.5,277.5 Z"/></g>
<g><path style="opacity:0.004" fill="#faf8fb" d="M 71.5,265.5 C 71.8966,264.475 72.5632,264.308 73.5,265C 72.9056,265.464 72.2389,265.631 71.5,265.5 Z"/></g>
<g><path style="opacity:0.725" fill="#9893bc" d="M 107.5,254.5 C 107.338,256.527 107.505,258.527 108,260.5C 110.05,263.148 111.216,266.148 111.5,269.5C 110.167,269.5 108.833,269.5 107.5,269.5C 107.702,267.05 107.369,264.717 106.5,262.5C 106.194,259.615 106.527,256.948 107.5,254.5 Z"/></g>
<g><path style="opacity:0.827" fill="#918db4" d="M 217.5,259.5 C 217.489,261.017 216.823,262.184 215.5,263C 216.416,263.278 217.082,263.778 217.5,264.5C 216.242,268.2 216.242,271.866 217.5,275.5C 216.504,275.586 215.671,275.252 215,274.5C 214.845,272.144 214.845,269.811 215,267.5C 214.617,268.056 214.117,268.389 213.5,268.5C 213.5,267.167 213.5,265.833 213.5,264.5C 214.08,262.251 215.413,260.585 217.5,259.5 Z"/></g>
<g><path style="opacity:1" fill="#524a84" d="M 282.5,257.5 C 282.833,257.5 283.167,257.5 283.5,257.5C 284.015,259.894 284.681,262.228 285.5,264.5C 285.5,265.5 285.5,266.5 285.5,267.5C 285.167,267.5 284.833,267.5 284.5,267.5C 283.596,268.209 283.263,269.209 283.5,270.5C 281.29,270.106 279.957,268.773 279.5,266.5C 280.167,263.833 280.833,261.167 281.5,258.5C 282.167,258.5 282.5,258.167 282.5,257.5 Z"/></g>
<g><path style="opacity:0.224" fill="#cfccdd" d="M 316.5,258.5 C 314.909,261.431 312.909,264.098 310.5,266.5C 310.167,266.5 309.833,266.5 309.5,266.5C 307.374,265.952 305.374,265.285 303.5,264.5C 305.857,264.663 308.19,264.497 310.5,264C 309.944,263.617 309.611,263.117 309.5,262.5C 312.303,262.039 314.637,260.705 316.5,258.5 Z"/></g>
<g><path style="opacity:0.157" fill="#d2d1e1" d="M 435.5,260.5 C 435.405,262.786 434.738,264.786 433.5,266.5C 433.259,264.102 433.926,262.102 435.5,260.5 Z"/></g>
<g><path style="opacity:0.993" fill="#453b6f" d="M 50.5,262.5 C 52.1992,262.34 53.8659,262.506 55.5,263C 54.944,263.383 54.6107,263.883 54.5,264.5C 53.5041,264.414 52.6708,264.748 52,265.5C 51.2204,267.387 51.3871,269.054 52.5,270.5C 53.5,271.167 54.5,271.833 55.5,272.5C 57.0544,273.895 56.721,274.561 54.5,274.5C 53.1508,274.154 51.8175,273.821 50.5,273.5C 49.8333,272.167 48.8333,271.167 47.5,270.5C 46.1667,268.833 46.1667,267.167 47.5,265.5C 48.8333,264.833 49.8333,263.833 50.5,262.5 Z"/></g>
<g><path style="opacity:0.459" fill="#cbc8d7" d="M 63.5,262.5 C 65.5638,262.762 66.8971,263.929 67.5,266C 66.9747,266.692 66.3081,267.192 65.5,267.5C 61.5133,265.387 57.5133,265.053 53.5,266.5C 52.5655,267.568 52.2322,268.901 52.5,270.5C 51.3871,269.054 51.2204,267.387 52,265.5C 52.6708,264.748 53.5041,264.414 54.5,264.5C 58.254,264.496 61.9206,264.663 65.5,265C 64.6195,264.292 63.9528,263.458 63.5,262.5 Z"/></g>
<g><path style="opacity:0.004" fill="#faf9fd" d="M 71.5,265.5 C 70.8333,266.167 70.8333,266.167 71.5,265.5 Z"/></g>
<g><path style="opacity:0.995" fill="#5b5089" d="M 126.5,253.5 C 125.699,255.042 125.366,256.708 125.5,258.5C 124.244,260.726 124.244,263.059 125.5,265.5C 124.674,268.485 123.341,271.151 121.5,273.5C 121.423,272.25 120.756,271.417 119.5,271C 123.361,269.665 123.361,268.499 119.5,267.5C 118.817,267.863 118.15,268.196 117.5,268.5C 118.101,265.032 119.101,261.699 120.5,258.5C 121.931,257.22 122.598,255.553 122.5,253.5C 123.961,252.314 125.295,252.314 126.5,253.5 Z"/></g>
<g><path style="opacity:0.991" fill="#443d79" d="M 166.5,267.5 C 166.054,270.01 166.72,272.01 168.5,273.5C 169.11,274.391 169.443,275.391 169.5,276.5C 167.883,275.962 166.216,275.629 164.5,275.5C 163.094,275.027 162.427,274.027 162.5,272.5C 162.5,271.5 162.5,270.5 162.5,269.5C 161.448,269.649 160.448,269.483 159.5,269C 160.381,268.292 161.047,267.458 161.5,266.5C 162.822,266.67 163.989,266.337 165,265.5C 165.278,266.416 165.778,267.082 166.5,267.5 Z"/></g>
<g><path style="opacity:0.596" fill="#bcbad0" d="M 330.5,259.5 C 330.833,259.5 331.167,259.5 331.5,259.5C 331.353,264.214 331.686,268.881 332.5,273.5C 329.251,269.327 328.584,264.66 330.5,259.5 Z"/></g>
<g><path style="opacity:0.986" fill="#5a4d85" d="M 400.5,263.5 C 402.19,263.856 403.19,264.856 403.5,266.5C 401.926,268.102 401.259,270.102 401.5,272.5C 401.5,272.833 401.5,273.167 401.5,273.5C 401.5,273.833 401.5,274.167 401.5,274.5C 402.091,275.151 402.757,275.818 403.5,276.5C 401.955,277.452 400.288,277.785 398.5,277.5C 396.561,276.986 395.561,275.653 395.5,273.5C 396.134,270.584 397.134,267.918 398.5,265.5C 399.167,264.833 399.833,264.167 400.5,263.5 Z"/></g>
<g><path style="opacity:0.004" fill="#fcfdfa" d="M 405.5,265.5 C 406.833,266.167 406.833,266.167 405.5,265.5 Z"/></g>
<g><path style="opacity:0.007" fill="#fafafa" d="M 53.5,266.5 C 54.8333,266.5 55.5,267.167 55.5,268.5C 53.7973,269.66 53.1307,268.993 53.5,266.5 Z"/></g>
<g><path style="opacity:0.004" fill="#fafafc" d="M 70.5,266.5 C 70.44,267.043 70.1067,267.376 69.5,267.5C 68.4173,266.635 68.2506,265.635 69,264.5C 69.2784,265.416 69.7784,266.082 70.5,266.5 Z"/></g>
<g><path style="opacity:0.037" fill="#e7e4f1" d="M 106.5,262.5 C 107.369,264.717 107.702,267.05 107.5,269.5C 106.5,269.5 105.5,269.5 104.5,269.5C 104.5,267.5 104.5,265.5 104.5,263.5C 104.842,262.662 105.508,262.328 106.5,262.5 Z"/></g>
<g><path style="opacity:0.675" fill="#9392b3" d="M 201.5,261.5 C 200.325,265.183 200.325,268.85 201.5,272.5C 198.935,268.865 198.935,265.199 201.5,261.5 Z"/></g>
<g><path style="opacity:0.005" fill="#fdfdfc" d="M 202.5,266.5 C 203.613,267.946 203.78,269.613 203,271.5C 202.506,269.866 202.34,268.199 202.5,266.5 Z"/></g>
<g><path style="opacity:0.995" fill="#47427f" d="M 222.5,263.5 C 220.723,266.505 219.723,269.838 219.5,273.5C 221.199,273.34 222.866,273.506 224.5,274C 223.944,274.383 223.611,274.883 223.5,275.5C 221.5,276.833 219.5,276.833 217.5,275.5C 216.242,271.866 216.242,268.2 217.5,264.5C 218.289,264.217 218.956,263.717 219.5,263C 218.328,261.132 218.495,259.298 220,257.5C 220.667,258.833 221.333,258.833 222,257.5C 222.495,259.473 222.662,261.473 222.5,263.5 Z"/></g>
<g><path style="opacity:0.992" fill="#807ba2" d="M 248.5,260.5 C 247.671,265.453 247.337,270.453 247.5,275.5C 249.167,275.5 250.833,275.5 252.5,275.5C 252.833,275.5 253.167,275.5 253.5,275.5C 251.548,277.742 249.215,278.076 246.5,276.5C 246.5,275.5 246.5,274.5 246.5,273.5C 246.853,268.522 245.853,268.188 243.5,272.5C 243.167,273.5 242.5,274.167 241.5,274.5C 241.5,273.5 241.5,272.5 241.5,271.5C 244.086,267.994 246.419,264.328 248.5,260.5 Z"/></g>
<g><path style="opacity:0.998" fill="#524380" d="M 309.5,266.5 C 309.833,266.5 310.167,266.5 310.5,266.5C 312.322,266.831 313.989,267.498 315.5,268.5C 313.984,271.533 311.984,274.2 309.5,276.5C 309.306,274.088 307.973,273.088 305.5,273.5C 305.5,273.167 305.5,272.833 305.5,272.5C 307.226,270.772 308.559,268.772 309.5,266.5 Z"/></g>
<g><path style="opacity:0.997" fill="#392e6f" d="M 361.5,264.5 C 362.5,264.833 363.167,265.5 363.5,266.5C 363.5,269.5 363.5,272.5 363.5,275.5C 362.5,275.5 361.5,275.5 360.5,275.5C 360.784,273.585 360.451,271.919 359.5,270.5C 359.573,268.973 358.906,267.973 357.5,267.5C 356.833,267.5 356.5,267.167 356.5,266.5C 355.537,265.637 355.537,264.97 356.5,264.5C 358.128,265.535 359.795,265.535 361.5,264.5 Z"/></g>
<g><path style="opacity:0.004" fill="#fbfbfa" d="M 366.5,266.5 C 367.833,267.167 367.833,267.167 366.5,266.5 Z"/></g>
<g><path style="opacity:0.004" fill="#f9faf9" d="M 384.5,266.5 C 385.833,267.167 385.833,267.167 384.5,266.5 Z"/></g>
<g><path style="opacity:0.99" fill="#514880" d="M 417.5,274.5 C 419.219,275.022 420.552,276.022 421.5,277.5C 417.018,279.581 414.018,278.248 412.5,273.5C 412.344,269.865 411.178,269.532 409,272.5C 408.536,271.906 408.369,271.239 408.5,270.5C 408.833,269.5 409.5,268.833 410.5,268.5C 412.138,267.841 413.805,267.174 415.5,266.5C 416.168,269.306 416.834,271.972 417.5,274.5 Z"/></g>
<g><path style="opacity:0.004" fill="#f9f9f7" d="M 436.5,265.5 C 437.525,265.897 437.692,266.563 437,267.5C 436.536,266.906 436.369,266.239 436.5,265.5 Z"/></g>
<g><path style="opacity:0.987" fill="#5b4e86" d="M 134.5,261.5 C 134.913,263.89 135.579,266.223 136.5,268.5C 137.169,266.369 137.835,264.369 138.5,262.5C 138.629,264.216 138.962,265.883 139.5,267.5C 138.674,270.485 137.341,273.151 135.5,275.5C 134.167,275.5 132.833,275.5 131.5,275.5C 131.5,274.5 131.5,273.5 131.5,272.5C 131.926,268.573 132.926,264.907 134.5,261.5 Z"/></g>
<g><path style="opacity:0.011" fill="#eaebf0" d="M 169.5,265.5 C 170.833,266.833 172.167,268.167 173.5,269.5C 173.672,270.492 173.338,271.158 172.5,271.5C 171.713,273.104 170.38,273.771 168.5,273.5C 166.72,272.01 166.054,270.01 166.5,267.5C 166.5,266.833 166.833,266.5 167.5,266.5C 167.824,272.728 168.491,272.395 169.5,265.5 Z"/></g>
<g><path style="opacity:0.859" fill="#7c769c" d="M 177.5,263.5 C 177.5,265.167 177.5,266.833 177.5,268.5C 176.5,268.833 175.833,269.5 175.5,270.5C 175.443,271.609 175.11,272.609 174.5,273.5C 173.833,273.5 173.5,273.833 173.5,274.5C 172.395,275.6 171.062,276.267 169.5,276.5C 169.443,275.391 169.11,274.391 168.5,273.5C 170.38,273.771 171.713,273.104 172.5,271.5C 173.338,271.158 173.672,270.492 173.5,269.5C 174.475,267.205 175.808,265.205 177.5,263.5 Z"/></g>
<g><path style="opacity:0.013" fill="#e8e9ee" d="M 183.5,264.5 C 184.772,265.732 185.772,267.732 186.5,270.5C 185.833,271.5 185.167,272.5 184.5,273.5C 183.5,273.5 182.5,273.5 181.5,273.5C 181.215,270.171 181.882,267.171 183.5,264.5 Z"/></g>
<g><path style="opacity:0.006" fill="#f9fafa" d="M 237.5,271.5 C 237.5,270.5 237.5,269.5 237.5,268.5C 238.222,268.082 238.722,267.416 239,266.5C 239.877,268.674 239.377,270.341 237.5,271.5 Z"/></g>
<g><path style="opacity:0.012" fill="#e5e6ee" d="M 252.5,264.5 C 252.329,267.797 252.995,268.131 254.5,265.5C 254.833,265.833 255.167,266.167 255.5,266.5C 254.295,267.995 254.295,269.328 255.5,270.5C 254.738,272.262 253.404,273.262 251.5,273.5C 250.185,270.373 250.518,267.373 252.5,264.5 Z"/></g>
<g><path style="opacity:0.004" fill="#fafcfa" d="M 343.5,267.5 C 344.525,267.897 344.692,268.563 344,269.5C 343.536,268.906 343.369,268.239 343.5,267.5 Z"/></g>
<g><path style="opacity:0.692" fill="#aaa4c0" d="M 394.5,256.5 C 394.216,258.415 394.549,260.081 395.5,261.5C 395.5,261.833 395.5,262.167 395.5,262.5C 393.488,265.205 391.488,267.872 389.5,270.5C 389.631,269.624 389.298,268.957 388.5,268.5C 387.482,269.193 386.482,269.859 385.5,270.5C 388.515,265.792 391.515,261.125 394.5,256.5 Z"/></g>
<g><path style="opacity:0.01" fill="#f1f0f3" d="M 403.5,266.5 C 403.833,267.833 404.167,267.833 404.5,266.5C 404.833,266.5 405.167,266.5 405.5,266.5C 406.038,268.117 406.371,269.784 406.5,271.5C 405.167,271.833 405.167,272.167 406.5,272.5C 405.365,274.213 403.698,274.88 401.5,274.5C 401.5,274.167 401.5,273.833 401.5,273.5C 402.833,273.167 402.833,272.833 401.5,272.5C 401.259,270.102 401.926,268.102 403.5,266.5 Z"/></g>
<g><path style="opacity:0.004" fill="#f9faf9" d="M 55.5,268.5 C 56.8333,269.167 56.8333,269.167 55.5,268.5 Z"/></g>
<g><path style="opacity:0.009" fill="#eceef2" d="M 284.5,267.5 C 284.833,272.833 285.167,272.833 285.5,267.5C 286.5,268.167 287.5,268.833 288.5,269.5C 287.5,270.833 286.5,272.167 285.5,273.5C 283.952,273.179 283.285,272.179 283.5,270.5C 283.263,269.209 283.596,268.209 284.5,267.5 Z"/></g>
<g><path style="opacity:0.008" fill="#f8f9fb" d="M 352.5,266.5 C 354.179,268 355.512,269.833 356.5,272C 355.207,272.49 353.873,272.657 352.5,272.5C 352.5,270.5 352.5,268.5 352.5,266.5 Z"/></g>
<g><path style="opacity:0.486" fill="#c1bbd2" d="M 357.5,267.5 C 358.906,267.973 359.573,268.973 359.5,270.5C 358.094,270.027 357.427,269.027 357.5,267.5 Z"/></g>
<g><path style="opacity:0.255" fill="#c5c9db" d="M 379.5,263.5 C 379.833,263.5 380.167,263.5 380.5,263.5C 380.326,265.861 379.993,268.194 379.5,270.5C 379.167,270.5 378.833,270.5 378.5,270.5C 378.674,268.139 379.007,265.806 379.5,263.5 Z"/></g>
<g><path style="opacity:0.58" fill="#adaac2" d="M 222.5,263.5 C 222.452,266.313 221.785,268.979 220.5,271.5C 220.833,271.833 221.167,272.167 221.5,272.5C 225.141,270.19 228.474,267.523 231.5,264.5C 231.141,266.371 230.141,267.871 228.5,269C 229.449,269.617 230.282,269.451 231,268.5C 231.464,269.094 231.631,269.761 231.5,270.5C 228.833,272.167 226.167,273.833 223.5,275.5C 223.611,274.883 223.944,274.383 224.5,274C 222.866,273.506 221.199,273.34 219.5,273.5C 219.723,269.838 220.723,266.505 222.5,263.5 Z"/></g>
<g><path style="opacity:0.005" fill="#fafafa" d="M 224.5,264.5 C 225.562,265.575 225.562,266.575 224.5,267.5C 223.224,266.386 223.224,265.386 224.5,264.5 Z"/></g>
<g><path style="opacity:0.986" fill="#363370" d="M 250.5,259.5 C 251.968,260.779 252.635,262.446 252.5,264.5C 250.518,267.373 250.185,270.373 251.5,273.5C 251.833,274.167 252.167,274.833 252.5,275.5C 250.833,275.5 249.167,275.5 247.5,275.5C 247.337,270.453 247.671,265.453 248.5,260.5C 249.167,260.167 249.833,259.833 250.5,259.5 Z"/></g>
<g><path style="opacity:1" fill="#625791" d="M 269.5,264.5 C 270.833,264.5 271.5,265.167 271.5,266.5C 270.231,270.054 268.231,273.054 265.5,275.5C 265.586,274.504 265.252,273.671 264.5,273C 266.01,271.649 267.01,269.982 267.5,268C 266.119,265.854 266.786,264.687 269.5,264.5 Z"/></g>
<g><path style="opacity:0.997" fill="#5a5188" d="M 279.5,266.5 C 279.957,268.773 281.29,270.106 283.5,270.5C 283.285,272.179 283.952,273.179 285.5,273.5C 286.338,273.842 286.672,274.508 286.5,275.5C 286.167,275.5 285.833,275.5 285.5,275.5C 283.5,275.5 281.5,275.5 279.5,275.5C 278.053,274.866 277.387,273.699 277.5,272C 277.701,269.889 278.367,268.055 279.5,266.5 Z"/></g>
<g><path style="opacity:0.035" fill="#e0e0ef" d="M 334.5,264.5 C 336.03,265.211 337.363,266.211 338.5,267.5C 338.5,269.833 338.5,272.167 338.5,274.5C 337.178,274.67 336.011,274.337 335,273.5C 334.502,270.518 334.335,267.518 334.5,264.5 Z"/></g>
<g><path style="opacity:0.871" fill="#918cac" d="M 374.5,261.5 C 374.586,262.496 374.252,263.329 373.5,264C 374.308,264.308 374.975,264.808 375.5,265.5C 374.319,269.072 373.652,272.738 373.5,276.5C 372.686,274.369 372.186,272.036 372,269.5C 370.812,270.563 370.312,271.897 370.5,273.5C 369.5,273.5 368.5,273.5 367.5,273.5C 365.302,273.591 364.969,272.925 366.5,271.5C 368.794,267.873 371.46,264.539 374.5,261.5 Z"/></g>
<g><path style="opacity:0.018" fill="#e8e9f0" d="M 433.5,266.5 C 434.36,268.288 435.36,269.955 436.5,271.5C 435.656,273.759 433.989,274.759 431.5,274.5C 431.325,272.379 431.659,270.379 432.5,268.5C 432.328,267.508 432.662,266.842 433.5,266.5 Z"/></g>
<g><path style="opacity:0.871" fill="#7470a0" d="M 104.5,269.5 C 105.5,269.5 106.5,269.5 107.5,269.5C 108.833,269.5 110.167,269.5 111.5,269.5C 111.5,269.833 111.5,270.167 111.5,270.5C 111.5,271.833 111.5,273.167 111.5,274.5C 111.672,275.492 111.338,276.158 110.5,276.5C 109.167,276.5 107.833,276.5 106.5,276.5C 105.5,276.167 104.833,275.5 104.5,274.5C 104.167,273.833 103.833,273.167 103.5,272.5C 104.404,271.791 104.737,270.791 104.5,269.5 Z"/></g>
<g><path style="opacity:0.034" fill="#dde0ea" d="M 152.5,265.5 C 152.833,265.5 153.167,265.5 153.5,265.5C 153.131,267.993 153.797,268.66 155.5,267.5C 155.833,268.5 156.5,269.167 157.5,269.5C 156.5,270.833 155.5,272.167 154.5,273.5C 153.5,273.5 152.5,273.5 151.5,273.5C 151.575,270.794 151.908,268.127 152.5,265.5 Z"/></g>
<g><path style="opacity:1" fill="#80779d" d="M 161.5,265.5 C 161.5,265.833 161.5,266.167 161.5,266.5C 161.047,267.458 160.381,268.292 159.5,269C 160.448,269.483 161.448,269.649 162.5,269.5C 162.5,270.5 162.5,271.5 162.5,272.5C 161.778,272.082 161.278,271.416 161,270.5C 159.223,272.79 157.056,274.457 154.5,275.5C 154.5,274.833 154.5,274.167 154.5,273.5C 155.5,272.167 156.5,270.833 157.5,269.5C 158.5,267.833 159.833,266.5 161.5,265.5 Z"/></g>
<g><path style="opacity:0.851" fill="#8f88ad" d="M 213.5,264.5 C 213.5,265.833 213.5,267.167 213.5,268.5C 212.167,271.833 209.833,274.167 206.5,275.5C 206.611,274.883 206.944,274.383 207.5,274C 205.292,273.809 203.292,273.309 201.5,272.5C 203.655,272.628 205.655,272.128 207.5,271C 209.4,268.665 211.4,266.498 213.5,264.5 Z"/></g>
<g><path style="opacity:0.022" fill="#ebeaf2" d="M 246.5,273.5 C 245.609,272.89 244.609,272.557 243.5,272.5C 245.853,268.188 246.853,268.522 246.5,273.5 Z"/></g>
<g><path style="opacity:0.018" fill="#e6e6ee" d="M 264.5,265.5 C 263.454,268.728 262.788,272.061 262.5,275.5C 263.5,275.5 264.5,275.5 265.5,275.5C 264.432,276.434 263.099,276.768 261.5,276.5C 261.719,275.325 261.386,274.325 260.5,273.5C 259.135,274.807 257.802,274.807 256.5,273.5C 258.783,270.044 261.283,266.71 264,263.5C 264.464,264.094 264.631,264.761 264.5,265.5 Z"/></g>
<g><path style="opacity:0.018" fill="#f3f5f7" d="M 384.5,271.5 C 383.599,273.727 381.933,274.727 379.5,274.5C 379.5,273.167 379.5,271.833 379.5,270.5C 380.793,269.158 381.626,267.491 382,265.5C 382.566,267.723 383.4,269.723 384.5,271.5 Z"/></g>
<g><path style="opacity:0.49" fill="#b9b6ca" d="M 47.5,270.5 C 48.8333,271.167 49.8333,272.167 50.5,273.5C 48.5,273.5 47.5,272.5 47.5,270.5 Z"/></g>
<g><path style="opacity:0.992" fill="#5f5289" d="M 121.5,273.5 C 121.586,274.496 121.252,275.329 120.5,276C 118.288,276.789 116.288,276.622 114.5,275.5C 115.167,274.167 115.833,272.833 116.5,271.5C 116.263,270.209 116.596,269.209 117.5,268.5C 118.15,268.196 118.817,267.863 119.5,267.5C 123.361,268.499 123.361,269.665 119.5,271C 120.756,271.417 121.423,272.25 121.5,273.5 Z"/></g>
<g><path style="opacity:0.976" fill="#777097" d="M 264.5,259.5 C 264.465,261.491 264.465,263.491 264.5,265.5C 264.631,264.761 264.464,264.094 264,263.5C 261.283,266.71 258.783,270.044 256.5,273.5C 255.71,274.401 254.71,275.068 253.5,275.5C 253.167,275.5 252.833,275.5 252.5,275.5C 252.167,274.833 251.833,274.167 251.5,273.5C 253.404,273.262 254.738,272.262 255.5,270.5C 258.152,266.518 261.152,262.851 264.5,259.5 Z"/></g>
<g><path style="opacity:0.804" fill="#918bae" d="M 389.5,270.5 C 387.431,273.573 384.764,275.906 381.5,277.5C 380.817,275.824 379.483,275.157 377.5,275.5C 377.216,273.585 377.549,271.919 378.5,270.5C 378.232,272.099 378.566,273.432 379.5,274.5C 381.933,274.727 383.599,273.727 384.5,271.5C 384.5,270.833 384.833,270.5 385.5,270.5C 386.482,269.859 387.482,269.193 388.5,268.5C 389.298,268.957 389.631,269.624 389.5,270.5 Z"/></g>
<g><path style="opacity:0.004" fill="#f6f6f9" d="M 418.5,269.5 C 420.05,270.441 421.716,271.107 423.5,271.5C 422.833,272.833 421.833,273.833 420.5,274.5C 419.032,273.221 418.365,271.554 418.5,269.5 Z"/></g>
<g><path style="opacity:0.991" fill="#504884" d="M 429.5,261.5 C 429.579,262.93 429.246,264.264 428.5,265.5C 430.007,266.389 431.34,267.389 432.5,268.5C 431.659,270.379 431.325,272.379 431.5,274.5C 432.263,275.268 433.263,275.768 434.5,276C 433.944,276.383 433.611,276.883 433.5,277.5C 432.903,278.139 432.07,278.472 431,278.5C 429.301,278.613 428.134,277.947 427.5,276.5C 427.5,274.5 427.5,272.5 427.5,270.5C 426.929,269.027 426.929,267.36 427.5,265.5C 427.66,263.847 428.326,262.514 429.5,261.5 Z"/></g>
<g><path style="opacity:0.494" fill="#aeadc2" d="M 177.5,268.5 C 176.167,274.5 178.5,276.833 184.5,275.5C 182.33,277.576 179.997,277.743 177.5,276C 176.891,274.052 176.224,272.218 175.5,270.5C 175.833,269.5 176.5,268.833 177.5,268.5 Z"/></g>
<g><path style="opacity:1" fill="#76709a" d="M 427.5,265.5 C 426.929,267.36 426.929,269.027 427.5,270.5C 425.738,271.262 424.738,272.596 424.5,274.5C 423.833,275.833 422.833,276.833 421.5,277.5C 420.552,276.022 419.219,275.022 417.5,274.5C 418.5,274.5 419.5,274.5 420.5,274.5C 421.833,273.833 422.833,272.833 423.5,271.5C 424.846,269.463 426.18,267.463 427.5,265.5 Z"/></g>
<g><path style="opacity:0.235" fill="#d0d1e0" d="M 427.5,270.5 C 427.5,272.5 427.5,274.5 427.5,276.5C 426.732,275.737 426.232,274.737 426,273.5C 425.617,274.056 425.117,274.389 424.5,274.5C 424.738,272.596 425.738,271.262 427.5,270.5 Z"/></g>
<g><path style="opacity:0.982" fill="#595484" d="M 104.5,263.5 C 104.5,265.5 104.5,267.5 104.5,269.5C 104.737,270.791 104.404,271.791 103.5,272.5C 100.168,272.484 98.8342,273.817 99.5,276.5C 99.6495,277.552 99.4828,278.552 99,279.5C 98.2917,278.619 97.4584,277.953 96.5,277.5C 96.1658,274.812 96.8325,272.479 98.5,270.5C 101.084,269.952 102.084,268.285 101.5,265.5C 102.778,265.218 103.778,264.551 104.5,263.5 Z"/></g>
<g><path style="opacity:0.007" fill="#e5e5ed" d="M 103.5,272.5 C 103.833,273.167 104.167,273.833 104.5,274.5C 102.621,274.393 102.288,274.893 103.5,276C 102.956,276.717 102.289,277.217 101.5,277.5C 101.289,275.576 100.623,275.243 99.5,276.5C 98.8342,273.817 100.168,272.484 103.5,272.5 Z"/></g>
<g><path style="opacity:0.149" fill="#cfcddc" d="M 111.5,270.5 C 112.935,272.401 114.602,272.734 116.5,271.5C 115.833,272.833 115.167,274.167 114.5,275.5C 113.609,274.89 112.609,274.557 111.5,274.5C 111.5,273.167 111.5,271.833 111.5,270.5 Z"/></g>
<g><path style="opacity:0.953" fill="#8d88ac" d="M 237.5,265.5 C 237.5,266.5 237.5,267.5 237.5,268.5C 236.167,269.5 236.167,270.5 237.5,271.5C 238.705,272.686 240.039,272.686 241.5,271.5C 241.5,272.5 241.5,273.5 241.5,274.5C 239.391,277.711 236.724,278.211 233.5,276C 232.418,274.67 231.751,273.17 231.5,271.5C 232.837,272.315 233.837,273.482 234.5,275C 235.635,275.749 236.635,275.583 237.5,274.5C 234.86,271.423 234.86,268.423 237.5,265.5 Z"/></g>
<g><path style="opacity:1" fill="#4f437f" d="M 305.5,273.5 C 307.973,273.088 309.306,274.088 309.5,276.5C 308.167,278.5 306.5,280.167 304.5,281.5C 304.426,279.589 303.426,278.422 301.5,278C 303.041,276.629 304.375,275.129 305.5,273.5 Z"/></g>
<g><path style="opacity:0.988" fill="#928aa9" d="M 408.5,270.5 C 408.369,271.239 408.536,271.906 409,272.5C 411.178,269.532 412.344,269.865 412.5,273.5C 411.883,273.389 411.383,273.056 411,272.5C 407.684,277.125 403.517,278.792 398.5,277.5C 400.288,277.785 401.955,277.452 403.5,276.5C 402.757,275.818 402.091,275.151 401.5,274.5C 403.698,274.88 405.365,274.213 406.5,272.5C 406.5,272.167 406.5,271.833 406.5,271.5C 407.167,271.167 407.833,270.833 408.5,270.5 Z"/></g>
<g><path style="opacity:0.837" fill="#8e89a7" d="M 75.5,268.5 C 74.8592,269.482 74.1925,270.482 73.5,271.5C 74.325,272.386 75.325,272.719 76.5,272.5C 74.9674,274.245 72.9674,275.245 70.5,275.5C 65.1667,275.5 59.8333,275.5 54.5,275.5C 52.6203,275.771 51.287,275.104 50.5,273.5C 51.8175,273.821 53.1508,274.154 54.5,274.5C 56.721,274.561 57.0544,273.895 55.5,272.5C 62.7328,273.443 69.3994,272.11 75.5,268.5 Z"/></g>
<g><path style="opacity:0.827" fill="#a49db5" d="M 98.5,270.5 C 96.8325,272.479 96.1658,274.812 96.5,277.5C 93.8792,274.377 94.5458,272.043 98.5,270.5 Z"/></g>
<g><path style="opacity:0.004" fill="#f8f9f8" d="M 174.5,273.5 C 175.043,273.56 175.376,273.893 175.5,274.5C 174.743,275.773 174.077,275.773 173.5,274.5C 174.167,274.5 174.5,274.167 174.5,273.5 Z"/></g>
<g><path style="opacity:0.58" fill="#bab6cd" d="M 332.5,273.5 C 334.167,274.5 335.5,275.833 336.5,277.5C 334.167,277.167 332.833,275.833 332.5,273.5 Z"/></g>
<g><path style="opacity:0.773" fill="#918ead" d="M 334.5,264.5 C 334.842,263.662 335.508,263.328 336.5,263.5C 337.167,263.833 337.833,264.167 338.5,264.5C 340.241,267.482 341.241,270.815 341.5,274.5C 341.695,276.725 340.861,278.391 339,279.5C 337.699,279.361 336.866,278.695 336.5,277.5C 337.5,277.5 338.5,277.5 339.5,277.5C 339.813,273.958 339.479,270.625 338.5,267.5C 337.363,266.211 336.03,265.211 334.5,264.5 Z"/></g>
<g><path style="opacity:0.38" fill="#c3c0ce" d="M 54.5,275.5 C 59.8333,275.5 65.1667,275.5 70.5,275.5C 69.1225,276.234 67.6225,276.901 66,277.5C 62.0648,276.862 58.2315,276.196 54.5,275.5 Z"/></g>
<g><path style="opacity:0.216" fill="#c9c6d8" d="M 131.5,272.5 C 131.5,273.5 131.5,274.5 131.5,275.5C 132.833,275.5 134.167,275.5 135.5,275.5C 133.483,276.874 131.483,276.707 129.5,275C 130.066,274.005 130.733,273.172 131.5,272.5 Z"/></g>
<g><path style="opacity:0.635" fill="#aca7c0" d="M 148.5,275.5 C 150.5,275.5 152.5,275.5 154.5,275.5C 152.5,278.167 150.5,278.167 148.5,275.5 Z"/></g>
<g><path style="opacity:0.573" fill="#aba8c2" d="M 279.5,275.5 C 281.5,275.5 283.5,275.5 285.5,275.5C 283.642,277.731 281.642,277.731 279.5,275.5 Z"/></g>
<g><path style="opacity:0.902" fill="#9b94b2" d="M 363.5,266.5 C 364.313,268.261 365.313,269.928 366.5,271.5C 364.969,272.925 365.302,273.591 367.5,273.5C 364.755,276.038 361.422,277.538 357.5,278C 354.5,278.667 351.5,278.667 348.5,278C 347.584,277.722 346.918,277.222 346.5,276.5C 348.819,277.167 351.153,277.334 353.5,277C 350.965,276.072 349.965,274.238 350.5,271.5C 349.167,271.5 347.833,271.5 346.5,271.5C 347.919,270.549 349.585,270.216 351.5,270.5C 351.606,275.631 353.939,276.797 358.5,274C 359.337,272.989 359.67,271.822 359.5,270.5C 360.451,271.919 360.784,273.585 360.5,275.5C 361.5,275.5 362.5,275.5 363.5,275.5C 363.5,272.5 363.5,269.5 363.5,266.5 Z"/></g>
<g><path style="opacity:0.08" fill="#d0d0de" d="M 164.5,275.5 C 166.216,275.629 167.883,275.962 169.5,276.5C 167.662,277.678 165.995,277.345 164.5,275.5 Z"/></g>
<g><path style="opacity:0.184" fill="#dad9e4" d="M 206.5,275.5 C 204.68,277.461 202.68,277.794 200.5,276.5C 202.5,276.167 204.5,275.833 206.5,275.5 Z"/></g>
<g><path style="opacity:0.994" fill="#45396c" d="M 346.5,271.5 C 347.833,271.5 349.167,271.5 350.5,271.5C 349.965,274.238 350.965,276.072 353.5,277C 351.153,277.334 348.819,277.167 346.5,276.5C 345.167,274.833 345.167,273.167 346.5,271.5 Z"/></g>
<g><path style="opacity:0.01" fill="#f4f4f6" d="M 106.5,276.5 C 107.833,276.5 109.167,276.5 110.5,276.5C 113.626,284.613 111.96,285.613 105.5,279.5C 106.729,278.719 108.062,278.219 109.5,278C 108.263,277.768 107.263,277.268 106.5,276.5 Z"/></g>
<g><path style="opacity:1" fill="#63568d" d="M 305.5,272.5 C 305.5,272.833 305.5,273.167 305.5,273.5C 304.375,275.129 303.041,276.629 301.5,278C 303.426,278.422 304.426,279.589 304.5,281.5C 301.81,284.185 298.81,286.518 295.5,288.5C 295.279,287.265 294.612,286.265 293.5,285.5C 293.863,284.817 294.196,284.15 294.5,283.5C 297.833,279.5 301.5,275.833 305.5,272.5 Z"/></g>
<g><path style="opacity:0.963" fill="#8d86a9" d="M 99.5,276.5 C 100.167,276.833 100.833,277.167 101.5,277.5C 104.934,281.269 108.934,284.269 113.5,286.5C 111.181,285.833 108.847,285.666 106.5,286C 107.056,286.383 107.389,286.883 107.5,287.5C 102.559,285.558 98.8922,282.225 96.5,277.5C 97.4584,277.953 98.2917,278.619 99,279.5C 99.4828,278.552 99.6495,277.552 99.5,276.5 Z"/></g>
<g><path style="opacity:1" fill="#6c6291" d="M 294.5,283.5 C 294.196,284.15 293.863,284.817 293.5,285.5C 294.612,286.265 295.279,287.265 295.5,288.5C 289.846,292.792 283.513,295.792 276.5,297.5C 275.325,297.719 274.325,297.386 273.5,296.5C 274.34,295.265 275.34,294.265 276.5,293.5C 282.24,289.774 288.24,286.44 294.5,283.5 Z"/></g>
<g><path style="opacity:0.997" fill="#6b6591" d="M 113.5,286.5 C 119.141,287.932 124.475,289.932 129.5,292.5C 126.372,291.382 123.372,291.549 120.5,293C 122.066,293.608 123.4,294.442 124.5,295.5C 118.22,293.971 112.553,291.304 107.5,287.5C 107.389,286.883 107.056,286.383 106.5,286C 108.847,285.666 111.181,285.833 113.5,286.5 Z"/></g>
<g><path style="opacity:0.999" fill="#4e477e" d="M 129.5,292.5 C 131.786,292.595 133.786,293.262 135.5,294.5C 136.93,295.537 138.597,296.204 140.5,296.5C 140.414,297.496 140.748,298.329 141.5,299C 141,299.167 140.5,299.333 140,299.5C 139.333,298.833 138.667,298.167 138,297.5C 136.56,298.148 135.06,298.481 133.5,298.5C 133.167,298.5 132.833,298.5 132.5,298.5C 131.22,297.069 129.553,296.402 127.5,296.5C 126.209,296.737 125.209,296.404 124.5,295.5C 123.4,294.442 122.066,293.608 120.5,293C 123.372,291.549 126.372,291.382 129.5,292.5 Z"/></g>
<g><path style="opacity:0.286" fill="#ccc8da" d="M 135.5,294.5 C 138.428,294.565 141.095,295.232 143.5,296.5C 142.5,296.5 141.5,296.5 140.5,296.5C 138.597,296.204 136.93,295.537 135.5,294.5 Z"/></g>
<g><path style="opacity:0.349" fill="#b2afc8" d="M 127.5,296.5 C 129.553,296.402 131.22,297.069 132.5,298.5C 130.447,298.598 128.78,297.931 127.5,296.5 Z"/></g>
<g><path style="opacity:1" fill="#534e81" d="M 140.5,296.5 C 141.5,296.5 142.5,296.5 143.5,296.5C 145.099,296.232 146.432,296.566 147.5,297.5C 151.542,299.237 155.876,300.237 160.5,300.5C 158.365,302.369 155.698,303.036 152.5,302.5C 149.794,302.425 147.127,302.092 144.5,301.5C 140.521,301.258 136.854,300.258 133.5,298.5C 135.06,298.481 136.56,298.148 138,297.5C 138.667,298.167 139.333,298.833 140,299.5C 140.5,299.333 141,299.167 141.5,299C 140.748,298.329 140.414,297.496 140.5,296.5 Z"/></g>
<g><path style="opacity:0.553" fill="#bebcd2" d="M 147.5,297.5 C 157.665,298.972 167.665,300.639 177.5,302.5C 177.167,302.5 176.833,302.5 176.5,302.5C 171.07,302.483 165.737,301.817 160.5,300.5C 155.876,300.237 151.542,299.237 147.5,297.5 Z"/></g>
<g><path style="opacity:1" fill="#8b84a7" d="M 276.5,293.5 C 275.34,294.265 274.34,295.265 273.5,296.5C 274.325,297.386 275.325,297.719 276.5,297.5C 273.916,299.472 270.916,300.472 267.5,300.5C 267.167,300.5 266.833,300.5 266.5,300.5C 265.486,299.326 264.153,298.66 262.5,298.5C 266.952,296.459 271.618,294.792 276.5,293.5 Z"/></g>
<g><path style="opacity:0.993" fill="#7d779c" d="M 262.5,298.5 C 264.153,298.66 265.486,299.326 266.5,300.5C 259.967,302.466 253.301,303.799 246.5,304.5C 245.022,304.762 243.689,304.429 242.5,303.5C 245.786,302.958 248.786,301.958 251.5,300.5C 255.076,299.515 258.742,298.848 262.5,298.5 Z"/></g>
<g><path style="opacity:0.19" fill="#e2e4f0" d="M 185.5,302.5 C 202.833,302.5 220.167,302.5 237.5,302.5C 232.833,303.167 228.167,303.833 223.5,304.5C 215.167,304.5 206.833,304.5 198.5,304.5C 195.15,304.665 191.817,304.498 188.5,304C 187.263,303.768 186.263,303.268 185.5,302.5 Z"/></g>
<g><path style="opacity:1" fill="#9d9cb6" d="M 251.5,300.5 C 248.786,301.958 245.786,302.958 242.5,303.5C 243.689,304.429 245.022,304.762 246.5,304.5C 245.081,305.451 243.415,305.784 241.5,305.5C 235.69,304.51 229.69,304.177 223.5,304.5C 228.167,303.833 232.833,303.167 237.5,302.5C 242.167,301.833 246.833,301.167 251.5,300.5 Z"/></g>
<g><path style="opacity:0.239" fill="#d7d6eb" d="M 144.5,301.5 C 147.127,302.092 149.794,302.425 152.5,302.5C 155.887,303.288 159.22,304.288 162.5,305.5C 156.722,305.473 151.056,304.64 145.5,303C 144.944,302.617 144.611,302.117 144.5,301.5 Z"/></g>
<g><path style="opacity:1" fill="#4e4a7c" d="M 160.5,300.5 C 165.737,301.817 171.07,302.483 176.5,302.5C 176.918,303.222 177.584,303.722 178.5,304C 184.331,304.71 189.998,305.543 195.5,306.5C 188.5,306.5 181.5,306.5 174.5,306.5C 170.702,305.517 166.702,305.183 162.5,305.5C 159.22,304.288 155.887,303.288 152.5,302.5C 155.698,303.036 158.365,302.369 160.5,300.5 Z"/></g>
<g><path style="opacity:0.992" fill="#6b6a90" d="M 176.5,302.5 C 176.833,302.5 177.167,302.5 177.5,302.5C 180.167,302.5 182.833,302.5 185.5,302.5C 186.263,303.268 187.263,303.768 188.5,304C 191.817,304.498 195.15,304.665 198.5,304.5C 198.842,305.338 199.508,305.672 200.5,305.5C 199.081,306.451 197.415,306.784 195.5,306.5C 189.998,305.543 184.331,304.71 178.5,304C 177.584,303.722 176.918,303.222 176.5,302.5 Z"/></g>
<g><path style="opacity:0.294" fill="#ceccde" d="M 266.5,300.5 C 266.833,300.5 267.167,300.5 267.5,300.5C 266.192,301.232 264.858,302.066 263.5,303C 254.504,305.166 245.504,306.666 236.5,307.5C 235.167,307.5 233.833,307.5 232.5,307.5C 232.5,307.167 232.5,306.833 232.5,306.5C 235.609,306.736 238.609,306.403 241.5,305.5C 243.415,305.784 245.081,305.451 246.5,304.5C 253.301,303.799 259.967,302.466 266.5,300.5 Z"/></g>
<g><path style="opacity:1" fill="#787799" d="M 198.5,304.5 C 206.833,304.5 215.167,304.5 223.5,304.5C 229.69,304.177 235.69,304.51 241.5,305.5C 238.609,306.403 235.609,306.736 232.5,306.5C 224.188,307.24 215.854,307.573 207.5,307.5C 205.721,305.656 203.388,304.99 200.5,305.5C 199.508,305.672 198.842,305.338 198.5,304.5 Z"/></g>
<g><path style="opacity:0.208" fill="#c8c6df" d="M 162.5,305.5 C 166.702,305.183 170.702,305.517 174.5,306.5C 174.5,306.833 174.5,307.167 174.5,307.5C 171.15,307.665 167.817,307.498 164.5,307C 163.584,306.722 162.918,306.222 162.5,305.5 Z"/></g>
<g><path style="opacity:1" fill="#716d92" d="M 200.5,305.5 C 203.388,304.99 205.721,305.656 207.5,307.5C 200.167,307.5 192.833,307.5 185.5,307.5C 182.167,307.5 178.833,307.5 175.5,307.5C 175.167,307.5 174.833,307.5 174.5,307.5C 174.5,307.167 174.5,306.833 174.5,306.5C 181.5,306.5 188.5,306.5 195.5,306.5C 197.415,306.784 199.081,306.451 200.5,305.5 Z"/></g>
<g><path style="opacity:0.765" fill="#9b98b9" d="M 232.5,306.5 C 232.5,306.833 232.5,307.167 232.5,307.5C 216.682,308.761 201.016,308.761 185.5,307.5C 192.833,307.5 200.167,307.5 207.5,307.5C 215.854,307.573 224.188,307.24 232.5,306.5 Z"/></g>
<g><path style="opacity:0.291" fill="#dbd8eb" d="M 175.5,307.5 C 178.833,307.5 182.167,307.5 185.5,307.5C 201.016,308.761 216.682,308.761 232.5,307.5C 233.833,307.5 235.167,307.5 236.5,307.5C 229.829,308.963 222.995,309.963 216,310.5C 202.441,310.379 188.941,309.379 175.5,307.5 Z"/></g>
</svg>
